<svg width="364" height="406" viewBox="0 0 364 406" fill="none" xmlns="http://www.w3.org/2000/svg">
<g clip-path="url(#clip0_1456_8775)">
<g opacity="0.5">
<path fill-rule="evenodd" clip-rule="evenodd" d="M291.5 500C291.5 500 382.675 456.925 436.75 388.889C486.22 326.647 499 246.523 499 97.223C499 88.4682 493.847 80.0584 485.166 72.1021L319.167 6.22295C319.167 6.22295 302.572 0 291.5 0C280.428 0 263.833 6.22295 263.833 6.22295L97.8333 72.1021C89.1524 80.0579 84 88.4673 84 97.2215C84 141.469 85.1225 179.641 87.9899 213.072L10.0854 156.212C9.13798 155.525 8.01791 155.112 6.84933 155.02C5.68075 154.928 4.50931 155.159 3.4649 155.689C2.42048 156.219 1.54389 157.026 0.932298 158.021C0.32071 159.016 -0.00197846 160.16 9.12671e-06 161.327V256.291C0.00365817 257.285 0.242092 258.264 0.696054 259.149C1.15002 260.033 1.80678 260.8 2.61331 261.386L104.55 335.788C105.497 336.474 106.617 336.887 107.786 336.979C108.954 337.071 110.126 336.84 111.17 336.31C112.215 335.78 113.091 334.973 113.703 333.978C113.744 333.91 113.785 333.841 113.824 333.772C122.288 354.104 132.941 372.144 146.25 388.889C200.325 456.925 291.5 500 291.5 500ZM133.724 277.396C142.29 314.963 155.372 342.471 174.363 366.365C197.963 396.058 230.669 421.365 258.745 439.675C271.53 448.013 282.959 454.645 291.5 459.34C300.041 454.645 311.47 448.012 324.255 439.675C352.331 421.365 385.037 396.058 408.637 366.365C449.093 315.464 462.732 248.166 463.028 102.146L306.405 39.988L306.354 39.9697C306.063 39.8654 305.578 39.6948 304.941 39.4798C303.648 39.0433 301.829 38.4591 299.785 37.8846C297.704 37.2994 295.668 36.8028 293.894 36.4702C292.476 36.2046 291.706 36.1354 291.5 36.1174C291.294 36.1354 290.523 36.2046 289.106 36.4702C287.332 36.8028 285.295 37.2994 283.214 37.8846C281.171 38.4591 279.352 39.0433 278.058 39.4798C277.421 39.6948 276.937 39.8654 276.646 39.9697L276.596 39.9879L119.972 102.146C120.012 121.954 120.298 140.313 120.862 157.38L218.353 228.536V161.327C218.351 160.16 218.674 159.016 219.286 158.021C219.897 157.026 220.774 156.219 221.818 155.689C222.863 155.159 224.034 154.928 225.203 155.02C226.372 155.112 227.491 155.525 228.439 156.212L330.375 230.613C331.185 231.199 331.844 231.967 332.301 232.854C332.757 233.742 332.997 234.724 333 235.72V330.672C333.003 331.839 332.681 332.984 332.07 333.978C331.459 334.974 330.583 335.781 329.538 336.311C328.494 336.841 327.323 337.072 326.155 336.98C324.986 336.888 323.866 336.475 322.919 335.788L223.808 263.46V330.672C223.81 331.839 223.489 332.984 222.878 333.978C222.267 334.974 221.39 335.781 220.346 336.311C219.302 336.841 218.131 337.072 216.962 336.98C215.794 336.888 214.674 336.475 213.727 335.788L133.724 277.396Z" fill="url(#paint0_linear_1456_8775)"/>
<path fill-rule="evenodd" clip-rule="evenodd" d="M291.5 500C291.5 500 382.675 456.925 436.75 388.889C486.22 326.647 499 246.523 499 97.223C499 88.4682 493.847 80.0584 485.166 72.1021L319.167 6.22295C319.167 6.22295 302.572 0 291.5 0C280.428 0 263.833 6.22295 263.833 6.22295L97.8333 72.1021C89.1524 80.0579 84 88.4673 84 97.2215C84 141.469 85.1225 179.641 87.9899 213.072L10.0854 156.212C9.13798 155.525 8.01791 155.112 6.84933 155.02C5.68075 154.928 4.50931 155.159 3.4649 155.689C2.42048 156.219 1.54389 157.026 0.932298 158.021C0.32071 159.016 -0.00197846 160.16 9.12671e-06 161.327V256.291C0.00365817 257.285 0.242092 258.264 0.696054 259.149C1.15002 260.033 1.80678 260.8 2.61331 261.386L104.55 335.788C105.497 336.474 106.617 336.887 107.786 336.979C108.954 337.071 110.126 336.84 111.17 336.31C112.215 335.78 113.091 334.973 113.703 333.978C113.744 333.91 113.785 333.841 113.824 333.772C122.288 354.104 132.941 372.144 146.25 388.889C200.325 456.925 291.5 500 291.5 500ZM133.724 277.396C142.29 314.963 155.372 342.471 174.363 366.365C197.963 396.058 230.669 421.365 258.745 439.675C271.53 448.013 282.959 454.645 291.5 459.34C300.041 454.645 311.47 448.012 324.255 439.675C352.331 421.365 385.037 396.058 408.637 366.365C449.093 315.464 462.732 248.166 463.028 102.146L306.405 39.988L306.354 39.9697C306.063 39.8654 305.578 39.6948 304.941 39.4798C303.648 39.0433 301.829 38.4591 299.785 37.8846C297.704 37.2994 295.668 36.8028 293.894 36.4702C292.476 36.2046 291.706 36.1354 291.5 36.1174C291.294 36.1354 290.523 36.2046 289.106 36.4702C287.332 36.8028 285.295 37.2994 283.214 37.8846C281.171 38.4591 279.352 39.0433 278.058 39.4798C277.421 39.6948 276.937 39.8654 276.646 39.9697L276.596 39.9879L119.972 102.146C120.012 121.954 120.298 140.313 120.862 157.38L218.353 228.536V161.327C218.351 160.16 218.674 159.016 219.286 158.021C219.897 157.026 220.774 156.219 221.818 155.689C222.863 155.159 224.034 154.928 225.203 155.02C226.372 155.112 227.491 155.525 228.439 156.212L330.375 230.613C331.185 231.199 331.844 231.967 332.301 232.854C332.757 233.742 332.997 234.724 333 235.72V330.672C333.003 331.839 332.681 332.984 332.07 333.978C331.459 334.974 330.583 335.781 329.538 336.311C328.494 336.841 327.323 337.072 326.155 336.98C324.986 336.888 323.866 336.475 322.919 335.788L223.808 263.46V330.672C223.81 331.839 223.489 332.984 222.878 333.978C222.267 334.974 221.39 335.781 220.346 336.311C219.302 336.841 218.131 337.072 216.962 336.98C215.794 336.888 214.674 336.475 213.727 335.788L133.724 277.396Z" fill="url(#paint1_radial_1456_8775)"/>
</g>
</g>
<defs>
<linearGradient id="paint0_linear_1456_8775" x1="249.5" y1="0" x2="597.794" y2="306.87" gradientUnits="userSpaceOnUse">
<stop stop-color="#38B2FF"/>
<stop offset="1" stop-color="#0F85FF"/>
</linearGradient>
<radialGradient id="paint1_radial_1456_8775" cx="0" cy="0" r="1" gradientUnits="userSpaceOnUse" gradientTransform="translate(353 -2.03336e-06) rotate(130.283) scale(545.968 303.53)">
<stop stop-color="#72D9FF"/>
<stop offset="1" stop-color="#65C4FF" stop-opacity="0"/>
</radialGradient>
<clipPath id="clip0_1456_8775">
<rect width="364" height="406" fill="white"/>
</clipPath>
</defs>
</svg>
