<svg viewBox="0 0 279 842" fill="none" xmlns="http://www.w3.org/2000/svg">
<g opacity="0.5">
<path d="M0 842C163.991 772.772 279 610.278 279 421.178C279 231.818 163.83 69.2922 0 0V207.834C60.8643 258.598 99.6836 335.188 99.6836 420.736C99.6836 506.37 60.9248 582.89 0 633.686V842Z" fill="url(#paint0_linear_104_8544)"/>
<path d="M0 842C163.991 772.772 279 610.278 279 421.178C279 231.818 163.83 69.2922 0 0V207.834C60.8643 258.598 99.6836 335.188 99.6836 420.736C99.6836 506.37 60.9248 582.89 0 633.686V842Z" fill="url(#paint1_radial_104_8544)"/>
</g>
<defs>
<linearGradient id="paint0_linear_104_8544" x1="139.5" y1="0" x2="560.3" y2="433.972" gradientUnits="userSpaceOnUse">
<stop stop-color="#38B2FF"/>
<stop offset="1" stop-color="#0F85FF"/>
</linearGradient>
<radialGradient id="paint1_radial_104_8544" cx="0" cy="0" r="1" gradientUnits="userSpaceOnUse" gradientTransform="translate(60.7956 -1.44052e-05) rotate(89.4718) scale(1022.47 128.704)">
<stop stop-color="#72D9FF"/>
<stop offset="1" stop-color="#65C4FF" stop-opacity="0"/>
</radialGradient>
</defs>
</svg>
