<svg width="24" height="24" viewBox="0 0 24 24" fill="none" xmlns="http://www.w3.org/2000/svg">
<mask id="mask0_766_1963" style="mask-type:alpha" maskUnits="userSpaceOnUse" x="0" y="0" width="24" height="24">
<rect width="24" height="24" fill="#D9D9D9"/>
</mask>
<g mask="url(#mask0_766_1963)">
<path d="M12 14.725L8.45 11.2H15.55L12 14.725ZM12 21.5C13.3167 21.5 14.554 21.25 15.712 20.75C16.8707 20.25 17.875 19.575 18.725 18.725C19.575 17.875 20.25 16.8707 20.75 15.712C21.25 14.554 21.5 13.3167 21.5 12C21.5 10.6833 21.25 9.44567 20.75 8.287C20.25 7.129 19.575 6.125 18.725 5.275C17.875 4.425 16.8707 3.75 15.712 3.25C14.554 2.75 13.3167 2.5 12 2.5C10.6833 2.5 9.44567 2.75 8.287 3.25C7.129 3.75 6.125 4.425 5.275 5.275C4.425 6.125 3.75 7.129 3.25 8.287C2.75 9.44567 2.5 10.6833 2.5 12C2.5 13.3167 2.75 14.554 3.25 15.712C3.75 16.8707 4.425 17.875 5.275 18.725C6.125 19.575 7.129 20.25 8.287 20.75C9.44567 21.25 10.6833 21.5 12 21.5ZM12 20C9.76667 20 7.875 19.225 6.325 17.675C4.775 16.125 4 14.2333 4 12C4 9.76667 4.775 7.875 6.325 6.325C7.875 4.775 9.76667 4 12 4C14.2333 4 16.125 4.775 17.675 6.325C19.225 7.875 20 9.76667 20 12C20 14.2333 19.225 16.125 17.675 17.675C16.125 19.225 14.2333 20 12 20Z" fill="#1A4C6C"/>
</g>
</svg>
