<svg width="328" height="260" viewBox="0 0 328 260" fill="none" xmlns="http://www.w3.org/2000/svg">
<path d="M152.148 260.002C88.5541 260.002 37.0011 208.214 37.0011 144.329C37.0011 80.4448 88.5541 28.6562 152.148 28.6562C215.742 28.6562 267.295 80.4448 267.295 144.329C267.295 208.214 215.742 260.002 152.148 260.002Z" fill="url(#paint0_radial_1437_10381)"/>
<path d="M152.559 258.91C89.3252 258.91 38.0638 207.414 38.0638 143.892C38.0638 80.3686 89.3252 28.873 152.559 28.873C215.793 28.873 267.055 80.3686 267.055 143.892C267.055 207.414 215.793 258.91 152.559 258.91Z" fill="url(#paint1_radial_1437_10381)"/>
<path d="M127.518 2.29834C84.6177 16.3888 48.3145 96.3582 48.3145 96.3582C48.3145 96.3582 115.005 42.3191 160.697 53.7576C206.39 65.1961 231.84 212.198 252.963 188.6C263.61 176.707 281.63 138.185 287.653 100.85C293.675 63.5159 292.102 16.7431 278.622 13.2917C251.456 6.3327 219.908 48.5321 169.238 46.5447C153.38 45.9177 155.127 42.3253 153.598 32.9933C150.69 15.5581 156.993 -7.38161 127.518 2.29834Z" fill="url(#paint2_linear_1437_10381)"/>
<path d="M152.569 28.8828C129.924 28.8828 107.787 35.6285 88.9587 48.2669C70.1301 60.9053 55.4549 78.8687 46.789 99.8856C38.1231 120.903 35.8557 144.029 40.2735 166.34C44.6914 188.652 55.596 209.146 71.6085 225.232C87.621 241.317 108.022 252.272 130.232 256.71C152.442 261.148 175.463 258.87 196.385 250.165C217.306 241.459 235.188 226.717 247.768 207.802C260.349 188.887 267.064 166.65 267.064 143.901C267.064 113.396 255.002 84.1411 233.53 62.5709C212.057 41.0008 182.935 28.8828 152.569 28.8828V28.8828Z" fill="url(#paint3_radial_1437_10381)"/>
<path opacity="0.647" d="M255.861 201.158C234.851 223.126 232.124 226.192 217.38 235.188C202.636 244.185 194.448 241.285 198.748 235.188C200.742 232.367 202.346 227.978 201.356 226.257C200.367 224.536 197.905 224.286 195.684 226.257C172.639 245.354 150.659 249.279 126.235 247.492C63.9975 242.476 46.8725 185.792 45.5963 185.111" stroke="#2FB6EF" stroke-width="0.5" stroke-linecap="round"/>
<path d="M145.715 224.223C118.239 224.223 86.1546 222.126 86.1546 230.841C86.1546 239.555 122.801 256.216 150.277 256.216C177.752 256.216 198.02 241.527 198.02 232.809C198.02 224.092 173.19 224.223 145.715 224.223Z" fill="url(#paint4_radial_1437_10381)"/>
<g opacity="0.518">
<path opacity="0.395" d="M249.747 114.159C249.747 114.159 245.042 64.3741 208.557 49.1802C172.073 33.9863 97.2853 31.6259 72.7367 62.393C48.1882 93.1601 28.6386 144.137 46.3596 170.553C64.0806 196.969 90.7979 163.49 121.912 165.487C153.026 167.484 173.527 192.273 219.392 183.06C265.256 173.847 249.747 114.159 249.747 114.159Z" fill="url(#paint5_linear_1437_10381)"/>
<path opacity="0.518" d="M250.785 126.497C251.821 109.845 242.092 59.6492 198.193 41.6905C154.295 23.7318 105.719 29.9605 77.051 56.6775C48.6706 83.1281 26.5279 131.682 44.9105 167.141C44.8605 167.075 45.079 167.376 45.3005 167.677C67.4994 197.639 94.5287 159.041 123.82 164.229C164.052 171.335 175.732 190.529 213.848 182.191C251.965 173.853 249.749 143.148 250.785 126.497Z" fill="url(#paint6_linear_1437_10381)"/>
</g>
<path d="M227.862 67.2523C207.146 40.2061 120.363 37.1247 83.6759 54.3624C46.0777 79.1767 34.3042 133.41 45.2944 159.19C56.3939 180.374 68.1642 177.387 76.6549 175.591C85.1457 173.795 96.8973 163.08 119.82 162.585C142.743 162.09 151.858 168.227 168.343 173.606C184.828 178.986 205.239 181.302 219.365 175.588C264.025 158.572 248.576 94.2985 227.862 67.2523Z" fill="url(#paint7_radial_1437_10381)"/>
<path d="M243.572 131.017C246.029 107.544 239.94 83.9704 226.432 64.6586C199.106 26.4842 108.903 26.8604 78.2697 59.0945C78.3196 59.035 78.0575 59.3359 77.8016 59.64C49.4055 93.385 37.214 134.349 56.9352 163.204C76.6564 192.059 92.8422 156.621 129.464 159.722C166.085 162.822 170.688 177.953 198.388 174.097C226.088 170.242 242.259 149.151 243.572 131.017Z" fill="url(#paint8_radial_1437_10381)"/>
<path opacity="0.782" d="M204.893 81.501C185.612 81.501 169.982 65.4062 169.982 45.5523C169.982 25.6983 185.612 9.60352 204.893 9.60352C224.174 9.60352 239.805 25.6983 239.805 45.5523C239.805 65.4062 224.174 81.501 204.893 81.501Z" fill="url(#paint9_radial_1437_10381)"/>
<path opacity="0.873" d="M150.905 40.6816C109.939 40.6816 84.8448 59.8347 78.3387 73.1603C71.7327 88.6363 105.268 101.655 150.902 101.931C190.219 102.169 225.121 87.8652 222.123 72.7465C218.306 58.5275 188.506 40.6816 150.905 40.6816Z" fill="url(#paint10_linear_1437_10381)"/>
<g filter="url(#filter0_d_1437_10381)">
<path d="M100.075 178.213C102.294 174.48 122.143 170.862 147.609 178.213C149.934 180.721 147.493 215.203 120.383 209.501C105.149 206.162 97.8565 181.947 100.075 178.213Z" fill="url(#paint11_linear_1437_10381)"/>
</g>
<path opacity="0.683" d="M143.199 200.377C139.38 206.804 132.237 212.013 120.364 209.521C114.688 207.915 109.815 204.236 106.702 199.205C109.364 202.92 124.271 212.951 143.199 200.377Z" fill="#8DD6FF"/>
<path d="M207.703 139.437C206.869 144.204 201.381 154.925 190.156 154.925C178.932 154.925 156.662 149.283 154.162 147.44C151.663 145.596 153.653 132.036 156.449 123.45C159.245 114.864 167.103 99.5381 187.22 103.92C207.338 108.303 208.526 134.672 207.703 139.437Z" fill="white"/>
<path d="M62.6641 139.434C63.3101 144.201 67.5476 154.922 76.2162 154.922C84.8848 154.922 102.088 149.28 104.016 147.436C105.945 145.593 104.409 132.033 102.247 123.447C100.085 114.861 94.0184 99.5383 78.4817 103.921C62.945 108.303 62.0213 134.666 62.6641 139.434Z" fill="white"/>
<path d="M274.745 138.674C290.422 117.12 297.437 15.0193 278.489 12.5711C257.161 10.9128 255.517 48.2784 261.723 73.2746C267.93 98.2707 268.37 96.6438 272.089 115.336C274.445 123.659 272.298 131.335 274.745 138.674Z" fill="url(#paint12_radial_1437_10381)"/>
<path d="M275.752 12.6234C270.837 11.4478 256.215 21.0871 258.902 52.9983C261.588 84.9096 268.519 97.3418 271.505 112.429C273.296 121.112 273.973 129.99 273.521 138.845" stroke="#D8EDFF" stroke-width="0.8" stroke-linecap="round"/>
<g filter="url(#filter1_d_1437_10381)">
<path d="M277.46 142.827C274.978 137.514 266.464 136.846 260.001 145.768C258.499 147.832 245.918 171.538 234.765 190.567C224.426 208.205 213.177 224.999 215.633 228.401C220.627 235.317 257.319 202.214 270.423 182.596C283.528 162.977 279.942 148.137 277.46 142.827Z" fill="url(#paint13_linear_1437_10381)"/>
</g>
<path d="M277.122 142.276C274.339 141.395 269.166 145.813 265.53 153.756C261.894 161.7 241.49 200.042 242.49 203.651C243.49 207.26 263.045 195.484 277.119 175.593C291.193 155.703 281.172 143.558 277.122 142.276Z" fill="url(#paint14_radial_1437_10381)"/>
<path opacity="0.35" d="M277.78 146.466C280.246 151.907 273.172 158.478 268.205 167.108C261.849 178.128 254.775 188.715 247.03 198.798C243.443 203.396 260.78 168.604 265.957 159.596C271.134 150.589 275.817 143.952 277.78 146.466Z" fill="url(#paint15_linear_1437_10381)"/>
<defs>
<filter id="filter0_d_1437_10381" x="97.6836" y="171.951" width="52.6016" height="40.1855" filterUnits="userSpaceOnUse" color-interpolation-filters="sRGB">
<feFlood flood-opacity="0" result="BackgroundImageFix"/>
<feColorMatrix in="SourceAlpha" type="matrix" values="0 0 0 0 0 0 0 0 0 0 0 0 0 0 0 0 0 0 127 0" result="hardAlpha"/>
<feOffset/>
<feGaussianBlur stdDeviation="1"/>
<feColorMatrix type="matrix" values="0 0 0 0 0.00784314 0 0 0 0 0.654902 0 0 0 0 1 0 0 0 0.776 0"/>
<feBlend mode="normal" in2="BackgroundImageFix" result="effect1_dropShadow_1437_10381"/>
<feBlend mode="normal" in="SourceGraphic" in2="effect1_dropShadow_1437_10381" result="shape"/>
</filter>
<filter id="filter1_d_1437_10381" x="211.291" y="135.924" width="72.5703" height="98.4121" filterUnits="userSpaceOnUse" color-interpolation-filters="sRGB">
<feFlood flood-opacity="0" result="BackgroundImageFix"/>
<feColorMatrix in="SourceAlpha" type="matrix" values="0 0 0 0 0 0 0 0 0 0 0 0 0 0 0 0 0 0 127 0" result="hardAlpha"/>
<feOffset dy="1"/>
<feGaussianBlur stdDeviation="2"/>
<feColorMatrix type="matrix" values="0 0 0 0 0.105882 0 0 0 0 0.666667 0 0 0 0 0.968627 0 0 0 0.627 0"/>
<feBlend mode="normal" in2="BackgroundImageFix" result="effect1_dropShadow_1437_10381"/>
<feBlend mode="normal" in="SourceGraphic" in2="effect1_dropShadow_1437_10381" result="shape"/>
</filter>
<radialGradient id="paint0_radial_1437_10381" cx="0" cy="0" r="1" gradientUnits="userSpaceOnUse" gradientTransform="translate(152.148 144.329) rotate(-180) scale(115.147 115.673)">
<stop stop-color="white"/>
<stop offset="0.695" stop-color="white"/>
<stop offset="1" stop-color="#F5F5F5"/>
</radialGradient>
<radialGradient id="paint1_radial_1437_10381" cx="0" cy="0" r="1" gradientUnits="userSpaceOnUse" gradientTransform="translate(152.559 143.892) rotate(-180) scale(114.495 115.018)">
<stop stop-color="white"/>
<stop offset="0.695" stop-color="white"/>
<stop offset="1" stop-color="#F5F5F5"/>
</radialGradient>
<linearGradient id="paint2_linear_1437_10381" x1="169.659" y1="118.137" x2="194.823" y2="-2.99064" gradientUnits="userSpaceOnUse">
<stop stop-color="#0B5B90"/>
<stop offset="0.269" stop-color="#65C4FF"/>
<stop offset="0.755" stop-color="white"/>
<stop offset="1" stop-color="white"/>
</linearGradient>
<radialGradient id="paint3_radial_1437_10381" cx="0" cy="0" r="1" gradientUnits="userSpaceOnUse" gradientTransform="translate(152.569 143.901) rotate(-180) scale(114.495 115.019)">
<stop stop-color="white"/>
<stop offset="0.665" stop-color="white"/>
<stop offset="1" stop-color="#BCE7FF"/>
</radialGradient>
<radialGradient id="paint4_radial_1437_10381" cx="0" cy="0" r="1" gradientUnits="userSpaceOnUse" gradientTransform="translate(144.735 248.688) rotate(171.339) scale(56.6095 16.2987)">
<stop stop-color="white"/>
<stop offset="0.685" stop-color="white" stop-opacity="0"/>
<stop offset="1" stop-color="white" stop-opacity="0"/>
</radialGradient>
<linearGradient id="paint5_linear_1437_10381" x1="145.896" y1="38.3066" x2="145.896" y2="185.105" gradientUnits="userSpaceOnUse">
<stop stop-color="#9DD2FF"/>
<stop offset="1" stop-color="#00A8FF"/>
</linearGradient>
<linearGradient id="paint6_linear_1437_10381" x1="144.521" y1="31.4922" x2="144.521" y2="184.252" gradientUnits="userSpaceOnUse">
<stop stop-color="#F2F9FF"/>
<stop offset="0.155" stop-color="#71C1FF"/>
<stop offset="0.649" stop-color="#6CC6FF"/>
<stop offset="1" stop-color="#D8F1FF"/>
</linearGradient>
<radialGradient id="paint7_radial_1437_10381" cx="0" cy="0" r="1" gradientUnits="userSpaceOnUse" gradientTransform="translate(184.62 78.2477) rotate(-180) scale(129.913 88.0158)">
<stop stop-color="#21BBF4"/>
<stop offset="0.837" stop-color="#58B2FF"/>
<stop offset="1" stop-color="#0065BC"/>
</radialGradient>
<radialGradient id="paint8_radial_1437_10381" cx="0" cy="0" r="1" gradientUnits="userSpaceOnUse" gradientTransform="translate(143.731 132.07) rotate(-171.431) scale(94.6702 69.1794)">
<stop stop-color="#B5EBFF"/>
<stop offset="0.673" stop-color="#009DFF"/>
<stop offset="0.906" stop-color="#11649D"/>
<stop offset="1" stop-color="#034B81"/>
</radialGradient>
<radialGradient id="paint9_radial_1437_10381" cx="0" cy="0" r="1" gradientUnits="userSpaceOnUse" gradientTransform="translate(210.4 50.1874) rotate(171.339) scale(35.3341 36.3764)">
<stop stop-color="white"/>
<stop offset="0.685" stop-color="white" stop-opacity="0"/>
<stop offset="1" stop-color="white" stop-opacity="0"/>
</radialGradient>
<linearGradient id="paint10_linear_1437_10381" x1="149.905" y1="40.6816" x2="149.905" y2="101.934" gradientUnits="userSpaceOnUse">
<stop stop-color="#D5F0FF" stop-opacity="0.867"/>
<stop offset="1" stop-color="#739EFF" stop-opacity="0"/>
</linearGradient>
<linearGradient id="paint11_linear_1437_10381" x1="123.985" y1="208.146" x2="123.985" y2="173.951" gradientUnits="userSpaceOnUse">
<stop stop-color="#33C0FF"/>
<stop offset="0.749" stop-color="#0075D6"/>
<stop offset="1" stop-color="#005FB2"/>
</linearGradient>
<radialGradient id="paint12_radial_1437_10381" cx="0" cy="0" r="1" gradientUnits="userSpaceOnUse" gradientTransform="translate(262.313 80.3497) rotate(5.21803) scale(17.2339 55.9967)">
<stop stop-color="#0166BA"/>
<stop offset="0.435639" stop-color="#2795F4"/>
<stop offset="1" stop-color="#93D5FF"/>
</radialGradient>
<linearGradient id="paint13_linear_1437_10381" x1="261.951" y1="164.855" x2="207.783" y2="175.35" gradientUnits="userSpaceOnUse">
<stop stop-color="#F5FCFF"/>
<stop offset="1" stop-color="#CCEFFF"/>
</linearGradient>
<radialGradient id="paint14_radial_1437_10381" cx="0" cy="0" r="1" gradientUnits="userSpaceOnUse" gradientTransform="translate(268.555 172.823) rotate(-143.005) scale(7.81397 23.3927)">
<stop stop-color="#72D9FF"/>
<stop offset="0.594479" stop-color="#009DFF"/>
<stop offset="0.852" stop-color="#0079DC"/>
<stop offset="1" stop-color="#006CC9"/>
</radialGradient>
<linearGradient id="paint15_linear_1437_10381" x1="279.557" y1="147.788" x2="267.193" y2="142.784" gradientUnits="userSpaceOnUse">
<stop stop-color="white"/>
<stop offset="0.266" stop-color="#F8FCFF"/>
<stop offset="1" stop-color="#2FA4FF"/>
</linearGradient>
</defs>
</svg>
