<svg width="220" height="228" viewBox="0 0 220 228" fill="none" xmlns="http://www.w3.org/2000/svg">
<g clip-path="url(#clip0_379_8835)">
<g filter="url(#filter0_d_379_8835)">
<path d="M80.8129 185.973C40.5183 175.217 16.6475 133.875 27.496 93.6316C38.3444 53.3883 79.8041 29.4835 120.099 40.2388C160.393 50.994 184.264 92.3365 173.416 132.58C162.567 172.823 121.108 196.728 80.8129 185.973Z" fill="url(#paint0_radial_379_8835)"/>
</g>
<g filter="url(#filter1_d_379_8835)">
<path d="M102.102 26.2861C72.1124 27.9276 35.0103 72.7854 35.0103 72.7854C35.0103 72.7854 63.7957 97.7376 91.8393 87.9539C119.883 78.1702 112.95 56.5904 113.576 50.363C114.709 38.7282 122.709 25.1555 102.102 26.2861Z" fill="url(#paint1_linear_379_8835)"/>
</g>
<g filter="url(#filter2_d_379_8835)">
<path d="M111.481 103.111C111.738 130.468 117.341 165.799 137.398 159.266C147.507 155.976 170.746 139.835 186.661 120.407C202.576 100.978 220.104 72.3074 213.471 65.842C200.098 52.8101 164.966 67.8245 136.373 49.836C127.423 44.206 111.225 75.7526 111.481 103.111Z" fill="url(#paint2_linear_379_8835)"/>
</g>
<path d="M169.843 136.447C185.949 129.332 223.713 73.4278 213.667 65.7783C201.998 57.7939 188.702 78.5561 184.001 94.8529C179.3 111.15 180.078 110.367 176.038 122.258C174.638 127.788 170.87 131.455 169.843 136.447Z" fill="url(#paint3_radial_379_8835)"/>
<path d="M213.462 65.8934C209.009 63.2261 198.071 63.2865 189.068 82.3557C180.065 101.425 179.928 110.817 176.654 120.405C174.811 125.946 172.265 131.231 169.079 136.13" stroke="#D8EDFF" stroke-width="0.800095" stroke-linecap="round"/>
<path d="M119.263 40.0257C104.772 36.1594 89.4504 36.6715 75.2349 41.4973C61.0194 46.323 48.5489 55.2458 39.4005 67.1371C30.252 79.0284 24.8364 93.3543 23.8385 108.303C22.8406 123.252 26.3053 138.152 33.7943 151.12C41.2834 164.087 52.4605 174.54 65.9122 181.155C79.364 187.771 94.4862 190.252 109.367 188.286C124.247 186.319 138.217 179.993 149.51 170.108C160.804 160.222 168.913 147.221 172.813 132.749C178.043 113.342 175.339 92.6699 165.296 75.2809C155.254 57.892 138.695 45.2103 119.263 40.0257V40.0257Z" fill="url(#paint4_radial_379_8835)"/>
<path opacity="0.647" d="M155.912 167.236C138.69 177.639 136.418 179.125 125.436 182.33C114.454 185.535 109.709 182.291 113.506 179.146C115.268 177.686 117.046 175.168 116.707 173.905C116.368 172.642 114.837 172.06 113.075 172.936C95.0455 181.159 80.2958 179.902 64.9638 174.592C25.9715 160.769 24.7295 121.744 24.0214 121.1" stroke="#2FB6EF" stroke-width="0.5" stroke-linecap="round"/>
<path d="M102.352 170.957C84.1361 170.966 62.8662 169.593 62.8586 175.327C62.851 181.061 87.1322 192.007 105.348 191.997C123.563 191.988 137.008 182.323 137.016 176.591C137.023 170.86 120.567 170.948 102.352 170.957Z" fill="url(#paint5_radial_379_8835)"/>
<g opacity="0.518">
<path opacity="0.395" d="M166.816 110.879C166.816 110.879 172.342 78.3913 151.601 62.4919C130.859 46.5926 83.3994 32.3208 62.4082 47.7149C41.4169 63.109 20.1554 92.2084 26.9663 112.047C33.7772 131.885 56.6225 115.14 76.1946 121.723C95.7667 128.306 104.632 147.581 135.565 149.547C166.497 151.513 166.816 110.879 166.816 110.879Z" fill="url(#paint6_linear_379_8835)"/>
<path opacity="0.518" d="M165.362 118.907C168.882 108.482 171.267 74.8811 146.254 55.9587C121.242 37.0363 89.0839 32.7076 66.1527 44.8168C43.4516 56.8055 20.9496 83.9246 26.6435 109.632C26.6237 109.582 26.7146 109.813 26.8017 110.041C35.8675 132.898 59.7868 112.949 77.6462 121.245C102.164 132.635 106.346 146.844 132.167 148.044C157.988 149.245 161.84 129.329 165.362 118.907Z" fill="url(#paint7_linear_379_8835)"/>
</g>
<path d="M160.866 77.2894C152.249 56.5402 97.2287 39.7649 70.7956 44.4704C42.4737 53.845 25.6329 86.3525 28.2504 104.636C31.716 120.015 39.763 120.124 45.5003 120.427C51.2376 120.73 60.6067 115.922 75.3584 119.519C90.1101 123.116 94.8959 128.574 104.526 134.819C114.155 141.064 126.816 146.015 136.838 144.791C168.342 141.583 169.484 98.0375 160.866 77.2894Z" fill="url(#paint8_radial_379_8835)"/>
<path d="M159.97 120.558C162.543 114.847 167.972 95.9421 160.387 75.401C149.448 46.4421 91.6464 31.2804 66.5239 46.5686C66.5654 46.539 66.346 46.6863 66.1306 46.8369C42.163 63.4644 27.3365 87.4491 35.0059 109.184C42.6753 130.918 59.1148 111.126 82.0215 119.349C104.928 127.571 105.268 137.991 123.66 140.264C142.051 142.538 156.02 131.866 159.97 120.558Z" fill="url(#paint9_radial_379_8835)"/>
<path opacity="0.782" d="M135.598 76.7226C123.26 73.4307 116.017 60.5228 119.42 47.8921C122.824 35.2613 135.585 27.6908 147.923 30.9827C160.262 34.2747 167.505 47.1826 164.101 59.8133C160.697 72.444 147.936 80.0146 135.598 76.7226Z" fill="url(#paint10_radial_379_8835)"/>
<path opacity="0.873" d="M105.725 46.5466C79.4209 41.4383 60.7239 53.6828 55.9131 63.7551C51.5556 72.7312 72.0467 84.0096 102.174 86.7905C128.134 89.1886 150.984 86.9956 150.91 75.4919C150.602 64.7588 131.102 51.4763 105.725 46.5466Z" fill="url(#paint11_linear_379_8835)"/>
<g filter="url(#filter3_d_379_8835)">
<path d="M58.5979 127.567C61.0482 125.193 76.8916 126.487 94.7697 137.22C96.0247 139.597 87.1331 165.177 67.6646 155.364C56.7518 149.754 56.1471 129.943 58.5979 127.567Z" fill="url(#paint12_linear_379_8835)"/>
</g>
<path opacity="0.683" d="M86.8915 153.099C82.6798 157.169 76.3091 159.715 67.7907 155.428C63.5531 153.296 60.276 148.5 59.1243 143.877C60.3943 147.206 69.9461 158.754 86.8915 153.099Z" fill="#8DD6FF"/>
<g filter="url(#filter4_d_379_8835)">
<path d="M132.262 124.786C130.201 127.64 123.944 120.263 115.304 117.629C106.664 114.995 97.4552 118.01 97.1942 116.922C96.9332 115.834 99.1379 114.999 104.604 113.431C110.07 111.863 117.489 112.384 123.997 115.111C130.506 117.838 134.321 121.928 132.262 124.786Z" fill="white"/>
</g>
<g filter="url(#filter5_d_379_8835)">
<path d="M39.597 98.339C39.1892 101.494 40.0668 109.071 45.6318 110.556C51.1967 112.041 63.2161 111.392 64.7761 110.536C66.336 109.681 67.683 100.763 67.7748 94.907C67.8666 89.0515 66.6106 78.2223 55.8767 78.3599C45.1428 78.4976 40.0047 95.1835 39.597 98.339Z" fill="white"/>
</g>
<g filter="url(#filter6_d_379_8835)">
<path d="M180.089 133.15C179.408 129.334 174.061 127.449 168.367 132.035C167.043 133.101 154.882 146.074 144.438 156.31C134.752 165.804 124.639 174.592 125.632 177.186C127.648 182.458 156.923 167.614 168.722 157.335C180.521 147.055 180.77 136.966 180.089 133.15Z" fill="url(#paint13_linear_379_8835)"/>
</g>
<path d="M179.612 133.48C177.983 132.445 173.911 134.374 170.227 138.799C166.542 143.225 146.909 164.121 146.931 166.587C146.953 169.052 161.483 164.904 173.899 154.66C186.314 144.417 181.984 134.986 179.612 133.48Z" fill="url(#paint14_radial_379_8835)"/>
<path opacity="0.35" d="M179.31 136.257C179.954 140.135 174.302 143.106 169.646 147.743C163.69 153.662 157.349 159.183 150.665 164.269C147.583 166.578 164.632 147.418 169.496 142.585C174.361 137.753 178.484 134.325 179.31 136.257Z" fill="url(#paint15_linear_379_8835)"/>
</g>
<defs>
<filter id="filter0_d_379_8835" x="9.87891" y="25.6621" width="181.154" height="180.887" filterUnits="userSpaceOnUse" color-interpolation-filters="sRGB">
<feFlood flood-opacity="0" result="BackgroundImageFix"/>
<feColorMatrix in="SourceAlpha" type="matrix" values="0 0 0 0 0 0 0 0 0 0 0 0 0 0 0 0 0 0 127 0" result="hardAlpha"/>
<feOffset dy="3"/>
<feGaussianBlur stdDeviation="7.5"/>
<feColorMatrix type="matrix" values="0 0 0 0 0.0627451 0 0 0 0 0.596078 0 0 0 0 1 0 0 0 0.15 0"/>
<feBlend mode="normal" in2="BackgroundImageFix" result="effect1_dropShadow_379_8835"/>
<feBlend mode="normal" in="SourceGraphic" in2="effect1_dropShadow_379_8835" result="shape"/>
</filter>
<filter id="filter1_d_379_8835" x="20.0098" y="14.2207" width="111.037" height="94.0078" filterUnits="userSpaceOnUse" color-interpolation-filters="sRGB">
<feFlood flood-opacity="0" result="BackgroundImageFix"/>
<feColorMatrix in="SourceAlpha" type="matrix" values="0 0 0 0 0 0 0 0 0 0 0 0 0 0 0 0 0 0 127 0" result="hardAlpha"/>
<feOffset dy="3"/>
<feGaussianBlur stdDeviation="7.5"/>
<feColorMatrix type="matrix" values="0 0 0 0 0.215686 0 0 0 0 0.65098 0 0 0 0 0.968627 0 0 0 0.15 0"/>
<feBlend mode="normal" in2="BackgroundImageFix" result="effect1_dropShadow_379_8835"/>
<feBlend mode="normal" in="SourceGraphic" in2="effect1_dropShadow_379_8835" result="shape"/>
</filter>
<filter id="filter2_d_379_8835" x="96.4785" y="37.1884" width="133.434" height="140.879" filterUnits="userSpaceOnUse" color-interpolation-filters="sRGB">
<feFlood flood-opacity="0" result="BackgroundImageFix"/>
<feColorMatrix in="SourceAlpha" type="matrix" values="0 0 0 0 0 0 0 0 0 0 0 0 0 0 0 0 0 0 127 0" result="hardAlpha"/>
<feOffset dy="3.01069"/>
<feGaussianBlur stdDeviation="7.5"/>
<feColorMatrix type="matrix" values="0 0 0 0 0.215686 0 0 0 0 0.65098 0 0 0 0 0.968627 0 0 0 0.15 0"/>
<feBlend mode="normal" in2="BackgroundImageFix" result="effect1_dropShadow_379_8835"/>
<feBlend mode="normal" in="SourceGraphic" in2="effect1_dropShadow_379_8835" result="shape"/>
</filter>
<filter id="filter3_d_379_8835" x="55.4036" y="124.55" width="41.4916" height="35.0541" filterUnits="userSpaceOnUse" color-interpolation-filters="sRGB">
<feFlood flood-opacity="0" result="BackgroundImageFix"/>
<feColorMatrix in="SourceAlpha" type="matrix" values="0 0 0 0 0 0 0 0 0 0 0 0 0 0 0 0 0 0 127 0" result="hardAlpha"/>
<feOffset/>
<feGaussianBlur stdDeviation="1.00424"/>
<feColorMatrix type="matrix" values="0 0 0 0 0.00784314 0 0 0 0 0.654902 0 0 0 0 1 0 0 0 0.776 0"/>
<feBlend mode="normal" in2="BackgroundImageFix" result="effect1_dropShadow_379_8835"/>
<feBlend mode="normal" in="SourceGraphic" in2="effect1_dropShadow_379_8835" result="shape"/>
</filter>
<filter id="filter4_d_379_8835" x="93.1569" y="108.538" width="43.6824" height="20.9109" filterUnits="userSpaceOnUse" color-interpolation-filters="sRGB">
<feFlood flood-opacity="0" result="BackgroundImageFix"/>
<feColorMatrix in="SourceAlpha" type="matrix" values="0 0 0 0 0 0 0 0 0 0 0 0 0 0 0 0 0 0 127 0" result="hardAlpha"/>
<feOffset/>
<feGaussianBlur stdDeviation="2.00848"/>
<feColorMatrix type="matrix" values="0 0 0 0 1 0 0 0 0 1 0 0 0 0 1 0 0 0 1 0"/>
<feBlend mode="normal" in2="BackgroundImageFix" result="effect1_dropShadow_379_8835"/>
<feBlend mode="normal" in="SourceGraphic" in2="effect1_dropShadow_379_8835" result="shape"/>
</filter>
<filter id="filter5_d_379_8835" x="33.4843" y="72.3339" width="40.3204" height="45.1329" filterUnits="userSpaceOnUse" color-interpolation-filters="sRGB">
<feFlood flood-opacity="0" result="BackgroundImageFix"/>
<feColorMatrix in="SourceAlpha" type="matrix" values="0 0 0 0 0 0 0 0 0 0 0 0 0 0 0 0 0 0 127 0" result="hardAlpha"/>
<feOffset/>
<feGaussianBlur stdDeviation="3.01272"/>
<feColorMatrix type="matrix" values="0 0 0 0 1 0 0 0 0 1 0 0 0 0 1 0 0 0 1 0"/>
<feBlend mode="normal" in2="BackgroundImageFix" result="effect1_dropShadow_379_8835"/>
<feBlend mode="normal" in="SourceGraphic" in2="effect1_dropShadow_379_8835" result="shape"/>
</filter>
<filter id="filter6_d_379_8835" x="121.547" y="126.331" width="62.7742" height="56.9753" filterUnits="userSpaceOnUse" color-interpolation-filters="sRGB">
<feFlood flood-opacity="0" result="BackgroundImageFix"/>
<feColorMatrix in="SourceAlpha" type="matrix" values="0 0 0 0 0 0 0 0 0 0 0 0 0 0 0 0 0 0 127 0" result="hardAlpha"/>
<feOffset dy="1.00424"/>
<feGaussianBlur stdDeviation="2.00848"/>
<feColorMatrix type="matrix" values="0 0 0 0 0.105882 0 0 0 0 0.666667 0 0 0 0 0.968627 0 0 0 0.627 0"/>
<feBlend mode="normal" in2="BackgroundImageFix" result="effect1_dropShadow_379_8835"/>
<feBlend mode="normal" in="SourceGraphic" in2="effect1_dropShadow_379_8835" result="shape"/>
</filter>
<radialGradient id="paint0_radial_379_8835" cx="0" cy="0" r="1" gradientUnits="userSpaceOnUse" gradientTransform="translate(100.456 113.106) rotate(-165.055) scale(75.5141 75.4679)">
<stop stop-color="white"/>
<stop offset="0.695" stop-color="white"/>
<stop offset="1" stop-color="#F5F5F5"/>
</radialGradient>
<linearGradient id="paint1_linear_379_8835" x1="47.5964" y1="63.3432" x2="143.748" y2="7.33759" gradientUnits="userSpaceOnUse">
<stop stop-color="#0B5B90"/>
<stop offset="0.277" stop-color="#65C4FF"/>
<stop offset="0.674" stop-color="white"/>
<stop offset="1"/>
</linearGradient>
<linearGradient id="paint2_linear_379_8835" x1="139.964" y1="124.24" x2="199.22" y2="62.6114" gradientUnits="userSpaceOnUse">
<stop stop-color="#0B5B90"/>
<stop offset="0.269" stop-color="#65C4FF"/>
<stop offset="0.755" stop-color="white"/>
<stop offset="1" stop-color="white"/>
</linearGradient>
<radialGradient id="paint3_radial_379_8835" cx="0" cy="0" r="1" gradientUnits="userSpaceOnUse" gradientTransform="translate(181.81 107.527) rotate(16.1899) scale(28.8733 64.3863)">
<stop stop-color="#0166BA"/>
<stop offset="0.3" stop-color="#2795F4"/>
<stop offset="1" stop-color="#93D5FF"/>
</radialGradient>
<radialGradient id="paint4_radial_379_8835" cx="0" cy="0" r="1" gradientUnits="userSpaceOnUse" gradientTransform="translate(99.5453 113.2) rotate(-165.061) scale(75.8309 75.7845)">
<stop stop-color="white"/>
<stop offset="0.665" stop-color="white"/>
<stop offset="1" stop-color="#BCE7FF"/>
</radialGradient>
<radialGradient id="paint5_radial_379_8835" cx="0" cy="0" r="1" gradientUnits="userSpaceOnUse" gradientTransform="translate(99.6245 179.663) rotate(175.681) scale(30.7547 8.78513)">
<stop stop-color="white"/>
<stop offset="0.685" stop-color="white" stop-opacity="0"/>
<stop offset="1" stop-color="white" stop-opacity="0"/>
</radialGradient>
<linearGradient id="paint6_linear_379_8835" x1="113.364" y1="44.8731" x2="88.4259" y2="138.368" gradientUnits="userSpaceOnUse">
<stop stop-color="#9DD2FF"/>
<stop offset="1" stop-color="#00A8FF"/>
</linearGradient>
<linearGradient id="paint7_linear_379_8835" x1="113.658" y1="40.3072" x2="87.7085" y2="137.591" gradientUnits="userSpaceOnUse">
<stop stop-color="#F2F9FF"/>
<stop offset="0.155" stop-color="#71C1FF"/>
<stop offset="0.649" stop-color="#6CC6FF"/>
<stop offset="1" stop-color="#D8F1FF"/>
</linearGradient>
<radialGradient id="paint8_radial_379_8835" cx="0" cy="0" r="1" gradientUnits="userSpaceOnUse" gradientTransform="translate(112.354 90.7694) rotate(175.924) scale(90.4855 60.9112)">
<stop stop-color="#21BBF4"/>
<stop offset="0.837" stop-color="#58B2FF"/>
<stop offset="1" stop-color="#0065BC"/>
</radialGradient>
<radialGradient id="paint9_radial_379_8835" cx="0" cy="0" r="1" gradientUnits="userSpaceOnUse" gradientTransform="translate(90.3409 110.431) rotate(-168.471) scale(69.0582 50.1846)">
<stop stop-color="#B5EBFF"/>
<stop offset="0.673" stop-color="#009DFF"/>
<stop offset="0.906" stop-color="#11649D"/>
<stop offset="1" stop-color="#034B81"/>
</radialGradient>
<radialGradient id="paint10_radial_379_8835" cx="0" cy="0" r="1" gradientUnits="userSpaceOnUse" gradientTransform="translate(144.545 57.8213) rotate(-173.675) scale(23.4076 23.9614)">
<stop stop-color="white"/>
<stop offset="0.685" stop-color="white" stop-opacity="0"/>
<stop offset="1" stop-color="white" stop-opacity="0"/>
</radialGradient>
<linearGradient id="paint11_linear_379_8835" x1="105.31" y1="46.1352" x2="101.805" y2="86.7631" gradientUnits="userSpaceOnUse">
<stop stop-color="#D5F0FF" stop-opacity="0.867"/>
<stop offset="1" stop-color="#739EFF" stop-opacity="0"/>
</linearGradient>
<linearGradient id="paint12_linear_379_8835" x1="70.6823" y1="155.069" x2="77.5918" y2="129.179" gradientUnits="userSpaceOnUse">
<stop stop-color="#33C0FF"/>
<stop offset="0.695" stop-color="#0D69AF"/>
<stop offset="1" stop-color="#004C85"/>
</linearGradient>
<linearGradient id="paint13_linear_379_8835" x1="166.333" y1="144.557" x2="129.724" y2="141.955" gradientUnits="userSpaceOnUse">
<stop stop-color="#F5FCFF"/>
<stop offset="1" stop-color="#CCEFFF"/>
</linearGradient>
<radialGradient id="paint14_radial_379_8835" cx="0" cy="0" r="1" gradientUnits="userSpaceOnUse" gradientTransform="translate(173.125 148.493) rotate(43.5037) scale(5.37525 13.3513)">
<stop stop-color="#72D9FF"/>
<stop offset="0.587" stop-color="#009DFF"/>
<stop offset="0.852" stop-color="#0079DC"/>
<stop offset="1" stop-color="#006CC9"/>
</radialGradient>
<linearGradient id="paint15_linear_379_8835" x1="180.22" y1="137.401" x2="173.202" y2="132.07" gradientUnits="userSpaceOnUse">
<stop stop-color="white"/>
<stop offset="0.266" stop-color="#F8FCFF"/>
<stop offset="1" stop-color="#2FA4FF"/>
</linearGradient>
<clipPath id="clip0_379_8835">
<rect width="220" height="228" fill="white"/>
</clipPath>
</defs>
</svg>
