<svg width="197" height="190" viewBox="0 0 197 190" fill="none" xmlns="http://www.w3.org/2000/svg">
<g filter="url(#filter0_d_9956_170615)">
<path d="M77.6379 147.382C47.688 137.766 30.3589 105.212 38.9321 74.6699C47.5053 44.1278 78.7345 27.1636 108.684 36.7793C138.634 46.395 155.963 78.9493 147.39 109.491C138.817 140.033 107.588 156.998 77.6379 147.382Z" fill="url(#paint0_radial_9956_170615)"/>
</g>
<g filter="url(#filter1_d_9956_170615)">
<path d="M96.1056 25.3397C73.7088 25.5914 45.4943 58.7802 45.4943 58.7802C45.4943 58.7802 66.6785 78.9035 87.7195 72.3358C108.76 65.768 103.843 48.9685 104.383 44.2089C105.366 35.3152 111.495 25.1646 96.1056 25.3397Z" fill="url(#paint1_linear_9956_170615)"/>
</g>
<g filter="url(#filter2_d_9956_170615)">
<path d="M101.363 83.9869C101.314 105.162 105.187 132.701 120.216 128.376C127.792 126.199 145.282 114.555 157.334 100.103C169.385 85.6497 180.576 64.9856 175.681 59.7422C165.812 49.1732 141.6 58.6314 120.413 43.674C113.782 38.9927 101.412 62.8108 101.363 83.9869Z" fill="url(#paint2_linear_9956_170615)"/>
</g>
<path d="M144.272 111.483C156.484 106.529 185.451 64.3318 177.937 57.9971C169.202 51.3414 158.994 67.0396 155.308 79.5731C151.622 92.1065 152.217 91.5253 149.067 100.647C147.963 104.908 145.09 107.628 144.272 111.483Z" fill="url(#paint3_radial_9956_170615)"/>
<path d="M176.903 57.2672C175.083 55.386 166.314 55.4897 159.329 70.0614C152.345 84.6332 152.162 91.9685 149.599 99.3417C148.155 103.605 146.181 107.641 143.725 111.353" stroke="#D8EDFF" stroke-width="0.800095" stroke-linecap="round"/>
<path d="M108.035 36.5654C97.2574 33.1149 85.8097 33.001 75.1397 36.238C64.4697 39.4751 55.0566 45.9177 48.0908 54.7512C41.1249 63.5847 36.9192 74.4123 36.0055 85.8648C35.0918 97.3173 37.5111 108.88 42.9574 119.092C48.4038 129.303 56.6326 137.704 66.6033 143.232C76.5739 148.761 87.8387 151.168 98.973 150.15C110.107 149.132 120.611 144.734 129.156 137.513C137.701 130.292 143.903 120.571 146.979 109.58C151.103 94.8426 149.317 78.8703 142.013 65.1773C134.71 51.4843 122.488 41.1923 108.035 36.5654V36.5654Z" fill="url(#paint4_radial_9956_170615)"/>
<path opacity="0.647" d="M133.177 135.854C120.299 143.163 118.599 144.213 110.425 146.279C102.251 148.345 98.7698 145.737 101.618 143.482C102.94 142.435 104.286 140.588 104.048 139.621C103.811 138.655 102.683 138.164 101.367 138.77C87.9149 144.403 76.9975 142.971 65.693 138.454C36.9471 126.726 36.4551 97.1637 35.9374 96.6527" stroke="#2FB6EF" stroke-width="0.5" stroke-linecap="round"/>
<path d="M93.2024 137.371C79.7021 136.786 63.9532 135.082 63.8841 139.314C63.815 143.546 81.6897 152.413 95.19 152.998C108.69 153.582 118.762 146.885 118.831 142.655C118.9 138.425 106.703 137.956 93.2024 137.371Z" fill="url(#paint5_radial_9956_170615)"/>
<g opacity="0.518">
<path opacity="0.395" d="M142.875 92.4343C142.875 92.4343 147.31 67.8163 132.015 54.9546C116.72 42.0929 81.5051 29.5467 65.7172 40.574C49.9292 51.6013 33.8057 73.0854 38.6848 88.4717C43.564 103.858 60.7463 91.8631 75.2617 97.5697C89.7771 103.276 96.1924 118.304 119.216 120.879C142.239 123.453 142.875 92.4343 142.875 92.4343Z" fill="url(#paint6_linear_9956_170615)"/>
<path opacity="0.518" d="M141.76 98.5011C144.486 90.6578 146.592 65.0664 128.139 49.7394C109.686 34.4124 85.765 29.9881 68.5583 38.4441C51.5243 46.8161 34.4902 66.7559 38.481 86.5966C38.4667 86.5571 38.5322 86.7369 38.5948 86.914C45.1262 104.694 63.1461 90.2816 76.3732 97.2409C94.5317 106.796 97.5084 117.797 116.738 119.611C135.968 121.425 139.034 106.342 141.76 98.5011Z" fill="url(#paint7_linear_9956_170615)"/>
</g>
<path d="M138.759 66.5832C132.546 50.4505 91.7422 35.7424 72.0139 38.4172C50.8334 44.5895 37.9747 68.8127 39.7443 82.8561C42.1738 94.7116 48.1645 95.0737 52.4336 95.5037C56.7026 95.9337 63.726 92.5893 74.6749 95.8458C85.6238 99.1022 89.1337 103.433 96.2428 108.532C103.352 113.631 112.731 117.849 120.205 117.262C143.694 115.905 144.972 82.7149 138.759 66.5832Z" fill="url(#paint8_radial_9956_170615)"/>
<path d="M137.732 99.5335C139.706 95.2598 143.936 81.0058 138.487 65.0504C130.621 42.5479 87.7038 28.9598 68.8353 39.7676C68.8665 39.7464 68.7017 39.8513 68.5396 39.9589C50.5185 51.8299 39.2359 69.6385 44.7364 86.5087C50.237 103.379 62.6803 88.829 79.6666 95.9054C96.6529 102.982 96.804 110.953 110.485 113.328C124.165 115.704 134.678 108.035 137.732 99.5335Z" fill="url(#paint9_radial_9956_170615)"/>
<path opacity="0.782" d="M120.195 64.4032C111.016 61.4649 105.752 51.3051 108.437 41.7107C111.122 32.1163 120.739 26.7205 129.917 29.6588C139.096 32.5971 144.36 42.7569 141.675 52.3513C138.99 61.9457 129.373 67.3415 120.195 64.4032Z" fill="url(#paint10_radial_9956_170615)"/>
<path opacity="0.873" d="M98.3021 41.0489C78.7805 36.3441 64.7325 44.9704 61.0429 52.4091C57.7026 59.036 72.831 68.2046 95.223 71.2784C114.518 73.9285 131.549 73.0159 131.618 64.3396C131.505 56.2366 117.136 45.589 98.3021 41.0489Z" fill="url(#paint11_linear_9956_170615)"/>
<g filter="url(#filter3_d_9956_170615)">
<path d="M61.5911 102.352C63.4414 100.625 75.2347 102.172 88.4475 111.004C89.3584 112.864 82.4702 132.094 68.0628 123.91C59.988 119.239 59.7404 104.081 61.5911 102.352Z" fill="url(#paint12_linear_9956_170615)"/>
</g>
<path opacity="0.683" d="M82.2598 122.968C79.0989 125.895 74.3517 127.597 68.0766 124.068C64.9551 122.313 62.5706 118.581 61.7604 115.053C62.6706 117.609 69.6433 126.652 82.2598 122.968Z" fill="#8DD6FF"/>
<g filter="url(#filter4_d_9956_170615)">
<path d="M116.558 101.845C115.002 103.919 110.443 98.1607 104.07 95.8851C97.6972 93.6095 90.8471 95.5592 90.6647 94.7328C90.4822 93.9063 92.1234 93.3545 96.1872 92.3633C100.251 91.3722 105.741 92.0178 110.533 94.2905C115.326 96.5632 118.111 99.7674 116.558 101.845Z" fill="white"/>
</g>
<g filter="url(#filter5_d_9956_170615)">
<path d="M48.3036 79.111C47.965 81.5226 48.5421 87.3787 52.6927 88.7168C56.8432 90.0549 65.8484 89.9811 67.0253 89.3784C68.2021 88.7757 69.3046 81.967 69.4351 77.4685C69.5656 72.97 68.7395 64.6001 60.7021 64.3265C52.6648 64.053 48.6421 76.6995 48.3036 79.111Z" fill="white"/>
</g>
<g filter="url(#filter6_d_9956_170615)">
<path d="M151.657 109.486C151.195 106.484 147.224 104.83 142.916 108.215C141.913 109.001 132.672 118.712 124.747 126.345C117.396 133.424 109.735 139.938 110.445 141.997C111.886 146.181 133.933 135.596 142.872 127.976C151.81 120.355 152.119 112.488 151.657 109.486Z" fill="url(#paint13_linear_9956_170615)"/>
</g>
<path d="M151.262 109.599C150.056 108.736 146.991 110.105 144.186 113.434C141.38 116.764 126.463 132.412 126.451 134.337C126.439 136.263 137.347 133.514 146.745 125.937C156.143 118.36 153.017 110.854 151.262 109.599Z" fill="url(#paint14_radial_9956_170615)"/>
<path opacity="0.35" d="M151.066 111.728C151.503 114.795 147.235 116.937 143.693 120.422C139.163 124.868 134.349 128.989 129.283 132.757C126.947 134.466 139.942 119.996 143.642 116.366C147.342 112.735 150.47 110.182 151.066 111.728Z" fill="url(#paint15_linear_9956_170615)"/>
<defs>
<filter id="filter0_d_9956_170615" x="0.58683" y="0.947819" width="185.149" height="188.291" filterUnits="userSpaceOnUse" color-interpolation-filters="sRGB">
<feFlood flood-opacity="0" result="BackgroundImageFix"/>
<feColorMatrix in="SourceAlpha" type="matrix" values="0 0 0 0 0 0 0 0 0 0 0 0 0 0 0 0 0 0 127 0" result="hardAlpha"/>
<feOffset dy="3.01272"/>
<feGaussianBlur stdDeviation="18.0763"/>
<feColorMatrix type="matrix" values="0 0 0 0 0.0627451 0 0 0 0 0.596078 0 0 0 0 1 0 0 0 0.282 0"/>
<feBlend mode="normal" in2="BackgroundImageFix" result="effect1_dropShadow_9956_170615"/>
<feBlend mode="normal" in="SourceGraphic" in2="effect1_dropShadow_9956_170615" result="shape"/>
</filter>
<filter id="filter1_d_9956_170615" x="25.4096" y="8.26537" width="101.087" height="88.4854" filterUnits="userSpaceOnUse" color-interpolation-filters="sRGB">
<feFlood flood-opacity="0" result="BackgroundImageFix"/>
<feColorMatrix in="SourceAlpha" type="matrix" values="0 0 0 0 0 0 0 0 0 0 0 0 0 0 0 0 0 0 127 0" result="hardAlpha"/>
<feOffset dy="3.01272"/>
<feGaussianBlur stdDeviation="10.0424"/>
<feColorMatrix type="matrix" values="0 0 0 0 0.215686 0 0 0 0 0.65098 0 0 0 0 0.968627 0 0 0 0.243 0"/>
<feBlend mode="normal" in2="BackgroundImageFix" result="effect1_dropShadow_9956_170615"/>
<feBlend mode="normal" in="SourceGraphic" in2="effect1_dropShadow_9956_170615" result="shape"/>
</filter>
<filter id="filter2_d_9956_170615" x="81.2913" y="26.0182" width="115.639" height="125.893" filterUnits="userSpaceOnUse" color-interpolation-filters="sRGB">
<feFlood flood-opacity="0" result="BackgroundImageFix"/>
<feColorMatrix in="SourceAlpha" type="matrix" values="0 0 0 0 0 0 0 0 0 0 0 0 0 0 0 0 0 0 127 0" result="hardAlpha"/>
<feOffset dy="3.01069"/>
<feGaussianBlur stdDeviation="10.0356"/>
<feColorMatrix type="matrix" values="0 0 0 0 0.215686 0 0 0 0 0.65098 0 0 0 0 0.968627 0 0 0 0.243 0"/>
<feBlend mode="normal" in2="BackgroundImageFix" result="effect1_dropShadow_9956_170615"/>
<feBlend mode="normal" in="SourceGraphic" in2="effect1_dropShadow_9956_170615" result="shape"/>
</filter>
<filter id="filter3_d_9956_170615" x="58.637" y="99.7203" width="31.8988" height="28.2158" filterUnits="userSpaceOnUse" color-interpolation-filters="sRGB">
<feFlood flood-opacity="0" result="BackgroundImageFix"/>
<feColorMatrix in="SourceAlpha" type="matrix" values="0 0 0 0 0 0 0 0 0 0 0 0 0 0 0 0 0 0 127 0" result="hardAlpha"/>
<feOffset/>
<feGaussianBlur stdDeviation="1.00424"/>
<feColorMatrix type="matrix" values="0 0 0 0 0.00784314 0 0 0 0 0.654902 0 0 0 0 1 0 0 0 0.776 0"/>
<feBlend mode="normal" in2="BackgroundImageFix" result="effect1_dropShadow_9956_170615"/>
<feBlend mode="normal" in="SourceGraphic" in2="effect1_dropShadow_9956_170615" result="shape"/>
</filter>
<filter id="filter4_d_9956_170615" x="86.6342" y="87.896" width="34.3723" height="18.4088" filterUnits="userSpaceOnUse" color-interpolation-filters="sRGB">
<feFlood flood-opacity="0" result="BackgroundImageFix"/>
<feColorMatrix in="SourceAlpha" type="matrix" values="0 0 0 0 0 0 0 0 0 0 0 0 0 0 0 0 0 0 127 0" result="hardAlpha"/>
<feOffset/>
<feGaussianBlur stdDeviation="2.00848"/>
<feColorMatrix type="matrix" values="0 0 0 0 1 0 0 0 0 1 0 0 0 0 1 0 0 0 1 0"/>
<feBlend mode="normal" in2="BackgroundImageFix" result="effect1_dropShadow_9956_170615"/>
<feBlend mode="normal" in="SourceGraphic" in2="effect1_dropShadow_9956_170615" result="shape"/>
</filter>
<filter id="filter5_d_9956_170615" x="42.1965" y="58.2967" width="33.276" height="37.5212" filterUnits="userSpaceOnUse" color-interpolation-filters="sRGB">
<feFlood flood-opacity="0" result="BackgroundImageFix"/>
<feColorMatrix in="SourceAlpha" type="matrix" values="0 0 0 0 0 0 0 0 0 0 0 0 0 0 0 0 0 0 127 0" result="hardAlpha"/>
<feOffset/>
<feGaussianBlur stdDeviation="3.01272"/>
<feColorMatrix type="matrix" values="0 0 0 0 1 0 0 0 0 1 0 0 0 0 1 0 0 0 1 0"/>
<feBlend mode="normal" in2="BackgroundImageFix" result="effect1_dropShadow_9956_170615"/>
<feBlend mode="normal" in="SourceGraphic" in2="effect1_dropShadow_9956_170615" result="shape"/>
</filter>
<filter id="filter6_d_9956_170615" x="106.382" y="103.322" width="49.4228" height="44.6436" filterUnits="userSpaceOnUse" color-interpolation-filters="sRGB">
<feFlood flood-opacity="0" result="BackgroundImageFix"/>
<feColorMatrix in="SourceAlpha" type="matrix" values="0 0 0 0 0 0 0 0 0 0 0 0 0 0 0 0 0 0 127 0" result="hardAlpha"/>
<feOffset dy="1.00424"/>
<feGaussianBlur stdDeviation="2.00848"/>
<feColorMatrix type="matrix" values="0 0 0 0 0.105882 0 0 0 0 0.666667 0 0 0 0 0.968627 0 0 0 0.627 0"/>
<feBlend mode="normal" in2="BackgroundImageFix" result="effect1_dropShadow_9956_170615"/>
<feBlend mode="normal" in="SourceGraphic" in2="effect1_dropShadow_9956_170615" result="shape"/>
</filter>
<radialGradient id="paint0_radial_9956_170615" cx="0" cy="0" r="1" gradientUnits="userSpaceOnUse" gradientTransform="translate(93.1611 92.0806) rotate(-162.2) scale(56.9554 57.3994)">
<stop stop-color="white"/>
<stop offset="0.695" stop-color="white"/>
<stop offset="1" stop-color="#F5F5F5"/>
</radialGradient>
<linearGradient id="paint1_linear_9956_170615" x1="54.9973" y1="51.9549" x2="127.768" y2="12.8718" gradientUnits="userSpaceOnUse">
<stop stop-color="#0B5B90"/>
<stop offset="0.277" stop-color="#65C4FF"/>
<stop offset="0.674" stop-color="white"/>
<stop offset="1"/>
</linearGradient>
<linearGradient id="paint2_linear_9956_170615" x1="122.44" y1="101.37" x2="168.8" y2="57.5178" gradientUnits="userSpaceOnUse">
<stop stop-color="#0B5B90"/>
<stop offset="0.269" stop-color="#65C4FF"/>
<stop offset="0.755" stop-color="white"/>
<stop offset="1" stop-color="white"/>
</linearGradient>
<radialGradient id="paint3_radial_9956_170615" cx="0" cy="0" r="1" gradientUnits="userSpaceOnUse" gradientTransform="translate(153.547 89.3747) rotate(19.2943) scale(22.0908 49.5284)">
<stop stop-color="#0166BA"/>
<stop offset="0.3" stop-color="#2795F4"/>
<stop offset="1" stop-color="#93D5FF"/>
</radialGradient>
<radialGradient id="paint4_radial_9956_170615" cx="0" cy="0" r="1" gradientUnits="userSpaceOnUse" gradientTransform="translate(92.4854 92.1345) rotate(-162.248) scale(57.2179 57.6644)">
<stop stop-color="white"/>
<stop offset="0.665" stop-color="white"/>
<stop offset="1" stop-color="#BCE7FF"/>
</radialGradient>
<radialGradient id="paint5_radial_9956_170615" cx="0" cy="0" r="1" gradientUnits="userSpaceOnUse" gradientTransform="translate(91.0849 143.708) rotate(178.203) scale(22.7658 6.49638)">
<stop stop-color="white"/>
<stop offset="0.685" stop-color="white" stop-opacity="0"/>
<stop offset="1" stop-color="white" stop-opacity="0"/>
</radialGradient>
<linearGradient id="paint6_linear_9956_170615" x1="103.704" y1="40.1725" x2="81.3465" y2="109.786" gradientUnits="userSpaceOnUse">
<stop stop-color="#9DD2FF"/>
<stop offset="1" stop-color="#00A8FF"/>
</linearGradient>
<linearGradient id="paint7_linear_9956_170615" x1="104.002" y1="36.6482" x2="80.7217" y2="109.12" gradientUnits="userSpaceOnUse">
<stop stop-color="#F2F9FF"/>
<stop offset="0.155" stop-color="#71C1FF"/>
<stop offset="0.649" stop-color="#6CC6FF"/>
<stop offset="1" stop-color="#D8F1FF"/>
</linearGradient>
<radialGradient id="paint8_radial_9956_170615" cx="0" cy="0" r="1" gradientUnits="userSpaceOnUse" gradientTransform="translate(102.504 75.1887) rotate(178.484) scale(67.2919 46.5678)">
<stop stop-color="#21BBF4"/>
<stop offset="0.837" stop-color="#58B2FF"/>
<stop offset="1" stop-color="#0065BC"/>
</radialGradient>
<radialGradient id="paint9_radial_9956_170615" cx="0" cy="0" r="1" gradientUnits="userSpaceOnUse" gradientTransform="translate(85.9528 89.3809) rotate(-165.619) scale(51.906 38.0268)">
<stop stop-color="#B5EBFF"/>
<stop offset="0.673" stop-color="#009DFF"/>
<stop offset="0.906" stop-color="#11649D"/>
<stop offset="1" stop-color="#034B81"/>
</radialGradient>
<radialGradient id="paint10_radial_9956_170615" cx="0" cy="0" r="1" gradientUnits="userSpaceOnUse" gradientTransform="translate(127.09 50.1731) rotate(-170.986) scale(17.5648 18.3416)">
<stop stop-color="white"/>
<stop offset="0.685" stop-color="white" stop-opacity="0"/>
<stop offset="1" stop-color="white" stop-opacity="0"/>
</radialGradient>
<linearGradient id="paint11_linear_9956_170615" x1="97.9975" y1="40.7253" x2="94.0117" y2="71.1229" gradientUnits="userSpaceOnUse">
<stop stop-color="#D5F0FF" stop-opacity="0.867"/>
<stop offset="1" stop-color="#739EFF" stop-opacity="0"/>
</linearGradient>
<linearGradient id="paint12_linear_9956_170615" x1="70.3146" y1="123.791" x2="76.5254" y2="104.511" gradientUnits="userSpaceOnUse">
<stop stop-color="#33C0FF"/>
<stop offset="0.695" stop-color="#0D69AF"/>
<stop offset="1" stop-color="#004C85"/>
</linearGradient>
<linearGradient id="paint13_linear_9956_170615" x1="141.243" y1="117.919" x2="113.85" y2="115.62" gradientUnits="userSpaceOnUse">
<stop stop-color="#F5FCFF"/>
<stop offset="1" stop-color="#CCEFFF"/>
</linearGradient>
<radialGradient id="paint14_radial_9956_170615" cx="0" cy="0" r="1" gradientUnits="userSpaceOnUse" gradientTransform="translate(146.239 121.097) rotate(46.4457) scale(4.16614 10.0547)">
<stop stop-color="#72D9FF"/>
<stop offset="0.587" stop-color="#009DFF"/>
<stop offset="0.852" stop-color="#0079DC"/>
<stop offset="1" stop-color="#006CC9"/>
</radialGradient>
<linearGradient id="paint15_linear_9956_170615" x1="151.733" y1="112.657" x2="146.321" y2="108.519" gradientUnits="userSpaceOnUse">
<stop stop-color="white"/>
<stop offset="0.266" stop-color="#F8FCFF"/>
<stop offset="1" stop-color="#2FA4FF"/>
</linearGradient>
</defs>
</svg>
