<svg width="56" height="56" viewBox="0 0 56 56" fill="none" xmlns="http://www.w3.org/2000/svg">
<g clip-path="url(#clip0_1468_3131)">
<mask id="mask0_1468_3131" style="mask-type:alpha" maskUnits="userSpaceOnUse" x="16" y="15" width="24" height="24">
<rect x="16" y="15" width="24" height="24" fill="#D9D9D9"/>
</mask>
<g mask="url(#mask0_1468_3131)">
<path d="M28.0008 28.4008L23.1008 33.3008C22.9174 33.4841 22.6841 33.5758 22.4008 33.5758C22.1174 33.5758 21.8841 33.4841 21.7008 33.3008C21.5174 33.1174 21.4258 32.8841 21.4258 32.6008C21.4258 32.3174 21.5174 32.0841 21.7008 31.9008L26.6008 27.0008L21.7008 22.1008C21.5174 21.9174 21.4258 21.6841 21.4258 21.4008C21.4258 21.1174 21.5174 20.8841 21.7008 20.7008C21.8841 20.5174 22.1174 20.4258 22.4008 20.4258C22.6841 20.4258 22.9174 20.5174 23.1008 20.7008L28.0008 25.6008L32.9008 20.7008C33.0841 20.5174 33.3174 20.4258 33.6008 20.4258C33.8841 20.4258 34.1174 20.5174 34.3008 20.7008C34.4841 20.8841 34.5758 21.1174 34.5758 21.4008C34.5758 21.6841 34.4841 21.9174 34.3008 22.1008L29.4008 27.0008L34.3008 31.9008C34.4841 32.0841 34.5758 32.3174 34.5758 32.6008C34.5758 32.8841 34.4841 33.1174 34.3008 33.3008C34.1174 33.4841 33.8841 33.5758 33.6008 33.5758C33.3174 33.5758 33.0841 33.4841 32.9008 33.3008L28.0008 28.4008Z" fill="white"/>
</g>
</g>
<defs>
<clipPath id="clip0_1468_3131">
<rect width="24" height="24" fill="white" transform="translate(16 16)"/>
</clipPath>
</defs>
</svg>
