<svg width="328" height="146" viewBox="0 0 328 146" fill="none" xmlns="http://www.w3.org/2000/svg">
<path d="M170.737 0H164.473C162.21 0 159.915 0.149414 157.714 0.149414H155.016L151.699 0.358398C148.939 0.537598 146.117 0.836182 143.389 1.16467C140.784 1.49304 138.18 1.88135 135.544 2.32922H135.079L131.234 3.07581C128.971 3.52368 126.707 4.03125 124.444 4.56873L121.344 5.34509L120.444 5.58398C118.367 6.15137 116.289 6.74854 114.243 7.37561L113.282 7.67419L112.848 7.82361C112.645 7.87512 112.448 7.94507 112.259 8.03259C111.112 8.36096 109.933 8.74927 108.848 9.13745C107.475 9.60144 106.139 10.0834 104.827 10.5835C104.449 10.7271 104.074 10.8721 103.701 11.0186L103.019 11.2576C101.127 12.004 98.9882 12.8999 97.3447 13.5867C95.7016 14.2734 94.1511 14.9602 92.6006 15.7068C92.2885 15.8337 91.9809 15.97 91.6777 16.1155C91.4345 16.2322 91.1943 16.3547 90.9575 16.4832L90.0464 16.9519C89.3396 17.3165 88.6131 17.6912 87.857 18.0658H87.6089L85.5312 19.1407L83.454 20.2754L82.2136 20.9324C81.8302 21.1274 81.4467 21.333 81.0633 21.5492C80.7025 21.7523 80.3422 21.9647 79.9814 22.1865L77.7797 23.4706L77.5626 23.6199C76.0436 24.5156 74.462 25.4712 72.943 26.4567L72.695 26.606L72.3538 26.8149C70.6793 27.8899 68.9432 29.1143 67.4237 30.1593C65.9042 31.2045 64.4472 32.2795 62.9897 33.3844L62.0909 34.0413L61.1296 34.7878L60.6955 35.1461C60.2613 35.5044 59.7652 35.8628 59.331 36.251C59.0829 36.4043 58.8545 36.5847 58.6493 36.7885C58.3781 36.9825 58.1191 37.192 57.874 37.4155C57.3779 37.8037 56.8507 38.2217 56.4165 38.6398C55.7885 39.1151 55.1879 39.6235 54.6179 40.1627C54.3694 40.3824 54.1169 40.5989 53.8643 40.8153C53.3623 41.2457 52.8602 41.6764 52.3857 42.1335H52.1996C52.0116 42.3024 51.8339 42.4712 51.6498 42.6459C51.3786 42.9038 51.0936 43.1747 50.7421 43.4773C50.3907 43.7802 50.0501 44.0936 49.7075 44.4178C49.4761 44.637 49.2438 44.861 49.0061 45.0897L48.3548 45.6869L46.7738 47.2098C46.1812 47.8163 45.5885 48.4122 45.0087 49.0038C44.6179 49.4025 44.2334 49.7992 43.8589 50.1959L41.6886 52.4951C41.35 52.8483 41.0694 53.1707 40.7765 53.507C40.4251 53.91 40.0564 54.3334 39.5494 54.8542C38.6191 55.8097 37.7508 56.825 36.9135 57.8402C35.8287 59.0646 34.8363 60.3187 33.813 61.5729C33.3144 62.1169 32.8586 62.6958 32.449 63.3047C31.7358 64.2006 30.9916 65.1561 30.3403 66.0818C29.4888 67.121 28.7022 68.2078 27.9841 69.3365C27.5844 69.8865 27.198 70.4364 26.8185 70.9863C26.3735 71.6309 25.9384 72.2754 25.5032 72.9199C24.1703 74.8906 22.8989 76.8914 21.6895 78.892C21.6491 79.0447 21.5748 79.1873 21.4724 79.3101C20.1705 81.4302 18.9611 83.5802 17.7832 85.7301C17.0729 87.0455 16.5551 88.0596 15.7842 89.5688L15.4574 90.2092C14.4961 92.0905 13.5968 93.9717 12.76 95.8828L11.6436 98.3911C11.0234 99.884 10.4032 101.377 9.84502 102.87C8.97723 104.99 8.20197 107.17 7.48873 109.35C7.34451 109.791 7.19487 110.233 7.04917 110.663C6.85032 111.251 6.65785 111.818 6.4964 112.336C6.34086 112.836 6.19516 113.344 6.04799 113.857C5.93133 114.264 5.81418 114.674 5.69063 115.083C5.67291 115.272 5.67291 115.462 5.69063 115.651C5.45731 116.426 5.20972 117.201 4.98724 117.986C4.88436 118.35 4.7869 118.716 4.6983 119.084C3.64395 122.907 2.77566 126.789 2.03191 130.7L1.84339 131.836C1.46733 134.093 1.08782 136.368 0.82251 138.643C0.636449 139.957 0.481397 141.301 0.326346 142.645L0.258911 143.221C0.148652 144.147 0.0388859 145.074 0 146H74.816C75.8157 139.646 77.5488 133.372 80.0158 127.298C88.4172 106.612 104.696 89.7927 125.533 80.27C146.369 70.7472 170.193 69.2385 192.144 76.0518C214.096 82.865 232.521 97.4867 243.663 116.935C246.745 122.62 249.458 128.484 251.787 134.493L328 134.075C327.563 130.543 325.974 124.183 325.072 120.573C324.692 119.055 324.434 118.023 324.434 117.89C315.827 86.9395 297.701 59.2195 272.437 38.371L268.84 35.385C266.111 33.235 263.29 31.1448 260.438 29.174L256.655 26.6357L256.19 26.3671C254.763 25.4414 253.368 24.5455 251.911 23.6796L247.663 21.2012L243.663 18.9915L241.586 17.9463C239.942 17.1102 238.268 16.274 236.625 15.4977C234.175 14.3331 231.663 13.2284 229.121 12.1832C228.412 11.91 227.741 11.642 227.082 11.3792C226.157 11.0099 225.257 10.6509 224.315 10.302L219.509 8.57007L214.61 7.01733C212.967 6.50964 210.921 5.91248 209.649 5.5542C208.378 5.1958 207.138 4.86743 205.804 4.56873L203.975 4.12085H203.107C201.898 3.82214 200.627 3.55347 199.417 3.31458H199.262C195.851 2.5979 192.441 2.00073 188.937 1.49304C187.139 1.22424 185.309 0.985474 183.418 0.776367H182.332C181.915 0.732544 181.495 0.683228 181.074 0.633911C179.778 0.481812 178.473 0.328491 177.186 0.328491H176.721L175.916 0.266968C174.193 0.134155 172.453 0 170.737 0Z" fill="url(#paint0_linear_10430_248516)"/>
<defs>
<linearGradient id="paint0_linear_10430_248516" x1="112.401" y1="-2.57702e-06" x2="145.162" y2="146.113" gradientUnits="userSpaceOnUse">
<stop stop-color="#39EDFF"/>
<stop offset="1" stop-color="#00ACFF"/>
</linearGradient>
</defs>
</svg>
