<svg viewBox="0 0 32 32" fill="none" xmlns="http://www.w3.org/2000/svg">
<path d="M16 32C24.8366 32 32 24.8366 32 16C32 7.16344 24.8366 0 16 0C7.16344 0 0 7.16344 0 16C0 24.8366 7.16344 32 16 32Z" fill="url(#paint0_linear_778_52517)"/>
<path d="M16.0001 28.964C12.5375 28.964 9.28225 27.6156 6.83387 25.1672C4.3855 22.7189 3.03711 19.4636 3.03711 16.001C3.03711 12.5385 4.3855 9.28323 6.83387 6.83485C9.28225 4.38647 12.5375 3.03809 16.0001 3.03809C19.4626 3.03809 22.7179 4.38647 25.1663 6.83485C27.6146 9.28323 28.963 12.5385 28.963 16.001C28.963 19.4636 27.6146 22.7189 25.1663 25.1672C22.7179 27.6156 19.4626 28.964 16.0001 28.964Z" fill="url(#paint1_linear_778_52517)"/>
<path d="M16 3.53768C12.6712 3.53768 9.54163 4.83399 7.18781 7.18781C4.83399 9.54163 3.53768 12.6712 3.53768 16C3.53768 19.3288 4.83399 22.4584 7.18781 24.8122C9.54163 27.166 12.6712 28.4623 16 28.4623C19.3288 28.4623 22.4584 27.166 24.8122 24.8122C27.166 22.4584 28.4623 19.3288 28.4623 16C28.4623 12.6712 27.166 9.54163 24.8122 7.18781C22.4584 4.83399 19.3288 3.53768 16 3.53768ZM16 2C23.732 2 30 8.26802 30 16C30 23.732 23.732 30 16 30C8.26802 30 2 23.732 2 16C2 8.26802 8.26802 2 16 2Z" fill="#F5FBFF"/>
<g opacity="0.652">
<path opacity="0.652" d="M17 14.125C17 13.5037 16.5523 13 16 13C15.4477 13 15 13.5037 15 14.125L15 20.875C15 21.4963 15.4477 22 16 22C16.5523 22 17 21.4963 17 20.875L17 14.125Z" fill="url(#paint2_linear_778_52517)"/>
<path opacity="0.652" d="M12 15.875C12 15.3918 11.5523 15 11 15C10.4477 15 10 15.3918 10 15.875L10 21.125C10 21.6082 10.4477 22 11 22C11.5523 22 12 21.6082 12 21.125L12 15.875Z" fill="url(#paint3_linear_778_52517)"/>
<path opacity="0.652" d="M22 11.2C22 10.5373 21.5523 10 21 10C20.4477 10 20 10.5373 20 11.2L20 20.8C20 21.4627 20.4477 22 21 22C21.5523 22 22 21.4627 22 20.8L22 11.2Z" fill="url(#paint4_linear_778_52517)"/>
</g>
<path opacity="0.667" d="M20.9447 25.6533C20.1497 24.9622 21.2766 24.0054 22.5196 22.5755C23.7626 21.1456 24.6533 19.7814 25.4483 20.4725C26.2433 21.1635 25.8791 22.8834 24.6356 24.3139C23.3921 25.7444 21.7396 26.3443 20.9447 25.6533Z" fill="white"/>
<defs>
<linearGradient id="paint0_linear_778_52517" x1="26.624" y1="25.408" x2="3.392" y2="5.184" gradientUnits="userSpaceOnUse">
<stop stop-color="#C6E7FF"/>
<stop offset="0.67" stop-color="white"/>
<stop offset="1" stop-color="white"/>
</linearGradient>
<linearGradient id="paint1_linear_778_52517" x1="6.71859" y1="10.5048" x2="25.0741" y2="23.1566" gradientUnits="userSpaceOnUse">
<stop stop-color="#CBE9FF"/>
<stop offset="1" stop-color="#F5FAFF"/>
</linearGradient>
<linearGradient id="paint2_linear_778_52517" x1="11.918" y1="13" x2="8.81745" y2="19.6954" gradientUnits="userSpaceOnUse">
<stop stop-color="#2FA4FF"/>
<stop offset="1" stop-color="#91D0FF"/>
</linearGradient>
<linearGradient id="paint3_linear_778_52517" x1="6.918" y1="15" x2="4.9017" y2="20.598" gradientUnits="userSpaceOnUse">
<stop stop-color="#2FA4FF"/>
<stop offset="1" stop-color="#91D0FF"/>
</linearGradient>
<linearGradient id="paint4_linear_778_52517" x1="16.918" y1="10" x2="12.0715" y2="17.8492" gradientUnits="userSpaceOnUse">
<stop stop-color="#2FA4FF"/>
<stop offset="1" stop-color="#91D0FF"/>
</linearGradient>
</defs>
</svg>
