<svg width="118" height="130" viewBox="0 0 118 130" fill="none" xmlns="http://www.w3.org/2000/svg">
<g filter="url(#filter0_d_10710_271707)">
<path d="M94.4504 19.75L73.337 13.9344C67.4533 12.3138 61.3698 15.7697 59.7492 21.6534L53.9336 42.7668C52.3129 48.6505 55.7688 54.734 61.6525 56.3546L82.7659 62.1702C88.6496 63.7909 94.7331 60.335 96.3538 54.4513L102.169 33.3379C103.79 27.4542 100.334 21.3707 94.4504 19.75Z" fill="url(#paint0_linear_10710_271707)"/>
<path d="M73.7451 33.2898C73.8429 32.9346 74.0592 32.6619 74.3941 32.4717C74.729 32.2815 75.074 32.2353 75.4292 32.3331C75.7844 32.431 76.0571 32.6473 76.2473 32.9822C76.4376 33.317 76.4838 33.6621 76.3859 34.0173C76.2881 34.3725 76.0717 34.6452 75.7369 34.8354C75.402 35.0256 75.057 35.0718 74.7018 34.974C74.3466 34.8761 74.0739 34.6598 73.8836 34.3249C73.6934 33.9901 73.6472 33.645 73.7451 33.2898Z" fill="white"/>
<path d="M81.1081 44.2894C81.4429 44.0991 81.6593 43.8264 81.7571 43.4712C81.855 43.116 81.8088 42.771 81.6186 42.4361C81.4283 42.1013 81.1556 41.8849 80.8004 41.7871C80.4452 41.6892 80.1002 41.7354 79.7653 41.9257C79.4304 42.1159 79.2141 42.3886 79.1163 42.7438C79.0184 43.099 79.0646 43.444 79.2548 43.7789C79.4451 44.1138 79.7178 44.3301 80.073 44.428C80.4282 44.5258 80.7732 44.4796 81.1081 44.2894Z" fill="white"/>
<path d="M77.0504 37.2158L72.3827 39.8674C72.3726 39.8729 72.3626 39.8784 72.3526 39.8841C72.0292 40.0679 71.8163 40.3286 71.714 40.6663C71.7103 40.6784 71.7068 40.6905 71.7034 40.7027C71.6056 41.0579 71.6518 41.403 71.842 41.7378C72.0322 42.0727 72.305 42.2891 72.6602 42.3869C73.0154 42.4847 73.3604 42.4385 73.6953 42.2483L78.4227 39.5628C78.4327 39.5571 78.4426 39.5513 78.4524 39.5455L83.1201 36.8939C83.1301 36.8884 83.1401 36.8829 83.1501 36.8772C83.4733 36.6936 83.6861 36.4332 83.7885 36.096C83.7922 36.0836 83.7958 36.0711 83.7993 36.0586C83.8972 35.7034 83.851 35.3583 83.6607 35.0235C83.4705 34.6886 83.1978 34.4723 82.8426 34.3744C82.4874 34.2766 82.1423 34.3228 81.8075 34.513L77.0801 37.1986C77.07 37.2042 77.0601 37.21 77.0504 37.2158Z" fill="white"/>
<path fill-rule="evenodd" clip-rule="evenodd" d="M68.171 46.0332L69.1868 49.7672C69.2834 50.0992 69.471 50.3565 69.7497 50.539C70.0284 50.7215 70.3386 50.7894 70.6805 50.7426L74.4847 50.2396L77.4948 52.6195C77.7645 52.8348 78.0657 52.9354 78.3986 52.9213C78.7314 52.9073 79.0243 52.7824 79.2772 52.5466L82.0617 49.8594L85.882 50.0657C86.2277 50.0904 86.5364 49.9934 86.8082 49.7745C87.0799 49.5556 87.2391 49.2764 87.2856 48.9367L87.945 45.1355L91.1781 42.9948C91.4627 42.8147 91.6501 42.5609 91.7403 42.2333C91.8306 41.9056 91.7996 41.5916 91.6474 41.2912L89.9663 37.797L91.3464 34.1942C91.4803 33.8787 91.4866 33.5573 91.3652 33.2302C91.2439 32.903 91.0284 32.6615 90.7188 32.5058L87.3317 30.7269L86.3159 26.9929C86.2194 26.6609 86.0318 26.4036 85.7531 26.2211C85.4744 26.0386 85.1641 25.9707 84.8222 26.0175L81.018 26.5205L78.0079 24.1406C77.7382 23.9253 77.437 23.8247 77.1041 23.8388C76.7713 23.8528 76.4784 23.9778 76.2255 24.2136L73.441 26.9008L69.6207 26.6944C69.275 26.6697 68.9663 26.7667 68.6946 26.9856C68.4228 27.2045 68.2636 27.4837 68.2171 27.8234L67.5578 31.6246L64.3246 33.7653C64.04 33.9454 63.8526 34.1992 63.7624 34.5268C63.6721 34.8545 63.7031 35.1685 63.8554 35.4689L65.5364 38.9631L64.1563 42.5659C64.0224 42.8814 64.0161 43.2028 64.1375 43.53C64.2589 43.8571 64.4743 44.0986 64.7839 44.2543L68.171 46.0332ZM75.2788 47.3566L71.5401 47.8776L70.5063 44.2092L67.1191 42.4303L68.4755 38.7858L66.8092 35.3661L70.0095 33.2164L70.6926 29.4569L74.5129 29.6633L77.2138 27.0235L80.2239 29.4035L83.9626 28.8825L84.9964 32.5509L88.3836 34.3298L87.0453 37.9088L88.6936 41.394L85.5112 43.4782L84.8282 47.2377L80.9898 47.0968L78.2889 49.7366L75.2788 47.3566Z" fill="white"/>
<path d="M73.7451 33.2898C73.8429 32.9346 74.0592 32.6619 74.3941 32.4717C74.729 32.2815 75.074 32.2353 75.4292 32.3331C75.7844 32.431 76.0571 32.6473 76.2473 32.9822C76.4376 33.317 76.4838 33.6621 76.3859 34.0173C76.2881 34.3725 76.0717 34.6452 75.7369 34.8354C75.402 35.0256 75.057 35.0718 74.7018 34.974C74.3466 34.8761 74.0739 34.6598 73.8836 34.3249C73.6934 33.9901 73.6472 33.645 73.7451 33.2898Z" stroke="#2AAFFF" stroke-width="0.5" stroke-linecap="round"/>
<path d="M81.1081 44.2894C81.4429 44.0991 81.6593 43.8264 81.7571 43.4712C81.855 43.116 81.8088 42.771 81.6186 42.4361C81.4283 42.1013 81.1556 41.8849 80.8004 41.7871C80.4452 41.6892 80.1002 41.7354 79.7653 41.9257C79.4304 42.1159 79.2141 42.3886 79.1163 42.7438C79.0184 43.099 79.0646 43.444 79.2548 43.7789C79.4451 44.1138 79.7178 44.3301 80.073 44.428C80.4282 44.5258 80.7732 44.4796 81.1081 44.2894Z" stroke="#2AAFFF" stroke-width="0.5" stroke-linecap="round"/>
<path d="M77.0504 37.2158L72.3827 39.8674C72.3726 39.8729 72.3626 39.8784 72.3526 39.8841C72.0292 40.0679 71.8163 40.3286 71.714 40.6663C71.7103 40.6784 71.7068 40.6905 71.7034 40.7027C71.6056 41.0579 71.6518 41.403 71.842 41.7378C72.0322 42.0727 72.305 42.2891 72.6602 42.3869C73.0154 42.4847 73.3604 42.4385 73.6953 42.2483L78.4227 39.5628C78.4327 39.5571 78.4426 39.5513 78.4524 39.5455L83.1201 36.8939C83.1301 36.8884 83.1401 36.8829 83.1501 36.8772C83.4733 36.6936 83.6861 36.4332 83.7885 36.096C83.7922 36.0836 83.7958 36.0711 83.7993 36.0586C83.8972 35.7034 83.851 35.3583 83.6607 35.0235C83.4705 34.6886 83.1978 34.4723 82.8426 34.3744C82.4874 34.2766 82.1423 34.3228 81.8075 34.513L77.0801 37.1986C77.07 37.2042 77.0601 37.21 77.0504 37.2158Z" stroke="#2AAFFF" stroke-width="0.5" stroke-linecap="round"/>
<path fill-rule="evenodd" clip-rule="evenodd" d="M68.171 46.0332L69.1868 49.7672C69.2834 50.0992 69.471 50.3565 69.7497 50.539C70.0284 50.7215 70.3386 50.7894 70.6805 50.7426L74.4847 50.2396L77.4948 52.6195C77.7645 52.8348 78.0657 52.9354 78.3986 52.9213C78.7314 52.9073 79.0243 52.7824 79.2772 52.5466L82.0617 49.8594L85.882 50.0657C86.2277 50.0904 86.5364 49.9934 86.8082 49.7745C87.0799 49.5556 87.2391 49.2764 87.2856 48.9367L87.945 45.1355L91.1781 42.9948C91.4627 42.8147 91.6501 42.5609 91.7403 42.2333C91.8306 41.9056 91.7996 41.5916 91.6474 41.2912L89.9663 37.797L91.3464 34.1942C91.4803 33.8787 91.4866 33.5573 91.3652 33.2302C91.2439 32.903 91.0284 32.6615 90.7188 32.5058L87.3317 30.7269L86.3159 26.9929C86.2194 26.6609 86.0318 26.4036 85.7531 26.2211C85.4744 26.0386 85.1641 25.9707 84.8222 26.0175L81.018 26.5205L78.0079 24.1406C77.7382 23.9253 77.437 23.8247 77.1041 23.8388C76.7713 23.8528 76.4784 23.9778 76.2255 24.2136L73.441 26.9008L69.6207 26.6944C69.275 26.6697 68.9663 26.7667 68.6946 26.9856C68.4228 27.2045 68.2636 27.4837 68.2171 27.8234L67.5578 31.6246L64.3246 33.7653C64.04 33.9454 63.8526 34.1992 63.7624 34.5268C63.6721 34.8545 63.7031 35.1685 63.8554 35.4689L65.5364 38.9631L64.1563 42.5659C64.0224 42.8814 64.0161 43.2028 64.1375 43.53C64.2589 43.8571 64.4743 44.0986 64.7839 44.2543L68.171 46.0332ZM75.2788 47.3566L71.5401 47.8776L70.5063 44.2092L67.1191 42.4303L68.4755 38.7858L66.8092 35.3661L70.0095 33.2164L70.6926 29.4569L74.5129 29.6633L77.2138 27.0235L80.2239 29.4035L83.9626 28.8825L84.9964 32.5509L88.3836 34.3298L87.0453 37.9088L88.6936 41.394L85.5112 43.4782L84.8282 47.2377L80.9898 47.0968L78.2889 49.7366L75.2788 47.3566Z" stroke="#2AAFFF" stroke-width="0.5" stroke-linecap="round"/>
</g>
<g filter="url(#filter1_d_10710_271707)">
<path d="M46.4493 64.9189L24.8823 68.7218C18.8722 69.7815 14.8591 75.5128 15.9188 81.5229L19.7217 103.09C20.7814 109.1 26.5127 113.113 32.5228 112.053L54.0898 108.25C60.0999 107.191 64.113 101.459 63.0532 95.4494L59.2504 73.8824C58.1906 67.8723 52.4594 63.8592 46.4493 64.9189Z" fill="url(#paint1_linear_10710_271707)"/>
<path d="M36.7514 76.8513C36.9906 76.0707 38.0139 75.8902 38.5057 76.542L41.9631 81.1239C42.5407 81.8894 43.4495 82.3326 44.4083 82.3165L50.1475 82.22C50.9638 82.2063 51.4517 83.1238 50.9838 83.7929L47.6945 88.497C47.145 89.2829 47.0042 90.2841 47.3159 91.191L49.1812 96.6195C49.4465 97.3917 48.7246 98.1392 47.9437 97.901L42.4534 96.2263C41.5362 95.9465 40.5404 96.1221 39.7742 96.6987L35.1878 100.15C34.5354 100.641 33.6015 100.186 33.5867 99.3692L33.4828 93.6302C33.4655 92.6714 32.9908 91.7786 32.2056 91.2281L27.5058 87.9327C26.8373 87.464 26.9819 86.435 27.7537 86.1687L33.1798 84.2964C34.0863 83.9836 34.7887 83.2563 35.0696 82.3394L36.7514 76.8513Z" stroke="white" stroke-width="2"/>
<path d="M36.7514 76.8513C36.9906 76.0707 38.0139 75.8902 38.5057 76.542L41.9631 81.1239C42.5407 81.8894 43.4495 82.3326 44.4083 82.3165L50.1475 82.22C50.9638 82.2063 51.4517 83.1238 50.9838 83.7929L47.6945 88.497C47.145 89.2829 47.0042 90.2841 47.3159 91.191L49.1812 96.6195C49.4465 97.3917 48.7246 98.1392 47.9437 97.901L42.4534 96.2263C41.5362 95.9465 40.5404 96.1221 39.7742 96.6987L35.1878 100.15C34.5354 100.641 33.6015 100.186 33.5867 99.3692L33.4828 93.6302C33.4655 92.6714 32.9908 91.7786 32.2056 91.2281L27.5058 87.9327C26.8373 87.464 26.9819 86.435 27.7537 86.1687L33.1798 84.2964C34.0863 83.9836 34.7887 83.2563 35.0696 82.3394L36.7514 76.8513Z" stroke="white" stroke-width="2"/>
</g>
<defs>
<filter id="filter0_d_10710_271707" x="36" y="-2" width="84.1035" height="84.1047" filterUnits="userSpaceOnUse" color-interpolation-filters="sRGB">
<feFlood flood-opacity="0" result="BackgroundImageFix"/>
<feColorMatrix in="SourceAlpha" type="matrix" values="0 0 0 0 0 0 0 0 0 0 0 0 0 0 0 0 0 0 127 0" result="hardAlpha"/>
<feOffset dy="2"/>
<feGaussianBlur stdDeviation="7.5"/>
<feComposite in2="hardAlpha" operator="out"/>
<feColorMatrix type="matrix" values="0 0 0 0 0.0509804 0 0 0 0 0.584314 0 0 0 0 1 0 0 0 0.15 0"/>
<feBlend mode="normal" in2="BackgroundImageFix" result="effect1_dropShadow_10710_271707"/>
<feBlend mode="normal" in="SourceGraphic" in2="effect1_dropShadow_10710_271707" result="shape"/>
</filter>
<filter id="filter1_d_10710_271707" x="-1" y="50" width="80.9727" height="80.9722" filterUnits="userSpaceOnUse" color-interpolation-filters="sRGB">
<feFlood flood-opacity="0" result="BackgroundImageFix"/>
<feColorMatrix in="SourceAlpha" type="matrix" values="0 0 0 0 0 0 0 0 0 0 0 0 0 0 0 0 0 0 127 0" result="hardAlpha"/>
<feOffset dy="2"/>
<feGaussianBlur stdDeviation="7.5"/>
<feComposite in2="hardAlpha" operator="out"/>
<feColorMatrix type="matrix" values="0 0 0 0 0.0509804 0 0 0 0 0.584314 0 0 0 0 1 0 0 0 0.15 0"/>
<feBlend mode="normal" in2="BackgroundImageFix" result="effect1_dropShadow_10710_271707"/>
<feBlend mode="normal" in="SourceGraphic" in2="effect1_dropShadow_10710_271707" result="shape"/>
</filter>
<linearGradient id="paint0_linear_10710_271707" x1="67.4611" y1="16.9604" x2="86.8602" y2="63.5454" gradientUnits="userSpaceOnUse">
<stop stop-color="#4AE4FE"/>
<stop offset="1" stop-color="#0F85FF"/>
</linearGradient>
<linearGradient id="paint1_linear_10710_271707" x1="55.57" y1="70.9085" x2="36.2768" y2="116.744" gradientUnits="userSpaceOnUse">
<stop stop-color="#4CD2E9"/>
<stop offset="1" stop-color="#0F85FF"/>
</linearGradient>
</defs>
</svg>
