<svg width="176" height="250" viewBox="0 0 176 250" fill="none" xmlns="http://www.w3.org/2000/svg">
<g filter="url(#filter0_d_10708_271701)">
<path d="M127.574 131.1L91.302 137.496C81.1941 139.278 74.4448 148.917 76.2271 159.025L82.6228 195.297C84.4051 205.405 94.044 212.154 104.152 210.372L140.424 203.976C150.532 202.194 157.281 192.555 155.499 182.447L149.103 146.175C147.321 136.067 137.682 129.318 127.574 131.1Z" fill="url(#paint0_linear_10708_271701)"/>
<mask id="mask0_10708_271701" style="mask-type:alpha" maskUnits="userSpaceOnUse" x="86" y="139" width="63" height="63">
<rect x="86.7344" y="148.724" width="53.7221" height="53.7221" transform="rotate(-10 86.7344 148.724)" fill="#D9D9D9"/>
</mask>
<g mask="url(#mask0_10708_271701)">
<path d="M129.453 171.735L131.092 172.881L129.453 171.735C128.721 172.783 128.533 174.118 128.948 175.327L133.101 187.411L120.879 183.683C119.656 183.31 118.328 183.545 117.307 184.313L107.097 191.997L106.866 179.221C106.843 177.943 106.21 176.752 105.163 176.018L94.7009 168.683L106.78 164.515C107.988 164.098 108.925 163.128 109.299 161.906L113.043 149.689L120.739 159.888C121.51 160.909 122.721 161.5 124 161.479L136.776 161.264L129.453 171.735Z" stroke="white" stroke-width="4"/>
<path d="M129.453 171.735L131.092 172.881L129.453 171.735C128.721 172.783 128.533 174.118 128.948 175.327L133.101 187.411L120.879 183.683C119.656 183.31 118.328 183.545 117.307 184.313L107.097 191.997L106.866 179.221C106.843 177.943 106.21 176.752 105.163 176.018L94.7009 168.683L106.78 164.515C107.988 164.098 108.925 163.128 109.299 161.906L113.043 149.689L120.739 159.888C121.51 160.909 122.721 161.5 124 161.479L136.776 161.264L129.453 171.735Z" stroke="white" stroke-width="4"/>
</g>
</g>
<g filter="url(#filter1_d_10708_271701)">
<path d="M94.426 31.716L58.9171 21.9352C49.0217 19.2096 38.7904 25.0217 36.0648 34.9171L26.284 70.426C23.5584 80.3213 29.3706 90.5526 39.2659 93.2782L74.7748 103.059C84.6701 105.785 94.9015 99.9724 97.6271 90.0771L107.408 54.5682C110.134 44.6729 104.321 34.4416 94.426 31.716Z" fill="url(#paint1_linear_10708_271701)"/>
<path d="M60.3998 54.8844C60.5366 54.3878 60.839 54.0065 61.3072 53.7406C61.7753 53.4747 62.2576 53.4101 62.7542 53.5469C63.2507 53.6837 63.632 53.9861 63.8979 54.4542C64.1639 54.9223 64.2284 55.4047 64.0917 55.9013C63.9549 56.3978 63.6524 56.7791 63.1843 57.045C62.7162 57.3109 62.2338 57.3755 61.7373 57.2387C61.2407 57.1019 60.8595 56.7995 60.5935 56.3314C60.3276 55.8633 60.263 55.3809 60.3998 54.8844Z" fill="white"/>
<path d="M70.6931 70.2613C71.1612 69.9954 71.4636 69.6141 71.6004 69.1176C71.7372 68.621 71.6726 68.1386 71.4067 67.6705C71.1407 67.2024 70.7595 66.9 70.2629 66.7632C69.7664 66.6264 69.284 66.691 68.8159 66.9569C68.3478 67.2228 68.0453 67.6041 67.9086 68.1007C67.7718 68.5972 67.8364 69.0796 68.1023 69.5477C68.3682 70.0158 68.7495 70.3183 69.246 70.455C69.7426 70.5918 70.2249 70.5272 70.6931 70.2613Z" fill="white"/>
<path d="M65.0205 60.3727L58.4952 64.0796C58.4812 64.0872 58.4672 64.095 58.4532 64.1029C58.001 64.3598 57.7034 64.7243 57.5604 65.1964C57.5553 65.2132 57.5504 65.2302 57.5457 65.2473C57.4089 65.7439 57.4735 66.2262 57.7394 66.6943C58.0053 67.1625 58.3866 67.4649 58.8832 67.6017C59.3797 67.7385 59.8621 67.6739 60.3302 67.408L66.939 63.6537C66.953 63.6457 66.9668 63.6377 66.9805 63.6295L73.5057 59.9226C73.5198 59.9151 73.5338 59.9073 73.5477 59.8994C73.9995 59.6427 74.297 59.2787 74.4401 58.8072C74.4454 58.7899 74.4504 58.7725 74.4553 58.7549C74.5921 58.2584 74.5275 57.776 74.2616 57.3079C73.9956 56.8398 73.6144 56.5373 73.1178 56.4006C72.6213 56.2638 72.1389 56.3284 71.6708 56.5943L65.062 60.3486C65.048 60.3565 65.0342 60.3646 65.0205 60.3727Z" fill="white"/>
<path fill-rule="evenodd" clip-rule="evenodd" d="M52.6075 72.6991L54.0276 77.9191C54.1625 78.3833 54.4248 78.743 54.8144 78.9981C55.204 79.2532 55.6378 79.3481 56.1157 79.2826L61.4338 78.5794L65.6418 81.9066C66.0188 82.2075 66.44 82.3481 66.9053 82.3285C67.3706 82.3088 67.78 82.1342 68.1336 81.8045L72.0262 78.0479L77.3669 78.3364C77.8501 78.371 78.2816 78.2353 78.6616 77.9293C79.0415 77.6233 79.264 77.2329 79.3291 76.7581L80.2508 71.4441L84.7706 68.4515C85.1684 68.1998 85.4304 67.8449 85.5566 67.3869C85.6827 66.9289 85.6394 66.49 85.4266 66.07L83.0766 61.1852L85.0058 56.1487C85.1931 55.7075 85.2018 55.2583 85.0322 54.8009C84.8625 54.3436 84.5613 54.006 84.1285 53.7883L79.3934 51.3014L77.9734 46.0815C77.8385 45.6173 77.5762 45.2576 77.1866 45.0025C76.797 44.7473 76.3632 44.6525 75.8853 44.7179L70.5671 45.4211L66.3591 42.094C65.9821 41.7931 65.561 41.6524 65.0957 41.6721C64.6304 41.6917 64.2209 41.8664 63.8674 42.196L59.9747 45.9526L54.6341 45.6641C54.1509 45.6296 53.7193 45.7653 53.3394 46.0713C52.9595 46.3772 52.737 46.7676 52.6719 47.2424L51.7502 52.5565L47.2304 55.549C46.8325 55.8008 46.5705 56.1556 46.4444 56.6136C46.3182 57.0716 46.3616 57.5106 46.5744 57.9306L48.9244 62.8154L46.9951 67.8519C46.8079 68.293 46.7991 68.7423 46.9688 69.1997C47.1385 69.657 47.4397 69.9945 47.8724 70.2123L52.6075 72.6991ZM62.5439 74.5491L57.3174 75.2776L55.8721 70.1492L51.137 67.6624L53.0331 62.5675L50.7037 57.7868L55.1777 54.7817L56.1326 49.526L61.4732 49.8145L65.249 46.1243L69.457 49.4514L74.6836 48.723L76.1288 53.8514L80.8639 56.3382L78.9931 61.3415L81.2973 66.2137L76.8485 69.1273L75.8936 74.3829L70.5277 74.186L66.752 77.8763L62.5439 74.5491Z" fill="white"/>
</g>
<defs>
<filter id="filter0_d_10708_271701" x="58" y="114.873" width="115.727" height="115.726" filterUnits="userSpaceOnUse" color-interpolation-filters="sRGB">
<feFlood flood-opacity="0" result="BackgroundImageFix"/>
<feColorMatrix in="SourceAlpha" type="matrix" values="0 0 0 0 0 0 0 0 0 0 0 0 0 0 0 0 0 0 127 0" result="hardAlpha"/>
<feOffset dy="2"/>
<feGaussianBlur stdDeviation="7.5"/>
<feComposite in2="hardAlpha" operator="out"/>
<feColorMatrix type="matrix" values="0 0 0 0 0.0509804 0 0 0 0 0.584314 0 0 0 0 1 0 0 0 0.15 0"/>
<feBlend mode="normal" in2="BackgroundImageFix" result="effect1_dropShadow_10708_271701"/>
<feBlend mode="normal" in="SourceGraphic" in2="effect1_dropShadow_10708_271701" result="shape"/>
</filter>
<filter id="filter1_d_10708_271701" x="-3.65039" y="-4" width="140.994" height="140.994" filterUnits="userSpaceOnUse" color-interpolation-filters="sRGB">
<feFlood flood-opacity="0" result="BackgroundImageFix"/>
<feColorMatrix in="SourceAlpha" type="matrix" values="0 0 0 0 0 0 0 0 0 0 0 0 0 0 0 0 0 0 127 0" result="hardAlpha"/>
<feOffset dy="4"/>
<feGaussianBlur stdDeviation="12.5"/>
<feComposite in2="hardAlpha" operator="out"/>
<feColorMatrix type="matrix" values="0 0 0 0 0.0509804 0 0 0 0 0.584314 0 0 0 0 1 0 0 0 0.25 0"/>
<feBlend mode="normal" in2="BackgroundImageFix" result="effect1_dropShadow_10708_271701"/>
<feBlend mode="normal" in="SourceGraphic" in2="effect1_dropShadow_10708_271701" result="shape"/>
</filter>
<linearGradient id="paint0_linear_10708_271701" x1="142.913" y1="141.174" x2="110.465" y2="218.26" gradientUnits="userSpaceOnUse">
<stop stop-color="#4CD2E9"/>
<stop offset="1" stop-color="#0F85FF"/>
</linearGradient>
<linearGradient id="paint1_linear_10708_271701" x1="49.0349" y1="27.0243" x2="81.6607" y2="105.372" gradientUnits="userSpaceOnUse">
<stop stop-color="#4AE4FE"/>
<stop offset="1" stop-color="#0F85FF"/>
</linearGradient>
</defs>
</svg>
