<svg viewBox="0 0 8 10" fill="none" xmlns="http://www.w3.org/2000/svg">
<path d="M1.49959 9.16669C1.27043 9.16669 1.07425 9.08509 0.911051 8.9219C0.747857 8.7587 0.66626 8.56252 0.66626 8.33335V4.16669C0.66626 3.93752 0.747857 3.74134 0.911051 3.57815C1.07425 3.41495 1.27043 3.33335 1.49959 3.33335H1.91626V2.50002C1.91626 1.92363 2.11938 1.43231 2.52563 1.02606C2.93188 0.619812 3.4232 0.416687 3.99959 0.416687C4.57598 0.416687 5.0673 0.619812 5.47355 1.02606C5.8798 1.43231 6.08293 1.92363 6.08293 2.50002V3.33335H6.49959C6.72876 3.33335 6.92494 3.41495 7.08814 3.57815C7.25133 3.74134 7.33293 3.93752 7.33293 4.16669V8.33335C7.33293 8.56252 7.25133 8.7587 7.08814 8.9219C6.92494 9.08509 6.72876 9.16669 6.49959 9.16669H1.49959ZM2.74959 3.33335H5.24959V2.50002C5.24959 2.1528 5.12807 1.85766 4.88501 1.6146C4.64195 1.37155 4.34682 1.25002 3.99959 1.25002C3.65237 1.25002 3.35723 1.37155 3.11418 1.6146C2.87112 1.85766 2.74959 2.1528 2.74959 2.50002V3.33335Z" fill="#1C5377"/>
</svg>
