<svg width="121" height="138" viewBox="0 0 121 138" fill="none" xmlns="http://www.w3.org/2000/svg">
<g filter="url(#filter0_d_10542_292782)">
<path d="M87.4514 27.75L66.338 21.9344C60.4543 20.3138 54.3708 23.7697 52.7501 29.6534L46.9345 50.7668C45.3139 56.6505 48.7698 62.734 54.6535 64.3546L75.7669 70.1702C81.6506 71.7909 87.7341 68.335 89.3547 62.4513L95.1703 41.3379C96.791 35.4542 93.3351 29.3707 87.4514 27.75Z" fill="url(#paint0_linear_10542_292782)"/>
<path d="M59.25 51.8935C58.6249 51.7213 58.1553 51.3511 57.8411 50.7828C57.5269 50.2145 57.4579 49.6106 57.6341 48.9709L61.2284 35.9221C61.4046 35.2824 61.7466 34.8951 62.3075 34.5679C62.8683 34.2407 63.382 34.4508 64.0071 34.6229L83.2581 39.9255C83.8832 40.0977 84.2581 40.2011 84.7462 40.7484C85.0604 41.3167 85.1558 41.8247 84.9797 42.4643L81.3854 55.5131C81.2092 56.1528 80.8407 56.6362 80.2799 56.9635C79.719 57.2907 79.1261 57.3682 78.501 57.1961L59.25 51.8935ZM70.8136 47.5086L62.3987 38.9973L59.5092 49.4874C59.4799 49.594 59.4915 49.695 59.5442 49.7902C59.5962 49.8844 59.6744 49.9458 59.7785 49.9745L79.0296 55.2771C79.1338 55.3058 79.2327 55.2932 79.3265 55.2392C79.4197 55.1841 79.481 55.1033 79.5103 54.9966L82.3998 44.5065L70.8136 47.5086ZM71.5183 44.9501L83.1046 41.9478L63.1035 36.4386L71.5183 44.9501ZM62.3987 38.9973L63.1035 36.4386L59.5092 49.4874C59.4799 49.594 59.4915 49.695 59.5442 49.7902C59.5962 49.8844 59.6744 49.9458 59.7785 49.9745L59.4035 49.8712L59.5092 49.4874L62.3987 38.9973Z" fill="white"/>
</g>
<g filter="url(#filter1_d_10542_292782)">
<path d="M46.4493 72.9189L24.8823 76.7218C18.8722 77.7815 14.8591 83.5128 15.9188 89.5229L19.7217 111.09C20.7814 117.1 26.5127 121.113 32.5228 120.053L54.0898 116.25C60.0999 115.191 64.113 109.459 63.0532 103.449L59.2504 81.8824C58.1906 75.8723 52.4594 71.8592 46.4493 72.9189Z" fill="url(#paint1_linear_10542_292782)"/>
<path d="M49.9058 97.4802L45.6738 97.5504C44.9906 97.4442 43.9916 98.1066 43.9119 98.2588L41.6616 100.676C38.3678 99.6 36.1866 98.0732 34.0747 95.3649L35.5309 92.5013C35.6936 92.2963 35.9881 91.1686 35.6565 90.5297L34.2713 86.5225C34.0912 85.501 33.1136 84.8165 32.0922 84.9966L27.8525 85.7442C26.831 85.9243 26.1465 86.9018 26.3266 87.9233C28.3912 99.6318 39.5961 107.478 51.3046 105.413C52.326 105.233 53.0105 104.255 52.8304 103.234L52.0849 99.006C51.9048 97.9846 51.8001 97.3909 49.9058 97.4802Z" stroke="white" stroke-width="2"/>
</g>
<defs>
<filter id="filter0_d_10542_292782" x="19" y="-2" width="104.105" height="104.105" filterUnits="userSpaceOnUse" color-interpolation-filters="sRGB">
<feFlood flood-opacity="0" result="BackgroundImageFix"/>
<feColorMatrix in="SourceAlpha" type="matrix" values="0 0 0 0 0 0 0 0 0 0 0 0 0 0 0 0 0 0 127 0" result="hardAlpha"/>
<feOffset dy="4"/>
<feGaussianBlur stdDeviation="12.5"/>
<feComposite in2="hardAlpha" operator="out"/>
<feColorMatrix type="matrix" values="0 0 0 0 0.0509804 0 0 0 0 0.584314 0 0 0 0 1 0 0 0 0.25 0"/>
<feBlend mode="normal" in2="BackgroundImageFix" result="effect1_dropShadow_10542_292782"/>
<feBlend mode="normal" in="SourceGraphic" in2="effect1_dropShadow_10542_292782" result="shape"/>
</filter>
<filter id="filter1_d_10542_292782" x="-1" y="58" width="80.9722" height="80.9722" filterUnits="userSpaceOnUse" color-interpolation-filters="sRGB">
<feFlood flood-opacity="0" result="BackgroundImageFix"/>
<feColorMatrix in="SourceAlpha" type="matrix" values="0 0 0 0 0 0 0 0 0 0 0 0 0 0 0 0 0 0 127 0" result="hardAlpha"/>
<feOffset dy="2"/>
<feGaussianBlur stdDeviation="7.5"/>
<feComposite in2="hardAlpha" operator="out"/>
<feColorMatrix type="matrix" values="0 0 0 0 0.0509804 0 0 0 0 0.584314 0 0 0 0 1 0 0 0 0.15 0"/>
<feBlend mode="normal" in2="BackgroundImageFix" result="effect1_dropShadow_10542_292782"/>
<feBlend mode="normal" in="SourceGraphic" in2="effect1_dropShadow_10542_292782" result="shape"/>
</filter>
<linearGradient id="paint0_linear_10542_292782" x1="60.4621" y1="24.9604" x2="79.8612" y2="71.5454" gradientUnits="userSpaceOnUse">
<stop stop-color="#4AE4FE"/>
<stop offset="1" stop-color="#0F85FF"/>
</linearGradient>
<linearGradient id="paint1_linear_10542_292782" x1="55.57" y1="78.9085" x2="36.2768" y2="124.744" gradientUnits="userSpaceOnUse">
<stop stop-color="#4CD2E9"/>
<stop offset="1" stop-color="#0F85FF"/>
</linearGradient>
</defs>
</svg>
