<svg width="388" height="388" viewBox="0 0 388 388" fill="none" xmlns="http://www.w3.org/2000/svg">
<g clip-path="url(#clip0_10569_266714)">
<g filter="url(#filter0_d_10569_266714)">
<path d="M194.117 354.986C265.634 354.986 323.61 296.99 323.61 225.449C323.61 153.908 265.634 95.9119 194.117 95.9119C122.6 95.9119 64.624 153.908 64.624 225.449C64.624 296.99 122.6 354.986 194.117 354.986Z" fill="url(#paint0_radial_10569_266714)"/>
</g>
<g filter="url(#filter1_d_10569_266714)">
<path d="M323.272 80.7448C341.574 106.374 337.563 166.12 327.281 210.589C316.999 255.058 230.421 113.838 240.319 111.032C303.672 77.4035 309.833 65.6677 323.272 80.7448Z" fill="url(#paint1_linear_10569_266714)"/>
<path d="M325.016 80.1252C343.602 106.158 339.531 166.828 329.084 211.995C318.637 257.161 230.728 113.737 240.781 110.889C305.117 76.7332 311.37 64.8224 325.016 80.1252Z" fill="url(#paint2_linear_10569_266714)"/>
</g>
<path d="M325.946 80.495C338.259 97.9115 340.704 153.954 325.201 217.547C327.936 182.208 320.292 142.69 316.732 120.24C312.833 86.8749 312.554 65.326 325.946 80.495Z" fill="url(#paint3_radial_10569_266714)"/>
<path d="M317.364 75.8164C304.361 89.7439 330.872 166.433 325.409 218.234" stroke="#D8EDFF" stroke-width="2" stroke-linecap="round"/>
<g filter="url(#filter2_d_10569_266714)">
<path d="M65.235 80.9101C46.9334 106.54 50.944 166.286 61.2269 210.756C71.5097 255.225 158.087 114.004 148.189 111.199C84.8357 77.5701 78.6742 65.8334 65.235 80.9101Z" fill="url(#paint4_linear_10569_266714)"/>
<path d="M62.9882 80.3046C44.3999 106.334 48.4722 167.006 58.9137 212.164C69.3552 257.322 157.274 113.913 147.221 111.065C82.8894 76.916 76.6313 64.9984 62.9882 80.3046Z" fill="url(#paint5_linear_10569_266714)"/>
</g>
<path d="M63.1629 80.495C50.8502 97.9115 48.4051 153.954 63.9087 217.547C61.1729 182.208 68.8169 142.69 72.3775 120.24C76.2766 86.8749 76.555 65.326 63.1629 80.495Z" fill="url(#paint6_radial_10569_266714)"/>
<path d="M71.7053 75.8167C84.7066 89.7449 58.1989 166.434 63.6598 218.234" stroke="#D8EDFF" stroke-width="2" stroke-linecap="round"/>
<g filter="url(#filter3_d_10569_266714)">
<path d="M194.631 91.9805C267.067 91.9805 325.446 151.072 325.446 223.532C325.446 295.993 266.725 354.734 194.288 354.734C121.852 354.734 63.1304 295.993 63.1304 223.532C63.1304 151.071 122.194 91.9805 194.631 91.9805Z" fill="url(#paint7_radial_10569_266714)"/>
</g>
<path opacity="0.483" d="M124.949 334.421C130.135 329.32 114.511 321.753 120.762 317.725C127.299 314.027 139.862 342.741 194.372 343.321" stroke="#2FB6EF" stroke-width="0.5" stroke-linecap="round"/>
<path opacity="0.483" d="M263.818 334.424C258.632 329.322 274.256 321.754 268.003 317.726C261.466 314.028 248.903 342.743 194.393 343.323" stroke="#2FB6EF" stroke-width="0.5" stroke-linecap="round"/>
<g filter="url(#filter4_d_10569_266714)">
<path d="M62.8773 218.623C60.8724 229.547 70.1734 263.789 77.4836 279.935C87.8866 302.907 106.018 319.594 107.533 320.734C107.54 321.132 108.95 324.231 104.584 321.931C90.4249 314.483 63.6389 288.573 52.6499 262.142C41.6609 235.712 58.2709 218.663 62.8773 218.623Z" fill="url(#paint8_linear_10569_266714)"/>
</g>
<path d="M57.0174 222.466C60.73 223.65 59.0825 247.474 64.1093 264.749C69.1361 282.024 75.0332 291.264 75.0012 291.323C75.1883 291.51 76.2396 293.132 73.4043 291.823C63.1474 285.989 48.7912 262.211 45.3462 244.298C41.8841 226.295 53.3047 221.283 57.0174 222.466Z" fill="url(#paint9_radial_10569_266714)"/>
<path opacity="0.485" d="M53.9016 224.557C57.7293 224.74 46.0832 232.825 50.8351 249.53C55.5869 266.235 63.8486 283.867 73.1561 291.096C56.2743 278.894 47.5083 247.849 47.3881 247.334C43.468 230.514 50.0745 224.373 53.9016 224.557Z" fill="url(#paint10_linear_10569_266714)"/>
<g filter="url(#filter5_d_10569_266714)">
<path d="M324.898 218.627C326.903 229.55 317.602 263.793 310.292 279.939C299.889 302.912 281.757 319.599 280.243 320.739C280.235 321.137 278.825 324.236 283.191 321.936C297.351 314.488 324.136 288.578 335.126 262.147C346.115 235.716 329.505 218.667 324.898 218.627Z" fill="url(#paint11_linear_10569_266714)"/>
</g>
<path d="M330.755 222.469C327.042 223.653 328.689 247.477 323.661 264.755C318.633 282.033 312.739 291.266 312.771 291.325C312.584 291.512 311.533 293.134 314.368 291.825C324.624 285.992 338.981 262.214 342.426 244.301C345.888 226.298 334.467 221.285 330.755 222.469Z" fill="url(#paint12_radial_10569_266714)"/>
<path opacity="0.485" d="M333.873 224.559C330.045 224.742 341.691 232.826 336.939 249.532C332.188 266.238 323.926 283.87 314.618 291.098C331.5 278.897 340.266 247.851 340.386 247.337C344.306 230.516 337.7 224.375 333.873 224.559Z" fill="url(#paint13_linear_10569_266714)"/>
<g opacity="0.997">
<g opacity="0.518">
<path opacity="0.395" d="M63.1938 217.241C63.1938 185.082 93.2342 96.144 192.632 96.144C292.031 96.144 325.634 186.535 325.634 217.241C325.634 247.948 316.68 269.314 280.406 269.314C244.133 269.314 220.037 246.2 194.388 246.908C168.74 247.617 147.054 269.314 108.679 269.314C70.3038 269.314 63.1938 249.401 63.1938 217.241Z" fill="url(#paint14_linear_10569_266714)"/>
<path opacity="0.518" d="M63.4082 214.933C63.4082 183.399 94.2395 96.3706 194.39 96.3706C294.541 96.3706 325.264 185.887 325.264 215.996C325.264 246.106 314.683 267.961 278.41 267.961C242.136 267.961 220.039 245.297 194.391 245.991C168.743 246.686 151.056 267.961 112.682 267.961C74.3071 267.961 63.4082 246.466 63.4082 214.933Z" fill="url(#paint15_linear_10569_266714)"/>
</g>
<g opacity="0.997">
<path opacity="0.997" d="M69.9663 212.503C69.9663 181.637 96.8116 100.383 194.577 100.383C292.343 100.383 319.189 183.031 319.189 212.503C319.189 241.975 305.194 264.411 271.275 264.411C237.355 264.411 221.525 244.864 194.579 244.864C167.633 244.864 155.924 264.411 120.04 264.411C84.1547 264.411 69.9663 243.37 69.9663 212.503Z" fill="url(#paint16_radial_10569_266714)"/>
<path opacity="0.997" d="M74.562 208.403C74.562 180.589 107.814 100.385 194.541 100.385C281.268 100.385 314.521 180.539 314.521 208.403C314.521 236.267 295.505 254.289 265.71 259.566C235.916 264.842 220.503 239.58 194.542 239.58C168.581 239.58 160.414 261.31 130.989 259.566C101.563 257.821 74.562 236.217 74.562 208.403Z" fill="url(#paint17_radial_10569_266714)"/>
</g>
<path opacity="0.997" d="M194.547 106.52C240.463 106.52 268.592 128.366 275.884 143.577C283.288 161.231 245.7 176.081 194.546 176.395C150.466 176.667 111.354 160.35 114.715 143.105C118.993 126.875 152.396 106.52 194.547 106.52Z" fill="url(#paint18_linear_10569_266714)"/>
<path opacity="0.782" d="M180.752 92.793C183.128 97.7053 184.65 101.55 184.65 108.073C184.65 130.72 168.546 148.111 146.458 148.111C131.328 148.111 116.359 140.466 109.286 127.229C109.665 127.368 122.789 112.541 141.833 104.54C160.877 96.5392 180.284 92.8031 180.752 92.793Z" fill="url(#paint19_radial_10569_266714)"/>
<path opacity="0.546" d="M99.6732 245.74C81.2755 234.66 83.3888 184.171 112.553 142.434C121.464 130.294 149.25 113.326 149.206 115.804C130.655 152.583 129.132 195.562 145.875 256.441C129.556 262.31 103.507 249.252 99.6732 245.74Z" fill="url(#paint20_linear_10569_266714)"/>
<path style="mix-blend-mode:screen" d="M195.135 87.145C227.76 86.8095 259.147 102.445 259.147 102.445C259.147 102.445 238.641 121.924 195.135 121.924C151.629 121.924 133.771 102.445 133.771 102.445C133.771 102.445 162.51 87.4805 195.135 87.145Z" fill="url(#paint21_radial_10569_266714)"/>
</g>
<g filter="url(#filter6_d_10569_266714)">
<path d="M221.836 262.959C221.836 262.959 207.538 258.414 195.212 258.414C182.885 258.414 168.732 262.959 168.732 262.959C168.732 262.959 170.139 298.51 195.212 298.51C220.285 298.51 221.836 262.959 221.836 262.959Z" fill="url(#paint22_linear_10569_266714)"/>
</g>
<path opacity="0.683" d="M176.459 288.244C180.064 293.773 186.062 298.509 195.214 298.509C203.689 298.509 209.476 294.448 213.781 288.573C203.098 297.447 189.482 300.181 176.459 288.244Z" fill="#8DD6FF"/>
<path d="M107.338 218.459C108.294 223.897 114.581 236.128 127.44 236.128C140.298 236.128 165.81 229.705 168.672 227.587C171.534 225.469 169.255 210.017 166.05 200.22C162.845 190.424 153.846 172.945 130.801 177.944C107.756 182.943 106.381 213.021 107.338 218.459Z" fill="white"/>
<path d="M283.199 218.46C282.243 223.898 275.956 236.129 263.098 236.129C250.24 236.129 224.727 229.707 221.865 227.588C219.003 225.47 221.282 210.018 224.487 200.221C227.693 190.424 236.691 172.946 259.736 177.945C282.781 182.944 284.155 213.022 283.199 218.46Z" fill="white"/>
<path opacity="0.996" d="M198.705 328.21C226.621 328 279.144 310.614 279.144 322.213C279.144 333.813 244.839 353.504 198.705 354.071C152.57 354.637 111.066 333.813 111.066 322.214C111.066 310.614 170.788 328.422 198.705 328.21Z" fill="url(#paint23_radial_10569_266714)"/>
<path d="M132.431 94.4558L122.854 53.5754L151.366 78.7367C152.178 79.465 153.145 79.9997 154.194 80.3005C155.242 80.6013 156.345 80.6605 157.42 80.4735C158.495 80.2865 159.513 79.8584 160.399 79.2211C161.284 78.5838 162.014 77.7541 162.533 76.7942L196.927 20L230.272 73.7965C230.956 75.0266 231.913 76.0833 233.07 76.8852C234.226 77.6871 235.551 78.2128 236.943 78.4219C238.334 78.631 239.755 78.5178 241.096 78.0912C242.437 77.6645 243.662 76.9357 244.677 75.9609L270.084 52.0576L260.507 95.6516L132.431 94.4558Z" fill="url(#paint24_linear_10569_266714)"/>
<g filter="url(#filter7_d_10569_266714)">
<path d="M132.435 94.4768L122.858 53.5964L151.37 78.7577C152.182 79.486 153.149 80.0207 154.198 80.3215C155.246 80.6223 156.349 80.6815 157.424 80.4945C158.499 80.3075 159.517 79.8794 160.403 79.2421C161.288 78.6048 162.018 77.7751 162.537 76.8152L196.931 20.021L230.276 73.8175C230.96 75.0476 231.917 76.1042 233.074 76.9062C234.23 77.7081 235.555 78.2338 236.946 78.4429C238.338 78.652 239.759 78.5388 241.1 78.1122C242.441 77.6855 243.666 76.9567 244.681 75.9818L270.088 52.0786L260.511 95.6726L132.435 94.4768Z" fill="url(#paint25_linear_10569_266714)"/>
</g>
<path d="M133.594 93.1056L125.21 57.1493L150.793 79.8053C152.296 81.1774 154.256 81.942 156.291 81.9507C157.795 81.921 159.266 81.5002 160.559 80.7299C161.851 79.9596 162.921 78.8661 163.664 77.557L196.944 22.4023L229.166 74.5755C230.093 76.1643 231.412 77.4882 232.997 78.4201C234.582 79.352 236.38 79.8607 238.219 79.8972C240.859 79.8716 243.388 78.8335 245.286 76.9969L267.772 55.7668L259.341 94.2798L133.594 93.1056Z" fill="url(#paint26_linear_10569_266714)"/>
<g opacity="0.595">
<g style="mix-blend-mode:multiply" opacity="0.55">
<path d="M133.594 93.1056L125.21 57.1493L150.793 79.8053C152.296 81.1774 154.256 81.942 156.291 81.9507C157.795 81.921 159.266 81.5002 160.559 80.7299C161.851 79.9596 162.921 78.8661 163.664 77.557L196.944 22.4023L229.166 74.5755C230.093 76.1643 231.412 77.4882 232.997 78.4201C234.582 79.352 236.38 79.8607 238.219 79.8972C240.859 79.8716 243.388 78.8335 245.286 76.9969L267.772 55.7668L259.341 94.2798L133.594 93.1056Z" fill="#89561F"/>
</g>
</g>
<path style="mix-blend-mode:screen" d="M133.301 93.4522L124.614 56.2649L150.927 79.5458C152.382 80.8714 154.277 81.6099 156.244 81.6182C157.699 81.5906 159.122 81.1847 160.372 80.4404C161.623 79.6961 162.658 78.6391 163.376 77.3733L196.94 21.7993L229.444 74.3783C230.347 75.9241 231.632 77.2119 233.175 78.1182C234.719 79.0245 236.469 79.5189 238.258 79.5539C240.828 79.5295 243.29 78.5205 245.139 76.7348L268.355 54.8364L259.641 94.6074L133.301 93.4522Z" fill="url(#paint27_radial_10569_266714)"/>
<path style="mix-blend-mode:multiply" opacity="0.617" d="M133.301 93.4522L124.614 56.2649L150.927 79.5458C152.382 80.8714 154.277 81.6099 156.244 81.6182C157.699 81.5906 159.122 81.1847 160.372 80.4404C161.623 79.6961 162.658 78.6391 163.376 77.3733L196.94 21.7993L229.444 74.3783C230.347 75.9241 231.632 77.2119 233.175 78.1182C234.719 79.0245 236.469 79.5189 238.258 79.5539C240.828 79.5295 243.29 78.5205 245.139 76.7348L268.355 54.8364L259.641 94.6074L133.301 93.4522Z" fill="url(#paint28_linear_10569_266714)"/>
<path style="mix-blend-mode:multiply" opacity="0.617" d="M133.301 93.4522L124.614 56.2649L150.927 79.5458C152.382 80.8714 154.277 81.6099 156.244 81.6182C157.699 81.5906 159.122 81.1847 160.372 80.4404C161.623 79.6961 162.658 78.6391 163.376 77.3733L196.94 21.7993L229.444 74.3783C230.347 75.9241 231.632 77.2119 233.175 78.1182C234.719 79.0245 236.469 79.5189 238.258 79.5539C240.828 79.5295 243.29 78.5205 245.139 76.7348L268.355 54.8364L259.641 94.6074L133.301 93.4522Z" fill="url(#paint29_linear_10569_266714)"/>
<path d="M155.326 83.0763C153.632 83.0688 152 82.4336 150.747 81.2934L124.242 57.8826L123.431 54.4709L151.21 79.0045C152.565 80.2381 154.329 80.9253 156.162 80.9335C157.516 80.9074 158.84 80.5299 160.004 79.8379C161.169 79.146 162.134 78.1633 162.804 76.9862L196.923 20.6006L229.986 73.9912C230.841 75.4512 232.056 76.6672 233.515 77.5227C234.974 78.3783 236.628 78.8447 238.319 78.8774C240.743 78.8508 243.065 77.8984 244.81 76.2151L269.487 52.9802L269.173 54.4114L243.574 78.5148C241.931 80.1008 239.742 80.9965 237.459 81.0174C235.867 80.9876 234.31 80.5488 232.936 79.7434C231.563 78.938 230.419 77.7929 229.616 76.418L196.079 22.2239L161.46 79.4266C160.841 80.5138 159.95 81.4217 158.875 82.0615C157.799 82.7012 156.577 83.0508 155.326 83.0763Z" fill="url(#paint30_linear_10569_266714)"/>
<path d="M259.34 94.4528V112.488C259.053 109.409 225.822 101.582 196.469 101.582C167.116 101.582 133.641 109.428 133.598 112.528V94.4528C133.598 91.355 161.75 84.905 196.474 84.905C231.199 84.905 259.34 91.355 259.34 94.4528Z" fill="url(#paint31_linear_10569_266714)"/>
<path opacity="0.54" d="M134.954 94.8345C137.658 92.8486 159.958 86.2634 196.47 86.2634C232.982 86.2634 255.265 92.8514 257.98 94.8345V109.985C255.589 109.055 213.157 100.787 196.47 100.787C179.701 100.787 137.358 109.055 134.954 109.985V94.8345Z" fill="url(#paint32_linear_10569_266714)"/>
<path style="mix-blend-mode:screen" d="M134.954 94.8345C137.658 92.8486 159.958 86.2634 196.47 86.2634C232.982 86.2634 255.265 92.8514 257.98 94.8345V109.985C255.589 109.055 218.041 100.476 196.47 100.476C172.585 100.476 137.358 109.063 134.954 110.004V94.8345Z" fill="url(#paint33_linear_10569_266714)"/>
<g filter="url(#filter8_d_10569_266714)">
<path d="M163.406 97.1587L166.673 108.565L177.421 111.179L166.673 114.815L163.406 125.199L160.18 114.815L149.391 111.179L160.18 108.565L163.406 97.1587Z" fill="white"/>
</g>
<g filter="url(#filter9_d_10569_266714)">
<path d="M173.002 103.381C173.749 103.381 174.354 102.776 174.354 102.029C174.354 101.281 173.749 100.676 173.002 100.676C172.255 100.676 171.649 101.281 171.649 102.029C171.649 102.776 172.255 103.381 173.002 103.381Z" fill="white"/>
</g>
</g>
<defs>
<filter id="filter0_d_10569_266714" x="34.624" y="69.9119" width="318.986" height="319.074" filterUnits="userSpaceOnUse" color-interpolation-filters="sRGB">
<feFlood flood-opacity="0" result="BackgroundImageFix"/>
<feColorMatrix in="SourceAlpha" type="matrix" values="0 0 0 0 0 0 0 0 0 0 0 0 0 0 0 0 0 0 127 0" result="hardAlpha"/>
<feOffset dy="4"/>
<feGaussianBlur stdDeviation="15"/>
<feColorMatrix type="matrix" values="0 0 0 0 0 0 0 0 0 0.505882 0 0 0 0 0.878431 0 0 0 0.302 0"/>
<feBlend mode="normal" in2="BackgroundImageFix" result="effect1_dropShadow_10569_266714"/>
<feBlend mode="normal" in="SourceGraphic" in2="effect1_dropShadow_10569_266714" result="shape"/>
</filter>
<filter id="filter1_d_10569_266714" x="189.532" y="16.5564" width="198.405" height="247.23" filterUnits="userSpaceOnUse" color-interpolation-filters="sRGB">
<feFlood flood-opacity="0" result="BackgroundImageFix"/>
<feColorMatrix in="SourceAlpha" type="matrix" values="0 0 0 0 0 0 0 0 0 0 0 0 0 0 0 0 0 0 127 0" result="hardAlpha"/>
<feOffset dy="-7"/>
<feGaussianBlur stdDeviation="25"/>
<feColorMatrix type="matrix" values="0 0 0 0 0.215686 0 0 0 0 0.65098 0 0 0 0 0.968627 0 0 0 0.243 0"/>
<feBlend mode="normal" in2="BackgroundImageFix" result="effect1_dropShadow_10569_266714"/>
<feBlend mode="normal" in="SourceGraphic" in2="effect1_dropShadow_10569_266714" result="shape"/>
</filter>
<filter id="filter2_d_10569_266714" x="0.0649414" y="16.7349" width="198.911" height="247.218" filterUnits="userSpaceOnUse" color-interpolation-filters="sRGB">
<feFlood flood-opacity="0" result="BackgroundImageFix"/>
<feColorMatrix in="SourceAlpha" type="matrix" values="0 0 0 0 0 0 0 0 0 0 0 0 0 0 0 0 0 0 127 0" result="hardAlpha"/>
<feOffset dy="-7"/>
<feGaussianBlur stdDeviation="25"/>
<feColorMatrix type="matrix" values="0 0 0 0 0.215686 0 0 0 0 0.65098 0 0 0 0 0.968627 0 0 0 0.243 0"/>
<feBlend mode="normal" in2="BackgroundImageFix" result="effect1_dropShadow_10569_266714"/>
<feBlend mode="normal" in="SourceGraphic" in2="effect1_dropShadow_10569_266714" result="shape"/>
</filter>
<filter id="filter3_d_10569_266714" x="27.1304" y="58.9805" width="334.316" height="334.754" filterUnits="userSpaceOnUse" color-interpolation-filters="sRGB">
<feFlood flood-opacity="0" result="BackgroundImageFix"/>
<feColorMatrix in="SourceAlpha" type="matrix" values="0 0 0 0 0 0 0 0 0 0 0 0 0 0 0 0 0 0 127 0" result="hardAlpha"/>
<feOffset dy="3"/>
<feGaussianBlur stdDeviation="18"/>
<feColorMatrix type="matrix" values="0 0 0 0 0.0627451 0 0 0 0 0.596078 0 0 0 0 1 0 0 0 0.098 0"/>
<feBlend mode="normal" in2="BackgroundImageFix" result="effect1_dropShadow_10569_266714"/>
<feBlend mode="normal" in="SourceGraphic" in2="effect1_dropShadow_10569_266714" result="shape"/>
</filter>
<filter id="filter4_d_10569_266714" x="36.9595" y="206.623" width="86.7959" height="132.149" filterUnits="userSpaceOnUse" color-interpolation-filters="sRGB">
<feFlood flood-opacity="0" result="BackgroundImageFix"/>
<feColorMatrix in="SourceAlpha" type="matrix" values="0 0 0 0 0 0 0 0 0 0 0 0 0 0 0 0 0 0 127 0" result="hardAlpha"/>
<feOffset dx="2" dy="2"/>
<feGaussianBlur stdDeviation="7"/>
<feColorMatrix type="matrix" values="0 0 0 0 0.117647 0 0 0 0 0.568627 0 0 0 0 0.956863 0 0 0 0.447 0"/>
<feBlend mode="normal" in2="BackgroundImageFix" result="effect1_dropShadow_10569_266714"/>
<feBlend mode="normal" in="SourceGraphic" in2="effect1_dropShadow_10569_266714" result="shape"/>
</filter>
<filter id="filter5_d_10569_266714" x="264.02" y="206.627" width="86.7959" height="132.151" filterUnits="userSpaceOnUse" color-interpolation-filters="sRGB">
<feFlood flood-opacity="0" result="BackgroundImageFix"/>
<feColorMatrix in="SourceAlpha" type="matrix" values="0 0 0 0 0 0 0 0 0 0 0 0 0 0 0 0 0 0 127 0" result="hardAlpha"/>
<feOffset dx="-2" dy="2"/>
<feGaussianBlur stdDeviation="7"/>
<feColorMatrix type="matrix" values="0 0 0 0 0.117647 0 0 0 0 0.568627 0 0 0 0 0.956863 0 0 0 0.447 0"/>
<feBlend mode="normal" in2="BackgroundImageFix" result="effect1_dropShadow_10569_266714"/>
<feBlend mode="normal" in="SourceGraphic" in2="effect1_dropShadow_10569_266714" result="shape"/>
</filter>
<filter id="filter6_d_10569_266714" x="166.732" y="256.414" width="57.1045" height="44.0964" filterUnits="userSpaceOnUse" color-interpolation-filters="sRGB">
<feFlood flood-opacity="0" result="BackgroundImageFix"/>
<feColorMatrix in="SourceAlpha" type="matrix" values="0 0 0 0 0 0 0 0 0 0 0 0 0 0 0 0 0 0 127 0" result="hardAlpha"/>
<feOffset/>
<feGaussianBlur stdDeviation="1"/>
<feColorMatrix type="matrix" values="0 0 0 0 0.00784314 0 0 0 0 0.654902 0 0 0 0 1 0 0 0 0.776 0"/>
<feBlend mode="normal" in2="BackgroundImageFix" result="effect1_dropShadow_10569_266714"/>
<feBlend mode="normal" in="SourceGraphic" in2="effect1_dropShadow_10569_266714" result="shape"/>
</filter>
<filter id="filter7_d_10569_266714" x="102.858" y="5.021" width="187.23" height="115.652" filterUnits="userSpaceOnUse" color-interpolation-filters="sRGB">
<feFlood flood-opacity="0" result="BackgroundImageFix"/>
<feColorMatrix in="SourceAlpha" type="matrix" values="0 0 0 0 0 0 0 0 0 0 0 0 0 0 0 0 0 0 127 0" result="hardAlpha"/>
<feOffset dy="5"/>
<feGaussianBlur stdDeviation="10"/>
<feColorMatrix type="matrix" values="0 0 0 0 1 0 0 0 0 0.941176 0 0 0 0 0.501961 0 0 0 0.765 0"/>
<feBlend mode="normal" in2="BackgroundImageFix" result="effect1_dropShadow_10569_266714"/>
<feBlend mode="normal" in="SourceGraphic" in2="effect1_dropShadow_10569_266714" result="shape"/>
</filter>
<filter id="filter8_d_10569_266714" x="143.391" y="94.1587" width="40.0303" height="40.04" filterUnits="userSpaceOnUse" color-interpolation-filters="sRGB">
<feFlood flood-opacity="0" result="BackgroundImageFix"/>
<feColorMatrix in="SourceAlpha" type="matrix" values="0 0 0 0 0 0 0 0 0 0 0 0 0 0 0 0 0 0 127 0" result="hardAlpha"/>
<feOffset dy="3"/>
<feGaussianBlur stdDeviation="3"/>
<feColorMatrix type="matrix" values="0 0 0 0 1 0 0 0 0 1 0 0 0 0 1 0 0 0 0.514 0"/>
<feBlend mode="normal" in2="BackgroundImageFix" result="effect1_dropShadow_10569_266714"/>
<feBlend mode="normal" in="SourceGraphic" in2="effect1_dropShadow_10569_266714" result="shape"/>
</filter>
<filter id="filter9_d_10569_266714" x="165.649" y="94.6758" width="14.7046" height="14.7056" filterUnits="userSpaceOnUse" color-interpolation-filters="sRGB">
<feFlood flood-opacity="0" result="BackgroundImageFix"/>
<feColorMatrix in="SourceAlpha" type="matrix" values="0 0 0 0 0 0 0 0 0 0 0 0 0 0 0 0 0 0 127 0" result="hardAlpha"/>
<feOffset/>
<feGaussianBlur stdDeviation="3"/>
<feColorMatrix type="matrix" values="0 0 0 0 1 0 0 0 0 1 0 0 0 0 1 0 0 0 0.847 0"/>
<feBlend mode="normal" in2="BackgroundImageFix" result="effect1_dropShadow_10569_266714"/>
<feBlend mode="normal" in="SourceGraphic" in2="effect1_dropShadow_10569_266714" result="shape"/>
</filter>
<radialGradient id="paint0_radial_10569_266714" cx="0" cy="0" r="1" gradientUnits="userSpaceOnUse" gradientTransform="translate(194.117 225.449) scale(129.493 129.537)">
<stop stop-color="white"/>
<stop offset="0.695" stop-color="white"/>
<stop offset="1" stop-color="#F5F5F5"/>
</radialGradient>
<linearGradient id="paint1_linear_10569_266714" x1="324.325" y1="207.044" x2="285.599" y2="84.0539" gradientUnits="userSpaceOnUse">
<stop stop-color="#0B5B90"/>
<stop offset="0.269" stop-color="#65C4FF"/>
<stop offset="0.755" stop-color="white"/>
<stop offset="1" stop-color="white"/>
</linearGradient>
<linearGradient id="paint2_linear_10569_266714" x1="326.082" y1="208.396" x2="274.457" y2="88.3622" gradientUnits="userSpaceOnUse">
<stop stop-color="#0B5B90"/>
<stop offset="0.269" stop-color="#65C4FF"/>
<stop offset="0.755" stop-color="white"/>
<stop offset="1" stop-color="#FFF6CE"/>
</linearGradient>
<radialGradient id="paint3_radial_10569_266714" cx="0" cy="0" r="1" gradientUnits="userSpaceOnUse" gradientTransform="translate(324.197 150.946) rotate(-8.93862) scale(32.4942 104.498)">
<stop stop-color="#0166BA"/>
<stop offset="0.3" stop-color="#2795F4"/>
<stop offset="1" stop-color="#93D5FF"/>
</radialGradient>
<linearGradient id="paint4_linear_10569_266714" x1="64.8275" y1="209.401" x2="101.411" y2="84.1514" gradientUnits="userSpaceOnUse">
<stop stop-color="#0B5B90"/>
<stop offset="0.269" stop-color="#65C4FF"/>
<stop offset="0.755" stop-color="white"/>
<stop offset="1" stop-color="white"/>
</linearGradient>
<linearGradient id="paint5_linear_10569_266714" x1="62.5699" y1="210.788" x2="121.461" y2="98.531" gradientUnits="userSpaceOnUse">
<stop stop-color="#0B5B90"/>
<stop offset="0.269" stop-color="#65C4FF"/>
<stop offset="0.755" stop-color="white"/>
<stop offset="1" stop-color="#FDF6D0"/>
</linearGradient>
<radialGradient id="paint6_radial_10569_266714" cx="0" cy="0" r="1" gradientUnits="userSpaceOnUse" gradientTransform="translate(64.9125 150.946) rotate(-171.061) scale(32.4942 104.498)">
<stop stop-color="#0166BA"/>
<stop offset="0.3" stop-color="#2795F4"/>
<stop offset="1" stop-color="#93D5FF"/>
</radialGradient>
<radialGradient id="paint7_radial_10569_266714" cx="0" cy="0" r="1" gradientUnits="userSpaceOnUse" gradientTransform="translate(194.288 232.028) scale(131.158 131.377)">
<stop stop-color="white"/>
<stop offset="0.72" stop-color="white"/>
<stop offset="1" stop-color="#BCE7FF"/>
</radialGradient>
<linearGradient id="paint8_linear_10569_266714" x1="62.5679" y1="251.765" x2="112.405" y2="255.791" gradientUnits="userSpaceOnUse">
<stop stop-color="#F5FCFF"/>
<stop offset="1" stop-color="#CCEFFF"/>
</linearGradient>
<radialGradient id="paint9_radial_10569_266714" cx="0" cy="0" r="1" gradientUnits="userSpaceOnUse" gradientTransform="translate(53.2673 243.238) rotate(171.024) scale(7.76669 30.9651)">
<stop stop-color="#72D9FF"/>
<stop offset="0.587" stop-color="#009DFF"/>
<stop offset="0.852" stop-color="#0079DC"/>
<stop offset="1" stop-color="#006CC9"/>
</radialGradient>
<linearGradient id="paint10_linear_10569_266714" x1="52.8368" y1="224.993" x2="27.8906" y2="248.409" gradientUnits="userSpaceOnUse">
<stop stop-color="white"/>
<stop offset="0.32" stop-color="#F8FCFF"/>
<stop offset="1" stop-color="#006E9F"/>
</linearGradient>
<linearGradient id="paint11_linear_10569_266714" x1="334.224" y1="240.96" x2="265.546" y2="277.243" gradientUnits="userSpaceOnUse">
<stop stop-color="#F5FCFF"/>
<stop offset="1" stop-color="#CCEFFF"/>
</linearGradient>
<radialGradient id="paint12_radial_10569_266714" cx="0" cy="0" r="1" gradientUnits="userSpaceOnUse" gradientTransform="translate(335.501 244.854) rotate(5.85799) scale(7.9148 26.4085)">
<stop stop-color="#72D9FF"/>
<stop offset="0.587" stop-color="#009DFF"/>
<stop offset="0.852" stop-color="#0079DC"/>
<stop offset="1" stop-color="#006CC9"/>
</radialGradient>
<linearGradient id="paint13_linear_10569_266714" x1="334.938" y1="224.995" x2="359.884" y2="248.411" gradientUnits="userSpaceOnUse">
<stop stop-color="white"/>
<stop offset="0.32" stop-color="#F8FCFF"/>
<stop offset="1" stop-color="#006E9F"/>
</linearGradient>
<linearGradient id="paint14_linear_10569_266714" x1="194.414" y1="96.144" x2="194.414" y2="269.314" gradientUnits="userSpaceOnUse">
<stop stop-color="#9DD2FF"/>
<stop offset="1" stop-color="#00A8FF"/>
</linearGradient>
<linearGradient id="paint15_linear_10569_266714" x1="63.4082" y1="96.3706" x2="226.283" y2="324.545" gradientUnits="userSpaceOnUse">
<stop stop-color="#F2F9FF"/>
<stop offset="0.155" stop-color="#71C1FF"/>
<stop offset="0.649" stop-color="#6CC6FF"/>
<stop offset="1" stop-color="#D8F1FF"/>
</linearGradient>
<radialGradient id="paint16_radial_10569_266714" cx="0" cy="0" r="1" gradientUnits="userSpaceOnUse" gradientTransform="translate(147.296 152.578) scale(156.532 106.743)">
<stop stop-color="#21BBF4"/>
<stop offset="0.842" stop-color="#58B2FF"/>
<stop offset="1" stop-color="#0065BC"/>
</radialGradient>
<radialGradient id="paint17_radial_10569_266714" cx="0" cy="0" r="1" gradientUnits="userSpaceOnUse" gradientTransform="translate(194.376 220.821) rotate(1.77665) scale(130.278 89.8957)">
<stop stop-color="#B5EBFF"/>
<stop offset="0.673" stop-color="#009DFF"/>
<stop offset="0.906" stop-color="#11649D"/>
<stop offset="1" stop-color="#034B81"/>
</radialGradient>
<linearGradient id="paint18_linear_10569_266714" x1="195.665" y1="106.52" x2="195.665" y2="176.399" gradientUnits="userSpaceOnUse">
<stop stop-color="#D5F0FF" stop-opacity="0.867"/>
<stop offset="1" stop-color="#739EFF" stop-opacity="0"/>
</linearGradient>
<radialGradient id="paint19_radial_10569_266714" cx="0" cy="0" r="1" gradientUnits="userSpaceOnUse" gradientTransform="translate(141.165 114.119) scale(43.4853 38.4937)">
<stop stop-color="white"/>
<stop offset="0.72" stop-color="white" stop-opacity="0"/>
<stop offset="1" stop-color="white" stop-opacity="0"/>
</radialGradient>
<linearGradient id="paint20_linear_10569_266714" x1="141.886" y1="267.057" x2="184.8" y2="182.932" gradientUnits="userSpaceOnUse">
<stop stop-color="white" stop-opacity="0"/>
<stop offset="0.256" stop-color="white" stop-opacity="0.725"/>
<stop offset="1" stop-color="white" stop-opacity="0"/>
</linearGradient>
<radialGradient id="paint21_radial_10569_266714" cx="0" cy="0" r="1" gradientUnits="userSpaceOnUse" gradientTransform="translate(191.922 100.667) scale(43.2735 24.8161)">
<stop stop-color="#FFD000"/>
<stop offset="0.21" stop-color="#F5D05D" stop-opacity="0.718"/>
<stop offset="0.42" stop-color="#ECBD42" stop-opacity="0.463"/>
<stop offset="0.61" stop-color="#E5AD2C" stop-opacity="0.263"/>
<stop offset="0.775" stop-color="#E0A21C" stop-opacity="0.122"/>
<stop offset="0.908" stop-color="#DD9B12" stop-opacity="0.031"/>
<stop offset="0.993" stop-color="#DC990F" stop-opacity="0"/>
<stop offset="1" stop-color="#DC990F" stop-opacity="0"/>
</radialGradient>
<linearGradient id="paint22_linear_10569_266714" x1="195.284" y1="296.305" x2="195.284" y2="258.414" gradientUnits="userSpaceOnUse">
<stop stop-color="#33C0FF"/>
<stop offset="0.695" stop-color="#0D69AF"/>
<stop offset="1" stop-color="#004C85"/>
</linearGradient>
<radialGradient id="paint23_radial_10569_266714" cx="0" cy="0" r="1" gradientUnits="userSpaceOnUse" gradientTransform="translate(188.125 345.224) rotate(8.28292) scale(98.1297 20.933)">
<stop stop-color="white"/>
<stop offset="0.578" stop-color="white" stop-opacity="0"/>
<stop offset="1" stop-color="white" stop-opacity="0"/>
</radialGradient>
<linearGradient id="paint24_linear_10569_266714" x1="122.854" y1="57.8258" x2="270.084" y2="57.8258" gradientUnits="userSpaceOnUse">
<stop stop-color="#833700"/>
<stop offset="0.402" stop-color="#F2A811"/>
<stop offset="1" stop-color="#BC7400"/>
</linearGradient>
<linearGradient id="paint25_linear_10569_266714" x1="122.858" y1="57.8468" x2="270.088" y2="57.8468" gradientUnits="userSpaceOnUse">
<stop stop-color="#F7BB22"/>
<stop offset="0.002" stop-color="#F7BB24"/>
<stop offset="0.07" stop-color="#F9D35B"/>
<stop offset="0.134" stop-color="#FCE687"/>
<stop offset="0.19" stop-color="#FDF3A6"/>
<stop offset="0.238" stop-color="#FEFCBA"/>
<stop offset="0.27" stop-color="#FFFFC1"/>
<stop offset="0.495" stop-color="#FFE77D"/>
<stop offset="0.837" stop-color="#FFFCB9"/>
<stop offset="0.96" stop-color="#DDBB62"/>
</linearGradient>
<linearGradient id="paint26_linear_10569_266714" x1="125.21" y1="58.341" x2="267.772" y2="58.341" gradientUnits="userSpaceOnUse">
<stop stop-color="#E19F12"/>
<stop offset="0.025" stop-color="#E19F12"/>
<stop offset="0.138" stop-color="#F7BB22"/>
<stop offset="0.329" stop-color="#FFE77D"/>
<stop offset="0.379" stop-color="#F6D462"/>
<stop offset="0.544" stop-color="#F4AD1C"/>
<stop offset="0.839" stop-color="#F4B81D"/>
<stop offset="0.96" stop-color="#DDBB62"/>
<stop offset="1" stop-color="#B17211"/>
</linearGradient>
<radialGradient id="paint27_radial_10569_266714" cx="0" cy="0" r="1" gradientUnits="userSpaceOnUse" gradientTransform="translate(187.864 92.5512) rotate(2.38676) scale(64.9665 73.1267)">
<stop stop-color="#FFD000"/>
<stop offset="0.21" stop-color="#F5D05D" stop-opacity="0.718"/>
<stop offset="0.42" stop-color="#ECBD42" stop-opacity="0.463"/>
<stop offset="0.61" stop-color="#E5AD2C" stop-opacity="0.263"/>
<stop offset="0.775" stop-color="#E0A21C" stop-opacity="0.122"/>
<stop offset="0.908" stop-color="#DD9B12" stop-opacity="0.031"/>
<stop offset="0.993" stop-color="#DC990F" stop-opacity="0"/>
<stop offset="1" stop-color="#DC990F" stop-opacity="0"/>
</radialGradient>
<linearGradient id="paint28_linear_10569_266714" x1="135.124" y1="89.8457" x2="154.464" y2="75.6561" gradientUnits="userSpaceOnUse">
<stop offset="0.191" stop-color="#E19F12" stop-opacity="0"/>
<stop offset="0.266" stop-color="#8B5500"/>
<stop offset="0.295" stop-color="#93610D" stop-opacity="0.929"/>
<stop offset="0.446" stop-color="#B9994D" stop-opacity="0.6"/>
<stop offset="0.591" stop-color="#D7C57F" stop-opacity="0.337"/>
<stop offset="0.725" stop-color="#EDE5A3" stop-opacity="0.153"/>
<stop offset="0.846" stop-color="#FAF8B9" stop-opacity="0.039"/>
<stop offset="0.941" stop-color="#FFFFC1" stop-opacity="0"/>
</linearGradient>
<linearGradient id="paint29_linear_10569_266714" x1="294.695" y1="54.674" x2="246.371" y2="22.4103" gradientUnits="userSpaceOnUse">
<stop offset="0.191" stop-color="#E19F12" stop-opacity="0"/>
<stop offset="0.266" stop-color="#8B5500"/>
<stop offset="0.295" stop-color="#93610D" stop-opacity="0.929"/>
<stop offset="0.446" stop-color="#B9994D" stop-opacity="0.6"/>
<stop offset="0.591" stop-color="#D7C57F" stop-opacity="0.337"/>
<stop offset="0.725" stop-color="#EDE5A3" stop-opacity="0.153"/>
<stop offset="0.846" stop-color="#FAF8B9" stop-opacity="0.039"/>
<stop offset="0.941" stop-color="#FFFFC1" stop-opacity="0"/>
</linearGradient>
<linearGradient id="paint30_linear_10569_266714" x1="123.431" y1="51.8384" x2="269.487" y2="51.8384" gradientUnits="userSpaceOnUse">
<stop stop-color="white"/>
<stop offset="0.04" stop-color="#FEFDF9" stop-opacity="0.976"/>
<stop offset="0.095" stop-color="#FEF8EA" stop-opacity="0.906"/>
<stop offset="0.159" stop-color="#FDF1D1" stop-opacity="0.796"/>
<stop offset="0.229" stop-color="#FCE6AF" stop-opacity="0.639"/>
<stop offset="0.304" stop-color="#FAD882" stop-opacity="0.439"/>
<stop offset="0.381" stop-color="#F8C84D" stop-opacity="0.196"/>
<stop offset="0.439" stop-color="#F7BB22" stop-opacity="0"/>
<stop offset="0.441" stop-color="#F7BB23" stop-opacity="0.01"/>
<stop offset="0.509" stop-color="#F8C84E" stop-opacity="0.239"/>
<stop offset="0.578" stop-color="#FAD474" stop-opacity="0.443"/>
<stop offset="0.647" stop-color="#FBDD94" stop-opacity="0.612"/>
<stop offset="0.716" stop-color="#FCE5AE" stop-opacity="0.753"/>
<stop offset="0.786" stop-color="#FDECC3" stop-opacity="0.863"/>
<stop offset="0.856" stop-color="#FDF0D1" stop-opacity="0.937"/>
<stop offset="0.927" stop-color="#FDF3DA" stop-opacity="0.984"/>
<stop offset="1" stop-color="#FEF4DD"/>
</linearGradient>
<linearGradient id="paint31_linear_10569_266714" x1="133.598" y1="98.7167" x2="259.34" y2="98.7167" gradientUnits="userSpaceOnUse">
<stop stop-color="#F7BB22"/>
<stop offset="0.002" stop-color="#F7BB24"/>
<stop offset="0.07" stop-color="#F9D35B"/>
<stop offset="0.134" stop-color="#FCE687"/>
<stop offset="0.19" stop-color="#FDF3A6"/>
<stop offset="0.238" stop-color="#FEFCBA"/>
<stop offset="0.27" stop-color="#FFFFC1"/>
<stop offset="0.495" stop-color="#FFE77D"/>
<stop offset="0.837" stop-color="#FFFCB9"/>
<stop offset="0.96" stop-color="#DDBB62"/>
</linearGradient>
<linearGradient id="paint32_linear_10569_266714" x1="134.954" y1="98.1244" x2="257.98" y2="98.1244" gradientUnits="userSpaceOnUse">
<stop offset="0.025" stop-color="#E19F12"/>
<stop offset="0.057" stop-color="#6D2C00"/>
<stop offset="0.138" stop-color="#F7BB22"/>
<stop offset="0.27" stop-color="#FFFFC1"/>
<stop offset="0.329" stop-color="#FFE77D"/>
<stop offset="0.492" stop-color="#DC990F"/>
<stop offset="0.775" stop-color="#F8EBAB"/>
<stop offset="0.812" stop-color="#F5D67B"/>
<stop offset="0.839" stop-color="#F4B81D"/>
<stop offset="0.924" stop-color="#642400"/>
<stop offset="0.96" stop-color="#DDBB62"/>
<stop offset="1" stop-color="#B17211"/>
</linearGradient>
<linearGradient id="paint33_linear_10569_266714" x1="196.836" y1="112.782" x2="196.799" y2="81.9889" gradientUnits="userSpaceOnUse">
<stop offset="0.093" stop-color="#FFFFC1"/>
<stop offset="0.146" stop-color="#EBEBB2" stop-opacity="0.925"/>
<stop offset="0.253" stop-color="#BABA8D" stop-opacity="0.729"/>
<stop offset="0.406" stop-color="#6A6A50" stop-opacity="0.416"/>
<stop offset="0.592" stop-opacity="0"/>
</linearGradient>
<clipPath id="clip0_10569_266714">
<rect width="388" height="388" fill="white"/>
</clipPath>
</defs>
</svg>
