<svg width="96" height="26" viewBox="0 0 96 26" fill="none" xmlns="http://www.w3.org/2000/svg">
<path d="M35.5766 20.062C35.3163 19.6409 35.0064 19.1888 34.6469 18.7057C34.2998 18.2102 33.9155 17.7209 33.4941 17.2379C33.085 16.7424 32.6573 16.2717 32.2111 15.8258C31.7648 15.3674 31.3185 14.9649 30.8723 14.618V20.062H27.9716V7.18596H30.8723V12.054C31.6284 11.2612 32.3846 10.4375 33.1408 9.5828C33.9093 8.71573 34.6221 7.91678 35.2791 7.18596H38.7191C37.8389 8.22645 36.9526 9.22978 36.0601 10.196C35.1799 11.1621 34.2502 12.1345 33.2709 13.113C34.2998 13.9677 35.2915 14.9835 36.246 16.1602C37.2129 17.3369 38.1364 18.6376 39.0166 20.062H35.5766Z" fill="#1A4C6C"/>
<path d="M48.9469 15.1569C48.9469 15.9248 48.8354 16.6309 48.6122 17.275C48.3891 17.9067 48.0668 18.4518 47.6453 18.9101C47.2239 19.356 46.7156 19.7028 46.1206 19.9506C45.538 20.1983 44.881 20.3222 44.1496 20.3222C43.4306 20.3222 42.7736 20.1983 42.1786 19.9506C41.596 19.7028 41.0939 19.356 40.6725 18.9101C40.251 18.4518 39.9225 17.9067 39.687 17.275C39.4514 16.6309 39.3337 15.9248 39.3337 15.1569C39.3337 14.3889 39.4514 13.689 39.687 13.0573C39.9349 12.4256 40.2696 11.8867 40.6911 11.4408C41.1249 10.9949 41.6332 10.6481 42.2158 10.4003C42.8108 10.1526 43.4554 10.0287 44.1496 10.0287C44.8562 10.0287 45.5008 10.1526 46.0834 10.4003C46.6784 10.6481 47.1867 10.9949 47.6081 11.4408C48.0296 11.8867 48.3581 12.4256 48.5936 13.0573C48.8292 13.689 48.9469 14.3889 48.9469 15.1569ZM46.1206 15.1569C46.1206 14.3022 45.947 13.6333 45.6 13.1502C45.2653 12.6547 44.7818 12.407 44.1496 12.407C43.5174 12.407 43.0277 12.6547 42.6806 13.1502C42.3336 13.6333 42.16 14.3022 42.16 15.1569C42.16 16.0116 42.3336 16.6928 42.6806 17.2007C43.0277 17.6962 43.5174 17.9439 44.1496 17.9439C44.7818 17.9439 45.2653 17.6962 45.6 17.2007C45.947 16.6928 46.1206 16.0116 46.1206 15.1569Z" fill="#1A4C6C"/>
<path d="M57.4059 15.1011C57.4059 13.3174 56.7489 12.4256 55.4349 12.4256C55.1498 12.4256 54.8646 12.4627 54.5795 12.5371C54.3068 12.6114 54.0837 12.7043 53.9101 12.8158V17.851C54.0465 17.8758 54.22 17.9005 54.4308 17.9253C54.6415 17.9377 54.8708 17.9439 55.1188 17.9439C55.8749 17.9439 56.4452 17.6838 56.8294 17.1635C57.2137 16.6433 57.4059 15.9558 57.4059 15.1011ZM60.2322 15.1754C60.2322 15.9558 60.1144 16.6619 59.8789 17.2936C59.6558 17.9253 59.3273 18.4641 58.8934 18.9101C58.4595 19.356 57.9265 19.7028 57.2943 19.9506C56.6621 20.1859 55.9431 20.3036 55.1374 20.3036C54.8027 20.3036 54.4494 20.285 54.0775 20.2478C53.718 20.2231 53.3585 20.1859 52.999 20.1364C52.6519 20.0868 52.3172 20.0311 51.9949 19.9691C51.6726 19.8948 51.3875 19.8205 51.1396 19.7462V6.08972L53.9101 5.6438V10.5118C54.22 10.3756 54.5423 10.2703 54.877 10.196C55.2117 10.1216 55.5712 10.0845 55.9555 10.0845C56.6497 10.0845 57.2633 10.2083 57.7963 10.4561C58.3294 10.6914 58.7756 11.0321 59.1351 11.478C59.4946 11.9239 59.7673 12.4627 59.9533 13.0945C60.1392 13.7138 60.2322 14.4075 60.2322 15.1754Z" fill="#1A4C6C"/>
<path d="M71.5564 15.1569C71.5564 15.9248 71.4448 16.6309 71.2217 17.275C70.9986 17.9067 70.6763 18.4518 70.2548 18.9101C69.8333 19.356 69.3251 19.7028 68.7301 19.9506C68.1474 20.1983 67.4905 20.3222 66.7591 20.3222C66.0401 20.3222 65.3831 20.1983 64.7881 19.9506C64.2055 19.7028 63.7034 19.356 63.2819 18.9101C62.8605 18.4518 62.532 17.9067 62.2965 17.275C62.0609 16.6309 61.9432 15.9248 61.9432 15.1569C61.9432 14.3889 62.0609 13.689 62.2965 13.0573C62.5444 12.4256 62.8791 11.8867 63.3005 11.4408C63.7344 10.9949 64.2426 10.6481 64.8253 10.4003C65.4203 10.1526 66.0649 10.0287 66.7591 10.0287C67.4657 10.0287 68.1103 10.1526 68.6929 10.4003C69.2879 10.6481 69.7961 10.9949 70.2176 11.4408C70.6391 11.8867 70.9676 12.4256 71.2031 13.0573C71.4386 13.689 71.5564 14.3889 71.5564 15.1569ZM68.7301 15.1569C68.7301 14.3022 68.5565 13.6333 68.2094 13.1502C67.8747 12.6547 67.3913 12.407 66.7591 12.407C66.1269 12.407 65.6372 12.6547 65.2901 13.1502C64.943 13.6333 64.7695 14.3022 64.7695 15.1569C64.7695 16.0116 64.943 16.6928 65.2901 17.2007C65.6372 17.6962 66.1269 17.9439 66.7591 17.9439C67.3913 17.9439 67.8747 17.6962 68.2094 17.2007C68.5565 16.6928 68.7301 16.0116 68.7301 15.1569Z" fill="#1A4C6C"/>
<path d="M80.2199 9.41558C78.8687 9.41558 77.8894 9.79338 77.282 10.549C76.687 11.2922 76.3895 12.3141 76.3895 13.6147C76.3895 14.2464 76.4638 14.8224 76.6126 15.3427C76.7613 15.8505 76.9845 16.2903 77.282 16.6619C77.5795 17.0335 77.9514 17.3246 78.3976 17.5351C78.8439 17.7333 79.3645 17.8324 79.9596 17.8324C80.2819 17.8324 80.5546 17.8262 80.7777 17.8138C81.0132 17.8014 81.2178 17.7767 81.3913 17.7395V13.2617H84.292V19.6347C83.9449 19.771 83.3871 19.9134 82.6185 20.062C81.85 20.2231 80.9017 20.3036 79.7736 20.3036C78.8067 20.3036 77.9266 20.1549 77.1332 19.8577C76.3523 19.5604 75.6829 19.1268 75.1251 18.557C74.5672 17.9873 74.1334 17.2874 73.8235 16.4575C73.5259 15.6276 73.3772 14.68 73.3772 13.6147C73.3772 12.5371 73.5445 11.5833 73.8792 10.7534C74.2139 9.92344 74.6726 9.22359 75.2552 8.65379C75.8378 8.07161 76.5196 7.63188 77.3006 7.3346C78.0939 7.03731 78.9369 6.88867 79.8294 6.88867C80.4368 6.88867 80.9822 6.93203 81.4657 7.01873C81.9615 7.09306 82.383 7.18596 82.7301 7.29744C83.0896 7.39653 83.3809 7.50182 83.604 7.6133C83.8396 7.72478 84.0069 7.81149 84.1061 7.87342L83.2693 10.196C82.8727 9.98537 82.414 9.80577 81.8934 9.65712C81.3851 9.4961 80.8273 9.41558 80.2199 9.41558Z" fill="#1A4C6C"/>
<path d="M95.9999 15.1569C95.9999 15.9248 95.8883 16.6309 95.6652 17.275C95.4421 17.9067 95.1198 18.4518 94.6983 18.9101C94.2768 19.356 93.7686 19.7028 93.1736 19.9506C92.5909 20.1983 91.9339 20.3222 91.2026 20.3222C90.4836 20.3222 89.8266 20.1983 89.2316 19.9506C88.6489 19.7028 88.1469 19.356 87.7254 18.9101C87.304 18.4518 86.9755 17.9067 86.7399 17.275C86.5044 16.6309 86.3867 15.9248 86.3867 15.1569C86.3867 14.3889 86.5044 13.689 86.7399 13.0573C86.9879 12.4256 87.3226 11.8867 87.744 11.4408C88.1779 10.9949 88.6861 10.6481 89.2688 10.4003C89.8638 10.1526 90.5084 10.0287 91.2026 10.0287C91.9091 10.0287 92.5537 10.1526 93.1364 10.4003C93.7314 10.6481 94.2396 10.9949 94.6611 11.4408C95.0826 11.8867 95.4111 12.4256 95.6466 13.0573C95.8821 13.689 95.9999 14.3889 95.9999 15.1569ZM93.1736 15.1569C93.1736 14.3022 93 13.6333 92.6529 13.1502C92.3182 12.6547 91.8348 12.407 91.2026 12.407C90.5704 12.407 90.0807 12.6547 89.7336 13.1502C89.3865 13.6333 89.213 14.3022 89.213 15.1569C89.213 16.0116 89.3865 16.6928 89.7336 17.2007C90.0807 17.6962 90.5704 17.9439 91.2026 17.9439C91.8348 17.9439 92.3182 17.6962 92.6529 17.2007C93 16.6928 93.1736 16.0116 93.1736 15.1569Z" fill="#1A4C6C"/>
<path d="M6.92882 2.02942V0.657227H0.000244141V7.64146C0.138888 7.39363 0.2902 7.15309 0.453576 6.9208C1.22218 5.80481 3.18364 3.02738 6.92882 2.02942Z" fill="url(#paint0_linear_9989_159108)"/>
<path d="M21.9915 13.9668V0.657227C21.499 0.657227 21.0209 0.675756 20.5491 0.694288C19.3127 0.742332 18.145 0.830183 17.046 0.957843C16.5227 1.01756 16.0158 1.0855 15.5192 1.16375C10.4748 1.94618 7.13668 3.51722 4.94627 5.10885C3.76509 5.94644 2.73403 6.97742 1.8966 8.15827C1.55206 8.64037 1.26441 9.16064 1.03939 9.70872C1.03939 9.73137 1.02497 9.7499 1.02085 9.76637V9.7849C1.02179 9.79449 1.02179 9.80415 1.02085 9.81373C0.745216 10.4066 0.524496 11.0235 0.361461 11.6566C0.326431 11.7986 0.289343 11.9428 0.260495 12.0869C0.231646 12.231 0.202791 12.3752 0.176003 12.5214C0.16364 12.5893 0.15334 12.6593 0.140977 12.7273C0.120371 12.8796 0.0997696 13.032 0.0812243 13.1864C0.0812243 13.2647 0.0667906 13.345 0.0585483 13.4253C0.0297 13.7403 0.017334 14.0595 0.017334 14.3827V14.4404C0.017334 14.5371 0.017334 14.6339 0.017334 14.7307C0.017334 14.7863 0.017334 14.8419 0.017334 14.8975C0.017334 14.9531 0.0173355 15.0293 0.0317596 15.0931C0.0461837 15.1569 0.0317596 15.1837 0.0317596 15.229C0.0317596 15.3216 0.0441327 15.4143 0.0544357 15.507C0.0647386 15.5996 0.075036 15.6923 0.0873996 15.7829C0.108005 15.9661 0.138917 16.1494 0.167766 16.3306C0.21722 16.6003 0.274913 16.868 0.344973 17.1315C0.363519 17.2118 0.388247 17.2901 0.410914 17.3683C0.409742 17.3813 0.409742 17.3944 0.410914 17.4074C0.429459 17.4713 0.445946 17.5351 0.464491 17.5969C0.483036 17.6586 0.507765 17.7307 0.530431 17.8028C0.577825 17.9531 0.629329 18.1034 0.687026 18.2496C0.724116 18.3525 0.765332 18.4555 0.806543 18.5584L0.880722 18.7314C0.936357 18.8632 0.996126 18.9929 1.06 19.1226C1.12388 19.2523 1.16097 19.3285 1.21455 19.4315C1.29285 19.5797 1.3732 19.728 1.45975 19.8742C1.46656 19.8826 1.47148 19.8925 1.47417 19.903C1.55454 20.0409 1.63903 20.1789 1.72763 20.3148C1.78121 20.3971 1.83478 20.4795 1.89248 20.5619C1.9402 20.6397 1.9925 20.7146 2.04908 20.7863C2.09236 20.8501 2.14181 20.916 2.1892 20.9778C2.21643 21.0198 2.24674 21.0597 2.27987 21.0972C2.34787 21.1837 2.41381 21.2702 2.48593 21.3546C2.54156 21.4246 2.59926 21.4946 2.66107 21.5605C2.72289 21.6264 2.7538 21.6696 2.80326 21.7232L2.9475 21.8817C3.00932 21.9497 3.07526 22.0176 3.14119 22.0876L3.24629 22.1926L3.28955 22.2338C3.3287 22.2729 3.36579 22.31 3.40494 22.345C3.44409 22.38 3.47089 22.4088 3.5018 22.4376H3.51416C3.56155 22.485 3.61306 22.5282 3.66252 22.5735C3.70039 22.6107 3.74029 22.6458 3.78204 22.6786C3.81088 22.7074 3.84592 22.7362 3.87889 22.763C3.89519 22.7784 3.91239 22.7928 3.9304 22.8062C3.94404 22.8203 3.95925 22.8327 3.97573 22.8433C4.00458 22.87 4.03755 22.8948 4.0664 22.9195L4.09525 22.9442L4.15913 22.9956L4.21888 23.0409C4.31573 23.1171 4.41257 23.1913 4.51354 23.2633C4.61451 23.3354 4.72991 23.4198 4.84118 23.4939L4.86384 23.5083L4.88033 23.5186C4.9813 23.5866 5.08639 23.6525 5.18736 23.7142L5.20178 23.7245L5.34809 23.8131C5.39754 23.8446 5.44699 23.8735 5.49645 23.8996L5.57888 23.9449L5.71693 24.0231L5.85499 24.0972H5.87148C5.9436 24.1343 6.0116 24.1713 6.07753 24.2064C6.1129 24.2262 6.14936 24.2441 6.18674 24.2599C6.28977 24.3114 6.3928 24.3587 6.50202 24.4061C6.61123 24.4534 6.75341 24.5152 6.87911 24.5667L6.92443 24.5832C7.03571 24.6285 7.14905 24.6717 7.2665 24.7129C7.33862 24.7396 7.41692 24.7664 7.49316 24.7891C7.50572 24.7951 7.51883 24.7999 7.53231 24.8035L7.56116 24.8138L7.62504 24.8344C7.76104 24.8776 7.8991 24.9188 8.03716 24.9579L8.09691 24.9744L8.30297 25.0279C8.45339 25.065 8.60382 25.1 8.75424 25.1309L9.00975 25.1823H9.04066C9.21581 25.2132 9.3889 25.24 9.56199 25.2626C9.74332 25.2853 9.93083 25.3059 10.1142 25.3182L10.3347 25.3326C10.3945 25.3326 10.4522 25.3326 10.514 25.3326C10.6603 25.3326 10.8128 25.3429 10.9632 25.3429C11.1136 25.3429 11.2228 25.3429 11.3506 25.3429H11.3794C11.5113 25.3429 11.6452 25.3306 11.7771 25.3203H11.808C11.9214 25.3203 12.0368 25.3018 12.1501 25.2894H12.2222C12.3479 25.275 12.4695 25.2585 12.589 25.24C12.8218 25.205 13.0485 25.1638 13.2752 25.1144H13.2855C13.3658 25.0979 13.4503 25.0794 13.5307 25.0588H13.5533H13.5884L13.71 25.0279C13.7986 25.0073 13.881 24.9847 13.9655 24.96C14.0499 24.9352 14.186 24.8941 14.2952 24.8591L14.6207 24.752L14.9401 24.6326C15.0473 24.5914 15.1462 24.5482 15.2595 24.5029C15.4285 24.4308 15.5954 24.3546 15.7582 24.2743C15.8674 24.2208 15.9787 24.1631 16.0879 24.1055L16.2259 24.0334L16.4917 23.881L16.774 23.7101C16.8709 23.6504 16.9636 23.5886 17.0584 23.5248L17.0893 23.5063L17.3407 23.3313C17.5303 23.1954 17.7178 23.0512 17.8991 22.903L18.1382 22.6971C19.8172 21.2595 21.0218 19.3481 21.5938 17.2139C21.5938 17.183 21.7895 16.4438 21.8307 16.0979L20.1205 16.0876L16.7658 16.0691C16.611 16.4834 16.4307 16.8877 16.2259 17.2798C15.4855 18.6208 14.261 19.629 12.8021 20.0988C11.3433 20.5686 9.76002 20.4646 8.3753 19.808C6.99058 19.1513 5.90871 17.9915 5.35039 16.5652C4.79207 15.1388 4.79936 13.5534 5.37075 12.1322C5.3893 12.091 5.40578 12.0478 5.42844 12.0045C5.46442 11.9113 5.50642 11.8205 5.55415 11.7328C5.57476 11.6854 5.59948 11.638 5.6242 11.5886C5.64893 11.5392 5.64687 11.5454 5.65923 11.5227C5.7602 11.3168 5.86529 11.1109 6.00953 10.905C7.25825 8.86658 9.9535 6.13837 15.5439 5.6792C15.956 5.6442 16.3949 5.6236 16.8462 5.61537H16.9863V13.9915L21.9915 13.9668Z" fill="url(#paint1_linear_9989_159108)"/>
<defs>
<linearGradient id="paint0_linear_9989_159108" x1="-5.5551" y1="-6.14135" x2="6.42453" y2="-6.09121" gradientUnits="userSpaceOnUse">
<stop stop-color="#3EB9FF"/>
<stop offset="1" stop-color="#0074ED"/>
</linearGradient>
<linearGradient id="paint1_linear_9989_159108" x1="10.4219" y1="25.3429" x2="-7.18935" y2="15.2235" gradientUnits="userSpaceOnUse">
<stop stop-color="#3EB9FF"/>
<stop offset="1" stop-color="#0074ED"/>
</linearGradient>
</defs>
</svg>
