<svg width="124" height="28" viewBox="0 0 124 28" fill="none" xmlns="http://www.w3.org/2000/svg">
<path d="M35.6651 28C39.5427 28 43.0483 26.4332 45.5845 23.8857L41.0306 19.343C39.6554 20.7295 37.7391 21.5974 35.62 21.5974C32.9146 21.5974 30.5588 20.1997 29.2061 18.1031C28.4622 16.9308 28.0225 15.5 28.0225 14.0113C28.0225 10.5 26.8277 7.54106 24.8438 5.12883C22.2738 1.99517 18.3736 0 14.0113 0C11.8696 0 9.85185 0.473429 8.03704 1.33011C8.02576 1.33011 8.02577 1.34138 8.02577 1.34138C3.2802 3.58454 0 8.40901 0 14V27.9887C2.2657 27.9887 4.26087 26.8164 5.41063 25.0467C5.89533 24.3027 6.23349 23.4461 6.38003 22.5217C6.43639 22.1948 6.45894 21.8454 6.45894 21.5072V13.9887C6.45894 9.82931 9.86313 6.44766 14.0564 6.44766C18.2496 6.44766 21.6538 9.5 21.6538 13.9887C21.6538 17.3591 22.8486 20.4589 24.8325 22.8712C24.9646 23.0472 25.1181 23.2125 25.2616 23.3671L25.2721 23.3784C27.8422 26.219 31.5394 28 35.6651 28Z" fill="white"/>
<path d="M40.76 8.49919L45.359 3.90016C42.8454 1.47665 39.4299 0 35.665 0C32.2495 0 29.1272 1.22866 26.6924 3.25764C28.1803 4.90338 29.285 6.89855 29.8599 9.11916C31.2576 7.51851 33.3204 6.50402 35.6199 6.50402C37.6038 6.50402 39.4074 7.25926 40.76 8.49919Z" fill="white"/>
<path d="M70.884 21.6196C69.9907 20.0329 69.024 18.4663 67.984 16.9196C66.944 15.3729 65.8373 13.9129 64.664 12.5396V21.6196H61.584V7.75961H64.124C64.564 8.19961 65.0507 8.73961 65.584 9.37961C66.1173 10.0196 66.6573 10.7063 67.204 11.4396C67.764 12.1596 68.3173 12.9129 68.864 13.6996C69.4107 14.4729 69.924 15.2196 70.404 15.9396V7.75961H73.504V21.6196H70.884Z" fill="white"/>
<path d="M84.0212 21.8996C81.7678 21.8996 80.0478 21.2729 78.8612 20.0196C77.6878 18.7663 77.1012 16.9863 77.1012 14.6796C77.1012 13.5329 77.2812 12.5129 77.6412 11.6196C78.0012 10.7129 78.4945 9.95294 79.1212 9.33961C79.7478 8.71294 80.4945 8.23961 81.3612 7.91961C82.2278 7.59961 83.1678 7.43961 84.1812 7.43961C84.7678 7.43961 85.3012 7.48628 85.7812 7.57961C86.2612 7.65961 86.6812 7.75961 87.0412 7.87961C87.4012 7.98628 87.7012 8.09961 87.9412 8.21961C88.1812 8.33961 88.3545 8.43294 88.4612 8.49961L87.5612 11.0196C87.1345 10.7929 86.6345 10.5996 86.0612 10.4396C85.5012 10.2796 84.8612 10.1996 84.1412 10.1996C83.6612 10.1996 83.1878 10.2796 82.7212 10.4396C82.2678 10.5996 81.8612 10.8596 81.5012 11.2196C81.1545 11.5663 80.8745 12.0196 80.6612 12.5796C80.4478 13.1396 80.3412 13.8196 80.3412 14.6196C80.3412 15.2596 80.4078 15.8596 80.5412 16.4196C80.6878 16.9663 80.9145 17.4396 81.2212 17.8396C81.5412 18.2396 81.9545 18.5596 82.4612 18.7996C82.9678 19.0263 83.5812 19.1396 84.3012 19.1396C84.7545 19.1396 85.1612 19.1129 85.5212 19.0596C85.8812 19.0063 86.2012 18.9463 86.4812 18.8796C86.7612 18.7996 87.0078 18.7129 87.2212 18.6196C87.4345 18.5263 87.6278 18.4396 87.8012 18.3596L88.6612 20.8596C88.2212 21.1263 87.6012 21.3663 86.8012 21.5796C86.0012 21.7929 85.0745 21.8996 84.0212 21.8996Z" fill="white"/>
<path d="M95.6852 19.5396C95.9786 19.5396 96.2586 19.5329 96.5252 19.5196C96.7919 19.5063 97.0052 19.4863 97.1652 19.4596V17.1996C97.0452 17.1729 96.8652 17.1463 96.6252 17.1196C96.3852 17.0929 96.1652 17.0796 95.9652 17.0796C95.6852 17.0796 95.4186 17.0996 95.1652 17.1396C94.9252 17.1663 94.7119 17.2263 94.5252 17.3196C94.3386 17.4129 94.1919 17.5396 94.0852 17.6996C93.9786 17.8596 93.9252 18.0596 93.9252 18.2996C93.9252 18.7663 94.0786 19.0929 94.3852 19.2796C94.7052 19.4529 95.1386 19.5396 95.6852 19.5396ZM95.4452 10.8196C96.3252 10.8196 97.0586 10.9196 97.6452 11.1196C98.2319 11.3196 98.6986 11.6063 99.0452 11.9796C99.4052 12.3529 99.6586 12.8063 99.8052 13.3396C99.9519 13.8729 100.025 14.4663 100.025 15.1196V21.3196C99.5986 21.4129 99.0052 21.5196 98.2452 21.6396C97.4852 21.7729 96.5652 21.8396 95.4852 21.8396C94.8052 21.8396 94.1852 21.7796 93.6252 21.6596C93.0786 21.5396 92.6052 21.3463 92.2052 21.0796C91.8052 20.7996 91.4986 20.4396 91.2852 19.9996C91.0719 19.5596 90.9652 19.0196 90.9652 18.3796C90.9652 17.7663 91.0852 17.2463 91.3252 16.8196C91.5786 16.3929 91.9119 16.0529 92.3252 15.7996C92.7386 15.5463 93.2119 15.3663 93.7452 15.2596C94.2786 15.1396 94.8319 15.0796 95.4052 15.0796C95.7919 15.0796 96.1319 15.0996 96.4252 15.1396C96.7319 15.1663 96.9786 15.2063 97.1652 15.2596V14.9796C97.1652 14.4729 97.0119 14.0663 96.7052 13.7596C96.3986 13.4529 95.8652 13.2996 95.1052 13.2996C94.5986 13.2996 94.0986 13.3396 93.6052 13.4196C93.1119 13.4863 92.6852 13.5863 92.3252 13.7196L91.9452 11.3196C92.1186 11.2663 92.3319 11.2129 92.5852 11.1596C92.8519 11.0929 93.1386 11.0396 93.4452 10.9996C93.7519 10.9463 94.0719 10.9063 94.4052 10.8796C94.7519 10.8396 95.0986 10.8196 95.4452 10.8196Z" fill="white"/>
<path d="M106.74 19.4796C107.287 19.4796 107.673 19.4263 107.9 19.3196C108.127 19.2129 108.24 19.0063 108.24 18.6996C108.24 18.4596 108.093 18.2529 107.8 18.0796C107.507 17.8929 107.06 17.6863 106.46 17.4596C105.993 17.2863 105.567 17.1063 105.18 16.9196C104.807 16.7329 104.487 16.5129 104.22 16.2596C103.953 15.9929 103.747 15.6796 103.6 15.3196C103.453 14.9596 103.38 14.5263 103.38 14.0196C103.38 13.0329 103.747 12.2529 104.48 11.6796C105.213 11.1063 106.22 10.8196 107.5 10.8196C108.14 10.8196 108.753 10.8796 109.34 10.9996C109.927 11.1063 110.393 11.2263 110.74 11.3596L110.22 13.6796C109.873 13.5596 109.493 13.4529 109.08 13.3596C108.68 13.2663 108.227 13.2196 107.72 13.2196C106.787 13.2196 106.32 13.4796 106.32 13.9996C106.32 14.1196 106.34 14.2263 106.38 14.3196C106.42 14.4129 106.5 14.5063 106.62 14.5996C106.74 14.6796 106.9 14.7729 107.1 14.8796C107.313 14.9729 107.58 15.0796 107.9 15.1996C108.553 15.4396 109.093 15.6796 109.52 15.9196C109.947 16.1463 110.28 16.3996 110.52 16.6796C110.773 16.9463 110.947 17.2463 111.04 17.5796C111.147 17.9129 111.2 18.2996 111.2 18.7396C111.2 19.7796 110.807 20.5663 110.02 21.0996C109.247 21.6329 108.147 21.8996 106.72 21.8996C105.787 21.8996 105.007 21.8196 104.38 21.6596C103.767 21.4996 103.34 21.3663 103.1 21.2596L103.6 18.8396C104.107 19.0396 104.627 19.1996 105.16 19.3196C105.693 19.4263 106.22 19.4796 106.74 19.4796Z" fill="white"/>
<path d="M114.427 21.6196V6.57961L117.407 6.09961V11.1396C117.607 11.0729 117.86 11.0129 118.167 10.9596C118.487 10.8929 118.794 10.8596 119.087 10.8596C119.94 10.8596 120.647 10.9796 121.207 11.2196C121.78 11.4463 122.234 11.7729 122.567 12.1996C122.914 12.6263 123.154 13.1329 123.287 13.7196C123.434 14.3063 123.507 14.9596 123.507 15.6796V21.6196H120.527V16.0396C120.527 15.0796 120.4 14.3996 120.147 13.9996C119.907 13.5996 119.454 13.3996 118.787 13.3996C118.52 13.3996 118.267 13.4263 118.027 13.4796C117.8 13.5196 117.594 13.5663 117.407 13.6196V21.6196H114.427Z" fill="white"/>
</svg>
