<svg width="22" height="25" viewBox="0 0 22 25" fill="none" xmlns="http://www.w3.org/2000/svg">
<path d="M6.92857 1.37219V0H0V6.98423C0.138644 6.73641 0.289956 6.49587 0.453332 6.26357C1.22193 5.14758 3.1834 2.37015 6.92857 1.37219Z" fill="url(#paint0_linear_9981_158368)"/>
<path d="M21.9912 13.3096V0C21.4987 0 21.0207 0.0185298 20.5488 0.037061C19.3125 0.0851051 18.1448 0.172957 17.0458 0.300617C16.5224 0.360328 16.0155 0.428277 15.5189 0.50652C10.4746 1.28895 7.13644 2.85999 4.94603 4.45162C3.76485 5.28921 2.73378 6.32019 1.89636 7.50105C1.55182 7.98315 1.26417 8.50341 1.03915 9.05149C1.03915 9.07414 1.02473 9.09268 1.02061 9.10915V9.12768C1.02155 9.13726 1.02155 9.14692 1.02061 9.15651C0.744972 9.74938 0.524252 10.3662 0.361217 10.9993C0.326187 11.1414 0.289099 11.2855 0.26025 11.4297C0.231402 11.5738 0.202547 11.7179 0.175759 11.8641C0.163396 11.9321 0.153096 12.0021 0.140733 12.07C0.120127 12.2224 0.0995255 12.3748 0.0809802 12.5292C0.0809802 12.6074 0.0665465 12.6877 0.0583041 12.768C0.0294559 13.0831 0.0170898 13.4022 0.0170898 13.7255V13.7831C0.0170898 13.8799 0.0170898 13.9767 0.0170898 14.0735C0.0170898 14.1291 0.0170898 14.1847 0.0170898 14.2403C0.0170898 14.2958 0.0170914 14.372 0.0315155 14.4359C0.0459396 14.4997 0.0315155 14.5265 0.0315155 14.5718C0.0315155 14.6644 0.0438886 14.7571 0.0541915 14.8497C0.0644945 14.9424 0.0747919 15.035 0.0871554 15.1256C0.107761 15.3089 0.138673 15.4921 0.167521 15.6733C0.216976 15.9431 0.274669 16.2107 0.344729 16.4743C0.363274 16.5546 0.388003 16.6328 0.410669 16.7111C0.409497 16.7241 0.409497 16.7372 0.410669 16.7502C0.429215 16.814 0.445702 16.8779 0.464247 16.9396C0.482792 17.0014 0.507521 17.0735 0.530187 17.1455C0.577581 17.2959 0.629085 17.4462 0.686781 17.5924C0.723872 17.6953 0.765087 17.7983 0.806299 17.9012L0.880477 18.0742C0.936113 18.2059 0.995882 18.3357 1.05976 18.4654C1.12364 18.5951 1.16073 18.6713 1.2143 18.7742C1.29261 18.9225 1.37296 19.0707 1.4595 19.2169C1.46631 19.2254 1.47123 19.2352 1.47393 19.2458C1.55429 19.3837 1.63878 19.5217 1.72739 19.6576C1.78096 19.7399 1.83454 19.8223 1.89223 19.9046C1.93996 19.9825 1.99225 20.0574 2.04884 20.1291C2.09211 20.1929 2.14157 20.2588 2.18896 20.3206C2.21619 20.3626 2.24649 20.4025 2.27963 20.44C2.34763 20.5265 2.41356 20.6129 2.48568 20.6974C2.54132 20.7674 2.59901 20.8374 2.66083 20.9033C2.72265 20.9692 2.75356 21.0124 2.80301 21.0659L2.94725 21.2245C3.00907 21.2924 3.07501 21.3604 3.14095 21.4304L3.24604 21.5354L3.28931 21.5766C3.32846 21.6157 3.36555 21.6528 3.4047 21.6878C3.44385 21.7228 3.47064 21.7516 3.50155 21.7804H3.51392C3.56131 21.8278 3.61282 21.871 3.66227 21.9163C3.70015 21.9535 3.74005 21.9886 3.78179 22.0213C3.81064 22.0502 3.84568 22.079 3.87865 22.1057C3.89495 22.1212 3.91215 22.1356 3.93016 22.149C3.9438 22.163 3.959 22.1755 3.97549 22.186C4.00433 22.2128 4.0373 22.2375 4.06615 22.2622L4.095 22.2869L4.15888 22.3384L4.21863 22.3837C4.31548 22.4599 4.41233 22.534 4.5133 22.6061C4.61427 22.6782 4.72967 22.7626 4.84094 22.8367L4.8636 22.8511L4.88009 22.8614C4.98106 22.9294 5.08615 22.9953 5.18711 23.057L5.20154 23.0673L5.34785 23.1559C5.3973 23.1874 5.44675 23.2163 5.4962 23.2423L5.57863 23.2876L5.71669 23.3659L5.85474 23.44H5.87123C5.94335 23.4771 6.01135 23.5141 6.07729 23.5491C6.11266 23.569 6.14911 23.5869 6.1865 23.6027C6.28952 23.6541 6.39256 23.7015 6.50177 23.7489C6.61098 23.7962 6.75317 23.858 6.87886 23.9095L6.92419 23.9259C7.03546 23.9712 7.1488 24.0145 7.26625 24.0556C7.33838 24.0824 7.41667 24.1092 7.49291 24.1318C7.50548 24.1379 7.51859 24.1427 7.53207 24.1462L7.56092 24.1565L7.6248 24.1771C7.76079 24.2204 7.89885 24.2615 8.03691 24.3007L8.09667 24.3171L8.30272 24.3707C8.45315 24.4077 8.60357 24.4427 8.75399 24.4736L9.00951 24.5251H9.04042C9.21557 24.556 9.38865 24.5828 9.56174 24.6054C9.74307 24.6281 9.93059 24.6486 10.114 24.661L10.3345 24.6754C10.3942 24.6754 10.4519 24.6754 10.5137 24.6754C10.66 24.6754 10.8125 24.6857 10.963 24.6857C11.1134 24.6857 11.2226 24.6857 11.3503 24.6857H11.3792C11.5111 24.6857 11.645 24.6734 11.7769 24.6631H11.8078C11.9211 24.6631 12.0365 24.6445 12.1498 24.6322H12.222C12.3477 24.6178 12.4692 24.6013 12.5887 24.5828C12.8216 24.5478 13.0483 24.5066 13.2749 24.4572H13.2852C13.3656 24.4407 13.4501 24.4222 13.5304 24.4016H13.5531H13.5881L13.7097 24.3707C13.7983 24.3501 13.8807 24.3274 13.9652 24.3027C14.0497 24.278 14.1857 24.2368 14.2949 24.2018L14.6205 24.0948L14.9399 23.9753C15.047 23.9342 15.1459 23.8909 15.2593 23.8456C15.4282 23.7736 15.5951 23.6974 15.7579 23.6171C15.8671 23.5635 15.9784 23.5059 16.0876 23.4482L16.2257 23.3762L16.4915 23.2238L16.7738 23.0529C16.8707 22.9932 16.9634 22.9314 17.0582 22.8676L17.0891 22.8491L17.3405 22.674C17.53 22.5381 17.7176 22.394 17.8989 22.2458L18.1379 22.0399C19.8169 20.6023 21.0215 18.6908 21.5935 16.5567C21.5935 16.5258 21.7893 15.7866 21.8305 15.4407L20.1202 15.4304L16.7656 15.4118C16.6108 15.8262 16.4305 16.2305 16.2257 16.6226C15.4853 17.9636 14.2607 18.9718 12.8019 19.4416C11.343 19.9114 9.75978 19.8074 8.37505 19.1507C6.99033 18.4941 5.90847 17.3343 5.35015 15.908C4.79183 14.4816 4.79911 12.8961 5.37051 11.475C5.38906 11.4338 5.40553 11.3906 5.4282 11.3473C5.46418 11.2541 5.50617 11.1633 5.55391 11.0755C5.57451 11.0282 5.59923 10.9808 5.62396 10.9314C5.64869 10.882 5.64662 10.8881 5.65898 10.8655C5.75995 10.6596 5.86505 10.4537 6.00929 10.2478C7.258 8.20935 9.95326 5.48114 15.5436 5.02198C15.9558 4.98697 16.3947 4.96638 16.8459 4.95814H16.9861V13.3343L21.9912 13.3096Z" fill="url(#paint1_linear_9981_158368)"/>
<defs>
<linearGradient id="paint0_linear_9981_158368" x1="-5.55534" y1="-6.79858" x2="6.42429" y2="-6.74843" gradientUnits="userSpaceOnUse">
<stop stop-color="#3EB9FF"/>
<stop offset="1" stop-color="#0074ED"/>
</linearGradient>
<linearGradient id="paint1_linear_9981_158368" x1="10.4216" y1="24.6857" x2="-7.1896" y2="14.5663" gradientUnits="userSpaceOnUse">
<stop stop-color="#3EB9FF"/>
<stop offset="1" stop-color="#0074ED"/>
</linearGradient>
</defs>
</svg>
