<svg width="70" height="18" viewBox="0 0 70 18" fill="none" xmlns="http://www.w3.org/2000/svg">
<path d="M25.9418 14.1494C25.752 13.8424 25.526 13.5127 25.2639 13.1605C25.0108 12.7992 24.7306 12.4425 24.4233 12.0902C24.125 11.729 23.8132 11.3858 23.4878 11.0606C23.1624 10.7265 22.837 10.4329 22.5116 10.1801V14.1494H20.3965V4.76114H22.5116V8.31054C23.0629 7.73252 23.6143 7.13192 24.1657 6.50875C24.7261 5.87654 25.2458 5.29401 25.7249 4.76114H28.2331C27.5914 5.51979 26.9451 6.25135 26.2943 6.95581C25.6525 7.66027 24.9746 8.36924 24.2606 9.08273C25.0108 9.70591 25.7339 10.4465 26.4299 11.3045C27.1349 12.1625 27.8083 13.1108 28.4501 14.1494H25.9418Z" fill="white"/>
<path d="M35.6909 10.5729C35.6909 11.1329 35.6095 11.6477 35.4468 12.1173C35.2841 12.5779 35.0491 12.9753 34.7418 13.3095C34.4345 13.6346 34.0639 13.8875 33.63 14.0681C33.2052 14.2488 32.7262 14.3391 32.1929 14.3391C31.6686 14.3391 31.1896 14.2488 30.7557 14.0681C30.3309 13.8875 29.9648 13.6346 29.6575 13.3095C29.3502 12.9753 29.1106 12.5779 28.9389 12.1173C28.7672 11.6477 28.6813 11.1329 28.6813 10.5729C28.6813 10.013 28.7672 9.5027 28.9389 9.04209C29.1197 8.58148 29.3637 8.18861 29.671 7.86348C29.9874 7.53834 30.358 7.28546 30.7828 7.10483C31.2167 6.9242 31.6867 6.83388 32.1929 6.83388C32.7081 6.83388 33.1781 6.9242 33.6029 7.10483C34.0368 7.28546 34.4074 7.53834 34.7147 7.86348C35.022 8.18861 35.2615 8.58148 35.4333 9.04209C35.605 9.5027 35.6909 10.013 35.6909 10.5729ZM33.63 10.5729C33.63 9.94976 33.5035 9.46206 33.2504 9.10983C33.0064 8.74857 32.6538 8.56793 32.1929 8.56793C31.7319 8.56793 31.3749 8.74857 31.1218 9.10983C30.8687 9.46206 30.7421 9.94976 30.7421 10.5729C30.7421 11.1961 30.8687 11.6928 31.1218 12.0631C31.3749 12.4244 31.7319 12.605 32.1929 12.605C32.6538 12.605 33.0064 12.4244 33.2504 12.0631C33.5035 11.6928 33.63 11.1961 33.63 10.5729Z" fill="white"/>
<path d="M41.8588 10.5323C41.8588 9.23175 41.3797 8.58148 40.4216 8.58148C40.2137 8.58148 40.0058 8.60858 39.798 8.66277C39.5991 8.71696 39.4364 8.78469 39.3099 8.86598V12.5373C39.4093 12.5554 39.5358 12.5734 39.6895 12.5915C39.8432 12.6005 40.0104 12.605 40.1911 12.605C40.7425 12.605 41.1583 12.4154 41.4385 12.036C41.7187 11.6567 41.8588 11.1555 41.8588 10.5323ZM43.9197 10.5865C43.9197 11.1555 43.8338 11.6703 43.662 12.1309C43.4993 12.5915 43.2598 12.9844 42.9435 13.3095C42.6271 13.6346 42.2384 13.8875 41.7775 14.0681C41.3165 14.2397 40.7922 14.3255 40.2047 14.3255C39.9607 14.3255 39.7031 14.312 39.4319 14.2849C39.1698 14.2668 38.9076 14.2397 38.6455 14.2036C38.3924 14.1675 38.1484 14.1268 37.9134 14.0817C37.6784 14.0275 37.4705 13.9733 37.2897 13.9191V3.96185L39.3099 3.63672V7.18611C39.5358 7.08676 39.7708 7.01 40.0149 6.95581C40.2589 6.90162 40.5211 6.87452 40.8013 6.87452C41.3074 6.87452 41.7549 6.96484 42.1435 7.14547C42.5322 7.31707 42.8576 7.56544 43.1197 7.89057C43.3818 8.21571 43.5807 8.60858 43.7163 9.06919C43.8519 9.52076 43.9197 10.0265 43.9197 10.5865Z" fill="white"/>
<path d="M52.1768 10.5729C52.1768 11.1329 52.0955 11.6477 51.9328 12.1173C51.7701 12.5779 51.5351 12.9753 51.2277 13.3095C50.9204 13.6346 50.5498 13.8875 50.116 14.0681C49.6911 14.2488 49.2121 14.3391 48.6788 14.3391C48.1545 14.3391 47.6755 14.2488 47.2416 14.0681C46.8168 13.8875 46.4507 13.6346 46.1434 13.3095C45.8361 12.9753 45.5966 12.5779 45.4248 12.1173C45.2531 11.6477 45.1672 11.1329 45.1672 10.5729C45.1672 10.013 45.2531 9.5027 45.4248 9.04209C45.6056 8.58148 45.8496 8.18861 46.157 7.86348C46.4733 7.53834 46.8439 7.28546 47.2687 7.10483C47.7026 6.9242 48.1726 6.83388 48.6788 6.83388C49.194 6.83388 49.664 6.9242 50.0889 7.10483C50.5227 7.28546 50.8933 7.53834 51.2006 7.86348C51.5079 8.18861 51.7475 8.58148 51.9192 9.04209C52.0909 9.5027 52.1768 10.013 52.1768 10.5729ZM50.116 10.5729C50.116 9.94976 49.9894 9.46206 49.7363 9.10983C49.4923 8.74857 49.1398 8.56793 48.6788 8.56793C48.2178 8.56793 47.8608 8.74857 47.6077 9.10983C47.3546 9.46206 47.2281 9.94976 47.2281 10.5729C47.2281 11.1961 47.3546 11.6928 47.6077 12.0631C47.8608 12.4244 48.2178 12.605 48.6788 12.605C49.1398 12.605 49.4923 12.4244 49.7363 12.0631C49.9894 11.6928 50.116 11.1961 50.116 10.5729Z" fill="white"/>
<path d="M58.4939 6.38682C57.5086 6.38682 56.7946 6.66228 56.3517 7.21321C55.9178 7.7551 55.7009 8.5002 55.7009 9.44851C55.7009 9.90912 55.7551 10.3291 55.8636 10.7084C55.972 11.0787 56.1348 11.3993 56.3517 11.6703C56.5686 11.9412 56.8398 12.1535 57.1652 12.307C57.4906 12.4515 57.8702 12.5237 58.3041 12.5237C58.5391 12.5237 58.7379 12.5192 58.9006 12.5102C59.0724 12.5012 59.2215 12.4831 59.348 12.456V9.19111H61.4631V13.8378C61.21 13.9372 60.8033 14.041 60.2429 14.1494C59.6825 14.2668 58.991 14.3255 58.1685 14.3255C57.4635 14.3255 56.8217 14.2172 56.2432 14.0004C55.6738 13.7836 55.1857 13.4675 54.7789 13.0521C54.3722 12.6366 54.0558 12.1264 53.8299 11.5212C53.6129 10.9161 53.5045 10.2252 53.5045 9.44851C53.5045 8.66277 53.6265 7.96734 53.8705 7.36223C54.1146 6.75711 54.449 6.24683 54.8738 5.83138C55.2987 5.4069 55.7958 5.08628 56.3652 4.86952C56.9437 4.65277 57.5584 4.54439 58.2092 4.54439C58.6521 4.54439 59.0498 4.576 59.4023 4.63922C59.7638 4.69341 60.0711 4.76114 60.3242 4.84243C60.5864 4.91468 60.7988 4.99145 60.9615 5.07273C61.1332 5.15402 61.2552 5.21724 61.3275 5.26239L60.7174 6.95581C60.4282 6.80227 60.0937 6.67131 59.7141 6.56294C59.3435 6.44553 58.9368 6.38682 58.4939 6.38682Z" fill="white"/>
<path d="M70 10.5729C70 11.1329 69.9187 11.6477 69.756 12.1173C69.5933 12.5779 69.3583 12.9753 69.051 13.3095C68.7436 13.6346 68.373 13.8875 67.9392 14.0681C67.5144 14.2488 67.0353 14.3391 66.502 14.3391C65.9778 14.3391 65.4987 14.2488 65.0648 14.0681C64.64 13.8875 64.2739 13.6346 63.9666 13.3095C63.6593 12.9753 63.4198 12.5779 63.248 12.1173C63.0763 11.6477 62.9904 11.1329 62.9904 10.5729C62.9904 10.013 63.0763 9.5027 63.248 9.04209C63.4288 8.58148 63.6729 8.18861 63.9802 7.86348C64.2965 7.53834 64.6671 7.28546 65.092 7.10483C65.5258 6.9242 65.9958 6.83388 66.502 6.83388C67.0172 6.83388 67.4872 6.9242 67.9121 7.10483C68.3459 7.28546 68.7165 7.53834 69.0238 7.86348C69.3312 8.18861 69.5707 8.58148 69.7424 9.04209C69.9142 9.5027 70 10.013 70 10.5729ZM67.9392 10.5729C67.9392 9.94976 67.8126 9.46206 67.5596 9.10983C67.3155 8.74857 66.963 8.56793 66.502 8.56793C66.041 8.56793 65.684 8.74857 65.4309 9.10983C65.1778 9.46206 65.0513 9.94976 65.0513 10.5729C65.0513 11.1961 65.1778 11.6928 65.4309 12.0631C65.684 12.4244 66.041 12.605 66.502 12.605C66.963 12.605 67.3155 12.4244 67.5596 12.0631C67.8126 11.6928 67.9392 11.1961 67.9392 10.5729Z" fill="white"/>
<path d="M5.05204 0V1.0005C2.32121 1.72814 0.890984 3.75323 0.330552 4.56693C0.211424 4.7363 0.101094 4.91168 0 5.09238V0H5.05204Z" fill="white"/>
<path d="M16.0344 0V9.70435L12.3848 9.72236V3.61511H12.2826C11.9536 3.62111 11.6336 3.63613 11.3331 3.66165C7.25678 3.99644 5.2915 5.98565 4.38099 7.47192C4.27581 7.62205 4.19919 7.77218 4.12556 7.92231C4.12293 7.92713 4.1212 7.93016 4.11961 7.93293C4.11576 7.93965 4.11279 7.94484 4.10002 7.97035C4.09641 7.97757 4.0928 7.98474 4.08921 7.99185C4.07489 8.02023 4.06096 8.04784 4.04894 8.07545C4.01414 8.13945 3.98352 8.20565 3.95728 8.27361C3.94609 8.29497 3.93696 8.31633 3.92804 8.33722C3.92379 8.34717 3.91958 8.35701 3.91522 8.3667C3.49858 9.40291 3.49327 10.5589 3.90037 11.5989C4.30748 12.6389 5.09633 13.4845 6.10601 13.9633C7.1157 14.4421 8.27015 14.5179 9.33388 14.1754C10.3976 13.8328 11.2905 13.0977 11.8304 12.1199C11.9797 11.8341 12.1112 11.5393 12.224 11.2372L15.9172 11.2582C15.896 11.4358 15.819 11.7555 15.7753 11.937C15.7569 12.0133 15.7444 12.0652 15.7444 12.0719C15.3273 13.628 14.449 15.0216 13.2247 16.0698L13.0504 16.2199C12.9182 16.328 12.7815 16.4331 12.6432 16.5322L12.4599 16.6598L12.4374 16.6733C12.3683 16.7199 12.3007 16.7649 12.23 16.8085L12.0242 16.9331L11.8304 17.0442L11.7297 17.0967C11.6501 17.1387 11.5689 17.1808 11.4893 17.2198C11.3706 17.2784 11.2489 17.3339 11.1257 17.3864C11.0913 17.4002 11.0586 17.4137 11.0267 17.427C10.9819 17.4455 10.9384 17.4635 10.8928 17.481L10.6599 17.5681L10.4225 17.6462C10.3429 17.6717 10.2437 17.7017 10.1821 17.7197C10.1205 17.7378 10.0604 17.7543 9.99583 17.7693L9.90719 17.7918H9.86511C9.80651 17.8068 9.74491 17.8203 9.68631 17.8323H9.6788C9.51353 17.8684 9.34825 17.8984 9.17847 17.9239C9.09132 17.9374 9.00268 17.9494 8.91103 17.9599H8.85844C8.83821 17.9621 8.8179 17.9646 8.79753 17.9671C8.7347 17.9748 8.67144 17.9825 8.60903 17.9825H8.58648C8.57354 17.9835 8.56057 17.9845 8.54758 17.9855C8.46406 17.9922 8.37972 17.999 8.2965 17.999H7.993C7.93778 17.999 7.88218 17.9971 7.82696 17.9952C7.7725 17.9933 7.71842 17.9915 7.66545 17.9915H7.53473L7.37397 17.981C7.24024 17.972 7.10352 17.9569 6.9713 17.9404C6.84509 17.9239 6.71888 17.9044 6.59117 17.8819H6.56863L6.38232 17.8443C6.27264 17.8218 6.16295 17.7963 6.05327 17.7693L5.90302 17.7302L5.85945 17.7182C5.75879 17.6897 5.65812 17.6597 5.55895 17.6282L5.51238 17.6131L5.49134 17.6056C5.48151 17.603 5.47195 17.5995 5.46279 17.5951C5.4072 17.5786 5.35011 17.5591 5.29752 17.5396C5.21188 17.5096 5.12923 17.478 5.0481 17.445L5.01505 17.433C4.92669 17.3968 4.82715 17.3536 4.74876 17.3196L4.74009 17.3159C4.66046 17.2814 4.58533 17.2468 4.5102 17.2093C4.48294 17.1978 4.45636 17.1848 4.43057 17.1703C4.41605 17.1626 4.4014 17.1547 4.38656 17.1468C4.35227 17.1284 4.31703 17.1096 4.28032 17.0907H4.2683L4.16764 17.0367L4.06697 16.9796L4.00687 16.9466C3.97081 16.9276 3.93475 16.9065 3.89869 16.8835L3.79201 16.819L3.78149 16.8115C3.70787 16.7664 3.63125 16.7184 3.55762 16.6688L3.5456 16.6613L3.52908 16.6508C3.46528 16.6083 3.39962 16.5612 3.33868 16.5174C3.32212 16.5055 3.30591 16.4939 3.29017 16.4827C3.21655 16.4301 3.14593 16.3761 3.07532 16.3205L3.03175 16.2875L2.98517 16.25L2.96413 16.232C2.95609 16.2251 2.94761 16.2182 2.93902 16.2112C2.92515 16.1999 2.91101 16.1885 2.89802 16.1764C2.886 16.1687 2.87492 16.1596 2.86497 16.1494C2.85184 16.1396 2.8393 16.1291 2.82741 16.1179C2.80337 16.0983 2.77782 16.0773 2.75679 16.0563C2.72635 16.0324 2.69726 16.0068 2.66964 15.9797C2.65763 15.9687 2.64544 15.9579 2.63326 15.9471C2.60889 15.9254 2.58451 15.9037 2.56147 15.8807H2.55245C2.54336 15.8722 2.53476 15.8637 2.52586 15.8549C2.51269 15.842 2.49886 15.8283 2.48183 15.8131C2.45328 15.7876 2.42624 15.7606 2.39769 15.732L2.36614 15.702L2.28951 15.6254C2.27403 15.609 2.25855 15.5927 2.24317 15.5765C2.21078 15.5425 2.17884 15.5089 2.14828 15.4753L2.0431 15.3597C2.02672 15.342 2.01312 15.3258 1.99894 15.3089C1.98191 15.2886 1.96402 15.2673 1.93943 15.2411C1.89435 15.1931 1.85229 15.142 1.81172 15.091C1.77013 15.0423 1.73136 14.9927 1.69244 14.9429C1.68215 14.9297 1.67184 14.9165 1.66147 14.9033C1.63731 14.876 1.61521 14.8469 1.59536 14.8162C1.5608 14.7712 1.52474 14.7232 1.49319 14.6766C1.45193 14.6244 1.4138 14.5697 1.379 14.513C1.33696 14.453 1.29793 14.393 1.2589 14.333C1.19429 14.2339 1.13258 14.1332 1.07399 14.0326C1.07202 14.0249 1.06843 14.0177 1.06347 14.0115C1.00036 13.905 0.941775 13.7969 0.88468 13.6888C0.850265 13.6226 0.825179 13.5717 0.787849 13.4958C0.782805 13.4855 0.777537 13.4748 0.771992 13.4636C0.725415 13.369 0.681834 13.2744 0.641266 13.1783L0.587179 13.0522C0.557154 12.9772 0.527053 12.902 0.500031 12.827C0.457961 12.7204 0.420406 12.6108 0.385849 12.5012C0.378869 12.4791 0.37162 12.4569 0.364556 12.4352C0.354895 12.4057 0.345579 12.3771 0.337768 12.3511C0.330186 12.3259 0.323076 12.3001 0.315908 12.2742C0.310293 12.2539 0.304642 12.2334 0.298701 12.213C0.297847 12.2035 0.297847 12.194 0.298701 12.1845C0.294852 12.1712 0.290922 12.1579 0.286985 12.1446C0.27402 12.1008 0.260993 12.0567 0.25062 12.0118C0.199535 11.8197 0.157467 11.6245 0.121407 11.4278C0.11838 11.4088 0.115321 11.3898 0.112258 11.3707C0.0940395 11.2572 0.0756701 11.1429 0.0628078 11.0285C0.0538139 10.9626 0.0463195 10.8952 0.0388246 10.8278C0.0377479 10.8181 0.0365874 10.8079 0.0354796 10.7983C0.0288585 10.7404 0.0222373 10.6825 0.0222373 10.6246C0.0222373 10.6136 0.023406 10.6041 0.0245746 10.5946C0.0269118 10.5756 0.029249 10.5566 0.0222373 10.5255C0.0117199 10.479 0.0117188 10.4235 0.0117188 10.3829V10.0076C0.0117188 9.7719 0.0207356 9.5392 0.0417706 9.30951C0.0435976 9.29171 0.0458419 9.27391 0.0480809 9.25615C0.0532069 9.2155 0.058305 9.17506 0.058305 9.13536C0.0718275 9.02276 0.0868492 8.91166 0.101874 8.80057C0.106382 8.77579 0.110513 8.75065 0.114645 8.7255C0.118776 8.70035 0.122907 8.67521 0.127414 8.65044C0.146887 8.54417 0.167859 8.4394 0.18883 8.33463C0.206539 8.24615 0.228699 8.15672 0.250445 8.06914C0.254529 8.05269 0.258605 8.03628 0.262643 8.0199C0.381521 7.55829 0.542461 7.10852 0.743444 6.67624C0.744128 6.66925 0.744128 6.66221 0.743444 6.65522V6.64171C0.74454 6.63733 0.746634 6.63275 0.748852 6.6279C0.752718 6.61945 0.756962 6.61017 0.756962 6.59967C0.921037 6.20005 1.13078 5.82071 1.38201 5.4692C1.99262 4.60821 2.74443 3.8565 3.6057 3.24579C5.20286 2.08529 7.63691 0.939807 11.315 0.369316C11.6771 0.312267 12.0467 0.262725 12.4284 0.219187C13.2297 0.126107 14.0811 0.0620523 14.9826 0.0270221C15.3267 0.0135105 15.6753 0 16.0344 0Z" fill="white"/>
</svg>
