<svg width="96" height="25" viewBox="0 0 96 25" fill="none" xmlns="http://www.w3.org/2000/svg">
<path d="M35.5763 19.4048C35.316 18.9837 35.0061 18.5315 34.6466 18.0485C34.2995 17.553 33.9152 17.0637 33.4937 16.5806C33.0846 16.0852 32.657 15.6145 32.2107 15.1685C31.7644 14.7102 31.3182 14.3076 30.8719 13.9608V19.4048H27.9712V6.52873H30.8719V11.3967C31.6281 10.604 32.3842 9.78027 33.1404 8.92558C33.909 8.0585 34.6218 7.25955 35.2788 6.52873H38.7187C37.8386 7.56922 36.9523 8.57255 36.0597 9.53872C35.1796 10.5049 34.2499 11.4773 33.2706 12.4558C34.2995 13.3105 35.2912 14.3262 36.2457 15.503C37.2126 16.6797 38.1361 17.9803 39.0162 19.4048H35.5763Z" fill="white"/>
<path d="M48.9466 14.4996C48.9466 15.2676 48.8351 15.9737 48.6119 16.6178C48.3888 17.2495 48.0665 17.7945 47.645 18.2528C47.2236 18.6988 46.7153 19.0456 46.1203 19.2933C45.5377 19.5411 44.8807 19.6649 44.1493 19.6649C43.4303 19.6649 42.7733 19.5411 42.1783 19.2933C41.5957 19.0456 41.0936 18.6988 40.6721 18.2528C40.2507 17.7945 39.9222 17.2495 39.6866 16.6178C39.4511 15.9737 39.3334 15.2676 39.3334 14.4996C39.3334 13.7317 39.4511 13.0318 39.6866 12.4001C39.9346 11.7683 40.2693 11.2295 40.6907 10.7836C41.1246 10.3377 41.6329 9.99084 42.2155 9.74311C42.8105 9.49537 43.4551 9.3715 44.1493 9.3715C44.8559 9.3715 45.5005 9.49537 46.0831 9.74311C46.6781 9.99084 47.1864 10.3377 47.6078 10.7836C48.0293 11.2295 48.3578 11.7683 48.5933 12.4001C48.8289 13.0318 48.9466 13.7317 48.9466 14.4996ZM46.1203 14.4996C46.1203 13.6449 45.9467 12.9761 45.5996 12.493C45.2649 11.9975 44.7815 11.7498 44.1493 11.7498C43.5171 11.7498 43.0274 11.9975 42.6803 12.493C42.3332 12.9761 42.1597 13.6449 42.1597 14.4996C42.1597 15.3543 42.3332 16.0356 42.6803 16.5435C43.0274 17.0389 43.5171 17.2867 44.1493 17.2867C44.7815 17.2867 45.2649 17.0389 45.5996 16.5435C45.9467 16.0356 46.1203 15.3543 46.1203 14.4996Z" fill="white"/>
<path d="M57.4056 14.4439C57.4056 12.6602 56.7486 11.7683 55.4346 11.7683C55.1495 11.7683 54.8644 11.8055 54.5793 11.8798C54.3065 11.9542 54.0834 12.0471 53.9099 12.1585V17.1938C54.0462 17.2185 54.2198 17.2433 54.4305 17.2681C54.6412 17.2805 54.8706 17.2867 55.1185 17.2867C55.8747 17.2867 56.4449 17.0265 56.8292 16.5063C57.2135 15.9861 57.4056 15.2986 57.4056 14.4439ZM60.2319 14.5182C60.2319 15.2986 60.1142 16.0046 59.8787 16.6364C59.6555 17.2681 59.327 17.8069 58.8932 18.2528C58.4593 18.6988 57.9262 19.0456 57.294 19.2933C56.6618 19.5287 55.9428 19.6464 55.1371 19.6464C54.8024 19.6464 54.4491 19.6278 54.0772 19.5906C53.7177 19.5658 53.3582 19.5287 52.9987 19.4791C52.6516 19.4296 52.317 19.3738 51.9946 19.3119C51.6723 19.2376 51.3872 19.1633 51.1393 19.089V5.4325L53.9099 4.98657V9.85459C54.2198 9.71833 54.5421 9.61304 54.8768 9.53872C55.2115 9.4644 55.571 9.42724 55.9552 9.42724C56.6494 9.42724 57.263 9.55111 57.7961 9.79885C58.3291 10.0342 58.7754 10.3748 59.1349 10.8208C59.4944 11.2667 59.7671 11.8055 59.953 12.4372C60.139 13.0566 60.2319 13.7502 60.2319 14.5182Z" fill="white"/>
<path d="M71.5562 14.4996C71.5562 15.2676 71.4446 15.9737 71.2215 16.6178C70.9984 17.2495 70.6761 17.7945 70.2546 18.2528C69.8331 18.6988 69.3249 19.0456 68.7299 19.2933C68.1472 19.5411 67.4902 19.6649 66.7589 19.6649C66.0399 19.6649 65.3829 19.5411 64.7878 19.2933C64.2052 19.0456 63.7032 18.6988 63.2817 18.2528C62.8602 17.7945 62.5317 17.2495 62.2962 16.6178C62.0607 15.9737 61.9429 15.2676 61.9429 14.4996C61.9429 13.7317 62.0607 13.0318 62.2962 12.4001C62.5441 11.7683 62.8788 11.2295 63.3003 10.7836C63.7342 10.3377 64.2424 9.99084 64.825 9.74311C65.4201 9.49537 66.0647 9.3715 66.7589 9.3715C67.4654 9.3715 68.11 9.49537 68.6927 9.74311C69.2877 9.99084 69.7959 10.3377 70.2174 10.7836C70.6389 11.2295 70.9674 11.7683 71.2029 12.4001C71.4384 13.0318 71.5562 13.7317 71.5562 14.4996ZM68.7299 14.4996C68.7299 13.6449 68.5563 12.9761 68.2092 12.493C67.8745 11.9975 67.3911 11.7498 66.7589 11.7498C66.1266 11.7498 65.637 11.9975 65.2899 12.493C64.9428 12.9761 64.7693 13.6449 64.7693 14.4996C64.7693 15.3543 64.9428 16.0356 65.2899 16.5435C65.637 17.0389 66.1266 17.2867 66.7589 17.2867C67.3911 17.2867 67.8745 17.0389 68.2092 16.5435C68.5563 16.0356 68.7299 15.3543 68.7299 14.4996Z" fill="white"/>
<path d="M80.2197 8.75835C78.8685 8.75835 77.8892 9.13615 77.2818 9.89175C76.6868 10.635 76.3893 11.6569 76.3893 12.9575C76.3893 13.5892 76.4636 14.1652 76.6124 14.6854C76.7612 15.1933 76.9843 15.633 77.2818 16.0046C77.5793 16.3762 77.9512 16.6673 78.3975 16.8779C78.8437 17.0761 79.3644 17.1752 79.9594 17.1752C80.2817 17.1752 80.5544 17.169 80.7775 17.1566C81.0131 17.1442 81.2176 17.1194 81.3911 17.0823V12.6045H84.2919V18.9775C83.9448 19.1137 83.3869 19.2562 82.6184 19.4048C81.8498 19.5658 80.9015 19.6464 79.7734 19.6464C78.8065 19.6464 77.9264 19.4977 77.133 19.2004C76.3521 18.9032 75.6827 18.4696 75.1249 17.8998C74.567 17.33 74.1332 16.6302 73.8233 15.8003C73.5257 14.9703 73.377 14.0227 73.377 12.9575C73.377 11.8798 73.5443 10.926 73.879 10.0961C74.2137 9.26621 74.6724 8.56636 75.255 7.99657C75.8376 7.41439 76.5194 6.97465 77.3004 6.67737C78.0938 6.38009 78.9367 6.23145 79.8292 6.23145C80.4366 6.23145 80.9821 6.2748 81.4655 6.36151C81.9614 6.43583 82.3828 6.52873 82.7299 6.64021C83.0894 6.73931 83.3807 6.84459 83.6039 6.95607C83.8394 7.06756 84.0068 7.15426 84.1059 7.2162L83.2692 9.53872C82.8725 9.32815 82.4138 9.14854 81.8932 8.9999C81.385 8.83887 80.8271 8.75835 80.2197 8.75835Z" fill="white"/>
<path d="M95.9998 14.4996C95.9998 15.2676 95.8882 15.9737 95.6651 16.6178C95.4419 17.2495 95.1196 17.7945 94.6982 18.2528C94.2767 18.6988 93.7684 19.0456 93.1734 19.2933C92.5908 19.5411 91.9338 19.6649 91.2024 19.6649C90.4834 19.6649 89.8264 19.5411 89.2314 19.2933C88.6488 19.0456 88.1468 18.6988 87.7253 18.2528C87.3038 17.7945 86.9753 17.2495 86.7398 16.6178C86.5043 15.9737 86.3865 15.2676 86.3865 14.4996C86.3865 13.7317 86.5043 13.0318 86.7398 12.4001C86.9877 11.7683 87.3224 11.2295 87.7439 10.7836C88.1777 10.3377 88.686 9.99084 89.2686 9.74311C89.8636 9.49537 90.5082 9.3715 91.2024 9.3715C91.909 9.3715 92.5536 9.49537 93.1362 9.74311C93.7313 9.99084 94.2395 10.3377 94.661 10.7836C95.0824 11.2295 95.4109 11.7683 95.6465 12.4001C95.882 13.0318 95.9998 13.7317 95.9998 14.4996ZM93.1734 14.4996C93.1734 13.6449 92.9999 12.9761 92.6528 12.493C92.3181 11.9975 91.8346 11.7498 91.2024 11.7498C90.5702 11.7498 90.0806 11.9975 89.7335 12.493C89.3864 12.9761 89.2128 13.6449 89.2128 14.4996C89.2128 15.3543 89.3864 16.0356 89.7335 16.5435C90.0806 17.0389 90.5702 17.2867 91.2024 17.2867C91.8346 17.2867 92.3181 17.0389 92.6528 16.5435C92.9999 16.0356 93.1734 15.3543 93.1734 14.4996Z" fill="white"/>
<path d="M6.9286 1.37219V0H0V6.98423C0.138644 6.73641 0.289957 6.49587 0.453334 6.26357C1.22194 5.14758 3.18341 2.37015 6.9286 1.37219Z" fill="white"/>
<path d="M21.9911 13.3096V0C21.4986 0 21.0205 0.0185298 20.5486 0.037061C19.3123 0.0851051 18.1446 0.172957 17.0456 0.300617C16.5222 0.360328 16.0153 0.428277 15.5187 0.50652C10.4744 1.28895 7.13622 2.85999 4.9458 4.45162C3.76462 5.28921 2.73355 6.32019 1.89612 7.50105C1.55158 7.98315 1.26393 8.50341 1.03891 9.05149C1.03891 9.07414 1.02449 9.09268 1.02037 9.10915V9.12768C1.02131 9.13726 1.02131 9.14692 1.02037 9.15651C0.744731 9.74938 0.524009 10.3662 0.360974 10.9993C0.325944 11.1414 0.288856 11.2855 0.260007 11.4297C0.231159 11.5738 0.202303 11.7179 0.175516 11.8641C0.163152 11.9321 0.152853 12.0021 0.140489 12.07C0.119883 12.2224 0.0992817 12.3748 0.0807363 12.5292C0.0807363 12.6074 0.0663025 12.6877 0.0580602 12.768C0.0292118 13.0831 0.0168457 13.4022 0.0168457 13.7255V13.7831C0.0168457 13.8799 0.0168457 13.9767 0.0168457 14.0735C0.0168457 14.1291 0.0168457 14.1847 0.0168457 14.2403C0.0168457 14.2958 0.0168472 14.372 0.0312714 14.4359C0.0456956 14.4997 0.0312714 14.5265 0.0312714 14.5718C0.0312714 14.6644 0.0436445 14.7571 0.0539475 14.8497C0.0642505 14.9424 0.074548 15.035 0.0869115 15.1256C0.107518 15.3089 0.138429 15.4921 0.167278 15.6733C0.216732 15.9431 0.274426 16.2107 0.344486 16.4743C0.363032 16.5546 0.38776 16.6328 0.410427 16.7111C0.409255 16.7241 0.409255 16.7372 0.410427 16.7502C0.428972 16.814 0.445459 16.8779 0.464004 16.9396C0.48255 17.0014 0.507278 17.0735 0.529945 17.1455C0.577339 17.2959 0.628843 17.4462 0.68654 17.5924C0.72363 17.6953 0.764846 17.7983 0.806058 17.9012L0.880236 18.0742C0.935872 18.2059 0.995641 18.3357 1.05952 18.4654C1.1234 18.5951 1.16049 18.6713 1.21406 18.7742C1.29237 18.9225 1.37272 19.0707 1.45926 19.2169C1.46607 19.2254 1.47099 19.2352 1.47369 19.2458C1.55405 19.3837 1.63855 19.5217 1.72715 19.6576C1.78073 19.7399 1.8343 19.8223 1.892 19.9046C1.93972 19.9825 1.99201 20.0574 2.0486 20.1291C2.09188 20.1929 2.14133 20.2588 2.18872 20.3206C2.21595 20.3626 2.24626 20.4025 2.27939 20.44C2.34739 20.5265 2.41333 20.6129 2.48545 20.6974C2.54109 20.7674 2.59878 20.8374 2.6606 20.9033C2.72241 20.9692 2.75332 21.0124 2.80278 21.0659L2.94702 21.2245C3.00884 21.2924 3.07478 21.3604 3.14072 21.4304L3.24581 21.5354L3.28907 21.5766C3.32823 21.6157 3.36532 21.6528 3.40447 21.6878C3.44362 21.7228 3.47041 21.7516 3.50132 21.7804H3.51369C3.56108 21.8278 3.61259 21.871 3.66204 21.9163C3.69992 21.9535 3.73982 21.9886 3.78156 22.0213C3.81041 22.0502 3.84545 22.079 3.87841 22.1057C3.89472 22.1212 3.91192 22.1356 3.92993 22.149C3.94357 22.163 3.95877 22.1755 3.97526 22.186C4.00411 22.2128 4.03708 22.2375 4.06592 22.2622L4.09478 22.2869L4.15865 22.3384L4.21841 22.3837C4.31525 22.4599 4.4121 22.534 4.51307 22.6061C4.61404 22.6782 4.72944 22.7626 4.84071 22.8367L4.86337 22.8511L4.87986 22.8614C4.98083 22.9294 5.08592 22.9953 5.18689 23.057L5.20131 23.0673L5.34762 23.1559C5.39708 23.1874 5.44652 23.2163 5.49598 23.2423L5.57841 23.2876L5.71646 23.3659L5.85452 23.44H5.87101C5.94313 23.4771 6.01113 23.5141 6.07707 23.5491C6.11243 23.569 6.14889 23.5869 6.18627 23.6027C6.2893 23.6541 6.39234 23.7015 6.50155 23.7489C6.61076 23.7962 6.75295 23.858 6.87864 23.9095L6.92397 23.9259C7.03524 23.9712 7.14858 24.0145 7.26604 24.0556C7.33816 24.0824 7.41646 24.1092 7.4927 24.1318C7.50526 24.1379 7.51837 24.1427 7.53185 24.1462L7.5607 24.1565L7.62458 24.1771C7.76058 24.2204 7.89864 24.2615 8.0367 24.3007L8.09645 24.3171L8.30251 24.3707C8.45293 24.4077 8.60336 24.4427 8.75378 24.4736L9.00929 24.5251H9.04021C9.21536 24.556 9.38844 24.5828 9.56153 24.6054C9.74286 24.6281 9.93038 24.6486 10.1138 24.661L10.3343 24.6754C10.394 24.6754 10.4517 24.6754 10.5135 24.6754C10.6598 24.6754 10.8123 24.6857 10.9627 24.6857C11.1132 24.6857 11.2224 24.6857 11.3501 24.6857H11.379C11.5109 24.6857 11.6448 24.6734 11.7767 24.6631H11.8076C11.9209 24.6631 12.0363 24.6445 12.1496 24.6322H12.2218C12.3475 24.6178 12.469 24.6013 12.5885 24.5828C12.8214 24.5478 13.0481 24.5066 13.2747 24.4572H13.285C13.3654 24.4407 13.4499 24.4222 13.5302 24.4016H13.5529H13.5879L13.7095 24.3707C13.7981 24.3501 13.8805 24.3274 13.965 24.3027C14.0495 24.278 14.1855 24.2368 14.2947 24.2018L14.6203 24.0948L14.9397 23.9753C15.0468 23.9342 15.1458 23.8909 15.2591 23.8456C15.4281 23.7736 15.595 23.6974 15.7577 23.6171C15.867 23.5635 15.9782 23.5059 16.0875 23.4482L16.2255 23.3762L16.4913 23.2238L16.7736 23.0529C16.8705 22.9932 16.9632 22.9314 17.058 22.8676L17.0889 22.8491L17.3403 22.674C17.5299 22.5381 17.7174 22.394 17.8987 22.2458L18.1377 22.0399C19.8167 20.6023 21.0214 18.6908 21.5934 16.5567C21.5934 16.5258 21.7891 15.7866 21.8303 15.4407L20.12 15.4304L16.7654 15.4118C16.6106 15.8262 16.4303 16.2305 16.2255 16.6226C15.4851 17.9636 14.2605 18.9718 12.8017 19.4416C11.3428 19.9114 9.75957 19.8074 8.37484 19.1507C6.99011 18.4941 5.90825 17.3343 5.34992 15.908C4.7916 14.4816 4.79889 12.8961 5.37029 11.475C5.38883 11.4338 5.40531 11.3906 5.42798 11.3473C5.46395 11.2541 5.50595 11.1633 5.55368 11.0755C5.57429 11.0282 5.59901 10.9808 5.62373 10.9314C5.64846 10.882 5.6464 10.8881 5.65876 10.8655C5.75973 10.6596 5.86482 10.4537 6.00907 10.2478C7.25779 8.20935 9.95305 5.48114 15.5435 5.02198C15.9556 4.98697 16.3945 4.96638 16.8458 4.95814H16.9859V13.3343L21.9911 13.3096Z" fill="white"/>
</svg>
