<svg viewBox="0 0 111 29" fill="none" xmlns="http://www.w3.org/2000/svg">
<path d="M41.137 22.3211C40.836 21.8367 40.4777 21.3166 40.062 20.761C39.6607 20.191 39.2164 19.6282 38.7291 19.0726C38.2561 18.5026 37.7616 17.9612 37.2456 17.4483C36.7296 16.9211 36.2136 16.458 35.6976 16.0591V22.3211H32.3438V7.51022H35.6976V13.1097C36.572 12.1979 37.4463 11.2503 38.3206 10.2672C39.2092 9.26986 40.0333 8.35086 40.793 7.51022H44.7704C43.7527 8.70706 42.7279 9.86116 41.696 10.9725C40.6783 12.0839 39.6034 13.2023 38.4711 14.3279C39.6607 15.3111 40.8073 16.4794 41.911 17.833C43.0289 19.1866 44.0967 20.6826 45.1144 22.3211H41.137Z" fill="white"/>
<path d="M56.5962 16.6789C56.5962 17.5623 56.4672 18.3744 56.2092 19.1153C55.9512 19.842 55.5785 20.4689 55.0912 20.9961C54.6039 21.509 54.0163 21.9079 53.3283 22.1929C52.6546 22.4779 51.895 22.6203 51.0494 22.6203C50.218 22.6203 49.4584 22.4779 48.7704 22.1929C48.0968 21.9079 47.5163 21.509 47.029 20.9961C46.5417 20.4689 46.1618 19.842 45.8895 19.1153C45.6172 18.3744 45.481 17.5623 45.481 16.6789C45.481 15.7955 45.6172 14.9905 45.8895 14.2638C46.1762 13.5372 46.5632 12.9174 47.0505 12.4044C47.5521 11.8915 48.1398 11.4926 48.8134 11.2076C49.5014 10.9226 50.2467 10.7802 51.0494 10.7802C51.8663 10.7802 52.6116 10.9226 53.2853 11.2076C53.9733 11.4926 54.5609 11.8915 55.0482 12.4044C55.5355 12.9174 55.9154 13.5372 56.1877 14.2638C56.46 14.9905 56.5962 15.7955 56.5962 16.6789ZM53.3283 16.6789C53.3283 15.6958 53.1276 14.9264 52.7263 14.3707C52.3393 13.8008 51.7803 13.5158 51.0494 13.5158C50.3184 13.5158 49.7522 13.8008 49.3509 14.3707C48.9496 14.9264 48.7489 15.6958 48.7489 16.6789C48.7489 17.662 48.9496 18.4456 49.3509 19.0298C49.7522 19.5997 50.3184 19.8847 51.0494 19.8847C51.7803 19.8847 52.3393 19.5997 52.7263 19.0298C53.1276 18.4456 53.3283 17.662 53.3283 16.6789Z" fill="white"/>
<path d="M66.3767 16.6148C66.3767 14.563 65.6171 13.5372 64.0978 13.5372C63.7681 13.5372 63.4385 13.5799 63.1088 13.6654C62.7935 13.7509 62.5355 13.8578 62.3348 13.986V19.7778C62.4925 19.8063 62.6931 19.8348 62.9368 19.8633C63.1805 19.8776 63.4456 19.8847 63.7323 19.8847C64.6066 19.8847 65.2659 19.5855 65.7102 18.9871C66.1545 18.3887 66.3767 17.5979 66.3767 16.6148ZM69.6446 16.7003C69.6446 17.5979 69.5084 18.41 69.2361 19.1367C68.9781 19.8633 68.5983 20.4831 68.0966 20.9961C67.595 21.509 66.9787 21.9079 66.2477 22.1929C65.5167 22.4636 64.6854 22.599 63.7538 22.599C63.3668 22.599 62.9583 22.5776 62.5283 22.5349C62.1127 22.5064 61.697 22.4636 61.2814 22.4066C60.88 22.3496 60.493 22.2855 60.1204 22.2143C59.7477 22.1288 59.4181 22.0433 59.1314 21.9578V6.24926L62.3348 5.73633V11.3358C62.6931 11.1791 63.0658 11.058 63.4528 10.9725C63.8398 10.887 64.2554 10.8443 64.6997 10.8443C65.5024 10.8443 66.2119 10.9868 66.8282 11.2717C67.4445 11.5424 67.9605 11.9343 68.3761 12.4472C68.7918 12.9601 69.1071 13.5799 69.3221 14.3066C69.5371 15.019 69.6446 15.8169 69.6446 16.7003Z" fill="white"/>
<path d="M82.738 16.6789C82.738 17.5623 82.609 18.3744 82.351 19.1153C82.0931 19.842 81.7204 20.4689 81.2331 20.9961C80.7458 21.509 80.1581 21.9079 79.4701 22.1929C78.7965 22.4779 78.0368 22.6203 77.1912 22.6203C76.3599 22.6203 75.6003 22.4779 74.9123 22.1929C74.2386 21.9079 73.6581 21.509 73.1708 20.9961C72.6835 20.4689 72.3037 19.842 72.0314 19.1153C71.759 18.3744 71.6229 17.5623 71.6229 16.6789C71.6229 15.7955 71.759 14.9905 72.0314 14.2638C72.318 13.5372 72.705 12.9174 73.1923 12.4044C73.694 11.8915 74.2816 11.4926 74.9553 11.2076C75.6432 10.9226 76.3886 10.7802 77.1912 10.7802C78.0082 10.7802 78.7535 10.9226 79.4271 11.2076C80.1151 11.4926 80.7028 11.8915 81.1901 12.4044C81.6774 12.9174 82.0572 13.5372 82.3295 14.2638C82.6019 14.9905 82.738 15.7955 82.738 16.6789ZM79.4701 16.6789C79.4701 15.6958 79.2695 14.9264 78.8682 14.3707C78.4812 13.8008 77.9222 13.5158 77.1912 13.5158C76.4602 13.5158 75.8941 13.8008 75.4928 14.3707C75.0914 14.9264 74.8908 15.6958 74.8908 16.6789C74.8908 17.662 75.0914 18.4456 75.4928 19.0298C75.8941 19.5997 76.4602 19.8847 77.1912 19.8847C77.9222 19.8847 78.4812 19.5997 78.8682 19.0298C79.2695 18.4456 79.4701 17.662 79.4701 16.6789Z" fill="white"/>
<path d="M92.755 10.0749C91.1928 10.0749 90.0605 10.5094 89.3581 11.3786C88.6702 12.2335 88.3262 13.4089 88.3262 14.905C88.3262 15.6316 88.4122 16.2942 88.5842 16.8926C88.7562 17.4768 89.0142 17.9826 89.3581 18.41C89.7021 18.8375 90.1321 19.1723 90.6481 19.4145C91.1641 19.6425 91.7661 19.7565 92.4541 19.7565C92.8267 19.7565 93.142 19.7494 93.4 19.7351C93.6723 19.7209 93.9088 19.6924 94.1095 19.6496V14.4989H97.4634V21.8296C97.0621 21.9863 96.4171 22.1502 95.5285 22.3211C94.6398 22.5064 93.5434 22.599 92.2391 22.599C91.1211 22.599 90.1035 22.428 89.1862 22.086C88.2832 21.7441 87.5092 21.2454 86.8642 20.59C86.2192 19.9346 85.7176 19.1296 85.3593 18.1749C85.0153 17.2203 84.8433 16.1303 84.8433 14.905C84.8433 13.6654 85.0368 12.5683 85.4238 11.6137C85.8108 10.6591 86.3411 9.85403 87.0147 9.19862C87.6884 8.52896 88.4767 8.02315 89.3796 7.6812C90.297 7.33924 91.2716 7.16826 92.3036 7.16826C93.0059 7.16826 93.6365 7.21813 94.1955 7.31787C94.7688 7.40336 95.2561 7.51022 95.6575 7.63845C96.0731 7.75244 96.4099 7.87355 96.6679 8.00178C96.9403 8.13001 97.1337 8.22975 97.2484 8.30099L96.2809 10.9725C95.8223 10.7303 95.292 10.5237 94.69 10.3527C94.1023 10.1675 93.4574 10.0749 92.755 10.0749Z" fill="white"/>
<path d="M111 16.6789C111 17.5623 110.871 18.3744 110.613 19.1153C110.355 19.842 109.983 20.4689 109.495 20.9961C109.008 21.509 108.421 21.9079 107.733 22.1929C107.059 22.4779 106.299 22.6203 105.454 22.6203C104.622 22.6203 103.863 22.4779 103.175 22.1929C102.501 21.9079 101.921 21.509 101.433 20.9961C100.946 20.4689 100.566 19.842 100.294 19.1153C100.021 18.3744 99.8853 17.5623 99.8853 16.6789C99.8853 15.7955 100.021 14.9905 100.294 14.2638C100.58 13.5372 100.967 12.9174 101.455 12.4044C101.956 11.8915 102.544 11.4926 103.218 11.2076C103.906 10.9226 104.651 10.7802 105.454 10.7802C106.271 10.7802 107.016 10.9226 107.69 11.2076C108.378 11.4926 108.965 11.8915 109.452 12.4044C109.94 12.9174 110.32 13.5372 110.592 14.2638C110.864 14.9905 111 15.7955 111 16.6789ZM107.733 16.6789C107.733 15.6958 107.532 14.9264 107.131 14.3707C106.744 13.8008 106.185 13.5158 105.454 13.5158C104.723 13.5158 104.156 13.8008 103.755 14.3707C103.354 14.9264 103.153 15.6958 103.153 16.6789C103.153 17.662 103.354 18.4456 103.755 19.0298C104.156 19.5997 104.723 19.8847 105.454 19.8847C106.185 19.8847 106.744 19.5997 107.131 19.0298C107.532 18.4456 107.733 17.662 107.733 16.6789Z" fill="white"/>
<path d="M25.4268 15.3095V0C24.8573 0 24.3046 0.0213142 23.759 0.04263C22.3295 0.0978935 20.9794 0.198946 19.7087 0.345789C19.1035 0.414474 18.5175 0.492632 17.9433 0.582632C12.1108 1.48264 8.25116 3.28975 5.71854 5.12055C4.35282 6.084 3.16066 7.2699 2.19241 8.6282C1.79403 9.18274 1.46144 9.78118 1.20127 10.4116C1.20127 10.4377 1.1846 10.459 1.17983 10.4779V10.4993C1.18092 10.5103 1.18092 10.5214 1.17983 10.5324C0.861134 11.2144 0.605929 11.9239 0.417423 12.6522C0.37692 12.8156 0.334037 12.9814 0.300682 13.1472C0.267326 13.313 0.233963 13.4787 0.20299 13.6469C0.188695 13.7251 0.176787 13.8056 0.162491 13.8837C0.138666 14.059 0.114846 14.2343 0.0934034 14.4119C0.0934034 14.5019 0.0767147 14.5943 0.0671846 14.6866C0.0338293 15.049 0.0195312 15.4161 0.0195312 15.788V15.8543C0.0195312 15.9656 0.0195312 16.0769 0.0195312 16.1882C0.0195312 16.2522 0.0195312 16.3161 0.0195312 16.3801C0.0195312 16.444 0.019533 16.5317 0.0362107 16.6051C0.0528883 16.6785 0.0362107 16.7093 0.0362107 16.7614C0.0362107 16.868 0.0505168 16.9746 0.0624295 17.0811C0.0743421 17.1877 0.0862483 17.2943 0.100543 17.3985C0.124369 17.6093 0.16011 17.8201 0.193465 18.0285C0.250646 18.3388 0.317353 18.6467 0.398359 18.9498C0.419802 19.0422 0.448394 19.1322 0.474601 19.2222C0.473246 19.2372 0.473246 19.2522 0.474601 19.2672C0.496044 19.3406 0.515107 19.414 0.536549 19.4851C0.557992 19.5561 0.586584 19.639 0.612792 19.7219C0.66759 19.8948 0.727141 20.0677 0.793851 20.2359C0.836737 20.3543 0.884391 20.4727 0.932042 20.5911L1.01781 20.7901C1.08214 20.9417 1.15124 21.0909 1.2251 21.2401C1.29896 21.3893 1.34185 21.4769 1.40379 21.5954C1.49433 21.7659 1.58723 21.9364 1.6873 22.1046C1.69517 22.1143 1.70086 22.1256 1.70398 22.1377C1.7969 22.2964 1.89459 22.4551 1.99704 22.6114C2.05898 22.7062 2.12093 22.8009 2.18764 22.8956C2.24281 22.9852 2.30328 23.0714 2.36871 23.1538C2.41874 23.2272 2.47592 23.303 2.53072 23.3741C2.5622 23.4224 2.59724 23.4683 2.63555 23.5114C2.71417 23.6109 2.79042 23.7104 2.8738 23.8075C2.93813 23.888 3.00484 23.9685 3.07631 24.0443C3.14779 24.1201 3.18353 24.1698 3.24071 24.2314L3.40749 24.4138C3.47896 24.492 3.5552 24.5701 3.63144 24.6506L3.75296 24.7714L3.80298 24.8188C3.84825 24.8638 3.89113 24.9064 3.9364 24.9467C3.98167 24.987 4.01265 25.0201 4.04839 25.0533H4.06268C4.11748 25.1077 4.17703 25.1575 4.23422 25.2096C4.27801 25.2524 4.32414 25.2927 4.37241 25.3304C4.40576 25.3635 4.44627 25.3967 4.48439 25.4275C4.50324 25.4452 4.52313 25.4618 4.54396 25.4772C4.55973 25.4934 4.57731 25.5077 4.59636 25.5199C4.62972 25.5506 4.66784 25.5791 4.7012 25.6075L4.73455 25.6359L4.80841 25.6951L4.8775 25.7472C4.98948 25.8349 5.10146 25.9201 5.2182 26.003C5.33494 26.0859 5.46837 26.183 5.59703 26.2683L5.62323 26.2849L5.64229 26.2967C5.75904 26.3749 5.88054 26.4507 5.99729 26.5217L6.01397 26.5335L6.18313 26.6354C6.24031 26.6717 6.29749 26.7049 6.35467 26.7349L6.44997 26.787L6.6096 26.877L6.76922 26.9622H6.78829C6.87168 27.0049 6.9503 27.0475 7.02654 27.0878C7.06743 27.1106 7.10958 27.1312 7.15281 27.1493C7.27193 27.2085 7.39107 27.263 7.51734 27.3175C7.64361 27.372 7.80801 27.443 7.95335 27.5022L8.00575 27.5212C8.13441 27.5733 8.26546 27.623 8.40126 27.6704C8.48465 27.7012 8.57518 27.732 8.66333 27.758C8.67786 27.765 8.69302 27.7705 8.7086 27.7746L8.74196 27.7864L8.81582 27.8101C8.97306 27.8599 9.13269 27.9072 9.29232 27.9522L9.36141 27.9712L9.59966 28.0328C9.77359 28.0754 9.94751 28.1157 10.1214 28.1512L10.4169 28.2104H10.4526C10.6551 28.2459 10.8552 28.2767 11.0554 28.3028C11.265 28.3288 11.4819 28.3525 11.6939 28.3667L11.9488 28.3833C12.0179 28.3833 12.0846 28.3833 12.1561 28.3833C12.3253 28.3833 12.5016 28.3951 12.6755 28.3951C12.8494 28.3951 12.9757 28.3951 13.1234 28.3951H13.1568C13.3092 28.3951 13.4641 28.3809 13.6166 28.3691H13.6523C13.7834 28.3691 13.9168 28.3478 14.0478 28.3336H14.1312C14.2766 28.317 14.4171 28.298 14.5553 28.2767C14.8245 28.2365 15.0866 28.1891 15.3487 28.1322H15.3606C15.4535 28.1133 15.5512 28.092 15.6441 28.0683H15.6703H15.7108L15.8514 28.0328C15.9538 28.0091 16.0491 27.983 16.1468 27.9546C16.2445 27.9262 16.4018 27.8788 16.528 27.8386L16.9045 27.7154L17.2738 27.578C17.3977 27.5307 17.512 27.4809 17.6431 27.4288C17.8384 27.3459 18.0314 27.2583 18.2196 27.1659C18.3459 27.1043 18.4746 27.038 18.6008 26.9717L18.7605 26.8888L19.0678 26.7135L19.3942 26.517C19.5062 26.4483 19.6134 26.3772 19.723 26.3038L19.7587 26.2825L20.0494 26.0812C20.2686 25.9249 20.4854 25.7591 20.6951 25.5885L20.9714 25.3517C22.9128 23.6981 24.3056 21.4994 24.9669 19.0446C24.9669 19.009 25.1933 18.1588 25.2409 17.7609L23.2634 17.749L19.3847 17.7277C19.2057 18.2043 18.9973 18.6694 18.7605 19.1204C17.9044 20.6629 16.4885 21.8226 14.8017 22.363C13.115 22.9034 11.2844 22.7838 9.68329 22.0284C8.08223 21.2731 6.83134 19.9391 6.18579 18.2984C5.54024 16.6577 5.54867 14.834 6.20934 13.1993C6.23078 13.1519 6.24983 13.1022 6.27604 13.0524C6.31764 12.9452 6.3662 12.8408 6.42138 12.7398C6.44521 12.6853 6.47379 12.6308 6.50238 12.574C6.53097 12.5172 6.52859 12.5243 6.54288 12.4982C6.65962 12.2614 6.78114 12.0245 6.94791 11.7877C8.39172 9.44294 11.5081 6.30477 17.9719 5.77661C18.4484 5.73635 18.9558 5.71265 19.4776 5.70318H19.6396V15.338L25.4268 15.3095Z" fill="url(#paint0_linear_501_29106)"/>
<path d="M8.01105 1.57838V0H0V8.03372C0.160305 7.74866 0.335257 7.47197 0.524158 7.20477C1.41284 5.92108 3.68075 2.7263 8.01105 1.57838Z" fill="white"/>
<path d="M25.4268 15.3095V0C24.8573 0 24.3046 0.0213142 23.759 0.04263C22.3295 0.0978935 20.9794 0.198946 19.7087 0.345789C19.1035 0.414474 18.5175 0.492632 17.9433 0.582632C12.1108 1.48264 8.25116 3.28975 5.71854 5.12055C4.35282 6.084 3.16066 7.2699 2.19241 8.6282C1.79403 9.18274 1.46144 9.78118 1.20127 10.4116C1.20127 10.4377 1.1846 10.459 1.17983 10.4779V10.4993C1.18092 10.5103 1.18092 10.5214 1.17983 10.5324C0.861134 11.2144 0.605929 11.9239 0.417423 12.6522C0.37692 12.8156 0.334037 12.9814 0.300682 13.1472C0.267326 13.313 0.233963 13.4787 0.20299 13.6469C0.188695 13.7251 0.176787 13.8056 0.162491 13.8837C0.138666 14.059 0.114846 14.2343 0.0934034 14.4119C0.0934034 14.5019 0.0767147 14.5943 0.0671846 14.6866C0.0338293 15.049 0.0195312 15.4161 0.0195312 15.788V15.8543C0.0195312 15.9656 0.0195312 16.0769 0.0195312 16.1882C0.0195312 16.2522 0.0195312 16.3161 0.0195312 16.3801C0.0195312 16.444 0.019533 16.5317 0.0362107 16.6051C0.0528883 16.6785 0.0362107 16.7093 0.0362107 16.7614C0.0362107 16.868 0.0505168 16.9746 0.0624295 17.0811C0.0743421 17.1877 0.0862483 17.2943 0.100543 17.3985C0.124369 17.6093 0.16011 17.8201 0.193465 18.0285C0.250646 18.3388 0.317353 18.6467 0.398359 18.9498C0.419802 19.0422 0.448394 19.1322 0.474601 19.2222C0.473246 19.2372 0.473246 19.2522 0.474601 19.2672C0.496044 19.3406 0.515107 19.414 0.536549 19.4851C0.557992 19.5561 0.586584 19.639 0.612792 19.7219C0.66759 19.8948 0.727141 20.0677 0.793851 20.2359C0.836737 20.3543 0.884391 20.4727 0.932042 20.5911L1.01781 20.7901C1.08214 20.9417 1.15124 21.0909 1.2251 21.2401C1.29896 21.3893 1.34185 21.4769 1.40379 21.5954C1.49433 21.7659 1.58723 21.9364 1.6873 22.1046C1.69517 22.1143 1.70086 22.1256 1.70398 22.1377C1.7969 22.2964 1.89459 22.4551 1.99704 22.6114C2.05898 22.7062 2.12093 22.8009 2.18764 22.8956C2.24281 22.9852 2.30328 23.0714 2.36871 23.1538C2.41874 23.2272 2.47592 23.303 2.53072 23.3741C2.5622 23.4224 2.59724 23.4683 2.63555 23.5114C2.71417 23.6109 2.79042 23.7104 2.8738 23.8075C2.93813 23.888 3.00484 23.9685 3.07631 24.0443C3.14779 24.1201 3.18353 24.1698 3.24071 24.2314L3.40749 24.4138C3.47896 24.492 3.5552 24.5701 3.63144 24.6506L3.75296 24.7714L3.80298 24.8188C3.84825 24.8638 3.89113 24.9064 3.9364 24.9467C3.98167 24.987 4.01265 25.0201 4.04839 25.0533H4.06268C4.11748 25.1077 4.17703 25.1575 4.23422 25.2096C4.27801 25.2524 4.32414 25.2927 4.37241 25.3304C4.40576 25.3635 4.44627 25.3967 4.48439 25.4275C4.50324 25.4452 4.52313 25.4618 4.54396 25.4772C4.55973 25.4934 4.57731 25.5077 4.59636 25.5199C4.62972 25.5506 4.66784 25.5791 4.7012 25.6075L4.73455 25.6359L4.80841 25.6951L4.8775 25.7472C4.98948 25.8349 5.10146 25.9201 5.2182 26.003C5.33494 26.0859 5.46837 26.183 5.59703 26.2683L5.62323 26.2849L5.64229 26.2967C5.75904 26.3749 5.88054 26.4507 5.99729 26.5217L6.01397 26.5335L6.18313 26.6354C6.24031 26.6717 6.29749 26.7049 6.35467 26.7349L6.44997 26.787L6.6096 26.877L6.76922 26.9622H6.78829C6.87168 27.0049 6.9503 27.0475 7.02654 27.0878C7.06743 27.1106 7.10958 27.1312 7.15281 27.1493C7.27193 27.2085 7.39107 27.263 7.51734 27.3175C7.64361 27.372 7.80801 27.443 7.95335 27.5022L8.00575 27.5212C8.13441 27.5733 8.26546 27.623 8.40126 27.6704C8.48465 27.7012 8.57518 27.732 8.66333 27.758C8.67786 27.765 8.69302 27.7705 8.7086 27.7746L8.74196 27.7864L8.81582 27.8101C8.97306 27.8599 9.13269 27.9072 9.29232 27.9522L9.36141 27.9712L9.59966 28.0328C9.77359 28.0754 9.94751 28.1157 10.1214 28.1512L10.4169 28.2104H10.4526C10.6551 28.2459 10.8552 28.2767 11.0554 28.3028C11.265 28.3288 11.4819 28.3525 11.6939 28.3667L11.9488 28.3833C12.0179 28.3833 12.0846 28.3833 12.1561 28.3833C12.3253 28.3833 12.5016 28.3951 12.6755 28.3951C12.8494 28.3951 12.9757 28.3951 13.1234 28.3951H13.1568C13.3092 28.3951 13.4641 28.3809 13.6166 28.3691H13.6523C13.7834 28.3691 13.9168 28.3478 14.0478 28.3336H14.1312C14.2766 28.317 14.4171 28.298 14.5553 28.2767C14.8245 28.2365 15.0866 28.1891 15.3487 28.1322H15.3606C15.4535 28.1133 15.5512 28.092 15.6441 28.0683H15.6703H15.7108L15.8514 28.0328C15.9538 28.0091 16.0491 27.983 16.1468 27.9546C16.2445 27.9262 16.4018 27.8788 16.528 27.8386L16.9045 27.7154L17.2738 27.578C17.3977 27.5307 17.512 27.4809 17.6431 27.4288C17.8384 27.3459 18.0314 27.2583 18.2196 27.1659C18.3459 27.1043 18.4746 27.038 18.6008 26.9717L18.7605 26.8888L19.0678 26.7135L19.3942 26.517C19.5062 26.4483 19.6134 26.3772 19.723 26.3038L19.7587 26.2825L20.0494 26.0812C20.2686 25.9249 20.4854 25.7591 20.6951 25.5885L20.9714 25.3517C22.9128 23.6981 24.3056 21.4994 24.9669 19.0446C24.9669 19.009 25.1933 18.1588 25.2409 17.7609L23.2634 17.749L19.3847 17.7277C19.2057 18.2043 18.9973 18.6694 18.7605 19.1204C17.9044 20.6629 16.4885 21.8226 14.8017 22.363C13.115 22.9034 11.2844 22.7838 9.68329 22.0284C8.08223 21.2731 6.83134 19.9391 6.18579 18.2984C5.54024 16.6577 5.54867 14.834 6.20934 13.1993C6.23078 13.1519 6.24983 13.1022 6.27604 13.0524C6.31764 12.9452 6.3662 12.8408 6.42138 12.7398C6.44521 12.6853 6.47379 12.6308 6.50238 12.574C6.53097 12.5172 6.52859 12.5243 6.54288 12.4982C6.65962 12.2614 6.78114 12.0245 6.94791 11.7877C8.39172 9.44294 11.5081 6.30477 17.9719 5.77661C18.4484 5.73635 18.9558 5.71265 19.4776 5.70318H19.6396V15.338L25.4268 15.3095Z" fill="white"/>
<defs>
<linearGradient id="paint0_linear_501_29106" x1="12.0496" y1="28.3951" x2="-8.26063" y2="16.6643" gradientUnits="userSpaceOnUse">
<stop stop-color="#3EB9FF"/>
<stop offset="1" stop-color="#0074ED"/>
</linearGradient>
</defs>
</svg>
