<svg width="80" height="262" viewBox="0 0 80 262" fill="none" xmlns="http://www.w3.org/2000/svg">
<g opacity="0.7">
<path d="M0 0C47.4634 24.3635 80 73.9137 80 131.053C80 188.118 47.5051 237.657 0 262V190.006C0 190.006 0 145.174 0 122.5C0 99.8521 0 71.8364 0 71.8364V0Z" fill="url(#paint0_linear_402_15127)"/>
<path d="M0 0C47.4634 24.3635 80 73.9137 80 131.053C80 188.118 47.5051 237.657 0 262V190.006C0 190.006 0 145.174 0 122.5C0 99.8521 0 71.8364 0 71.8364V0Z" fill="url(#paint1_radial_402_15127)"/>
</g>
<defs>
<linearGradient id="paint0_linear_402_15127" x1="40" y1="-3.59888e-06" x2="-152.396" y2="182.843" gradientUnits="userSpaceOnUse">
<stop stop-color="#38B2FF"/>
<stop offset="1" stop-color="#0F85FF"/>
</linearGradient>
<radialGradient id="paint1_radial_402_15127" cx="0" cy="0" r="1" gradientUnits="userSpaceOnUse" gradientTransform="translate(62 82.5) rotate(90) scale(108 71.8266)">
<stop stop-color="#72D9FF"/>
<stop offset="1" stop-color="#65C4FF" stop-opacity="0"/>
</radialGradient>
</defs>
</svg>
