<svg width="120" height="393" viewBox="0 0 120 393" fill="none" xmlns="http://www.w3.org/2000/svg">
<g opacity="0.5">
<path d="M120 0.0351562C48.8049 36.4874 0 110.624 0 196.115C0 281.494 48.7424 355.613 120 392.035V284.319C99.1589 260.783 86.5121 229.827 86.5121 195.902C86.5121 162.017 99.1744 131.049 120 107.516V0.0351562Z" fill="url(#paint0_linear_104_9911)"/>
<path d="M120 0.0351562C48.8049 36.4874 0 110.624 0 196.115C0 281.494 48.7424 355.613 120 392.035V284.319C99.1589 260.783 86.5121 229.827 86.5121 195.902C86.5121 162.017 99.1744 131.049 120 107.516V0.0351562Z" fill="url(#paint1_radial_104_9911)"/>
</g>
<defs>
<linearGradient id="paint0_linear_104_9911" x1="60" y1="0.0351562" x2="255.771" y2="186.56" gradientUnits="userSpaceOnUse">
<stop stop-color="#38B2FF"/>
<stop offset="1" stop-color="#0F85FF"/>
</linearGradient>
<radialGradient id="paint1_radial_104_9911" cx="0" cy="0" r="1" gradientUnits="userSpaceOnUse" gradientTransform="translate(26.1487 0.0351495) rotate(89.512) scale(476.017 55.3568)">
<stop stop-color="#72D9FF"/>
<stop offset="1" stop-color="#65C4FF" stop-opacity="0"/>
</radialGradient>
</defs>
</svg>
