<svg width="81" height="12" viewBox="0 0 81 12" fill="none" xmlns="http://www.w3.org/2000/svg">
<g clip-path="url(#clip0_1456_8740)">
<path d="M39.3429 0.00293595C38.4228 -0.0120474 37.526 0.290094 36.807 0.857404C36.0487 1.47713 35.5229 2.33026 35.3139 3.28014C35.1557 1.09534 34.0891 0.00293595 32.1142 0.00293595C31.2259 -0.017369 30.3598 0.277524 29.673 0.834091C28.9678 1.43022 28.4842 2.24163 28.2987 3.13985V2.9759C28.3066 2.33277 28.21 1.69255 28.0124 1.07968C27.9458 0.805384 27.8505 0.538674 27.7279 0.283861H25.334V11.6367H28.3459V5.50286C28.3616 4.47288 28.5986 3.67696 29.0568 3.1151C29.2799 2.83924 29.5657 2.61918 29.891 2.47276C30.2163 2.32634 30.572 2.25767 30.9291 2.27232C31.5295 2.27208 31.9522 2.41648 32.1971 2.70554C32.4421 2.99462 32.5646 3.47452 32.5646 4.14522V11.6367H35.5747V5.50464C35.5905 4.47466 35.8235 3.67874 36.2738 3.11688C36.4977 2.8389 36.7854 2.61749 37.1129 2.47094C37.4405 2.3244 37.7987 2.25692 38.158 2.27407C38.7583 2.27383 39.181 2.41825 39.426 2.70733C39.6709 2.99638 39.7934 3.47626 39.7934 4.14696V11.6385H42.8035V4.00562C42.8045 2.67903 42.4963 1.68027 41.879 1.00934C41.2617 0.338404 40.4163 0.00293595 39.3429 0.00293595Z" fill="white"/>
<path d="M50.0129 0.00390754C48.3065 0.00296231 46.92 0.521235 45.8536 1.55873C44.7871 2.59627 44.2539 4.00471 44.2539 5.78405V5.83069C44.2551 7.8282 44.8086 9.33807 45.9144 10.3603C47.05 11.3481 48.5113 11.8933 50.0246 11.8935C51.5378 11.8939 52.9993 11.3494 54.1354 10.362C55.2414 9.34007 55.7944 7.8224 55.7944 5.80913V5.76249C55.7954 3.98336 55.2588 2.57881 54.1844 1.54886C53.1101 0.518879 51.7196 0.00389542 50.0129 0.00390754ZM52.74 6.15793C52.7397 8.68593 51.8312 9.94993 50.0144 9.94993V9.95073C48.212 9.95073 47.3115 8.68667 47.3127 6.15863V5.31582C47.3129 4.25475 47.5538 3.43552 48.0354 2.85811C48.2748 2.57229 48.5782 2.34529 48.9217 2.19499C49.265 2.04469 49.6391 1.9752 50.0144 1.99199C50.3913 1.97557 50.767 2.04517 51.1123 2.19537C51.4576 2.34559 51.7632 2.57237 52.0055 2.85811C52.4952 3.43645 52.74 4.25569 52.74 5.31582V6.15793Z" fill="white"/>
<path d="M64.3114 0.00210714C63.3599 -0.028452 62.4281 0.274201 61.6806 0.856573C60.9516 1.45615 60.4571 2.28805 60.2824 3.20897V2.97507C60.2914 2.332 60.1953 1.6917 59.9979 1.07886C59.9307 0.804493 59.8348 0.537781 59.7116 0.283033H57.3145V11.6359H60.3289V5.50381C60.3286 4.48938 60.5854 3.69735 61.0992 3.12771C61.3487 2.84814 61.6577 2.62655 62.0041 2.47882C62.3505 2.33109 62.7257 2.26089 63.1028 2.27325C64.3824 2.27325 65.0223 2.89755 65.0223 4.14615V11.6377H68.009V4.00479C68.009 2.6782 67.6857 1.67944 67.0371 1.00851C66.3887 0.337575 65.4802 0.00210714 64.3114 0.00210714Z" fill="white"/>
<path d="M79.3876 1.54885C78.313 0.518877 76.9232 0.00389542 75.2168 0.00390754C73.5097 0.00296231 72.1233 0.521235 71.0568 1.55873C69.9903 2.59627 69.457 4.00471 69.457 5.78405V5.83069C69.457 7.8282 70.0105 9.33807 71.1162 10.3603C72.2529 11.3484 73.7143 11.8935 75.2283 11.8935C76.7423 11.8935 78.2044 11.3484 79.3404 10.3603C80.4467 9.33827 80.9995 7.82067 80.9995 5.80737V5.76074C80.9995 3.98276 80.4622 2.5788 79.3876 1.54885ZM77.9425 6.15793C77.9418 8.68593 77.0332 9.94993 75.2168 9.94993V9.95073C73.4152 9.95073 72.5148 8.68667 72.5148 6.15863V5.31582C72.5155 4.25475 72.7564 3.43552 73.2377 2.85811C73.4773 2.57225 73.7804 2.34523 74.124 2.19493C74.4676 2.04462 74.8415 1.97515 75.2168 1.99199C75.5935 1.97565 75.9694 2.04528 76.3144 2.19549C76.66 2.34569 76.9651 2.57243 77.2074 2.85811C77.6974 3.43645 77.9425 4.25569 77.9425 5.31582V6.15793Z" fill="white"/>
<path d="M15.0379 0.0811151C14.9756 0.0362282 14.9018 0.00927621 14.8249 0.00324671C14.7479 -0.00278278 14.6709 0.0123459 14.6021 0.0469554C14.5334 0.0815651 14.4756 0.134303 14.4354 0.199323C14.3951 0.264344 14.3739 0.339106 14.374 0.415321V4.80648L7.85092 0.0811151C7.78855 0.0362282 7.71478 0.00927621 7.6379 0.00324671C7.56095 -0.00278278 7.48386 0.0123459 7.41508 0.0469554C7.34636 0.0815651 7.28865 0.134303 7.24835 0.199323C7.20812 0.264344 7.18686 0.339106 7.187 0.415321V4.80648L0.663911 0.0811151C0.601545 0.0362279 0.527812 0.00927588 0.450885 0.00324659C0.373959 -0.00278269 0.296844 0.0123464 0.228091 0.0469565C0.159338 0.0815665 0.101633 0.134306 0.0613724 0.199326C0.021112 0.264348 -0.000130241 0.33911 6.00803e-07 0.415326V6.6199C0.000240814 6.68481 0.0159367 6.74881 0.0458206 6.80661C0.0757046 6.86441 0.118939 6.91447 0.172032 6.95281L6.88244 11.8139C6.94481 11.8587 7.01852 11.8857 7.09547 11.8917C7.17235 11.8977 7.2495 11.8826 7.31821 11.848C7.387 11.8134 7.44471 11.7607 7.48494 11.6957C7.52524 11.6306 7.54643 11.5559 7.5463 11.4797V7.08847L14.0694 11.8139C14.1318 11.8588 14.2055 11.8857 14.2824 11.8918C14.3593 11.8978 14.4364 11.8827 14.5052 11.8481C14.5739 11.8135 14.6316 11.7607 14.6719 11.6957C14.7121 11.6307 14.7332 11.5559 14.7331 11.4797V7.08827L21.2575 11.8139C21.3198 11.8588 21.3935 11.8857 21.4705 11.8918C21.5474 11.8978 21.6245 11.8827 21.6932 11.8481C21.762 11.8135 21.8196 11.7607 21.8599 11.6957C21.9001 11.6307 21.9213 11.5559 21.9211 11.4797V5.27588C21.9209 5.21077 21.9051 5.14662 21.8751 5.08865C21.845 5.03067 21.8016 4.9805 21.7483 4.94219L15.0379 0.0811151Z" fill="white"/>
</g>
<defs>
<clipPath id="clip0_1456_8740">
<rect width="81" height="12" fill="white"/>
</clipPath>
</defs>
</svg>
