<svg width="400" height="385" viewBox="0 0 400 385" fill="none" xmlns="http://www.w3.org/2000/svg">
<g opacity="0.25" filter="url(#filter0_f_10675_274611)">
<path d="M285.047 297.889C261.903 317.899 231.684 330.011 198.623 330.011C165.29 330.011 134.845 317.699 111.629 297.394C111.542 298.066 110.901 298.465 108.451 297.179C98.6208 292.036 82.7365 278.078 70.2095 261.228C61.2209 251.494 51.6341 233.664 48.8902 219.502C45.4105 201.493 56.8915 196.478 60.6246 197.661C60.644 197.667 60.6632 197.674 60.6824 197.682C62.992 195.18 65.2279 193.84 66.5219 193.83C66.0157 196.585 66.2307 200.818 66.9529 205.869C66.8264 203.512 66.7623 201.139 66.7623 198.751C66.7623 197.132 66.7918 195.521 66.8501 193.917C57.3513 188.069 49.6973 181.218 43.6851 174.138C42.6023 173.202 42.0079 172.672 42.0079 172.672C42.0079 172.672 41.547 171.898 40.7846 170.544C29.5953 155.935 25.1458 140.914 25.6931 132.133C25.9419 129.681 26.534 128.395 27.4182 128.06C27.4165 127.948 27.4353 127.834 27.4769 127.723C27.6565 127.242 28.1929 126.999 28.675 127.179C28.8965 127.262 29.1159 127.351 29.3332 127.448C36.4722 122.705 58.5454 114.634 93.7308 101.77C102.804 98.4528 112.75 94.8165 123.536 90.8364C144.844 76.1168 170.721 67.4905 198.623 67.4905C225.133 67.4905 249.816 75.2783 270.489 88.681C283.544 93.5137 295.44 97.863 306.126 101.77C341.311 114.634 363.385 122.705 370.524 127.448C370.741 127.351 370.96 127.262 371.182 127.179C371.664 126.999 372.2 127.242 372.38 127.723C372.421 127.834 372.44 127.948 372.439 128.06C373.323 128.395 373.915 129.681 374.164 132.133C374.711 140.914 370.262 155.935 359.072 170.544C358.31 171.898 357.849 172.672 357.849 172.672C357.849 172.672 357.254 173.202 356.172 174.138C349.943 181.473 341.951 188.563 331.972 194.545C333.095 195.182 334.413 196.244 335.756 197.699C335.777 197.692 335.797 197.684 335.818 197.678C339.557 196.483 351.039 201.496 347.558 219.507C344.811 233.686 335.205 251.543 326.206 261.27C313.682 278.11 297.809 292.053 287.983 297.196C286.237 298.112 285.41 298.173 285.047 297.889Z" fill="#CDEDFF"/>
</g>
<path d="M199.147 330.007C271.972 330.007 331.008 271.24 331.008 198.747C331.008 126.254 271.972 67.4868 199.147 67.4868C126.323 67.4868 67.2871 126.254 67.2871 198.747C67.2871 271.24 126.323 330.007 199.147 330.007Z" fill="url(#paint0_radial_10675_274611)"/>
<path d="M27.335 130.116C25.1324 143.438 42.5342 172.671 42.5342 172.671C42.5342 172.671 78.6112 204.868 100.61 210.142C139.001 219.344 184.032 70.3189 173.825 72.1776C80.7783 107.686 28.184 123.967 27.335 130.116Z" fill="url(#paint1_linear_10675_274611)"/>
<path d="M26.2192 132.134C25.0553 150.806 46.4847 197.689 107.265 208.84C107.004 207.698 91.9645 206.188 72.1894 187.151C52.4143 168.113 28.2191 112.419 26.2192 132.134Z" fill="url(#paint2_radial_10675_274611)"/>
<path d="M28.873 128.05C44.7601 133.98 50.6228 180.888 103.915 208.272" stroke="#D8EDFF" stroke-linecap="round"/>
<path d="M373.571 130.116C375.774 143.438 358.372 172.671 358.372 172.671C358.372 172.671 322.295 204.868 300.296 210.142C261.905 219.344 216.874 70.3189 227.081 72.1776C320.128 107.686 372.722 123.967 373.571 130.116Z" fill="url(#paint3_linear_10675_274611)"/>
<path d="M374.687 132.134C375.851 150.806 354.422 197.689 293.641 208.84C293.902 207.698 308.942 206.188 328.717 187.151C348.492 168.113 372.687 112.419 374.687 132.134Z" fill="url(#paint4_radial_10675_274611)"/>
<path d="M372.033 128.05C356.146 133.98 350.283 180.888 296.991 208.272" stroke="#D8EDFF" stroke-linecap="round"/>
<path d="M199.502 67.1206C225.601 67.1559 251.104 74.8901 272.789 89.346C294.475 103.802 311.37 124.331 321.341 148.341C331.312 172.35 333.911 198.762 328.81 224.242C323.71 249.721 311.138 273.123 292.683 291.494C274.228 309.864 250.717 322.378 225.122 327.455C199.526 332.531 172.993 329.943 148.874 320.016C124.755 310.089 104.133 293.27 89.6117 271.683C75.0905 250.095 67.3221 224.708 67.2876 198.728C67.2422 181.432 70.6311 164.298 77.2595 148.309C83.8879 132.321 93.6251 117.795 105.911 105.565C118.198 93.3351 132.791 83.6428 148.852 77.0452C164.914 70.4476 182.127 67.0748 199.502 67.1206Z" fill="url(#paint5_radial_10675_274611)"/>
<path opacity="0.647" d="M129.446 309.664C134.652 304.56 118.952 296.987 125.238 292.958C131.81 289.259 144.44 317.986 199.241 318.566" stroke="#2FB6EF" stroke-width="0.5" stroke-linecap="round"/>
<path opacity="0.647" d="M269.059 309.668C263.853 304.564 279.553 296.991 273.267 292.962C266.696 289.262 254.065 317.992 199.264 318.57" stroke="#2FB6EF" stroke-width="0.5" stroke-linecap="round"/>
<path opacity="0.996" d="M203.999 307.086C232.066 306.876 284.873 289.481 284.873 301.085C284.873 312.69 250.38 332.39 203.999 332.957C157.617 333.525 115.892 312.692 115.892 301.085C115.892 289.479 175.935 307.298 203.999 307.086Z" fill="url(#paint6_radial_10675_274611)"/>
<path d="M67.0743 193.828C65.0648 204.766 74.4225 239.014 81.7583 255.164C89.092 270.581 99.3504 284.441 111.969 295.981C111.975 296.381 113.392 299.48 109.003 297.178C94.7681 289.73 67.8366 263.796 56.7902 237.365C45.7439 210.933 62.4425 193.865 67.0743 193.828Z" fill="url(#paint7_linear_10675_274611)"/>
<path d="M61.1793 197.659C64.9111 198.845 63.245 222.685 68.3109 239.961C70.849 249.236 74.526 258.165 79.2587 266.544C79.4513 266.741 80.5027 268.354 77.6521 267.044C67.3434 261.209 52.9166 237.419 49.4449 219.5C45.9652 201.491 57.4462 196.476 61.1793 197.659Z" fill="url(#paint8_radial_10675_274611)"/>
<path opacity="0.485" d="M58.0398 199.752C61.8876 199.935 50.1825 208.027 54.9566 224.735C59.7307 241.443 68.0397 259.089 77.3972 266.32C60.425 254.113 51.6038 223.058 51.4923 222.538C47.5518 205.709 54.1919 199.568 58.0398 199.752Z" fill="url(#paint9_linear_10675_274611)"/>
<path d="M330.463 193.841C332.475 204.78 323.126 239.032 315.778 255.179C308.444 270.596 298.186 284.456 285.567 295.996C285.562 296.394 284.144 299.495 288.533 297.193C302.769 289.742 329.695 263.821 340.746 237.38C351.796 210.939 335.092 193.877 330.463 193.841Z" fill="url(#paint10_linear_10675_274611)"/>
<path d="M336.373 197.676C332.645 198.847 334.314 222.688 329.247 239.966C326.709 249.242 323.031 258.171 318.298 266.552C318.105 266.748 317.054 268.361 319.905 267.051C330.217 261.216 344.641 237.424 348.113 219.505C351.594 201.494 340.112 196.481 336.373 197.676Z" fill="url(#paint11_radial_10675_274611)"/>
<path opacity="0.485" d="M339.514 199.756C335.666 199.94 347.374 208.027 342.597 224.739C337.821 241.452 329.514 259.093 320.157 266.324C337.129 254.118 345.95 223.063 346.062 222.543C350.002 205.714 343.36 199.571 339.514 199.756Z" fill="url(#paint12_linear_10675_274611)"/>
<g opacity="0.997">
<g opacity="0.518">
<path opacity="0.395" d="M67.3965 192.434C67.3965 160.259 97.5871 71.283 197.529 71.283C297.47 71.283 331.242 161.702 331.242 192.434C331.242 223.166 322.239 244.53 285.771 244.53C249.303 244.53 225.077 221.407 199.293 222.114C173.509 222.821 151.704 244.53 113.125 244.53C74.5459 244.53 67.3965 224.609 67.3965 192.434Z" fill="url(#paint13_linear_10675_274611)"/>
<path opacity="0.518" d="M67.6074 190.119C67.6074 158.571 98.6049 71.5046 199.301 71.5046C299.997 71.5046 330.875 161.061 330.875 191.181C330.875 221.302 320.238 243.171 283.767 243.171C247.296 243.171 225.078 220.499 199.293 221.193C173.509 221.888 155.725 243.171 117.146 243.171C78.5671 243.171 67.6074 221.667 67.6074 190.119Z" fill="url(#paint14_linear_10675_274611)"/>
</g>
<g opacity="0.997">
<path opacity="0.997" d="M74.207 187.689C74.207 156.81 101.196 75.5078 199.485 75.5078C297.774 75.5078 324.763 158.193 324.763 187.689C324.763 217.186 310.696 239.622 276.594 239.622C242.491 239.622 226.579 220.067 199.488 220.067C172.397 220.067 160.625 239.622 124.55 239.622C88.4747 239.622 74.207 218.579 74.207 187.689Z" fill="url(#paint15_radial_10675_274611)"/>
<path opacity="0.997" d="M78.8223 183.587C78.8223 155.762 112.253 75.5225 199.444 75.5225C286.635 75.5225 320.066 155.71 320.066 183.587C320.066 211.464 300.95 229.494 270.996 234.774C241.042 240.054 225.546 214.781 199.444 214.781C173.342 214.781 165.134 236.522 135.549 234.774C105.965 233.025 78.8223 211.415 78.8223 183.587Z" fill="url(#paint16_radial_10675_274611)"/>
<path opacity="0.997" d="M78.8223 183.587C78.8223 155.762 112.253 75.5225 199.444 75.5225C286.635 75.5225 320.066 155.71 320.066 183.587C320.066 211.464 300.95 229.494 270.996 234.774C241.042 240.054 225.546 214.781 199.444 214.781C173.342 214.781 165.134 236.522 135.549 234.774C105.965 233.025 78.8223 211.415 78.8223 183.587Z" fill="url(#paint17_radial_10675_274611)"/>
</g>
<path opacity="0.997" d="M199.459 81.6577C245.62 81.6577 273.895 103.514 281.232 118.732C288.675 136.394 250.885 151.249 199.459 151.565C155.141 151.824 115.821 135.502 119.199 118.261C123.499 102.024 157.083 81.6577 199.459 81.6577Z" fill="url(#paint18_linear_10675_274611)"/>
<path opacity="0.782" d="M185.589 67.9265C188.192 72.6024 189.541 77.8666 189.508 83.2122C189.508 105.869 173.317 123.269 151.112 123.269C135.902 123.269 120.851 115.621 113.74 102.376C114.123 102.516 127.316 87.6814 146.461 79.6784C159.088 74.5029 172.193 70.567 185.589 67.9265Z" fill="url(#paint19_radial_10675_274611)"/>
<path opacity="0.546" d="M104.073 220.94C85.5763 209.854 87.7 159.344 117.024 117.591C125.982 105.445 153.924 88.4674 153.872 90.9468C135.222 127.736 133.691 170.743 150.523 231.645C134.116 237.516 107.928 224.461 104.073 220.94Z" fill="url(#paint20_linear_10675_274611)"/>
</g>
<g filter="url(#filter1_d_10675_274611)">
<path d="M178.498 259.192C185.551 264.863 185.767 256.461 198.994 256.461C213.017 256.461 212.431 264.775 219.555 259.749C222.582 257.884 209.949 239.626 198.994 239.626C188.04 239.626 176.257 257.557 178.498 259.192Z" fill="url(#paint21_linear_10675_274611)"/>
</g>
<path opacity="0.683" d="M212.575 260.659C208.936 257.106 204.082 255.055 198.987 254.918C193.777 255.021 188.797 257.07 185.034 260.659C193.055 256.423 202.56 253.822 212.575 260.659Z" fill="#8DD6FF"/>
<path d="M110.453 195.253C112.892 201.642 121.743 208.383 131.985 210.513C142.226 212.642 159.516 208.774 168.942 197.572C178.369 186.369 174.832 172.503 171.337 172.441C167.841 172.379 153.904 198.154 110.453 195.253Z" fill="white"/>
<path d="M287.611 195.253C285.172 201.642 276.321 208.383 266.079 210.513C255.838 212.642 238.548 208.774 229.122 197.572C219.695 186.369 223.232 172.503 226.727 172.441C230.223 172.379 244.147 198.154 287.611 195.253Z" fill="white"/>
<defs>
<filter id="filter0_f_10675_274611" x="0.648438" y="42.4905" width="398.56" height="312.521" filterUnits="userSpaceOnUse" color-interpolation-filters="sRGB">
<feFlood flood-opacity="0" result="BackgroundImageFix"/>
<feBlend mode="normal" in="SourceGraphic" in2="BackgroundImageFix" result="shape"/>
<feGaussianBlur stdDeviation="12.5" result="effect1_foregroundBlur_10675_274611"/>
</filter>
<filter id="filter1_d_10675_274611" x="176.222" y="237.626" width="45.7891" height="25.7373" filterUnits="userSpaceOnUse" color-interpolation-filters="sRGB">
<feFlood flood-opacity="0" result="BackgroundImageFix"/>
<feColorMatrix in="SourceAlpha" type="matrix" values="0 0 0 0 0 0 0 0 0 0 0 0 0 0 0 0 0 0 127 0" result="hardAlpha"/>
<feOffset/>
<feGaussianBlur stdDeviation="1"/>
<feColorMatrix type="matrix" values="0 0 0 0 0.00784314 0 0 0 0 0.654902 0 0 0 0 1 0 0 0 0.776 0"/>
<feBlend mode="normal" in2="BackgroundImageFix" result="effect1_dropShadow_10675_274611"/>
<feBlend mode="normal" in="SourceGraphic" in2="effect1_dropShadow_10675_274611" result="shape"/>
</filter>
<radialGradient id="paint0_radial_10675_274611" cx="0" cy="0" r="1" gradientUnits="userSpaceOnUse" gradientTransform="translate(199.147 198.747) scale(131.86 131.26)">
<stop stop-color="white"/>
<stop offset="0.695" stop-color="white"/>
<stop offset="1" stop-color="#F5F5F5"/>
</radialGradient>
<linearGradient id="paint1_linear_10675_274611" x1="144.908" y1="138.232" x2="26.2723" y2="119.419" gradientUnits="userSpaceOnUse">
<stop stop-color="#0B5B90"/>
<stop offset="0.211" stop-color="#65C4FF"/>
<stop offset="0.755" stop-color="white"/>
<stop offset="1" stop-color="white"/>
</linearGradient>
<radialGradient id="paint2_radial_10675_274611" cx="0" cy="0" r="1" gradientUnits="userSpaceOnUse" gradientTransform="translate(66.6331 172.124) rotate(160.902) scale(31.6737 247.981)">
<stop stop-color="#0166BA"/>
<stop offset="0.3" stop-color="#2795F4"/>
<stop offset="1" stop-color="#93D5FF"/>
</radialGradient>
<linearGradient id="paint3_linear_10675_274611" x1="255.998" y1="138.232" x2="374.634" y2="119.419" gradientUnits="userSpaceOnUse">
<stop stop-color="#0B5B90"/>
<stop offset="0.211" stop-color="#65C4FF"/>
<stop offset="0.755" stop-color="white"/>
<stop offset="1" stop-color="white"/>
</linearGradient>
<radialGradient id="paint4_radial_10675_274611" cx="0" cy="0" r="1" gradientUnits="userSpaceOnUse" gradientTransform="translate(334.273 172.124) rotate(19.0981) scale(31.6737 247.981)">
<stop stop-color="#0166BA"/>
<stop offset="0.3" stop-color="#2795F4"/>
<stop offset="1" stop-color="#93D5FF"/>
</radialGradient>
<radialGradient id="paint5_radial_10675_274611" cx="0" cy="0" r="1" gradientUnits="userSpaceOnUse" gradientTransform="translate(199.322 207.229) scale(132.035 131.434)">
<stop stop-color="white"/>
<stop offset="0.72" stop-color="white"/>
<stop offset="1" stop-color="#BCE7FF"/>
</radialGradient>
<radialGradient id="paint6_radial_10675_274611" cx="0" cy="0" r="1" gradientUnits="userSpaceOnUse" gradientTransform="translate(194.161 317.208) rotate(0.91984) scale(80.6923 17.1291)">
<stop stop-color="white"/>
<stop offset="0.578" stop-color="white" stop-opacity="0"/>
<stop offset="1" stop-color="white" stop-opacity="0"/>
</radialGradient>
<linearGradient id="paint7_linear_10675_274611" x1="66.7626" y1="226.983" x2="116.864" y2="231.052" gradientUnits="userSpaceOnUse">
<stop stop-color="#F5FCFF"/>
<stop offset="1" stop-color="#CCEFFF"/>
</linearGradient>
<radialGradient id="paint8_radial_10675_274611" cx="0" cy="0" r="1" gradientUnits="userSpaceOnUse" gradientTransform="translate(53.6509 218.76) rotate(-7.09293) scale(10.4909 37.4703)">
<stop stop-color="#72D9FF"/>
<stop offset="0.587" stop-color="#009DFF"/>
<stop offset="0.852" stop-color="#0079DC"/>
<stop offset="1" stop-color="#006CC9"/>
</radialGradient>
<linearGradient id="paint9_linear_10675_274611" x1="56.9689" y1="200.188" x2="32.0012" y2="223.742" gradientUnits="userSpaceOnUse">
<stop stop-color="white"/>
<stop offset="0.32" stop-color="#F8FCFF"/>
<stop offset="1" stop-color="#006E9F"/>
</linearGradient>
<linearGradient id="paint10_linear_10675_274611" x1="337.334" y1="218.758" x2="355.277" y2="262.357" gradientUnits="userSpaceOnUse">
<stop stop-color="#F5FCFF"/>
<stop offset="1" stop-color="#CCEFFF"/>
</linearGradient>
<radialGradient id="paint11_radial_10675_274611" cx="0" cy="0" r="1" gradientUnits="userSpaceOnUse" gradientTransform="translate(342.542 216.17) rotate(-170.58) scale(7.91465 36.7973)">
<stop stop-color="#72D9FF"/>
<stop offset="0.587" stop-color="#009DFF"/>
<stop offset="0.852" stop-color="#0079DC"/>
<stop offset="1" stop-color="#006CC9"/>
</radialGradient>
<linearGradient id="paint12_linear_10675_274611" x1="340.585" y1="200.193" x2="365.553" y2="223.746" gradientUnits="userSpaceOnUse">
<stop stop-color="white"/>
<stop offset="0.32" stop-color="#F8FCFF"/>
<stop offset="1" stop-color="#006E9F"/>
</linearGradient>
<linearGradient id="paint13_linear_10675_274611" x1="199.319" y1="71.283" x2="199.319" y2="244.53" gradientUnits="userSpaceOnUse">
<stop stop-color="#9DD2FF"/>
<stop offset="1" stop-color="#00A8FF"/>
</linearGradient>
<linearGradient id="paint14_linear_10675_274611" x1="199.241" y1="71.5046" x2="199.241" y2="229.094" gradientUnits="userSpaceOnUse">
<stop stop-color="#F2F9FF"/>
<stop offset="0.155" stop-color="#71C1FF"/>
<stop offset="0.649" stop-color="#6CC6FF"/>
<stop offset="1" stop-color="#D8F1FF"/>
</linearGradient>
<radialGradient id="paint15_radial_10675_274611" cx="0" cy="0" r="1" gradientUnits="userSpaceOnUse" gradientTransform="translate(199.405 178.598) scale(137.94 93.6128)">
<stop stop-color="#21BBF4"/>
<stop offset="0.842" stop-color="#58B2FF"/>
<stop offset="1" stop-color="#0065BC"/>
</radialGradient>
<radialGradient id="paint16_radial_10675_274611" cx="0" cy="0" r="1" gradientUnits="userSpaceOnUse" gradientTransform="translate(132.743 243.431) rotate(21.8812) scale(124.835 85.8286)">
<stop stop-color="#B5EBFF"/>
<stop offset="0.673" stop-color="#009DFF"/>
<stop offset="0.906" stop-color="#11649D"/>
<stop offset="1" stop-color="#034B81"/>
</radialGradient>
<radialGradient id="paint17_radial_10675_274611" cx="0" cy="0" r="1" gradientUnits="userSpaceOnUse" gradientTransform="translate(199.397 192.847) scale(115.818 79.5274)">
<stop stop-color="#B5EBFF"/>
<stop offset="0.673" stop-color="#009DFF"/>
<stop offset="0.906" stop-color="#11649D"/>
<stop offset="1" stop-color="#034B81"/>
</radialGradient>
<linearGradient id="paint18_linear_10675_274611" x1="200.582" y1="81.6577" x2="200.582" y2="151.568" gradientUnits="userSpaceOnUse">
<stop stop-color="#D5F0FF" stop-opacity="0.867"/>
<stop offset="1" stop-color="#739EFF" stop-opacity="0"/>
</linearGradient>
<radialGradient id="paint19_radial_10675_274611" cx="0" cy="0" r="1" gradientUnits="userSpaceOnUse" gradientTransform="translate(145.79 94.917) scale(43.7185 38.5104)">
<stop stop-color="white"/>
<stop offset="0.72" stop-color="white" stop-opacity="0"/>
<stop offset="1" stop-color="white" stop-opacity="0"/>
</radialGradient>
<linearGradient id="paint20_linear_10675_274611" x1="148.657" y1="238.187" x2="182.578" y2="142.091" gradientUnits="userSpaceOnUse">
<stop stop-color="white" stop-opacity="0"/>
<stop offset="0.256" stop-color="white" stop-opacity="0.725"/>
<stop offset="1" stop-color="white" stop-opacity="0"/>
</linearGradient>
<linearGradient id="paint21_linear_10675_274611" x1="202.459" y1="261.364" x2="202.538" y2="239.626" gradientUnits="userSpaceOnUse">
<stop stop-color="#33C0FF"/>
<stop offset="0.695" stop-color="#0D69AF"/>
<stop offset="1" stop-color="#004C85"/>
</linearGradient>
</defs>
</svg>
