<svg width="328" height="260" viewBox="0 0 328 260" fill="none" xmlns="http://www.w3.org/2000/svg">
<path d="M162.709 256.894C223.727 256.894 273.191 207.316 273.191 146.158C273.191 85 223.727 35.4219 162.709 35.4219C101.691 35.4219 52.2266 85 52.2266 146.158C52.2266 207.316 101.691 256.894 162.709 256.894Z" fill="url(#paint0_radial_1402_15027)"/>
<path d="M272.812 25.3595C288.274 47.0623 284.892 97.6792 276.2 135.352C267.509 173.026 194.299 53.3887 202.681 51.0168C256.239 22.5298 261.45 12.5882 272.812 25.3595Z" fill="url(#paint1_linear_1402_15027)"/>
<path d="M275.084 25.1759C285.494 39.9276 287.559 87.4003 274.453 141.27C276.766 111.335 270.303 77.8567 267.293 58.8422C263.995 30.5785 263.761 12.3267 275.084 25.1759Z" fill="url(#paint2_radial_1402_15027)"/>
<path d="M267.83 21.207C256.838 33.0042 279.248 97.9668 274.643 141.846" stroke="#D8EDFF" stroke-linecap="round"/>
<path d="M54.6585 25.5068C39.196 47.2097 42.5782 97.8265 51.2698 135.5C59.9614 173.173 133.171 53.536 124.789 51.1641C71.2314 22.6772 66.0206 12.7355 54.6585 25.5068Z" fill="url(#paint3_linear_1402_15027)"/>
<path d="M52.9194 25.1994C42.5196 39.9646 40.458 87.4291 53.5701 141.29C51.2545 111.36 57.7166 77.8884 60.7254 58.8774C64.0216 30.6187 64.2518 12.3666 52.9194 25.1994Z" fill="url(#paint4_radial_1402_15027)"/>
<path d="M60.1408 21.207C71.1335 33.0042 48.7234 97.9668 53.328 141.85" stroke="#D8EDFF" stroke-linecap="round"/>
<path d="M164.047 34.8676C185.994 34.8962 207.441 41.4436 225.678 53.6829C243.915 65.9221 258.124 83.3041 266.51 103.633C274.896 123.962 277.083 146.326 272.795 167.9C268.506 189.474 257.935 209.291 242.416 224.846C226.897 240.401 207.126 250.998 185.602 255.297C164.077 259.596 141.764 257.405 121.481 249C101.199 240.596 83.8559 226.355 71.644 208.076C59.4321 189.798 52.8988 168.302 52.8695 146.304C52.8315 131.659 55.6811 117.152 61.2548 103.615C66.8284 90.0778 75.0161 77.7782 85.3474 67.4228C95.6787 57.0675 107.95 48.8605 121.456 43.2736C134.962 37.6867 149.436 34.8299 164.047 34.8676Z" fill="url(#paint5_radial_1402_15027)"/>
<path opacity="0.647" d="M105.163 240.267C109.547 235.945 96.3464 229.534 101.624 226.124C107.151 222.991 117.771 247.316 163.857 247.815" stroke="#2FB6EF" stroke-width="0.5" stroke-linecap="round"/>
<path opacity="0.647" d="M222.558 240.269C218.173 235.947 231.374 229.536 226.096 226.122C220.57 222.989 209.95 247.315 163.863 247.813" stroke="#2FB6EF" stroke-width="0.5" stroke-linecap="round"/>
<path opacity="0.996" d="M167.855 238.088C191.456 237.911 235.863 223.182 235.863 233.007C235.863 242.832 206.86 259.517 167.855 259.991C128.85 260.465 93.7598 242.836 93.7598 233.011C93.7598 223.186 144.251 238.269 167.855 238.088Z" fill="url(#paint6_radial_1402_15027)"/>
<path d="M53.6833 141.508C51.9878 150.761 58.8184 180.428 64.9967 194.107C71.1638 207.16 79.7902 218.896 90.4012 228.667C90.4081 229.005 91.5987 231.631 87.9101 229.681C75.9406 223.371 53.2958 201.424 44.0022 179.034C34.7086 156.644 49.79 141.542 53.6833 141.508Z" fill="url(#paint7_linear_1402_15027)"/>
<path d="M47.7285 145.436C50.8511 146.445 49.4746 166.62 53.7229 181.254C55.8574 189.107 58.9494 196.666 62.9291 203.761C63.0861 203.918 63.9774 205.292 61.5782 204.184C52.908 199.243 40.7741 179.103 37.8619 163.928C34.9321 148.677 44.5897 144.43 47.7285 145.436Z" fill="url(#paint8_radial_1402_15027)"/>
<path opacity="0.485" d="M45.0969 147.211C48.3289 147.362 38.4839 154.211 42.5013 168.368C46.5188 182.525 53.5039 197.454 61.3727 203.579C47.1049 193.251 39.6878 166.939 39.594 166.5C36.2729 152.252 41.8561 147.05 45.0969 147.211Z" fill="url(#paint9_linear_1402_15027)"/>
<path d="M274.194 142.159C275.89 151.412 268.024 180.417 261.846 194.096C255.679 207.149 247.052 218.885 236.441 228.657C236.435 228.995 235.24 231.619 238.939 229.656C250.902 223.36 273.547 201.413 282.84 179.023C292.134 156.633 278.087 142.192 274.194 142.159Z" fill="url(#paint10_linear_1402_15027)"/>
<path d="M279.154 145.434C276.031 146.443 277.408 166.618 273.16 181.252C271.024 189.11 267.93 196.674 263.947 203.773C263.789 203.921 262.9 205.292 265.299 204.184C273.973 199.245 286.102 179.115 289.02 163.926C291.949 148.679 282.291 144.431 279.154 145.434Z" fill="url(#paint11_radial_1402_15027)"/>
<path opacity="0.485" d="M281.792 147.208C278.558 147.363 288.399 154.21 284.384 168.363C280.368 182.517 273.385 197.451 265.514 203.571C279.789 193.237 287.199 166.94 287.295 166.497C290.614 152.253 285.031 147.051 281.792 147.208Z" fill="url(#paint12_linear_1402_15027)"/>
<g opacity="0.997">
<g opacity="0.518">
<path opacity="0.395" d="M52.9473 141.009C52.9473 113.768 78.347 38.4297 162.381 38.4297C246.415 38.4297 274.825 115.001 274.825 141.009C274.825 167.017 267.25 185.121 236.585 185.121C205.919 185.121 185.545 165.543 163.864 166.142C142.183 166.74 123.853 185.121 91.3916 185.121C58.9305 185.121 52.9473 168.255 52.9473 141.009Z" fill="url(#paint13_linear_1402_15027)"/>
<path opacity="0.518" d="M53.125 139.053C53.125 112.342 79.174 38.6348 163.865 38.6348C248.557 38.6348 274.509 114.451 274.509 139.949C274.509 165.447 265.565 183.972 234.895 183.972C204.225 183.972 185.546 164.772 163.861 165.363C142.176 165.953 127.216 183.972 94.7834 183.972C62.3503 183.972 53.125 165.764 53.125 139.053Z" fill="url(#paint14_linear_1402_15027)"/>
</g>
<g opacity="0.997">
<path opacity="0.997" d="M58.6758 136.995C58.6758 110.85 81.3705 42.0195 164.026 42.0195C246.681 42.0195 269.376 112.031 269.376 136.995C269.376 161.959 257.55 180.966 228.872 180.966C200.194 180.966 186.793 164.409 164.03 164.409C141.267 164.409 131.348 180.966 101.011 180.966C70.6743 180.966 58.6758 163.144 58.6758 136.995Z" fill="url(#paint15_radial_1402_15027)"/>
<path opacity="0.997" d="M62.5645 133.521C62.5645 109.959 90.6773 42.0195 163.999 42.0195C237.321 42.0195 265.446 109.918 265.446 133.521C265.446 157.123 249.368 172.391 224.168 176.861C198.969 181.332 185.949 159.931 163.999 159.931C142.05 159.931 135.145 178.339 110.266 176.861C85.3874 175.383 62.5645 157.083 62.5645 133.521Z" fill="url(#paint16_radial_1402_15027)"/>
</g>
<path opacity="0.997" d="M164.002 47.2168C202.819 47.2168 226.603 65.7219 232.767 78.6076C239.027 93.5619 207.247 106.142 164.002 106.407C126.731 106.636 93.6652 92.8148 96.5066 78.2099C100.125 64.4606 128.367 47.2168 164.002 47.2168Z" fill="url(#paint17_linear_1402_15027)"/>
<path opacity="0.782" d="M150.168 35.5898C152.356 39.549 153.49 44.0059 153.462 48.5318C153.462 67.7157 139.836 82.4491 121.173 82.4491C114.838 82.5789 108.584 81.0088 103.059 77.9013C97.533 74.7938 92.9367 70.2621 89.7461 64.7754C97.7223 56.8008 107.036 50.295 117.262 45.5554C127.881 41.168 138.902 37.8303 150.168 35.5898Z" fill="url(#paint18_radial_1402_15027)"/>
<path opacity="0.546" d="M83.7923 165.152C68.239 155.765 70.0264 112.999 94.6807 77.6434C102.215 67.3606 125.707 52.9847 125.667 55.0855C109.986 86.2393 108.695 122.647 122.862 174.218C109.056 179.186 87.0304 168.124 83.7923 165.152Z" fill="url(#paint19_linear_1402_15027)"/>
</g>
<g filter="url(#filter0_d_1402_15027)">
<path d="M186.959 183.598C179.549 182.046 172.016 181.168 164.449 180.975C156.922 181.164 149.429 182.042 142.062 183.598C142.063 183.598 143.265 204.123 164.449 204.123C185.632 204.123 186.959 183.598 186.959 183.598Z" fill="url(#paint20_linear_1402_15027)"/>
</g>
<path opacity="0.683" d="M145.828 195.422C147.994 198.248 150.803 200.512 154.022 202.026C157.241 203.539 160.774 204.256 164.327 204.118C167.82 204.21 171.287 203.497 174.463 202.035C177.638 200.572 180.436 198.399 182.641 195.683C172.106 203.218 158.672 205.532 145.828 195.422Z" fill="#8DD6FF"/>
<path opacity="0.412" d="M162.441 118.855C102.649 118.855 65.707 141.509 65.707 141.509C65.707 141.509 102.024 118.855 162.441 118.855ZM162.441 118.855C197.419 118.55 230.635 126.146 262.076 141.509C262.076 141.509 222.859 118.855 162.441 118.855Z" stroke="white" stroke-linecap="round" stroke-linejoin="round"/>
<g opacity="0.815" filter="url(#filter1_f_1402_15027)">
<path d="M115.305 143.493C130.237 141.656 141.309 131.745 140.037 121.356C138.764 110.968 125.628 104.036 110.696 105.874C95.7647 107.712 84.6918 117.623 85.9644 128.011C87.237 138.399 100.373 145.331 115.305 143.493Z" fill="white"/>
</g>
<path d="M115.176 132.488C122.478 131.065 127.798 126.823 127.059 123.012C126.32 119.201 119.801 117.265 112.499 118.688C105.197 120.11 99.8765 124.353 100.616 128.164C101.355 131.975 107.873 133.911 115.176 132.488Z" fill="white"/>
<defs>
<filter id="filter0_d_1402_15027" x="140.062" y="178.975" width="48.8965" height="27.1484" filterUnits="userSpaceOnUse" color-interpolation-filters="sRGB">
<feFlood flood-opacity="0" result="BackgroundImageFix"/>
<feColorMatrix in="SourceAlpha" type="matrix" values="0 0 0 0 0 0 0 0 0 0 0 0 0 0 0 0 0 0 127 0" result="hardAlpha"/>
<feOffset/>
<feGaussianBlur stdDeviation="1"/>
<feColorMatrix type="matrix" values="0 0 0 0 0.00784314 0 0 0 0 0.654902 0 0 0 0 1 0 0 0 0.776 0"/>
<feBlend mode="normal" in2="BackgroundImageFix" result="effect1_dropShadow_1402_15027"/>
<feBlend mode="normal" in="SourceGraphic" in2="effect1_dropShadow_1402_15027" result="shape"/>
</filter>
<filter id="filter1_f_1402_15027" x="79.8652" y="99.5781" width="66.2715" height="50.2109" filterUnits="userSpaceOnUse" color-interpolation-filters="sRGB">
<feFlood flood-opacity="0" result="BackgroundImageFix"/>
<feBlend mode="normal" in="SourceGraphic" in2="BackgroundImageFix" result="shape"/>
<feGaussianBlur stdDeviation="3" result="effect1_foregroundBlur_1402_15027"/>
</filter>
<radialGradient id="paint0_radial_1402_15027" cx="0" cy="0" r="1" gradientUnits="userSpaceOnUse" gradientTransform="translate(162.709 146.158) scale(110.482 110.736)">
<stop stop-color="white"/>
<stop offset="0.695" stop-color="white"/>
<stop offset="1" stop-color="#F5F5F5"/>
</radialGradient>
<linearGradient id="paint1_linear_1402_15027" x1="273.701" y1="132.35" x2="240.842" y2="28.2017" gradientUnits="userSpaceOnUse">
<stop stop-color="#0B5B90"/>
<stop offset="0.269" stop-color="#65C4FF"/>
<stop offset="0.755" stop-color="white"/>
<stop offset="1" stop-color="white"/>
</linearGradient>
<radialGradient id="paint2_radial_1402_15027" cx="0" cy="0" r="1" gradientUnits="userSpaceOnUse" gradientTransform="translate(274.096 91.3011) rotate(-8.14851) scale(14.1694 57.8786)">
<stop stop-color="#0166BA"/>
<stop offset="0.3" stop-color="#2795F4"/>
<stop offset="1" stop-color="#93D5FF"/>
</radialGradient>
<linearGradient id="paint3_linear_1402_15027" x1="54.3139" y1="134.353" x2="85.3554" y2="28.2864" gradientUnits="userSpaceOnUse">
<stop stop-color="#0B5B90"/>
<stop offset="0.269" stop-color="#65C4FF"/>
<stop offset="0.755" stop-color="white"/>
<stop offset="1" stop-color="white"/>
</linearGradient>
<radialGradient id="paint4_radial_1402_15027" cx="0" cy="0" r="1" gradientUnits="userSpaceOnUse" gradientTransform="translate(51.6917 95.3149) rotate(-167.444) scale(18.4793 81.8501)">
<stop stop-color="#0166BA"/>
<stop offset="0.3" stop-color="#2795F4"/>
<stop offset="1" stop-color="#93D5FF"/>
</radialGradient>
<radialGradient id="paint5_radial_1402_15027" cx="0" cy="0" r="1" gradientUnits="userSpaceOnUse" gradientTransform="translate(163.902 153.5) scale(111.033 111.288)">
<stop stop-color="white"/>
<stop offset="0.72" stop-color="white"/>
<stop offset="1" stop-color="#BCE7FF"/>
</radialGradient>
<radialGradient id="paint6_radial_1402_15027" cx="0" cy="0" r="1" gradientUnits="userSpaceOnUse" gradientTransform="translate(163.892 247.953) rotate(-2.20765) scale(52.1367 11.1423)">
<stop stop-color="white"/>
<stop offset="0.578" stop-color="white" stop-opacity="0"/>
<stop offset="1" stop-color="white" stop-opacity="0"/>
</radialGradient>
<linearGradient id="paint7_linear_1402_15027" x1="39.6569" y1="133.475" x2="97.3168" y2="143.179" gradientUnits="userSpaceOnUse">
<stop stop-color="#F5FCFF"/>
<stop offset="1" stop-color="#CCEFFF"/>
</linearGradient>
<radialGradient id="paint8_radial_1402_15027" cx="0" cy="0" r="1" gradientUnits="userSpaceOnUse" gradientTransform="translate(41.6617 165.61) rotate(-11.3352) scale(10.2182 35.4152)">
<stop stop-color="#72D9FF"/>
<stop offset="0.587" stop-color="#009DFF"/>
<stop offset="0.852" stop-color="#0079DC"/>
<stop offset="1" stop-color="#006CC9"/>
</radialGradient>
<linearGradient id="paint9_linear_1402_15027" x1="44.1949" y1="147.578" x2="23.0637" y2="167.374" gradientUnits="userSpaceOnUse">
<stop stop-color="white"/>
<stop offset="0.32" stop-color="#F8FCFF"/>
<stop offset="1" stop-color="#006E9F"/>
</linearGradient>
<linearGradient id="paint10_linear_1402_15027" x1="252.057" y1="227.871" x2="227.614" y2="191.706" gradientUnits="userSpaceOnUse">
<stop stop-color="#F5FCFF"/>
<stop offset="1" stop-color="#CCEFFF"/>
</linearGradient>
<radialGradient id="paint11_radial_1402_15027" cx="0" cy="0" r="1" gradientUnits="userSpaceOnUse" gradientTransform="translate(286.121 163.602) rotate(-165.933) scale(8.26287 39.3207)">
<stop stop-color="#72D9FF"/>
<stop offset="0.587" stop-color="#009DFF"/>
<stop offset="0.852" stop-color="#0079DC"/>
<stop offset="1" stop-color="#006CC9"/>
</radialGradient>
<linearGradient id="paint12_linear_1402_15027" x1="282.693" y1="147.577" x2="303.823" y2="167.372" gradientUnits="userSpaceOnUse">
<stop stop-color="white"/>
<stop offset="0.32" stop-color="#F8FCFF"/>
<stop offset="1" stop-color="#006E9F"/>
</linearGradient>
<linearGradient id="paint13_linear_1402_15027" x1="163.886" y1="38.4297" x2="163.886" y2="185.121" gradientUnits="userSpaceOnUse">
<stop stop-color="#9DD2FF"/>
<stop offset="1" stop-color="#00A8FF"/>
</linearGradient>
<linearGradient id="paint14_linear_1402_15027" x1="163.817" y1="38.6348" x2="163.817" y2="172.055" gradientUnits="userSpaceOnUse">
<stop stop-color="#F2F9FF"/>
<stop offset="0.155" stop-color="#71C1FF"/>
<stop offset="0.649" stop-color="#6CC6FF"/>
<stop offset="1" stop-color="#D8F1FF"/>
</linearGradient>
<radialGradient id="paint15_radial_1402_15027" cx="0" cy="0" r="1" gradientUnits="userSpaceOnUse" gradientTransform="translate(163.89 101.343) rotate(-0.786625) scale(146.289 99.9537)">
<stop stop-color="#21BBF4"/>
<stop offset="0.842" stop-color="#58B2FF"/>
<stop offset="1" stop-color="#0065BC"/>
</radialGradient>
<radialGradient id="paint16_radial_1402_15027" cx="0" cy="0" r="1" gradientUnits="userSpaceOnUse" gradientTransform="translate(163.891 143.519) scale(108.204 74.8064)">
<stop stop-color="#B5EBFF"/>
<stop offset="0.673" stop-color="#009DFF"/>
<stop offset="0.906" stop-color="#11649D"/>
<stop offset="1" stop-color="#034B81"/>
</radialGradient>
<linearGradient id="paint17_linear_1402_15027" x1="164.945" y1="47.2168" x2="164.945" y2="106.41" gradientUnits="userSpaceOnUse">
<stop stop-color="#D5F0FF" stop-opacity="0.867"/>
<stop offset="1" stop-color="#739EFF" stop-opacity="0"/>
</linearGradient>
<radialGradient id="paint18_radial_1402_15027" cx="0" cy="0" r="1" gradientUnits="userSpaceOnUse" gradientTransform="translate(115.799 53.143) rotate(17.5633) scale(39.9331 35.4089)">
<stop stop-color="white"/>
<stop offset="0.72" stop-color="white" stop-opacity="0"/>
<stop offset="1" stop-color="white" stop-opacity="0"/>
</radialGradient>
<linearGradient id="paint19_linear_1402_15027" x1="125.819" y1="181.681" x2="164.833" y2="91.2596" gradientUnits="userSpaceOnUse">
<stop stop-color="white" stop-opacity="0"/>
<stop offset="0.256" stop-color="white" stop-opacity="0.725"/>
<stop offset="1" stop-color="white" stop-opacity="0"/>
</linearGradient>
<linearGradient id="paint20_linear_1402_15027" x1="164.511" y1="202.85" x2="164.511" y2="180.975" gradientUnits="userSpaceOnUse">
<stop stop-color="#33C0FF"/>
<stop offset="0.695" stop-color="#0D69AF"/>
<stop offset="1" stop-color="#004C85"/>
</linearGradient>
</defs>
</svg>
