<svg width="396" height="335" viewBox="0 0 396 335" fill="none" xmlns="http://www.w3.org/2000/svg">
<g filter="url(#filter0_d_10017_168375)">
<path d="M196.442 310.25C270.109 310.25 329.829 250.375 329.829 176.516C329.829 102.656 270.109 42.7815 196.442 42.7815C122.774 42.7815 63.0547 102.656 63.0547 176.516C63.0547 250.375 122.774 310.25 196.442 310.25Z" fill="url(#paint0_radial_10017_168375)"/>
</g>
<g filter="url(#filter1_d_10017_168375)">
<path d="M329.369 30.6253C348.037 56.8356 343.954 117.965 333.46 163.462C322.967 208.96 234.58 64.4759 244.7 61.6113C309.361 27.208 315.652 15.2016 329.369 30.6253Z" fill="url(#paint1_linear_10017_168375)"/>
</g>
<path d="M332.113 30.4057C344.682 48.2211 347.174 105.553 331.352 170.61C334.144 134.459 326.341 94.0275 322.707 71.064C318.726 36.9303 318.443 14.8878 332.113 30.4057Z" fill="url(#paint2_radial_10017_168375)"/>
<path d="M323.356 25.6121C310.084 39.8593 337.14 118.314 331.581 171.306" stroke="#D8EDFF" stroke-linecap="round"/>
<g filter="url(#filter2_d_10017_168375)">
<path d="M65.9897 30.8039C47.3216 57.0142 51.405 118.144 61.8985 163.641C72.3921 209.138 160.779 64.6545 150.659 61.7899C85.9985 27.3866 79.7073 15.3802 65.9897 30.8039Z" fill="url(#paint3_linear_10017_168375)"/>
</g>
<path d="M63.8903 30.4353C51.3345 48.2671 48.8455 105.589 64.6759 170.637C61.8803 134.491 69.6821 94.0672 73.3147 71.1078C77.2941 36.9802 77.5721 14.9374 63.8903 30.4353Z" fill="url(#paint4_radial_10017_168375)"/>
<path d="M72.6082 25.6121C85.8798 39.8593 58.8238 118.314 64.383 171.31" stroke="#D8EDFF" stroke-linecap="round"/>
<path d="M198.056 42.1106C224.554 42.1451 250.447 50.0524 272.465 64.8335C294.483 79.6147 311.638 100.607 321.762 125.158C331.887 149.709 334.527 176.718 329.35 202.772C324.172 228.827 311.409 252.759 292.672 271.545C273.936 290.331 250.067 303.128 224.08 308.32C198.093 313.512 171.154 310.866 146.667 300.716C122.179 290.566 101.241 273.367 86.4972 251.292C71.7536 229.218 63.8659 203.257 63.8305 176.691C63.7846 159.005 67.225 141.484 73.9542 125.136C80.6833 108.787 90.5684 93.9331 103.042 81.4271C115.515 68.9211 130.33 59.0096 146.636 52.2624C162.941 45.5151 180.416 42.0651 198.056 42.1106Z" fill="url(#paint5_radial_10017_168375)"/>
<path opacity="0.647" d="M126.964 290.167C132.257 284.947 116.32 277.205 122.692 273.087C129.364 269.303 142.185 298.68 197.826 299.282" stroke="#2FB6EF" stroke-width="0.5" stroke-linecap="round"/>
<path opacity="0.647" d="M268.697 290.169C263.403 284.95 279.341 277.207 272.969 273.084C266.297 269.3 253.475 298.678 197.834 299.279" stroke="#2FB6EF" stroke-width="0.5" stroke-linecap="round"/>
<path opacity="0.996" d="M202.654 287.536C231.147 287.323 284.761 269.534 284.761 281.4C284.761 293.265 249.745 313.416 202.654 313.989C155.562 314.561 113.197 293.27 113.197 281.405C113.197 269.539 174.156 287.755 202.654 287.536Z" fill="url(#paint6_radial_10017_168375)"/>
<g filter="url(#filter3_d_10017_168375)">
<path d="M64.8122 170.898C62.7652 182.073 71.0118 217.901 78.4711 234.421C85.9167 250.185 96.3315 264.358 109.142 276.159C109.151 276.567 110.588 279.738 106.135 277.383C91.6838 269.762 64.3444 243.257 53.1241 216.217C41.9038 189.177 60.1118 170.938 64.8122 170.898Z" fill="url(#paint7_linear_10017_168375)"/>
</g>
<path d="M57.6231 175.644C61.3931 176.863 59.7312 201.228 64.8602 218.902C67.4372 228.385 71.1703 237.514 75.975 246.082C76.1646 246.272 77.2406 247.931 74.3441 246.593C63.8764 240.627 49.2269 216.303 45.711 197.977C42.1738 179.559 53.8336 174.429 57.6231 175.644Z" fill="url(#paint8_radial_10017_168375)"/>
<path opacity="0.485" d="M54.448 177.783C58.3501 177.966 46.4641 186.237 51.3144 203.334C56.1647 220.432 64.5979 238.461 74.098 245.859C56.8723 233.386 47.9175 201.609 47.8043 201.079C43.7946 183.872 50.5354 177.589 54.448 177.783Z" fill="url(#paint9_linear_10017_168375)"/>
<g filter="url(#filter4_d_10017_168375)">
<path d="M331.04 171.684C333.087 182.859 323.591 217.889 316.131 234.409C308.686 250.173 298.271 264.346 285.46 276.147C285.452 276.555 284.01 279.724 288.476 277.353C302.919 269.75 330.258 243.245 341.478 216.205C352.699 189.165 335.74 171.725 331.04 171.684Z" fill="url(#paint10_linear_10017_168375)"/>
</g>
<path d="M337.029 175.637C333.259 176.856 334.92 201.221 329.791 218.895C327.213 228.385 323.477 237.52 318.669 246.093C318.479 246.272 317.405 247.927 320.301 246.589C330.773 240.624 345.417 216.314 348.941 197.97C352.476 179.557 340.816 174.427 337.029 175.637Z" fill="url(#paint11_radial_10017_168375)"/>
<path opacity="0.485" d="M340.212 177.78C336.307 177.967 348.189 186.235 343.341 203.328C338.493 220.422 330.062 238.457 320.559 245.849C337.793 233.369 346.74 201.61 346.855 201.075C350.863 183.873 344.122 177.59 340.212 177.78Z" fill="url(#paint12_linear_10017_168375)"/>
<g opacity="0.997">
<g opacity="0.518">
<path opacity="0.395" d="M63.9219 170.295C63.9219 137.396 94.5874 46.4116 196.043 46.4116C297.498 46.4116 331.798 138.885 331.798 170.295C331.798 201.705 322.653 223.568 285.63 223.568C248.607 223.568 224.009 199.925 197.833 200.648C171.658 201.371 149.527 223.568 110.336 223.568C71.1455 223.568 63.9219 203.199 63.9219 170.295Z" fill="url(#paint13_linear_10017_168375)"/>
<path opacity="0.518" d="M64.1348 167.932C64.1348 135.673 95.5841 46.6582 197.833 46.6582C300.082 46.6582 331.415 138.22 331.415 169.014C331.415 199.808 320.616 222.18 283.588 222.18C246.56 222.18 224.009 198.993 197.828 199.706C171.648 200.419 153.586 222.18 114.429 222.18C75.2727 222.18 64.1348 200.191 64.1348 167.932Z" fill="url(#paint14_linear_10017_168375)"/>
</g>
<g opacity="0.997">
<path opacity="0.997" d="M70.8379 165.445C70.8379 133.871 98.2375 50.7446 198.029 50.7446C297.82 50.7446 325.219 135.297 325.219 165.445C325.219 195.594 310.941 218.549 276.318 218.549C241.695 218.549 225.515 198.553 198.033 198.553C170.552 198.553 158.577 218.549 121.95 218.549C85.3239 218.549 70.8379 197.025 70.8379 165.445Z" fill="url(#paint15_radial_10017_168375)"/>
<path opacity="0.997" d="M75.5312 161.249C75.5312 132.794 109.472 50.7446 197.995 50.7446C286.517 50.7446 320.473 132.745 320.473 161.249C320.473 189.754 301.062 208.192 270.638 213.591C240.214 218.99 224.495 193.144 197.995 193.144C171.495 193.144 163.159 215.376 133.122 213.591C103.086 211.806 75.5312 189.705 75.5312 161.249Z" fill="url(#paint16_radial_10017_168375)"/>
</g>
<path opacity="0.997" d="M197.998 57.0234C244.863 57.0234 273.578 79.3718 281.02 94.9336C288.577 112.994 250.209 128.187 197.998 128.507C153.002 128.784 113.08 112.091 116.511 94.4534C120.88 77.8486 154.976 57.0234 197.998 57.0234Z" fill="url(#paint17_linear_10017_168375)"/>
<path opacity="0.782" d="M181.296 42.9814C183.937 47.7629 185.307 53.1454 185.273 58.6112C185.273 81.7794 168.822 99.5727 146.29 99.5727C138.642 99.7295 131.091 97.8333 124.42 94.0804C117.749 90.3276 112.2 84.8546 108.348 78.2285C117.977 68.5977 129.222 60.7406 141.568 55.0167C154.388 49.7181 167.694 45.6872 181.296 42.9814Z" fill="url(#paint18_radial_10017_168375)"/>
<path opacity="0.546" d="M101.159 199.451C82.381 188.115 84.5389 136.467 114.305 93.7685C123.401 81.3501 151.763 63.9885 151.715 66.5256C132.782 104.15 131.224 148.119 148.328 210.4C131.66 216.401 105.068 203.041 101.159 199.451Z" fill="url(#paint19_linear_10017_168375)"/>
</g>
<g filter="url(#filter5_d_10017_168375)">
<path d="M225.722 221.729C216.776 219.855 207.68 218.795 198.545 218.561C189.458 218.79 180.412 219.85 171.518 221.729C171.518 221.729 172.969 246.517 198.545 246.517C224.12 246.517 225.722 221.729 225.722 221.729Z" fill="url(#paint20_linear_10017_168375)"/>
</g>
<path opacity="0.683" d="M176.064 236.01C178.679 239.423 182.071 242.158 185.957 243.985C189.843 245.813 194.109 246.679 198.398 246.512C202.616 246.623 206.802 245.762 210.635 243.996C214.469 242.23 217.847 239.606 220.51 236.325C207.79 245.426 191.571 248.22 176.064 236.01Z" fill="#8DD6FF"/>
<g filter="url(#filter6_d_10017_168375)">
<path opacity="0.412" d="M196.119 143.54C123.93 143.54 79.3301 170.9 79.3301 170.9C79.3301 170.9 123.175 143.54 196.119 143.54ZM196.119 143.54C238.347 143.172 278.449 152.346 316.41 170.9C316.41 170.9 269.062 143.54 196.119 143.54Z" stroke="white" stroke-linecap="round" stroke-linejoin="round"/>
</g>
<g opacity="0.815" filter="url(#filter7_f_10017_168375)">
<path d="M139.209 173.294C157.236 171.075 170.605 159.106 169.068 146.56C167.532 134.014 151.672 125.643 133.645 127.862C115.618 130.081 102.249 142.051 103.786 154.596C105.322 167.142 121.182 175.514 139.209 173.294Z" fill="white"/>
</g>
<path d="M139.055 160.003C147.872 158.285 154.295 153.161 153.403 148.559C152.511 143.956 144.64 141.618 135.824 143.336C127.008 145.054 120.585 150.178 121.477 154.78C122.369 159.383 130.239 161.721 139.055 160.003Z" fill="white"/>
<defs>
<filter id="filter0_d_10017_168375" x="43.0547" y="26.7815" width="306.774" height="307.469" filterUnits="userSpaceOnUse" color-interpolation-filters="sRGB">
<feFlood flood-opacity="0" result="BackgroundImageFix"/>
<feColorMatrix in="SourceAlpha" type="matrix" values="0 0 0 0 0 0 0 0 0 0 0 0 0 0 0 0 0 0 127 0" result="hardAlpha"/>
<feOffset dy="4"/>
<feGaussianBlur stdDeviation="10"/>
<feComposite in2="hardAlpha" operator="out"/>
<feColorMatrix type="matrix" values="0 0 0 0 0.654902 0 0 0 0 0.85098 0 0 0 0 1 0 0 0 0.8 0"/>
<feBlend mode="normal" in2="BackgroundImageFix" result="effect1_dropShadow_10017_168375"/>
<feBlend mode="normal" in="SourceGraphic" in2="effect1_dropShadow_10017_168375" result="shape"/>
</filter>
<filter id="filter1_d_10017_168375" x="223.895" y="8.00439" width="138.456" height="188.313" filterUnits="userSpaceOnUse" color-interpolation-filters="sRGB">
<feFlood flood-opacity="0" result="BackgroundImageFix"/>
<feColorMatrix in="SourceAlpha" type="matrix" values="0 0 0 0 0 0 0 0 0 0 0 0 0 0 0 0 0 0 127 0" result="hardAlpha"/>
<feOffset dy="4"/>
<feGaussianBlur stdDeviation="10"/>
<feComposite in2="hardAlpha" operator="out"/>
<feColorMatrix type="matrix" values="0 0 0 0 0.654902 0 0 0 0 0.85098 0 0 0 0 1 0 0 0 0.6 0"/>
<feBlend mode="normal" in2="BackgroundImageFix" result="effect1_dropShadow_10017_168375"/>
<feBlend mode="normal" in="SourceGraphic" in2="effect1_dropShadow_10017_168375" result="shape"/>
</filter>
<filter id="filter2_d_10017_168375" x="33.0088" y="8.18311" width="138.456" height="188.313" filterUnits="userSpaceOnUse" color-interpolation-filters="sRGB">
<feFlood flood-opacity="0" result="BackgroundImageFix"/>
<feColorMatrix in="SourceAlpha" type="matrix" values="0 0 0 0 0 0 0 0 0 0 0 0 0 0 0 0 0 0 127 0" result="hardAlpha"/>
<feOffset dy="4"/>
<feGaussianBlur stdDeviation="10"/>
<feComposite in2="hardAlpha" operator="out"/>
<feColorMatrix type="matrix" values="0 0 0 0 0.654902 0 0 0 0 0.85098 0 0 0 0 1 0 0 0 0.6 0"/>
<feBlend mode="normal" in2="BackgroundImageFix" result="effect1_dropShadow_10017_168375"/>
<feBlend mode="normal" in="SourceGraphic" in2="effect1_dropShadow_10017_168375" result="shape"/>
</filter>
<filter id="filter3_d_10017_168375" x="47.5303" y="168.898" width="67.8398" height="115.348" filterUnits="userSpaceOnUse" color-interpolation-filters="sRGB">
<feFlood flood-opacity="0" result="BackgroundImageFix"/>
<feColorMatrix in="SourceAlpha" type="matrix" values="0 0 0 0 0 0 0 0 0 0 0 0 0 0 0 0 0 0 127 0" result="hardAlpha"/>
<feOffset dx="2" dy="2"/>
<feGaussianBlur stdDeviation="2"/>
<feComposite in2="hardAlpha" operator="out"/>
<feColorMatrix type="matrix" values="0 0 0 0 0.117647 0 0 0 0 0.568627 0 0 0 0 0.956863 0 0 0 0.45 0"/>
<feBlend mode="normal" in2="BackgroundImageFix" result="effect1_dropShadow_10017_168375"/>
<feBlend mode="normal" in="SourceGraphic" in2="effect1_dropShadow_10017_168375" result="shape"/>
</filter>
<filter id="filter4_d_10017_168375" x="279.231" y="169.685" width="68.0156" height="114.541" filterUnits="userSpaceOnUse" color-interpolation-filters="sRGB">
<feFlood flood-opacity="0" result="BackgroundImageFix"/>
<feColorMatrix in="SourceAlpha" type="matrix" values="0 0 0 0 0 0 0 0 0 0 0 0 0 0 0 0 0 0 127 0" result="hardAlpha"/>
<feOffset dx="-2" dy="2"/>
<feGaussianBlur stdDeviation="2"/>
<feComposite in2="hardAlpha" operator="out"/>
<feColorMatrix type="matrix" values="0 0 0 0 0.117647 0 0 0 0 0.568627 0 0 0 0 0.956863 0 0 0 0.45 0"/>
<feBlend mode="normal" in2="BackgroundImageFix" result="effect1_dropShadow_10017_168375"/>
<feBlend mode="normal" in="SourceGraphic" in2="effect1_dropShadow_10017_168375" result="shape"/>
</filter>
<filter id="filter5_d_10017_168375" x="169.518" y="216.561" width="58.2041" height="31.9561" filterUnits="userSpaceOnUse" color-interpolation-filters="sRGB">
<feFlood flood-opacity="0" result="BackgroundImageFix"/>
<feColorMatrix in="SourceAlpha" type="matrix" values="0 0 0 0 0 0 0 0 0 0 0 0 0 0 0 0 0 0 127 0" result="hardAlpha"/>
<feOffset/>
<feGaussianBlur stdDeviation="1"/>
<feColorMatrix type="matrix" values="0 0 0 0 0.00784314 0 0 0 0 0.654902 0 0 0 0 1 0 0 0 0.776 0"/>
<feBlend mode="normal" in2="BackgroundImageFix" result="effect1_dropShadow_10017_168375"/>
<feBlend mode="normal" in="SourceGraphic" in2="effect1_dropShadow_10017_168375" result="shape"/>
</filter>
<filter id="filter6_d_10017_168375" x="75.8301" y="141.03" width="244.079" height="34.3701" filterUnits="userSpaceOnUse" color-interpolation-filters="sRGB">
<feFlood flood-opacity="0" result="BackgroundImageFix"/>
<feColorMatrix in="SourceAlpha" type="matrix" values="0 0 0 0 0 0 0 0 0 0 0 0 0 0 0 0 0 0 127 0" result="hardAlpha"/>
<feOffset dy="1"/>
<feGaussianBlur stdDeviation="1.5"/>
<feColorMatrix type="matrix" values="0 0 0 0 1 0 0 0 0 1 0 0 0 0 1 0 0 0 1 0"/>
<feBlend mode="normal" in2="BackgroundImageFix" result="effect1_dropShadow_10017_168375"/>
<feBlend mode="normal" in="SourceGraphic" in2="effect1_dropShadow_10017_168375" result="shape"/>
</filter>
<filter id="filter7_f_10017_168375" x="97.666" y="121.505" width="77.5225" height="58.1455" filterUnits="userSpaceOnUse" color-interpolation-filters="sRGB">
<feFlood flood-opacity="0" result="BackgroundImageFix"/>
<feBlend mode="normal" in="SourceGraphic" in2="BackgroundImageFix" result="shape"/>
<feGaussianBlur stdDeviation="3" result="effect1_foregroundBlur_10017_168375"/>
</filter>
<radialGradient id="paint0_radial_10017_168375" cx="0" cy="0" r="1" gradientUnits="userSpaceOnUse" gradientTransform="translate(196.442 176.516) scale(133.387 133.734)">
<stop stop-color="white"/>
<stop offset="0.695" stop-color="white"/>
<stop offset="1" stop-color="#F5F5F5"/>
</radialGradient>
<linearGradient id="paint1_linear_10017_168375" x1="330.444" y1="159.836" x2="290.75" y2="34.0649" gradientUnits="userSpaceOnUse">
<stop stop-color="#0B5B90"/>
<stop offset="0.269" stop-color="#65C4FF"/>
<stop offset="0.755" stop-color="white"/>
<stop offset="1" stop-color="white"/>
</linearGradient>
<radialGradient id="paint2_radial_10017_168375" cx="0" cy="0" r="1" gradientUnits="userSpaceOnUse" gradientTransform="translate(330.921 110.264) rotate(-8.15099) scale(17.1071 69.8987)">
<stop stop-color="#0166BA"/>
<stop offset="0.3" stop-color="#2795F4"/>
<stop offset="1" stop-color="#93D5FF"/>
</radialGradient>
<linearGradient id="paint3_linear_10017_168375" x1="65.5738" y1="162.256" x2="103.072" y2="34.1671" gradientUnits="userSpaceOnUse">
<stop stop-color="#0B5B90"/>
<stop offset="0.269" stop-color="#65C4FF"/>
<stop offset="0.755" stop-color="white"/>
<stop offset="1" stop-color="white"/>
</linearGradient>
<radialGradient id="paint4_radial_10017_168375" cx="0" cy="0" r="1" gradientUnits="userSpaceOnUse" gradientTransform="translate(62.4081 115.113) rotate(-167.44) scale(22.3106 98.8477)">
<stop stop-color="#0166BA"/>
<stop offset="0.3" stop-color="#2795F4"/>
<stop offset="1" stop-color="#93D5FF"/>
</radialGradient>
<radialGradient id="paint5_radial_10017_168375" cx="0" cy="0" r="1" gradientUnits="userSpaceOnUse" gradientTransform="translate(197.882 185.381) scale(134.052 134.401)">
<stop stop-color="white"/>
<stop offset="0.72" stop-color="white"/>
<stop offset="1" stop-color="#BCE7FF"/>
</radialGradient>
<radialGradient id="paint6_radial_10017_168375" cx="0" cy="0" r="1" gradientUnits="userSpaceOnUse" gradientTransform="translate(197.868 299.45) rotate(-2.20833) scale(62.9454 13.4564)">
<stop stop-color="white"/>
<stop offset="0.578" stop-color="white" stop-opacity="0"/>
<stop offset="1" stop-color="white" stop-opacity="0"/>
</radialGradient>
<linearGradient id="paint7_linear_10017_168375" x1="47.878" y1="161.196" x2="117.493" y2="172.909" gradientUnits="userSpaceOnUse">
<stop stop-color="#F5FCFF"/>
<stop offset="1" stop-color="#CCEFFF"/>
</linearGradient>
<radialGradient id="paint8_radial_10017_168375" cx="0" cy="0" r="1" gradientUnits="userSpaceOnUse" gradientTransform="translate(50.2985 200.008) rotate(-11.3386) scale(12.3367 42.7699)">
<stop stop-color="#72D9FF"/>
<stop offset="0.587" stop-color="#009DFF"/>
<stop offset="0.852" stop-color="#0079DC"/>
<stop offset="1" stop-color="#006CC9"/>
</radialGradient>
<linearGradient id="paint9_linear_10017_168375" x1="53.359" y1="178.227" x2="27.8397" y2="202.126" gradientUnits="userSpaceOnUse">
<stop stop-color="white"/>
<stop offset="0.32" stop-color="#F8FCFF"/>
<stop offset="1" stop-color="#006E9F"/>
</linearGradient>
<linearGradient id="paint10_linear_10017_168375" x1="304.314" y1="275.198" x2="274.79" y2="231.531" gradientUnits="userSpaceOnUse">
<stop stop-color="#F5FCFF"/>
<stop offset="1" stop-color="#CCEFFF"/>
</linearGradient>
<radialGradient id="paint11_radial_10017_168375" cx="0" cy="0" r="1" gradientUnits="userSpaceOnUse" gradientTransform="translate(345.441 197.578) rotate(-165.929) scale(9.97606 47.4862)">
<stop stop-color="#72D9FF"/>
<stop offset="0.587" stop-color="#009DFF"/>
<stop offset="0.852" stop-color="#0079DC"/>
<stop offset="1" stop-color="#006CC9"/>
</radialGradient>
<linearGradient id="paint12_linear_10017_168375" x1="341.3" y1="178.225" x2="366.817" y2="202.124" gradientUnits="userSpaceOnUse">
<stop stop-color="white"/>
<stop offset="0.32" stop-color="#F8FCFF"/>
<stop offset="1" stop-color="#006E9F"/>
</linearGradient>
<linearGradient id="paint13_linear_10017_168375" x1="197.86" y1="46.4116" x2="197.86" y2="223.568" gradientUnits="userSpaceOnUse">
<stop stop-color="#9DD2FF"/>
<stop offset="1" stop-color="#00A8FF"/>
</linearGradient>
<linearGradient id="paint14_linear_10017_168375" x1="197.775" y1="46.6582" x2="197.775" y2="207.787" gradientUnits="userSpaceOnUse">
<stop stop-color="#F2F9FF"/>
<stop offset="0.155" stop-color="#71C1FF"/>
<stop offset="0.649" stop-color="#6CC6FF"/>
<stop offset="1" stop-color="#D8F1FF"/>
</linearGradient>
<radialGradient id="paint15_radial_10017_168375" cx="0" cy="0" r="1" gradientUnits="userSpaceOnUse" gradientTransform="translate(197.864 122.389) rotate(-0.786867) scale(176.617 120.713)">
<stop stop-color="#21BBF4"/>
<stop offset="0.842" stop-color="#58B2FF"/>
<stop offset="1" stop-color="#0065BC"/>
</radialGradient>
<radialGradient id="paint16_radial_10017_168375" cx="0" cy="0" r="1" gradientUnits="userSpaceOnUse" gradientTransform="translate(197.865 173.324) scale(130.636 90.3427)">
<stop stop-color="#B5EBFF"/>
<stop offset="0.673" stop-color="#009DFF"/>
<stop offset="0.906" stop-color="#11649D"/>
<stop offset="1" stop-color="#034B81"/>
</radialGradient>
<linearGradient id="paint17_linear_10017_168375" x1="199.138" y1="57.0234" x2="199.138" y2="128.51" gradientUnits="userSpaceOnUse">
<stop stop-color="#D5F0FF" stop-opacity="0.867"/>
<stop offset="1" stop-color="#739EFF" stop-opacity="0"/>
</linearGradient>
<radialGradient id="paint18_radial_10017_168375" cx="0" cy="0" r="1" gradientUnits="userSpaceOnUse" gradientTransform="translate(139.802 64.1801) rotate(17.5684) scale(48.2132 42.7617)">
<stop stop-color="white"/>
<stop offset="0.72" stop-color="white" stop-opacity="0"/>
<stop offset="1" stop-color="white" stop-opacity="0"/>
</radialGradient>
<linearGradient id="paint19_linear_10017_168375" x1="151.898" y1="219.413" x2="199.025" y2="110.223" gradientUnits="userSpaceOnUse">
<stop stop-color="white" stop-opacity="0"/>
<stop offset="0.256" stop-color="white" stop-opacity="0.725"/>
<stop offset="1" stop-color="white" stop-opacity="0"/>
</linearGradient>
<linearGradient id="paint20_linear_10017_168375" x1="198.62" y1="244.98" x2="198.62" y2="218.561" gradientUnits="userSpaceOnUse">
<stop stop-color="#33C0FF"/>
<stop offset="0.695" stop-color="#0D69AF"/>
<stop offset="1" stop-color="#004C85"/>
</linearGradient>
</defs>
</svg>
