<svg width="328" height="174" viewBox="0 0 328 174" fill="none" xmlns="http://www.w3.org/2000/svg">
<g clip-path="url(#clip0_1465_8927)">
<g opacity="0.5">
<path fill-rule="evenodd" clip-rule="evenodd" d="M197.193 226.97C197.193 226.97 155.805 207.416 131.258 176.532C108.802 148.278 103 111.907 103 44.1334C103 40.1592 105.339 36.3417 109.28 32.73L184.634 2.82484C184.634 2.82484 192.166 0 197.193 0C202.219 0 209.752 2.82484 209.752 2.82484L285.106 32.73C289.046 36.3415 291.385 40.1588 291.385 44.1327C291.385 56.8801 291.18 68.5167 290.697 79.1972L326.324 105.201C326.692 105.467 326.991 105.815 327.198 106.218C327.405 106.621 327.514 107.067 327.516 107.519V150.622C327.517 151.151 327.371 151.671 327.093 152.122C326.816 152.574 326.419 152.941 325.944 153.181C325.47 153.422 324.939 153.527 324.408 153.485C323.878 153.443 323.369 153.256 322.94 152.944L285.571 125.674C281.303 146.515 274.263 162.522 263.127 176.532C238.581 207.416 197.193 226.97 197.193 226.97ZM262.78 145.213C259.462 153.176 255.365 160.018 250.366 166.308C239.653 179.787 224.806 191.274 212.061 199.586C206.258 203.371 201.07 206.381 197.193 208.513C193.315 206.381 188.127 203.371 182.324 199.586C169.579 191.274 154.732 179.787 144.019 166.308C125.655 143.202 119.464 112.652 119.329 46.3683L190.427 18.1521L190.45 18.1438C190.582 18.0965 190.802 18.019 191.091 17.9215C191.678 17.7233 192.504 17.4581 193.431 17.1973C194.376 16.9317 195.3 16.7062 196.106 16.5553C196.749 16.4347 197.099 16.4033 197.193 16.3951C197.286 16.4033 197.636 16.4347 198.279 16.5553C199.085 16.7062 200.009 16.9317 200.954 17.1973C201.881 17.4581 202.707 17.7233 203.294 17.9215C203.583 18.019 203.803 18.0965 203.935 18.1438L203.958 18.1521L275.056 46.3682C275.011 68.6555 274.281 86.9028 272.634 102.185L230.492 71.427C230.061 71.1151 229.553 70.9278 229.023 70.8859C228.492 70.844 227.96 70.9492 227.486 71.1896C227.012 71.4301 226.614 71.7965 226.336 72.2482C226.059 72.7 225.912 73.2194 225.913 73.7489V104.258L180.932 71.427C180.502 71.1151 179.993 70.9278 179.463 70.8859C178.932 70.844 178.401 70.9492 177.927 71.1896C177.453 71.4301 177.055 71.7965 176.777 72.2483C176.499 72.7 176.353 73.2195 176.354 73.749V116.857C176.355 117.308 176.464 117.753 176.67 118.154C176.876 118.556 177.174 118.904 177.54 119.17L223.813 152.944C224.243 153.255 224.751 153.442 225.282 153.485C225.812 153.526 226.344 153.421 226.818 153.181C227.292 152.94 227.69 152.574 227.968 152.122C228.246 151.67 228.392 151.151 228.391 150.622V120.113L262.78 145.213Z" fill="url(#paint0_linear_1465_8927)"/>
<path fill-rule="evenodd" clip-rule="evenodd" d="M197.193 226.97C197.193 226.97 155.805 207.416 131.258 176.532C108.802 148.278 103 111.907 103 44.1334C103 40.1592 105.339 36.3417 109.28 32.73L184.634 2.82484C184.634 2.82484 192.166 0 197.193 0C202.219 0 209.752 2.82484 209.752 2.82484L285.106 32.73C289.046 36.3415 291.385 40.1588 291.385 44.1327C291.385 56.8801 291.18 68.5167 290.697 79.1972L326.324 105.201C326.692 105.467 326.991 105.815 327.198 106.218C327.405 106.621 327.514 107.067 327.516 107.519V150.622C327.517 151.151 327.371 151.671 327.093 152.122C326.816 152.574 326.419 152.941 325.944 153.181C325.47 153.422 324.939 153.527 324.408 153.485C323.878 153.443 323.369 153.256 322.94 152.944L285.571 125.674C281.303 146.515 274.263 162.522 263.127 176.532C238.581 207.416 197.193 226.97 197.193 226.97ZM262.78 145.213C259.462 153.176 255.365 160.018 250.366 166.308C239.653 179.787 224.806 191.274 212.061 199.586C206.258 203.371 201.07 206.381 197.193 208.513C193.315 206.381 188.127 203.371 182.324 199.586C169.579 191.274 154.732 179.787 144.019 166.308C125.655 143.202 119.464 112.652 119.329 46.3683L190.427 18.1521L190.45 18.1438C190.582 18.0965 190.802 18.019 191.091 17.9215C191.678 17.7233 192.504 17.4581 193.431 17.1973C194.376 16.9317 195.3 16.7062 196.106 16.5553C196.749 16.4347 197.099 16.4033 197.193 16.3951C197.286 16.4033 197.636 16.4347 198.279 16.5553C199.085 16.7062 200.009 16.9317 200.954 17.1973C201.881 17.4581 202.707 17.7233 203.294 17.9215C203.583 18.019 203.803 18.0965 203.935 18.1438L203.958 18.1521L275.056 46.3682C275.011 68.6555 274.281 86.9028 272.634 102.185L230.492 71.427C230.061 71.1151 229.553 70.9278 229.023 70.8859C228.492 70.844 227.96 70.9492 227.486 71.1896C227.012 71.4301 226.614 71.7965 226.336 72.2482C226.059 72.7 225.912 73.2194 225.913 73.7489V104.258L180.932 71.427C180.502 71.1151 179.993 70.9278 179.463 70.8859C178.932 70.844 178.401 70.9492 177.927 71.1896C177.453 71.4301 177.055 71.7965 176.777 72.2483C176.499 72.7 176.353 73.2195 176.354 73.749V116.857C176.355 117.308 176.464 117.753 176.67 118.154C176.876 118.556 177.174 118.904 177.54 119.17L223.813 152.944C224.243 153.255 224.751 153.442 225.282 153.485C225.812 153.526 226.344 153.421 226.818 153.181C227.292 152.94 227.69 152.574 227.968 152.122C228.246 151.67 228.392 151.151 228.391 150.622V120.113L262.78 145.213Z" fill="url(#paint1_radial_1465_8927)"/>
</g>
<path d="M21.0142 97.8878C18.0844 104.798 19.0137 129.178 21.3514 141.183C23.7877 152.698 28.3437 163.686 34.7687 173.544C34.7138 173.81 35.1624 176.116 32.6769 173.823C24.5983 166.402 11.0812 144.506 7.88992 125.022C4.6986 105.538 18.0196 97.1104 21.0142 97.8878Z" fill="url(#paint2_linear_1465_8927)"/>
<path d="M83.1536 207.814C129.862 220.791 177.324 194.369 189.164 148.798C201.003 103.228 172.736 55.7656 126.028 42.7884C79.3196 29.8111 31.8573 56.2332 20.0179 101.804C8.17852 147.374 36.4453 194.836 83.1536 207.814Z" fill="url(#paint3_radial_1465_8927)"/>
<path d="M212 57C216 76.5 206.022 113.548 192.249 139.909C178.477 166.271 146.041 61.0066 152.819 61.0166C198.737 51.1284 205.856 45.0093 212 57Z" fill="url(#paint4_linear_1465_8927)"/>
<path d="M212.376 56.8102C217.435 70.1261 209.752 107.844 189.5 145.5C196.989 123.509 198.658 95.363 200.022 80.4316C202.941 58.4935 206.26 44.7306 212.376 56.8102Z" fill="url(#paint5_radial_1465_8927)"/>
<path d="M207.999 52.5C196.998 59.0037 201.729 112.401 189.357 144.361" stroke="#D8EDFF" stroke-linecap="round"/>
<path d="M46.2602 11.9597C30.5081 25.0169 23.4372 63.9587 22.8093 94.2728C22.1813 124.587 99.9028 50.0473 94.0667 46.4494C59.2445 13.3972 57.2196 4.76843 46.2602 11.9597Z" fill="url(#paint6_linear_1465_8927)"/>
<path d="M44.8425 11.6952C34.2587 20.5593 22.8859 52.6479 22.4988 95.9993C27 75 37.6458 52.1619 43.5 38.5C51.3196 17.9436 55.7523 4.46038 44.8425 11.6952Z" fill="url(#paint7_radial_1465_8927)"/>
<path d="M49.9987 9.99971C58.498 16 27.3987 65.5021 22.2963 99.4403" stroke="#D8EDFF" stroke-linecap="round"/>
<path d="M126.31 42.616C143.045 47.288 158.139 56.6937 169.688 69.6449C181.237 82.5961 188.722 98.5118 191.196 115.382C193.671 132.251 191.026 149.318 183.594 164.427C176.161 179.535 164.276 192.007 149.439 200.267C134.602 208.527 117.479 212.204 100.233 210.835C82.9871 209.465 66.3916 203.11 52.543 192.572C38.6944 182.034 28.214 167.786 22.4257 151.628C16.6374 135.47 15.8009 118.127 20.0218 101.789C22.8174 90.9082 27.789 80.7414 34.6511 71.8724C41.5132 63.0034 50.1303 55.607 60.0073 50.1083C69.8844 44.6096 80.8266 41.117 92.2051 39.8312C103.584 38.5454 115.174 39.4918 126.31 42.616V42.616Z" fill="url(#paint8_radial_1465_8927)"/>
<path opacity="0.647" d="M41.3712 183.796C45.5181 181.546 36.7443 174.087 41.4005 172.692C46.1847 171.553 49.5702 191.596 84.3684 201.597" stroke="#2FB6EF" stroke-width="0.5" stroke-linecap="round"/>
<path opacity="0.996" d="M89.0508 195.272C106.925 200.043 143.304 198.544 141.426 205.695C139.548 212.847 114.437 218.961 84.8639 211.212C55.2909 203.462 32.1399 183.338 34.018 176.188C35.8961 169.038 71.1769 190.5 89.0508 195.272Z" fill="url(#paint9_radial_1465_8927)"/>
<path d="M16.9086 101.107C19.0314 102.532 14.2486 117.374 14.6515 129.258C14.7603 135.606 15.6286 141.94 17.2367 148.115C17.3232 148.267 17.7218 149.488 16.1634 148.143C10.704 142.585 5.52021 124.875 6.20306 112.868C6.88772 100.799 14.7847 99.6828 16.9086 101.107Z" fill="url(#paint10_radial_1465_8927)"/>
<path opacity="0.485" d="M14.6077 101.904C16.9564 102.713 8.46885 105.739 8.78835 117.202C9.10785 128.666 11.4596 141.365 16.0942 147.639C7.54624 136.837 6.99051 115.537 6.99794 115.189C7.20962 103.798 12.2702 101.094 14.6077 101.904Z" fill="url(#paint11_linear_1465_8927)"/>
<g filter="url(#filter0_d_1465_8927)">
<path d="M188.315 144.53C187.822 151.876 176.203 172.063 168.835 181.049C161.597 189.568 152.734 196.562 142.733 201.648C142.663 201.902 141.248 203.628 144.443 202.949C154.813 200.77 176.366 189.089 187.794 174.204C199.222 159.32 191.284 145.393 188.315 144.53Z" fill="url(#paint12_linear_1465_8927)"/>
</g>
<path d="M191.472 147.978C188.882 148.058 186.049 163.565 179.978 173.678C176.832 179.137 173.011 184.168 168.602 188.658C168.456 188.747 167.507 189.587 169.551 189.268C177.123 187.412 190.28 174.843 195.434 164.036C200.614 153.174 194.061 147.897 191.472 147.978Z" fill="url(#paint13_radial_1465_8927)"/>
<path opacity="0.485" d="M193.145 149.845C190.638 149.262 196.843 156.55 191.037 166.359C185.231 176.168 177.006 185.929 169.808 188.852C182.718 184.126 193.462 165.89 193.623 165.583C198.91 155.55 195.648 150.425 193.145 149.845Z" fill="url(#paint14_linear_1465_8927)"/>
<g opacity="0.997">
<g opacity="0.518">
<path opacity="0.395" d="M21.4125 96.5715C26.4644 76.6919 59.8519 27.2284 124.096 45.4713C188.339 63.7142 195.86 125.758 191.037 144.739C186.213 163.719 177.069 175.284 153.624 168.627C130.179 161.969 118.236 143.259 101.548 138.991C84.8593 134.722 67.4336 144.152 42.6316 137.109C17.8296 130.066 16.3602 116.452 21.4125 96.5715Z" fill="url(#paint15_linear_1465_8927)"/>
<path opacity="0.518" d="M21.9274 95.1721C26.8806 75.6823 60.476 27.5503 125.199 45.9281C189.921 64.306 195.717 125.272 190.989 143.878C186.26 162.484 175.988 174.055 152.545 167.399C129.102 160.742 118.382 142.679 101.697 138.402C85.0128 134.124 70.2431 144.033 45.4419 136.991C20.6407 129.949 16.974 114.663 21.9274 95.1721Z" fill="url(#paint16_linear_1465_8927)"/>
</g>
<g opacity="0.997">
<path opacity="0.997" d="M26.5434 94.8832C31.3923 75.8033 61.5067 30.5049 124.694 48.4471C187.88 66.3893 192.249 122.405 187.619 140.622C182.99 158.838 170.419 170.138 148.498 163.913C126.578 157.689 119.415 142.7 101.999 137.755C84.5824 132.809 73.9447 142.743 50.7526 136.158C27.5604 129.572 21.6946 113.963 26.5434 94.8832Z" fill="url(#paint17_radial_1465_8927)"/>
<path opacity="0.997" d="M30.1775 93.1535C34.5459 75.9622 68.6431 32.4714 124.704 48.392C180.766 64.3126 189.667 119.975 185.29 137.203C180.912 154.431 165.789 162.083 145.7 159.876C125.611 157.669 119.617 139.221 102.835 134.455C86.0533 129.689 77.3614 141.627 58.6125 135.145C39.8637 128.663 25.8075 110.351 30.1775 93.1535Z" fill="url(#paint18_radial_1465_8927)"/>
</g>
<path opacity="0.997" d="M124.322 51.5449C153.827 59.8256 168.445 78.3472 170.724 89.0263C172.684 101.229 146.183 103.592 113.262 94.5605C84.893 86.7783 62.3467 69.681 67.2312 59.6695C72.5484 50.4502 97.2358 43.9432 124.322 51.5449Z" fill="url(#paint19_linear_1465_8927)"/>
<path opacity="0.782" d="M117.03 40.1518C117.958 43.5304 117.988 47.0475 117.116 50.3645C113.513 64.4486 100.343 72.3293 86.0765 68.3049C76.3045 65.5485 67.8522 58.0667 65.3902 48.5456C65.6136 48.7006 76.4492 41.8715 90.0219 40.3651C98.9579 39.4366 108.003 39.3652 117.03 40.1518V40.1518Z" fill="url(#paint20_radial_1465_8927)"/>
<path opacity="0.546" d="M40.6478 122.628C30.3377 112.236 39.9113 80.7702 65.8703 59.8274C73.7018 53.8146 94.7366 48.2441 94.3059 49.7998C76.1364 69.5774 68.1672 96.4126 69.3181 137.92C57.6252 138.605 42.6009 125.553 40.6478 122.628Z" fill="url(#paint21_linear_1465_8927)"/>
</g>
<g filter="url(#filter1_d_1465_8927)">
<path d="M113.631 157.347C108.798 154.468 103.64 152.177 98.2784 150.53C92.8919 149.11 87.3753 148.359 81.8651 148.297C81.8651 148.297 76.9623 166.011 93.1865 170.633C109.411 175.255 113.631 157.347 113.631 157.347Z" fill="url(#paint22_linear_1465_8927)"/>
</g>
<path opacity="0.683" d="M82.0938 161.068C82.9592 163.412 84.4229 165.536 86.3475 167.24C88.272 168.945 90.594 170.173 93.0952 170.811C95.5275 171.528 98.0769 171.673 100.521 171.234C102.966 170.794 105.231 169.784 107.121 168.29C98.5591 171.65 88.9772 170.743 82.0938 161.068Z" fill="#8DD6FF"/>
<g filter="url(#filter2_d_1465_8927)">
<path d="M48.9568 111.697C49.4384 115.698 58.0674 113.866 61.0001 114.154C63.9329 114.442 71.1152 114.265 79.9042 118.226C88.6932 122.187 91.1723 122.24 85.7467 117.739C80.3211 113.238 68.413 108.883 61.2688 108.122C54.1247 107.361 48.4726 107.695 48.9568 111.697Z" fill="white"/>
</g>
<g filter="url(#filter3_d_1465_8927)">
<path d="M160.751 142.322C157.87 145.615 149.978 138.074 145.374 136.02C141.372 134.142 137.168 132.728 132.855 131.809C130.108 131.426 121.161 131.839 122.088 129.556C123.015 127.273 138.567 127.807 147.781 131.075C156.996 134.343 163.632 139.029 160.751 142.322Z" fill="white"/>
</g>
</g>
<defs>
<filter id="filter0_d_1465_8927" x="136.361" y="142.529" width="59.4102" height="66.5762" filterUnits="userSpaceOnUse" color-interpolation-filters="sRGB">
<feFlood flood-opacity="0" result="BackgroundImageFix"/>
<feColorMatrix in="SourceAlpha" type="matrix" values="0 0 0 0 0 0 0 0 0 0 0 0 0 0 0 0 0 0 127 0" result="hardAlpha"/>
<feOffset dx="-2" dy="2"/>
<feGaussianBlur stdDeviation="2"/>
<feColorMatrix type="matrix" values="0 0 0 0 0.117647 0 0 0 0 0.568627 0 0 0 0 0.956863 0 0 0 0.447 0"/>
<feBlend mode="normal" in2="BackgroundImageFix" result="effect1_dropShadow_1465_8927"/>
<feBlend mode="normal" in="SourceGraphic" in2="effect1_dropShadow_1465_8927" result="shape"/>
</filter>
<filter id="filter1_d_1465_8927" x="79.1699" y="146.297" width="36.4609" height="27.0977" filterUnits="userSpaceOnUse" color-interpolation-filters="sRGB">
<feFlood flood-opacity="0" result="BackgroundImageFix"/>
<feColorMatrix in="SourceAlpha" type="matrix" values="0 0 0 0 0 0 0 0 0 0 0 0 0 0 0 0 0 0 127 0" result="hardAlpha"/>
<feOffset/>
<feGaussianBlur stdDeviation="1"/>
<feColorMatrix type="matrix" values="0 0 0 0 0.00784314 0 0 0 0 0.654902 0 0 0 0 1 0 0 0 0.776 0"/>
<feBlend mode="normal" in2="BackgroundImageFix" result="effect1_dropShadow_1465_8927"/>
<feBlend mode="normal" in="SourceGraphic" in2="effect1_dropShadow_1465_8927" result="shape"/>
</filter>
<filter id="filter2_d_1465_8927" x="44.9277" y="103.795" width="47.6797" height="21.3633" filterUnits="userSpaceOnUse" color-interpolation-filters="sRGB">
<feFlood flood-opacity="0" result="BackgroundImageFix"/>
<feColorMatrix in="SourceAlpha" type="matrix" values="0 0 0 0 0 0 0 0 0 0 0 0 0 0 0 0 0 0 127 0" result="hardAlpha"/>
<feOffset/>
<feGaussianBlur stdDeviation="2"/>
<feColorMatrix type="matrix" values="0 0 0 0 1 0 0 0 0 1 0 0 0 0 1 0 0 0 1 0"/>
<feBlend mode="normal" in2="BackgroundImageFix" result="effect1_dropShadow_1465_8927"/>
<feBlend mode="normal" in="SourceGraphic" in2="effect1_dropShadow_1465_8927" result="shape"/>
</filter>
<filter id="filter3_d_1465_8927" x="118.021" y="124.162" width="47.4102" height="22.9805" filterUnits="userSpaceOnUse" color-interpolation-filters="sRGB">
<feFlood flood-opacity="0" result="BackgroundImageFix"/>
<feColorMatrix in="SourceAlpha" type="matrix" values="0 0 0 0 0 0 0 0 0 0 0 0 0 0 0 0 0 0 127 0" result="hardAlpha"/>
<feOffset/>
<feGaussianBlur stdDeviation="2"/>
<feColorMatrix type="matrix" values="0 0 0 0 1 0 0 0 0 1 0 0 0 0 1 0 0 0 1 0"/>
<feBlend mode="normal" in2="BackgroundImageFix" result="effect1_dropShadow_1465_8927"/>
<feBlend mode="normal" in="SourceGraphic" in2="effect1_dropShadow_1465_8927" result="shape"/>
</filter>
<linearGradient id="paint0_linear_1465_8927" x1="214.258" y1="0.515624" x2="191.115" y2="181.677" gradientUnits="userSpaceOnUse">
<stop stop-color="#38B2FF"/>
<stop offset="1" stop-color="#0F85FF"/>
</linearGradient>
<radialGradient id="paint1_radial_1465_8927" cx="0" cy="0" r="1" gradientUnits="userSpaceOnUse" gradientTransform="translate(162.055 0.51563) rotate(39.7111) scale(405.685 153.698)">
<stop stop-color="#72D9FF"/>
<stop offset="1" stop-color="#65C4FF" stop-opacity="0"/>
</radialGradient>
<linearGradient id="paint2_linear_1465_8927" x1="15.8729" y1="119.858" x2="48.049" y2="129.826" gradientUnits="userSpaceOnUse">
<stop stop-color="#F5FCFF"/>
<stop offset="1" stop-color="#CCEFFF"/>
</linearGradient>
<radialGradient id="paint3_radial_1465_8927" cx="0" cy="0" r="1" gradientUnits="userSpaceOnUse" gradientTransform="translate(104.591 125.301) rotate(15.5272) scale(87.7763 85.2398)">
<stop stop-color="white"/>
<stop offset="0.695" stop-color="white"/>
<stop offset="1" stop-color="#F5F5F5"/>
</radialGradient>
<linearGradient id="paint4_linear_1465_8927" x1="190.935" y1="137.126" x2="188.584" y2="52.0163" gradientUnits="userSpaceOnUse">
<stop stop-color="#0B5B90"/>
<stop offset="0.269" stop-color="#65C4FF"/>
<stop offset="0.755" stop-color="white"/>
<stop offset="1" stop-color="white"/>
</linearGradient>
<radialGradient id="paint5_radial_1465_8927" cx="0" cy="0" r="1" gradientUnits="userSpaceOnUse" gradientTransform="translate(196.134 107.411) rotate(8.02927) scale(19.4105 62.0277)">
<stop stop-color="#0166BA"/>
<stop offset="0.3" stop-color="#2795F4"/>
<stop offset="1" stop-color="#93D5FF"/>
</radialGradient>
<linearGradient id="paint6_linear_1465_8927" x1="25.3141" y1="94.0624" x2="70.6372" y2="21.8354" gradientUnits="userSpaceOnUse">
<stop stop-color="#0B5B90"/>
<stop offset="0.269" stop-color="#65C4FF"/>
<stop offset="0.755" stop-color="white"/>
<stop offset="1" stop-color="white"/>
</linearGradient>
<radialGradient id="paint7_radial_1465_8927" cx="0" cy="0" r="1" gradientUnits="userSpaceOnUse" gradientTransform="translate(34.5444 63.3166) rotate(-143.022) scale(25.7041 91.9902)">
<stop stop-color="#0166BA"/>
<stop offset="0.3" stop-color="#2795F4"/>
<stop offset="1" stop-color="#93D5FF"/>
</radialGradient>
<radialGradient id="paint8_radial_1465_8927" cx="0" cy="0" r="1" gradientUnits="userSpaceOnUse" gradientTransform="translate(103.318 130.66) rotate(15.5272) scale(87.8929 85.353)">
<stop stop-color="white"/>
<stop offset="0.72" stop-color="white"/>
<stop offset="1" stop-color="#BCE7FF"/>
</radialGradient>
<radialGradient id="paint9_radial_1465_8927" cx="0" cy="0" r="1" gradientUnits="userSpaceOnUse" gradientTransform="translate(83.3426 201.356) rotate(15.3627) scale(54.3327 11.1467)">
<stop stop-color="white"/>
<stop offset="0.578" stop-color="white" stop-opacity="0"/>
<stop offset="1" stop-color="white" stop-opacity="0"/>
</radialGradient>
<radialGradient id="paint10_radial_1465_8927" cx="0" cy="0" r="1" gradientUnits="userSpaceOnUse" gradientTransform="translate(7.4391 118.073) rotate(-178.08) scale(10.5912 22.0481)">
<stop stop-color="#72D9FF"/>
<stop offset="0.587" stop-color="#009DFF"/>
<stop offset="0.852" stop-color="#0079DC"/>
<stop offset="1" stop-color="#006CC9"/>
</radialGradient>
<linearGradient id="paint11_linear_1465_8927" x1="13.881" y1="101.988" x2="-5.36015" y2="112.139" gradientUnits="userSpaceOnUse">
<stop stop-color="white"/>
<stop offset="0.32" stop-color="#F8FCFF"/>
<stop offset="1" stop-color="#006E9F"/>
</linearGradient>
<linearGradient id="paint12_linear_1465_8927" x1="160.721" y1="192.415" x2="149.455" y2="160.814" gradientUnits="userSpaceOnUse">
<stop stop-color="#F5FCFF"/>
<stop offset="1" stop-color="#CCEFFF"/>
</linearGradient>
<radialGradient id="paint13_radial_1465_8927" cx="0" cy="0" r="1" gradientUnits="userSpaceOnUse" gradientTransform="translate(191.633 167.146) rotate(29.4616) scale(11.107 19.4036)">
<stop stop-color="#72D9FF"/>
<stop offset="0.587" stop-color="#009DFF"/>
<stop offset="0.852" stop-color="#0079DC"/>
<stop offset="1" stop-color="#006CC9"/>
</radialGradient>
<linearGradient id="paint14_linear_1465_8927" x1="193.761" y1="150.317" x2="205.728" y2="170.014" gradientUnits="userSpaceOnUse">
<stop stop-color="white"/>
<stop offset="0.32" stop-color="#F8FCFF"/>
<stop offset="1" stop-color="#006E9F"/>
</linearGradient>
<linearGradient id="paint15_linear_1465_8927" x1="125.248" y1="45.7985" x2="95.0889" y2="152.005" gradientUnits="userSpaceOnUse">
<stop stop-color="#9DD2FF"/>
<stop offset="1" stop-color="#00A8FF"/>
</linearGradient>
<linearGradient id="paint16_linear_1465_8927" x1="40.5508" y1="21.8926" x2="99.8007" y2="196.266" gradientUnits="userSpaceOnUse">
<stop stop-color="#F2F9FF"/>
<stop offset="0.155" stop-color="#71C1FF"/>
<stop offset="0.649" stop-color="#6CC6FF"/>
<stop offset="1" stop-color="#D8F1FF"/>
</linearGradient>
<radialGradient id="paint17_radial_1465_8927" cx="0" cy="0" r="1" gradientUnits="userSpaceOnUse" gradientTransform="translate(112.152 99.2407) rotate(15.8522) scale(103.449 66.9391)">
<stop stop-color="#21BBF4"/>
<stop offset="0.842" stop-color="#58B2FF"/>
<stop offset="1" stop-color="#0065BC"/>
</radialGradient>
<radialGradient id="paint18_radial_1465_8927" cx="0" cy="0" r="1" gradientUnits="userSpaceOnUse" gradientTransform="translate(106.84 120.229) rotate(15.8538) scale(91.3724 46.3519)">
<stop stop-color="#B5EBFF"/>
<stop offset="0.655" stop-color="#009DFF"/>
<stop offset="0.906" stop-color="#11649D"/>
<stop offset="1" stop-color="#034B81"/>
</radialGradient>
<linearGradient id="paint19_linear_1465_8927" x1="125.04" y1="51.7465" x2="113.041" y2="94.5007" gradientUnits="userSpaceOnUse">
<stop stop-color="#D5F0FF" stop-opacity="0.867"/>
<stop offset="1" stop-color="#739EFF" stop-opacity="0"/>
</linearGradient>
<radialGradient id="paint20_radial_1465_8927" cx="0" cy="0" r="1" gradientUnits="userSpaceOnUse" gradientTransform="translate(87.4101 48.7689) rotate(15.7526) scale(29.1835 24.7025)">
<stop stop-color="white"/>
<stop offset="0.72" stop-color="white" stop-opacity="0"/>
<stop offset="1" stop-color="white" stop-opacity="0"/>
</radialGradient>
<linearGradient id="paint21_linear_1465_8927" x1="66.3517" y1="136.391" x2="104.388" y2="89.5275" gradientUnits="userSpaceOnUse">
<stop stop-color="white" stop-opacity="0"/>
<stop offset="0.256" stop-color="white" stop-opacity="0.725"/>
<stop offset="1" stop-color="white" stop-opacity="0"/>
</linearGradient>
<linearGradient id="paint22_linear_1465_8927" x1="93.5129" y1="169.541" x2="98.8804" y2="150.701" gradientUnits="userSpaceOnUse">
<stop stop-color="#33C0FF"/>
<stop offset="0.608" stop-color="#0D69AF"/>
<stop offset="1" stop-color="#004C85"/>
</linearGradient>
<clipPath id="clip0_1465_8927">
<rect width="328" height="174" fill="white"/>
</clipPath>
</defs>
</svg>
