<svg width="520" height="392" viewBox="0 0 520 392" fill="none" xmlns="http://www.w3.org/2000/svg">
<g clip-path="url(#clip0_1456_8774)">
<g opacity="0.5">
<path d="M-21 524.715L190.34 524.715C152.01 440.212 85.4182 359.659 -21 307.216V524.715Z" fill="url(#paint0_linear_1456_8774)"/>
<path d="M-21 524.715L190.34 524.715C152.01 440.212 85.4182 359.659 -21 307.216V524.715Z" fill="url(#paint1_radial_1456_8774)"/>
<path d="M-21 152.412C73.0405 186.715 157.384 242.95 224.542 316.309C280.235 377.145 322.588 448.096 349.289 524.715H374.229C380.358 226.164 158.762 22.9866 89.8654 2.3176C55.9687 -7.75203 15.7068 41.1613 -21 105.767V152.412Z" fill="url(#paint2_linear_1456_8774)"/>
<path d="M-21 152.412C73.0405 186.715 157.384 242.95 224.542 316.309C280.235 377.145 322.588 448.096 349.289 524.715H374.229C380.358 226.164 158.762 22.9866 89.8654 2.3176C55.9687 -7.75203 15.7068 41.1613 -21 105.767V152.412Z" fill="url(#paint3_radial_1456_8774)"/>
</g>
<path d="M101.14 213.025C94.787 228.008 96.8021 280.875 101.871 306.908C107.154 331.877 117.034 355.704 130.966 377.08C130.847 377.657 131.82 382.658 126.43 377.685C108.912 361.594 79.6012 314.113 72.681 271.863C65.7609 229.614 94.6466 211.339 101.14 213.025Z" fill="url(#paint4_linear_1456_8774)"/>
<path d="M235.885 451.392C337.169 479.532 440.087 422.238 465.76 323.421C491.433 224.605 430.139 121.686 328.855 93.5461C227.571 65.4059 124.653 122.7 98.9799 221.517C73.307 320.333 134.602 423.252 235.885 451.392Z" fill="url(#paint5_radial_1456_8774)"/>
<path d="M512.49 123.908C528.843 166.354 502.316 246.983 472.451 304.146C442.585 361.308 372.25 133.05 386.948 133.072C486.518 111.63 499.166 97.9066 512.49 123.908Z" fill="url(#paint6_linear_1456_8774)"/>
<path d="M516.091 123.952C527.06 152.826 510.731 231.121 466.816 312.775C483.055 265.089 486.345 207.551 489.303 175.173C495.631 127.602 502.83 97.758 516.091 123.952Z" fill="url(#paint7_radial_1456_8774)"/>
<path d="M506.652 114.229C482.797 128.331 493.008 244.498 466.178 313.8" stroke="#D8EDFF" stroke-width="2" stroke-linecap="round"/>
<path d="M155.882 26.6979C121.725 55.0115 106.392 139.454 105.031 205.188C103.669 270.922 272.202 109.288 259.547 101.486C184.038 29.8149 179.647 11.104 155.882 26.6979Z" fill="url(#paint8_linear_1456_8774)"/>
<path d="M152.806 26.1244C129.856 45.3456 107.003 121.837 106.163 215.842C114.696 165.914 138.936 114.308 151.63 84.6832C168.586 40.108 176.463 10.4361 152.806 26.1244Z" fill="url(#paint9_radial_1456_8774)"/>
<path d="M166 22.5003C179.668 46.8137 114.983 142.8 103.918 216.393" stroke="#D8EDFF" stroke-width="2" stroke-linecap="round"/>
<path d="M329.465 93.1707C365.752 103.302 398.484 123.697 423.527 151.781C448.57 179.865 464.799 214.377 470.166 250.958C475.533 287.539 469.796 324.547 453.68 357.308C437.564 390.07 411.791 417.114 379.618 435.025C347.446 452.936 310.316 460.911 272.919 457.941C235.522 454.971 199.535 441.191 169.506 418.34C139.476 395.489 116.75 364.594 104.199 329.556C91.6472 294.518 89.8332 256.91 98.9859 221.482C105.048 197.889 115.829 175.843 130.709 156.611C145.588 137.379 164.274 121.341 185.692 109.417C207.109 97.4938 230.837 89.9203 255.51 87.1322C280.184 84.344 305.317 86.3962 329.465 93.1707V93.1707Z" fill="url(#paint10_radial_1456_8774)"/>
<path opacity="0.647" d="M145.277 399.31C154.269 394.43 135.244 378.256 145.341 375.231C155.715 372.762 163.056 416.222 238.514 437.91" stroke="#2FB6EF" stroke-width="0.5" stroke-linecap="round"/>
<path opacity="0.996" d="M248.672 424.195C287.43 434.543 366.317 431.291 362.244 446.798C358.171 462.306 303.72 475.565 239.593 458.76C175.466 441.956 125.265 398.319 129.337 382.814C133.41 367.31 209.914 413.847 248.672 424.195Z" fill="url(#paint11_radial_1456_8774)"/>
<path d="M92.2356 220.007C96.8386 223.097 86.4674 255.28 87.3411 281.049C87.5769 294.816 89.4598 308.55 92.947 321.94C93.1345 322.271 93.9988 324.918 90.6196 322.002C78.7812 309.948 67.5405 271.546 69.0212 245.509C70.5059 219.34 87.6298 216.918 92.2356 220.007Z" fill="url(#paint12_radial_1456_8774)"/>
<path opacity="0.485" d="M87.2466 221.734C92.3398 223.487 73.935 230.049 74.6278 254.907C75.3206 279.765 80.4203 307.302 90.47 320.907C71.9344 297.482 70.7293 251.295 70.7454 250.54C71.2045 225.84 82.1779 219.977 87.2466 221.734Z" fill="url(#paint13_linear_1456_8774)"/>
<g filter="url(#filter0_d_1456_8774)">
<path d="M463.916 314.166C462.847 330.095 437.653 373.87 421.675 393.355C405.98 411.827 386.761 426.995 365.075 438.024C364.924 438.573 361.855 442.316 368.784 440.843C391.27 436.119 438.006 410.789 462.787 378.513C487.567 346.237 470.354 316.038 463.916 314.166Z" fill="url(#paint14_linear_1456_8774)"/>
</g>
<path d="M470.766 321.643C465.149 321.816 459.007 355.443 445.842 377.372C439.019 389.208 430.733 400.118 421.173 409.854C420.857 410.048 418.799 411.869 423.232 411.177C439.65 407.153 468.181 379.897 479.356 356.462C490.589 332.909 476.38 321.467 470.766 321.643Z" fill="url(#paint15_radial_1456_8774)"/>
<path opacity="0.485" d="M474.391 325.695C468.954 324.431 482.41 340.234 469.82 361.504C457.23 382.775 439.396 403.94 423.787 410.279C451.781 400.031 475.079 360.488 475.428 359.823C486.893 338.066 479.819 326.952 474.391 325.695Z" fill="url(#paint16_linear_1456_8774)"/>
<g opacity="0.997">
<g opacity="0.518">
<path opacity="0.395" d="M102.008 210.175C112.962 167.067 185.361 59.8093 324.669 99.3677C463.976 138.926 480.286 273.464 469.826 314.622C459.367 355.78 439.538 380.858 388.699 366.422C337.861 351.986 311.963 311.413 275.775 302.158C239.588 292.902 201.801 313.35 148.02 298.078C94.2383 282.806 91.0522 253.285 102.008 210.175Z" fill="url(#paint17_linear_1456_8774)"/>
<path opacity="0.518" d="M103.126 207.142C113.867 164.879 186.716 60.5086 327.063 100.36C467.41 140.211 479.977 272.411 469.724 312.756C459.47 353.102 437.196 378.194 386.362 363.76C335.527 349.326 312.281 310.158 276.102 300.882C239.923 291.607 207.896 313.094 154.116 297.823C100.336 282.552 92.3851 249.406 103.126 207.142Z" fill="url(#paint18_linear_1456_8774)"/>
</g>
<g opacity="0.997">
<path opacity="0.997" d="M113.132 206.514C123.646 165.14 188.948 66.9138 325.964 105.82C462.98 144.727 472.453 266.192 462.414 305.694C452.375 345.196 425.115 369.698 377.582 356.2C330.049 342.703 314.518 310.202 276.752 299.478C238.985 288.754 215.918 310.295 165.628 296.015C115.337 281.735 102.618 247.887 113.132 206.514Z" fill="url(#paint19_radial_1456_8774)"/>
<path opacity="0.997" d="M121.012 202.761C130.485 165.483 204.422 71.1759 325.987 105.699C447.552 140.221 466.855 260.921 457.362 298.279C447.869 335.638 415.076 352.23 371.515 347.444C327.954 342.659 314.955 302.654 278.565 292.32C242.175 281.985 223.327 307.871 182.672 293.815C142.016 279.76 111.536 240.052 121.012 202.761Z" fill="url(#paint20_radial_1456_8774)"/>
</g>
<path opacity="0.997" d="M325.157 112.536C389.138 130.493 420.836 170.655 425.777 193.812C430.027 220.274 372.561 225.398 301.175 205.813C239.659 188.938 190.769 151.863 201.36 130.154C212.89 110.163 266.423 96.0528 325.157 112.536Z" fill="url(#paint21_linear_1456_8774)"/>
<path opacity="0.782" d="M309.346 87.8307C311.359 95.1569 311.424 102.783 309.533 109.976C301.719 140.517 273.163 157.605 242.226 148.879C221.036 142.902 202.708 126.678 197.369 106.032C197.854 106.368 221.35 91.5597 250.781 88.2933C270.159 86.2799 289.773 86.125 309.346 87.8307V87.8307Z" fill="url(#paint22_radial_1456_8774)"/>
<path opacity="0.546" d="M143.716 266.675C121.359 244.142 142.119 175.91 198.409 130.497C215.391 117.459 261.004 105.38 260.07 108.753C220.671 151.64 203.39 209.83 205.886 299.835C180.53 301.322 147.951 273.018 143.716 266.675Z" fill="url(#paint23_linear_1456_8774)"/>
</g>
<g filter="url(#filter1_d_1456_8774)">
<path d="M301.975 341.969C291.497 335.726 280.31 330.759 268.685 327.186C257.005 324.108 245.043 322.48 233.094 322.344C233.094 322.344 222.463 360.756 257.644 370.779C292.825 380.802 301.975 341.969 301.975 341.969Z" fill="url(#paint24_linear_1456_8774)"/>
</g>
<path opacity="0.683" d="M233.586 350.037C235.463 355.12 238.637 359.725 242.81 363.421C246.983 367.116 252.018 369.781 257.442 371.163C262.716 372.718 268.244 373.032 273.545 372.08C278.846 371.127 283.758 368.936 287.856 365.697C269.29 372.983 248.512 371.016 233.586 350.037Z" fill="#8DD6FF"/>
<g filter="url(#filter2_d_1456_8774)">
<path d="M161.726 242.973C162.77 251.648 181.481 247.677 187.841 248.301C194.2 248.925 209.774 248.541 228.833 257.13C247.891 265.719 253.267 265.835 241.502 256.075C229.737 246.314 203.915 236.87 188.423 235.22C172.932 233.57 160.676 234.295 161.726 242.973Z" fill="white"/>
</g>
<g filter="url(#filter3_d_1456_8774)">
<path d="M404.153 309.385C397.905 316.525 380.79 300.173 370.807 295.721C362.129 291.648 353.014 288.581 343.66 286.588C337.705 285.758 318.304 286.654 320.314 281.703C322.323 276.752 356.047 277.91 376.028 284.997C396.008 292.084 410.4 302.245 404.153 309.385Z" fill="white"/>
</g>
</g>
<defs>
<filter id="filter0_d_1456_8774" x="358.27" y="312.166" width="119.479" height="135.018" filterUnits="userSpaceOnUse" color-interpolation-filters="sRGB">
<feFlood flood-opacity="0" result="BackgroundImageFix"/>
<feColorMatrix in="SourceAlpha" type="matrix" values="0 0 0 0 0 0 0 0 0 0 0 0 0 0 0 0 0 0 127 0" result="hardAlpha"/>
<feOffset dx="-2" dy="2"/>
<feGaussianBlur stdDeviation="2"/>
<feColorMatrix type="matrix" values="0 0 0 0 0.117647 0 0 0 0 0.568627 0 0 0 0 0.956863 0 0 0 0.447 0"/>
<feBlend mode="normal" in2="BackgroundImageFix" result="effect1_dropShadow_1456_8774"/>
<feBlend mode="normal" in="SourceGraphic" in2="effect1_dropShadow_1456_8774" result="shape"/>
</filter>
<filter id="filter1_d_1456_8774" x="229.586" y="320.344" width="74.3887" height="54.0879" filterUnits="userSpaceOnUse" color-interpolation-filters="sRGB">
<feFlood flood-opacity="0" result="BackgroundImageFix"/>
<feColorMatrix in="SourceAlpha" type="matrix" values="0 0 0 0 0 0 0 0 0 0 0 0 0 0 0 0 0 0 127 0" result="hardAlpha"/>
<feOffset/>
<feGaussianBlur stdDeviation="1"/>
<feColorMatrix type="matrix" values="0 0 0 0 0.00784314 0 0 0 0 0.654902 0 0 0 0 1 0 0 0 0.776 0"/>
<feBlend mode="normal" in2="BackgroundImageFix" result="effect1_dropShadow_1456_8774"/>
<feBlend mode="normal" in="SourceGraphic" in2="effect1_dropShadow_1456_8774" result="shape"/>
</filter>
<filter id="filter2_d_1456_8774" x="157.662" y="230.512" width="94.043" height="36.9766" filterUnits="userSpaceOnUse" color-interpolation-filters="sRGB">
<feFlood flood-opacity="0" result="BackgroundImageFix"/>
<feColorMatrix in="SourceAlpha" type="matrix" values="0 0 0 0 0 0 0 0 0 0 0 0 0 0 0 0 0 0 127 0" result="hardAlpha"/>
<feOffset/>
<feGaussianBlur stdDeviation="2"/>
<feColorMatrix type="matrix" values="0 0 0 0 1 0 0 0 0 1 0 0 0 0 1 0 0 0 1 0"/>
<feBlend mode="normal" in2="BackgroundImageFix" result="effect1_dropShadow_1456_8774"/>
<feBlend mode="normal" in="SourceGraphic" in2="effect1_dropShadow_1456_8774" result="shape"/>
</filter>
<filter id="filter3_d_1456_8774" x="316.168" y="274.682" width="93.4609" height="40.4844" filterUnits="userSpaceOnUse" color-interpolation-filters="sRGB">
<feFlood flood-opacity="0" result="BackgroundImageFix"/>
<feColorMatrix in="SourceAlpha" type="matrix" values="0 0 0 0 0 0 0 0 0 0 0 0 0 0 0 0 0 0 127 0" result="hardAlpha"/>
<feOffset/>
<feGaussianBlur stdDeviation="2"/>
<feColorMatrix type="matrix" values="0 0 0 0 1 0 0 0 0 1 0 0 0 0 1 0 0 0 1 0"/>
<feBlend mode="normal" in2="BackgroundImageFix" result="effect1_dropShadow_1456_8774"/>
<feBlend mode="normal" in="SourceGraphic" in2="effect1_dropShadow_1456_8774" result="shape"/>
</filter>
<linearGradient id="paint0_linear_1456_8774" x1="176.677" y1="1" x2="365.392" y2="444.395" gradientUnits="userSpaceOnUse">
<stop stop-color="#38B2FF"/>
<stop offset="1" stop-color="#0F85FF"/>
</linearGradient>
<radialGradient id="paint1_radial_1456_8774" cx="0" cy="0" r="1" gradientUnits="userSpaceOnUse" gradientTransform="translate(65.1496 0.999991) rotate(88.7968) scale(636.08 182.345)">
<stop stop-color="#72D9FF"/>
<stop offset="1" stop-color="#65C4FF" stop-opacity="0"/>
</radialGradient>
<linearGradient id="paint2_linear_1456_8774" x1="176.677" y1="1" x2="365.392" y2="444.395" gradientUnits="userSpaceOnUse">
<stop stop-color="#38B2FF"/>
<stop offset="1" stop-color="#0F85FF"/>
</linearGradient>
<radialGradient id="paint3_radial_1456_8774" cx="0" cy="0" r="1" gradientUnits="userSpaceOnUse" gradientTransform="translate(65.1496 0.999991) rotate(88.7968) scale(636.08 182.345)">
<stop stop-color="#72D9FF"/>
<stop offset="1" stop-color="#65C4FF" stop-opacity="0"/>
</radialGradient>
<linearGradient id="paint4_linear_1456_8774" x1="89.9916" y1="260.665" x2="159.763" y2="282.281" gradientUnits="userSpaceOnUse">
<stop stop-color="#F5FCFF"/>
<stop offset="1" stop-color="#CCEFFF"/>
</linearGradient>
<radialGradient id="paint5_radial_1456_8774" cx="0" cy="0" r="1" gradientUnits="userSpaceOnUse" gradientTransform="translate(282.37 272.469) rotate(15.5272) scale(190.337 184.837)">
<stop stop-color="white"/>
<stop offset="0.695" stop-color="white"/>
<stop offset="1" stop-color="#F5F5F5"/>
</radialGradient>
<linearGradient id="paint6_linear_1456_8774" x1="469.6" y1="298.11" x2="464.503" y2="113.555" gradientUnits="userSpaceOnUse">
<stop stop-color="#0B5B90"/>
<stop offset="0.269" stop-color="#65C4FF"/>
<stop offset="0.755" stop-color="white"/>
<stop offset="1" stop-color="white"/>
</linearGradient>
<radialGradient id="paint7_radial_1456_8774" cx="0" cy="0" r="1" gradientUnits="userSpaceOnUse" gradientTransform="translate(480.87 233.677) rotate(8.02927) scale(42.0902 134.503)">
<stop stop-color="#0166BA"/>
<stop offset="0.3" stop-color="#2795F4"/>
<stop offset="1" stop-color="#93D5FF"/>
</radialGradient>
<linearGradient id="paint8_linear_1456_8774" x1="110.462" y1="204.732" x2="208.742" y2="48.1126" gradientUnits="userSpaceOnUse">
<stop stop-color="#0B5B90"/>
<stop offset="0.269" stop-color="#65C4FF"/>
<stop offset="0.755" stop-color="white"/>
<stop offset="1" stop-color="white"/>
</linearGradient>
<radialGradient id="paint9_radial_1456_8774" cx="0" cy="0" r="1" gradientUnits="userSpaceOnUse" gradientTransform="translate(130.472 138.059) rotate(-143.022) scale(55.7375 199.474)">
<stop stop-color="#0166BA"/>
<stop offset="0.3" stop-color="#2795F4"/>
<stop offset="1" stop-color="#93D5FF"/>
</radialGradient>
<radialGradient id="paint10_radial_1456_8774" cx="0" cy="0" r="1" gradientUnits="userSpaceOnUse" gradientTransform="translate(279.609 284.089) rotate(15.5272) scale(190.59 185.082)">
<stop stop-color="white"/>
<stop offset="0.72" stop-color="white"/>
<stop offset="1" stop-color="#BCE7FF"/>
</radialGradient>
<radialGradient id="paint11_radial_1456_8774" cx="0" cy="0" r="1" gradientUnits="userSpaceOnUse" gradientTransform="translate(236.294 437.389) rotate(15.3627) scale(117.817 24.1709)">
<stop stop-color="white"/>
<stop offset="0.578" stop-color="white" stop-opacity="0"/>
<stop offset="1" stop-color="white" stop-opacity="0"/>
</radialGradient>
<radialGradient id="paint12_radial_1456_8774" cx="0" cy="0" r="1" gradientUnits="userSpaceOnUse" gradientTransform="translate(71.7015 256.796) rotate(-178.08) scale(22.9664 47.8097)">
<stop stop-color="#72D9FF"/>
<stop offset="0.587" stop-color="#009DFF"/>
<stop offset="0.852" stop-color="#0079DC"/>
<stop offset="1" stop-color="#006CC9"/>
</radialGradient>
<linearGradient id="paint13_linear_1456_8774" x1="85.6708" y1="221.916" x2="43.9478" y2="243.927" gradientUnits="userSpaceOnUse">
<stop stop-color="white"/>
<stop offset="0.32" stop-color="#F8FCFF"/>
<stop offset="1" stop-color="#006E9F"/>
</linearGradient>
<linearGradient id="paint14_linear_1456_8774" x1="404.081" y1="418.002" x2="379.653" y2="349.477" gradientUnits="userSpaceOnUse">
<stop stop-color="#F5FCFF"/>
<stop offset="1" stop-color="#CCEFFF"/>
</linearGradient>
<radialGradient id="paint15_radial_1456_8774" cx="0" cy="0" r="1" gradientUnits="userSpaceOnUse" gradientTransform="translate(471.113 363.206) rotate(29.4616) scale(24.0847 42.0753)">
<stop stop-color="#72D9FF"/>
<stop offset="0.587" stop-color="#009DFF"/>
<stop offset="0.852" stop-color="#0079DC"/>
<stop offset="1" stop-color="#006CC9"/>
</radialGradient>
<linearGradient id="paint16_linear_1456_8774" x1="475.726" y1="326.718" x2="501.678" y2="369.429" gradientUnits="userSpaceOnUse">
<stop stop-color="white"/>
<stop offset="0.32" stop-color="#F8FCFF"/>
<stop offset="1" stop-color="#006E9F"/>
</linearGradient>
<linearGradient id="paint17_linear_1456_8774" x1="327.167" y1="100.077" x2="261.77" y2="330.379" gradientUnits="userSpaceOnUse">
<stop stop-color="#9DD2FF"/>
<stop offset="1" stop-color="#00A8FF"/>
</linearGradient>
<linearGradient id="paint18_linear_1456_8774" x1="143.51" y1="48.2402" x2="271.989" y2="426.356" gradientUnits="userSpaceOnUse">
<stop stop-color="#F2F9FF"/>
<stop offset="0.155" stop-color="#71C1FF"/>
<stop offset="0.649" stop-color="#6CC6FF"/>
<stop offset="1" stop-color="#D8F1FF"/>
</linearGradient>
<radialGradient id="paint19_radial_1456_8774" cx="0" cy="0" r="1" gradientUnits="userSpaceOnUse" gradientTransform="translate(298.769 215.963) rotate(15.8522) scale(224.322 145.153)">
<stop stop-color="#21BBF4"/>
<stop offset="0.842" stop-color="#58B2FF"/>
<stop offset="1" stop-color="#0065BC"/>
</radialGradient>
<radialGradient id="paint20_radial_1456_8774" cx="0" cy="0" r="1" gradientUnits="userSpaceOnUse" gradientTransform="translate(287.249 261.471) rotate(15.8538) scale(198.135 100.511)">
<stop stop-color="#B5EBFF"/>
<stop offset="0.655" stop-color="#009DFF"/>
<stop offset="0.906" stop-color="#11649D"/>
<stop offset="1" stop-color="#034B81"/>
</radialGradient>
<linearGradient id="paint21_linear_1456_8774" x1="326.715" y1="112.974" x2="300.696" y2="205.683" gradientUnits="userSpaceOnUse">
<stop stop-color="#D5F0FF" stop-opacity="0.867"/>
<stop offset="1" stop-color="#739EFF" stop-opacity="0"/>
</linearGradient>
<radialGradient id="paint22_radial_1456_8774" cx="0" cy="0" r="1" gradientUnits="userSpaceOnUse" gradientTransform="translate(245.118 106.516) rotate(15.7526) scale(63.2824 53.5656)">
<stop stop-color="white"/>
<stop offset="0.72" stop-color="white" stop-opacity="0"/>
<stop offset="1" stop-color="white" stop-opacity="0"/>
</radialGradient>
<linearGradient id="paint23_linear_1456_8774" x1="199.453" y1="296.52" x2="281.932" y2="194.9" gradientUnits="userSpaceOnUse">
<stop stop-color="white" stop-opacity="0"/>
<stop offset="0.256" stop-color="white" stop-opacity="0.725"/>
<stop offset="1" stop-color="white" stop-opacity="0"/>
</linearGradient>
<linearGradient id="paint24_linear_1456_8774" x1="258.352" y1="368.41" x2="269.99" y2="327.558" gradientUnits="userSpaceOnUse">
<stop stop-color="#33C0FF"/>
<stop offset="0.608" stop-color="#0D69AF"/>
<stop offset="1" stop-color="#004C85"/>
</linearGradient>
<clipPath id="clip0_1456_8774">
<rect width="520" height="392" fill="white"/>
</clipPath>
</defs>
</svg>
