<svg width="424" height="366" viewBox="0 0 424 366" fill="none" xmlns="http://www.w3.org/2000/svg">
<g filter="url(#filter0_d_10158_196112)">
<path d="M211.725 326.941C286.014 326.941 346.236 266.67 346.236 192.322C346.236 117.974 286.014 57.7026 211.725 57.7026C137.437 57.7026 77.2139 117.974 77.2139 192.322C77.2139 266.67 137.437 326.941 211.725 326.941Z" fill="url(#paint0_radial_10158_196112)"/>
</g>
<g filter="url(#filter1_d_10158_196112)">
<path d="M343.992 45.7945C362.763 72.098 358.651 133.399 348.1 179.036C337.55 224.672 248.767 79.7563 258.92 76.8785C323.895 42.3673 330.211 30.3326 343.992 45.7945Z" fill="url(#paint1_linear_10158_196112)"/>
</g>
<path d="M346.737 45.5435C359.364 63.4147 361.873 120.917 345.973 186.167C348.779 149.908 340.937 109.359 337.287 86.3246C333.288 52.0915 333.003 29.9815 346.737 45.5435Z" fill="url(#paint2_radial_10158_196112)"/>
<path d="M337.938 40.7456C324.608 55.0367 351.789 133.721 346.188 186.879" stroke="#D8EDFF" stroke-linecap="round"/>
<g filter="url(#filter2_d_10158_196112)">
<path d="M79.3655 45.975C60.5925 72.275 64.7052 133.578 75.2505 179.206C85.7958 224.833 174.588 79.9333 164.435 77.0555C99.4645 42.5512 93.1442 30.5096 79.3655 45.975Z" fill="url(#paint3_linear_10158_196112)"/>
</g>
<path d="M77.2366 45.585C64.6129 63.4539 62.1028 120.958 78.0074 186.214C75.1967 149.948 83.0381 109.4 86.6889 86.3649C90.6877 52.1319 90.9727 30.0219 77.2366 45.585Z" fill="url(#paint4_radial_10158_196112)"/>
<path d="M85.9974 40.7456C99.3275 55.0367 72.1464 133.721 77.7471 186.879" stroke="#D8EDFF" stroke-linecap="round"/>
<g filter="url(#filter3_d_10158_196112)">
<path d="M212.078 57.3252C238.702 57.3597 264.719 65.2902 286.842 80.115C308.965 94.9399 326.201 115.994 336.374 140.618C346.547 165.241 349.2 192.33 343.997 218.462C338.795 244.593 325.971 268.596 307.145 287.438C288.32 306.279 264.337 319.114 238.226 324.321C212.115 329.528 185.048 326.874 160.444 316.694C135.84 306.514 114.802 289.264 99.9882 267.124C85.1746 244.984 77.2496 218.947 77.2143 192.301C77.1681 174.563 80.6248 156.991 87.3859 140.594C94.147 124.198 104.079 109.3 116.612 96.757C129.144 84.2141 144.03 74.2735 160.413 67.5065C176.797 60.7394 194.355 57.2794 212.078 57.3252Z" fill="url(#paint5_radial_10158_196112)"/>
</g>
<path opacity="0.647" d="M140.602 306.088C145.92 300.852 129.897 293.088 136.31 288.954C143.014 285.162 155.899 314.622 211.802 315.226" stroke="#2FB6EF" stroke-width="0.5" stroke-linecap="round"/>
<path opacity="0.647" d="M283.021 306.088C277.703 300.852 293.726 293.088 287.313 288.955C280.609 285.16 267.724 314.624 211.821 315.226" stroke="#2FB6EF" stroke-width="0.5" stroke-linecap="round"/>
<path opacity="0.996" d="M216.657 303.443C245.288 303.227 299.154 285.381 299.154 297.285C299.154 309.189 263.971 329.394 216.657 329.976C169.344 330.559 126.777 309.192 126.777 297.289C126.777 285.387 188.026 303.658 216.657 303.443Z" fill="url(#paint6_radial_10158_196112)"/>
<g filter="url(#filter4_d_10158_196112)">
<path d="M76.9423 187.283C74.8857 198.493 84.4226 233.628 91.9213 250.192C99.4026 266.004 109.867 280.218 122.74 292.054C122.747 292.463 124.187 295.645 119.715 293.28C105.193 285.641 77.7244 259.055 66.453 231.936C55.1817 204.817 72.2189 187.325 76.9423 187.283Z" fill="url(#paint7_linear_10158_196112)"/>
</g>
<path d="M70.9318 191.215C74.7383 192.43 73.0489 216.875 78.2022 234.593C80.7916 244.106 84.5426 253.262 89.3705 261.856C89.5616 262.047 90.6401 263.711 87.7316 262.369C77.219 256.392 62.4942 231.996 58.9627 213.616C55.4109 195.143 67.1235 190.001 70.9318 191.215Z" fill="url(#paint8_radial_10158_196112)"/>
<path opacity="0.485" d="M67.7248 193.364C71.6576 193.549 59.7167 201.843 64.5869 218.978C69.457 236.113 77.9348 254.216 87.4816 261.632C70.1673 249.113 61.1767 217.259 61.0553 216.731C57.0327 199.473 63.8087 193.172 67.7248 193.364Z" fill="url(#paint9_linear_10158_196112)"/>
<g filter="url(#filter5_d_10158_196112)">
<path d="M345.665 187.28C347.721 198.489 338.183 233.623 330.686 250.189C323.204 266 312.74 280.214 299.867 292.05C299.86 292.459 298.42 295.641 302.892 293.276C317.413 285.638 344.883 259.051 356.151 231.94C367.418 204.828 350.386 187.32 345.665 187.28Z" fill="url(#paint10_linear_10158_196112)"/>
</g>
<path d="M351.671 191.217C347.863 192.432 349.554 216.877 344.397 234.603C341.807 244.115 338.055 253.272 333.226 261.866C333.045 262.062 331.957 263.722 334.865 262.38C345.382 256.399 360.107 231.997 363.64 213.618C367.192 195.145 355.478 190.002 351.671 191.217Z" fill="url(#paint11_radial_10158_196112)"/>
<path opacity="0.485" d="M354.868 193.362C350.935 193.547 362.886 201.844 358.012 218.986C353.139 236.128 344.667 254.218 335.12 261.634C352.438 249.108 361.425 217.261 361.547 216.733C365.567 199.474 358.793 193.174 354.868 193.362Z" fill="url(#paint12_linear_10158_196112)"/>
<g opacity="0.997">
<g opacity="0.518">
<path opacity="0.395" d="M77.2695 185.85C77.2695 152.853 108.079 61.6001 210.017 61.6001C311.956 61.6001 346.421 154.345 346.421 185.85C346.421 217.355 337.238 239.279 300.037 239.279C262.835 239.279 238.123 215.563 211.82 216.292C185.516 217.021 163.273 239.279 123.919 239.279C84.5642 239.279 77.2695 218.849 77.2695 185.85Z" fill="url(#paint13_linear_10158_196112)"/>
<path opacity="0.518" d="M77.4844 183.478C77.4844 151.123 109.103 61.8279 211.811 61.8279C314.519 61.8279 346.029 153.676 346.029 184.563C346.029 215.45 335.178 237.883 297.977 237.883C260.776 237.883 238.115 214.629 211.811 215.342C185.508 216.054 167.375 237.89 128.018 237.89C88.6612 237.89 77.4844 215.834 77.4844 183.478Z" fill="url(#paint14_linear_10158_196112)"/>
</g>
<g opacity="0.997">
<path opacity="0.997" d="M84.2148 180.992C84.2148 149.321 111.747 65.9514 212.012 65.9514C312.277 65.9514 339.811 150.754 339.811 180.992C339.811 211.231 325.455 234.251 290.672 234.251C255.889 234.251 239.65 214.194 212.014 214.194C184.377 214.194 172.37 234.251 135.569 234.251C98.7672 234.251 84.2148 212.663 84.2148 180.992Z" fill="url(#paint15_radial_10158_196112)"/>
<path opacity="0.997" d="M88.9316 176.785C88.9316 148.256 123.034 65.9534 211.979 65.9534C300.924 65.9534 335.026 148.194 335.026 176.785C335.026 205.375 315.525 223.865 284.969 229.28C254.412 234.694 238.604 208.774 211.979 208.774C185.354 208.774 176.98 231.072 146.799 229.28C116.617 227.488 88.9316 205.324 88.9316 176.785Z" fill="url(#paint16_radial_10158_196112)"/>
</g>
<path opacity="0.997" d="M211.982 72.2483C259.072 72.2483 287.921 94.6629 295.4 110.27C302.988 128.384 264.443 143.62 211.982 143.942C166.775 144.221 126.669 127.479 130.108 109.785C134.495 93.1338 168.754 72.2483 211.982 72.2483Z" fill="url(#paint17_linear_10158_196112)"/>
<path opacity="0.782" d="M195.784 58.1624C198.439 62.9586 199.816 68.358 199.781 73.8409C199.781 97.0785 183.264 114.922 160.611 114.922C145.095 114.922 129.743 107.078 122.489 93.495C122.879 93.6366 136.338 78.424 155.868 70.2142C168.75 64.9065 182.119 60.87 195.784 58.1624Z" fill="url(#paint18_radial_10158_196112)"/>
<path opacity="0.546" d="M114.682 215.093C95.8145 203.725 97.9802 151.922 127.893 109.098C137.031 96.6414 165.527 79.2306 165.482 81.7736C146.457 119.512 144.894 163.608 162.067 226.072C145.327 232.094 118.613 218.698 114.682 215.093Z" fill="url(#paint19_linear_10158_196112)"/>
</g>
<g filter="url(#filter6_d_10158_196112)">
<path d="M237.922 235.997C229.699 233.668 221.213 232.395 212.669 232.208C204.172 232.387 195.734 233.66 187.563 235.997C187.563 235.997 186.948 265.634 212.669 265.634C238.39 265.634 237.922 235.997 237.922 235.997Z" fill="url(#paint20_linear_10158_196112)"/>
</g>
<path opacity="0.683" d="M192.62 255.095C194.812 258.418 197.813 261.128 201.34 262.97C204.867 264.813 208.804 265.728 212.781 265.628C216.687 265.685 220.546 264.786 224.025 263.009C227.504 261.233 230.496 258.632 232.742 255.434C221.257 264.536 206.611 267.344 192.62 255.095Z" fill="#8DD6FF"/>
<g filter="url(#filter7_d_10158_196112)">
<path d="M122.877 194.822C125.151 200.903 137.337 194.257 141.832 193.43C146.328 192.603 156.994 189.19 171.669 191.583C186.345 193.976 190.071 192.978 180.213 188.268C170.355 183.558 150.864 181.906 139.89 183.827C128.917 185.748 120.599 188.74 122.877 194.822Z" fill="white"/>
</g>
<g filter="url(#filter8_d_10158_196112)">
<path d="M302.666 195.191C299.639 201.625 284.914 193.214 277.236 191.995C270.526 190.789 263.694 190.4 256.89 190.838C252.637 191.435 239.426 195.989 239.924 191.995C240.422 188.001 263.873 182.053 278.913 183.17C293.954 184.286 305.693 188.757 302.666 195.191Z" fill="white"/>
</g>
<defs>
<filter id="filter0_d_10158_196112" x="47.2139" y="31.7026" width="329.022" height="329.238" filterUnits="userSpaceOnUse" color-interpolation-filters="sRGB">
<feFlood flood-opacity="0" result="BackgroundImageFix"/>
<feColorMatrix in="SourceAlpha" type="matrix" values="0 0 0 0 0 0 0 0 0 0 0 0 0 0 0 0 0 0 127 0" result="hardAlpha"/>
<feOffset dy="4"/>
<feGaussianBlur stdDeviation="15"/>
<feColorMatrix type="matrix" values="0 0 0 0 0 0 0 0 0 0.505882 0 0 0 0 0.878431 0 0 0 0.302 0"/>
<feBlend mode="normal" in2="BackgroundImageFix" result="effect1_dropShadow_10158_196112"/>
<feBlend mode="normal" in="SourceGraphic" in2="effect1_dropShadow_10158_196112" result="shape"/>
</filter>
<filter id="filter1_d_10158_196112" x="238.112" y="22.1575" width="138.93" height="188.761" filterUnits="userSpaceOnUse" color-interpolation-filters="sRGB">
<feFlood flood-opacity="0" result="BackgroundImageFix"/>
<feColorMatrix in="SourceAlpha" type="matrix" values="0 0 0 0 0 0 0 0 0 0 0 0 0 0 0 0 0 0 127 0" result="hardAlpha"/>
<feOffset dy="3"/>
<feGaussianBlur stdDeviation="10"/>
<feColorMatrix type="matrix" values="0 0 0 0 0.215686 0 0 0 0 0.65098 0 0 0 0 0.968627 0 0 0 0.243 0"/>
<feBlend mode="normal" in2="BackgroundImageFix" result="effect1_dropShadow_10158_196112"/>
<feBlend mode="normal" in="SourceGraphic" in2="effect1_dropShadow_10158_196112" result="shape"/>
</filter>
<filter id="filter2_d_10158_196112" x="46.3135" y="22.3369" width="138.929" height="188.75" filterUnits="userSpaceOnUse" color-interpolation-filters="sRGB">
<feFlood flood-opacity="0" result="BackgroundImageFix"/>
<feColorMatrix in="SourceAlpha" type="matrix" values="0 0 0 0 0 0 0 0 0 0 0 0 0 0 0 0 0 0 127 0" result="hardAlpha"/>
<feOffset dy="3"/>
<feGaussianBlur stdDeviation="10"/>
<feColorMatrix type="matrix" values="0 0 0 0 0.215686 0 0 0 0 0.65098 0 0 0 0 0.968627 0 0 0 0.243 0"/>
<feBlend mode="normal" in2="BackgroundImageFix" result="effect1_dropShadow_10158_196112"/>
<feBlend mode="normal" in="SourceGraphic" in2="effect1_dropShadow_10158_196112" result="shape"/>
</filter>
<filter id="filter3_d_10158_196112" x="41.2139" y="24.3247" width="341.38" height="341.596" filterUnits="userSpaceOnUse" color-interpolation-filters="sRGB">
<feFlood flood-opacity="0" result="BackgroundImageFix"/>
<feColorMatrix in="SourceAlpha" type="matrix" values="0 0 0 0 0 0 0 0 0 0 0 0 0 0 0 0 0 0 127 0" result="hardAlpha"/>
<feOffset dy="3"/>
<feGaussianBlur stdDeviation="18"/>
<feColorMatrix type="matrix" values="0 0 0 0 0.0627451 0 0 0 0 0.596078 0 0 0 0 1 0 0 0 0.098 0"/>
<feBlend mode="normal" in2="BackgroundImageFix" result="effect1_dropShadow_10158_196112"/>
<feBlend mode="normal" in="SourceGraphic" in2="effect1_dropShadow_10158_196112" result="shape"/>
</filter>
<filter id="filter4_d_10158_196112" x="60.668" y="185.283" width="68.2988" height="114.863" filterUnits="userSpaceOnUse" color-interpolation-filters="sRGB">
<feFlood flood-opacity="0" result="BackgroundImageFix"/>
<feColorMatrix in="SourceAlpha" type="matrix" values="0 0 0 0 0 0 0 0 0 0 0 0 0 0 0 0 0 0 127 0" result="hardAlpha"/>
<feOffset dx="2" dy="2"/>
<feGaussianBlur stdDeviation="2"/>
<feColorMatrix type="matrix" values="0 0 0 0 0.117647 0 0 0 0 0.568627 0 0 0 0 0.956863 0 0 0 0.447 0"/>
<feBlend mode="normal" in2="BackgroundImageFix" result="effect1_dropShadow_10158_196112"/>
<feBlend mode="normal" in="SourceGraphic" in2="effect1_dropShadow_10158_196112" result="shape"/>
</filter>
<filter id="filter5_d_10158_196112" x="293.641" y="185.28" width="68.2939" height="114.863" filterUnits="userSpaceOnUse" color-interpolation-filters="sRGB">
<feFlood flood-opacity="0" result="BackgroundImageFix"/>
<feColorMatrix in="SourceAlpha" type="matrix" values="0 0 0 0 0 0 0 0 0 0 0 0 0 0 0 0 0 0 127 0" result="hardAlpha"/>
<feOffset dx="-2" dy="2"/>
<feGaussianBlur stdDeviation="2"/>
<feColorMatrix type="matrix" values="0 0 0 0 0.117647 0 0 0 0 0.568627 0 0 0 0 0.956863 0 0 0 0.447 0"/>
<feBlend mode="normal" in2="BackgroundImageFix" result="effect1_dropShadow_10158_196112"/>
<feBlend mode="normal" in="SourceGraphic" in2="effect1_dropShadow_10158_196112" result="shape"/>
</filter>
<filter id="filter6_d_10158_196112" x="185.562" y="230.208" width="54.3613" height="37.426" filterUnits="userSpaceOnUse" color-interpolation-filters="sRGB">
<feFlood flood-opacity="0" result="BackgroundImageFix"/>
<feColorMatrix in="SourceAlpha" type="matrix" values="0 0 0 0 0 0 0 0 0 0 0 0 0 0 0 0 0 0 127 0" result="hardAlpha"/>
<feOffset/>
<feGaussianBlur stdDeviation="1"/>
<feColorMatrix type="matrix" values="0 0 0 0 0.00784314 0 0 0 0 0.654902 0 0 0 0 1 0 0 0 0.776 0"/>
<feBlend mode="normal" in2="BackgroundImageFix" result="effect1_dropShadow_10158_196112"/>
<feBlend mode="normal" in="SourceGraphic" in2="effect1_dropShadow_10158_196112" result="shape"/>
</filter>
<filter id="filter7_d_10158_196112" x="118.499" y="179.042" width="71.2129" height="22.3188" filterUnits="userSpaceOnUse" color-interpolation-filters="sRGB">
<feFlood flood-opacity="0" result="BackgroundImageFix"/>
<feColorMatrix in="SourceAlpha" type="matrix" values="0 0 0 0 0 0 0 0 0 0 0 0 0 0 0 0 0 0 127 0" result="hardAlpha"/>
<feOffset/>
<feGaussianBlur stdDeviation="2"/>
<feColorMatrix type="matrix" values="0 0 0 0 1 0 0 0 0 1 0 0 0 0 1 0 0 0 1 0"/>
<feBlend mode="normal" in2="BackgroundImageFix" result="effect1_dropShadow_10158_196112"/>
<feBlend mode="normal" in="SourceGraphic" in2="effect1_dropShadow_10158_196112" result="shape"/>
</filter>
<filter id="filter8_d_10158_196112" x="235.91" y="179.033" width="71.2344" height="22.5574" filterUnits="userSpaceOnUse" color-interpolation-filters="sRGB">
<feFlood flood-opacity="0" result="BackgroundImageFix"/>
<feColorMatrix in="SourceAlpha" type="matrix" values="0 0 0 0 0 0 0 0 0 0 0 0 0 0 0 0 0 0 127 0" result="hardAlpha"/>
<feOffset/>
<feGaussianBlur stdDeviation="2"/>
<feColorMatrix type="matrix" values="0 0 0 0 1 0 0 0 0 1 0 0 0 0 1 0 0 0 1 0"/>
<feBlend mode="normal" in2="BackgroundImageFix" result="effect1_dropShadow_10158_196112"/>
<feBlend mode="normal" in="SourceGraphic" in2="effect1_dropShadow_10158_196112" result="shape"/>
</filter>
<radialGradient id="paint0_radial_10158_196112" cx="0" cy="0" r="1" gradientUnits="userSpaceOnUse" gradientTransform="translate(211.725 192.322) scale(134.511 134.619)">
<stop stop-color="white"/>
<stop offset="0.695" stop-color="white"/>
<stop offset="1" stop-color="#F5F5F5"/>
</radialGradient>
<linearGradient id="paint1_linear_10158_196112" x1="345.069" y1="175.399" x2="305.309" y2="49.2128" gradientUnits="userSpaceOnUse">
<stop stop-color="#0B5B90"/>
<stop offset="0.269" stop-color="#65C4FF"/>
<stop offset="0.755" stop-color="white"/>
<stop offset="1" stop-color="white"/>
</linearGradient>
<radialGradient id="paint2_radial_10158_196112" cx="0" cy="0" r="1" gradientUnits="userSpaceOnUse" gradientTransform="translate(341.756 128.553) rotate(-7.85953) scale(30.0184 96.5795)">
<stop stop-color="#0166BA"/>
<stop offset="0.3" stop-color="#2795F4"/>
<stop offset="1" stop-color="#93D5FF"/>
</radialGradient>
<linearGradient id="paint3_linear_10158_196112" x1="78.943" y1="177.816" x2="116.494" y2="49.3135" gradientUnits="userSpaceOnUse">
<stop stop-color="#0B5B90"/>
<stop offset="0.269" stop-color="#65C4FF"/>
<stop offset="0.755" stop-color="white"/>
<stop offset="1" stop-color="white"/>
</linearGradient>
<radialGradient id="paint4_radial_10158_196112" cx="0" cy="0" r="1" gradientUnits="userSpaceOnUse" gradientTransform="translate(81.3058 127.526) rotate(-158.734) scale(39.6115 145.233)">
<stop stop-color="#0166BA"/>
<stop offset="0.3" stop-color="#2795F4"/>
<stop offset="1" stop-color="#93D5FF"/>
</radialGradient>
<radialGradient id="paint5_radial_10158_196112" cx="0" cy="0" r="1" gradientUnits="userSpaceOnUse" gradientTransform="translate(211.904 201.019) scale(134.69 134.798)">
<stop stop-color="white"/>
<stop offset="0.72" stop-color="white"/>
<stop offset="1" stop-color="#BCE7FF"/>
</radialGradient>
<radialGradient id="paint6_radial_10158_196112" cx="0" cy="0" r="1" gradientUnits="userSpaceOnUse" gradientTransform="translate(210.505 315.324) scale(84.0824 17.947)">
<stop stop-color="white"/>
<stop offset="0.578" stop-color="white" stop-opacity="0"/>
<stop offset="1" stop-color="white" stop-opacity="0"/>
</radialGradient>
<linearGradient id="paint7_linear_10158_196112" x1="76.6251" y1="221.288" x2="127.737" y2="225.416" gradientUnits="userSpaceOnUse">
<stop stop-color="#F5FCFF"/>
<stop offset="1" stop-color="#CCEFFF"/>
</linearGradient>
<radialGradient id="paint8_radial_10158_196112" cx="0" cy="0" r="1" gradientUnits="userSpaceOnUse" gradientTransform="translate(62.8486 220.912) rotate(165.953) scale(16.912 34.2683)">
<stop stop-color="#72D9FF"/>
<stop offset="0.587" stop-color="#009DFF"/>
<stop offset="0.852" stop-color="#0079DC"/>
<stop offset="1" stop-color="#006CC9"/>
</radialGradient>
<linearGradient id="paint9_linear_10158_196112" x1="66.6356" y1="193.811" x2="41.047" y2="217.812" gradientUnits="userSpaceOnUse">
<stop stop-color="white"/>
<stop offset="0.32" stop-color="#F8FCFF"/>
<stop offset="1" stop-color="#006E9F"/>
</linearGradient>
<linearGradient id="paint10_linear_10158_196112" x1="322.988" y1="270.634" x2="293.268" y2="228.813" gradientUnits="userSpaceOnUse">
<stop stop-color="#F5FCFF"/>
<stop offset="1" stop-color="#CCEFFF"/>
</linearGradient>
<radialGradient id="paint11_radial_10158_196112" cx="0" cy="0" r="1" gradientUnits="userSpaceOnUse" gradientTransform="translate(359.188 219.886) rotate(14.047) scale(16.912 30.3575)">
<stop stop-color="#72D9FF"/>
<stop offset="0.587" stop-color="#009DFF"/>
<stop offset="0.852" stop-color="#0079DC"/>
<stop offset="1" stop-color="#006CC9"/>
</radialGradient>
<linearGradient id="paint12_linear_10158_196112" x1="355.958" y1="193.809" x2="381.556" y2="217.826" gradientUnits="userSpaceOnUse">
<stop stop-color="white"/>
<stop offset="0.32" stop-color="#F8FCFF"/>
<stop offset="1" stop-color="#006E9F"/>
</linearGradient>
<linearGradient id="paint13_linear_10158_196112" x1="211.845" y1="61.6001" x2="211.845" y2="239.279" gradientUnits="userSpaceOnUse">
<stop stop-color="#9DD2FF"/>
<stop offset="1" stop-color="#00A8FF"/>
</linearGradient>
<linearGradient id="paint14_linear_10158_196112" x1="77.4844" y1="61.8279" x2="244.631" y2="295.869" gradientUnits="userSpaceOnUse">
<stop stop-color="#F2F9FF"/>
<stop offset="0.155" stop-color="#71C1FF"/>
<stop offset="0.649" stop-color="#6CC6FF"/>
<stop offset="1" stop-color="#D8F1FF"/>
</linearGradient>
<radialGradient id="paint15_radial_10158_196112" cx="0" cy="0" r="1" gradientUnits="userSpaceOnUse" gradientTransform="translate(212.555 150.103) scale(157.911 107.732)">
<stop stop-color="#21BBF4"/>
<stop offset="0.842" stop-color="#58B2FF"/>
<stop offset="1" stop-color="#0065BC"/>
</radialGradient>
<radialGradient id="paint16_radial_10158_196112" cx="0" cy="0" r="1" gradientUnits="userSpaceOnUse" gradientTransform="translate(212.555 184.995) scale(139.454 74.5803)">
<stop stop-color="#B5EBFF"/>
<stop offset="0.655" stop-color="#009DFF"/>
<stop offset="0.906" stop-color="#11649D"/>
<stop offset="1" stop-color="#034B81"/>
</radialGradient>
<linearGradient id="paint17_linear_10158_196112" x1="213.129" y1="72.2483" x2="213.129" y2="143.945" gradientUnits="userSpaceOnUse">
<stop stop-color="#D5F0FF" stop-opacity="0.867"/>
<stop offset="1" stop-color="#739EFF" stop-opacity="0"/>
</linearGradient>
<radialGradient id="paint18_radial_10158_196112" cx="0" cy="0" r="1" gradientUnits="userSpaceOnUse" gradientTransform="translate(155.184 84.2803) scale(44.598 39.4971)">
<stop stop-color="white"/>
<stop offset="0.72" stop-color="white" stop-opacity="0"/>
<stop offset="1" stop-color="white" stop-opacity="0"/>
</radialGradient>
<linearGradient id="paint19_linear_10158_196112" x1="157.184" y1="225.017" x2="196.797" y2="138.57" gradientUnits="userSpaceOnUse">
<stop stop-color="white" stop-opacity="0"/>
<stop offset="0.256" stop-color="white" stop-opacity="0.725"/>
<stop offset="1" stop-color="white" stop-opacity="0"/>
</linearGradient>
<linearGradient id="paint20_linear_10158_196112" x1="212.742" y1="263.796" x2="212.742" y2="232.208" gradientUnits="userSpaceOnUse">
<stop stop-color="#33C0FF"/>
<stop offset="0.608" stop-color="#0D69AF"/>
<stop offset="1" stop-color="#004C85"/>
</linearGradient>
</defs>
</svg>
