<svg width="248" height="580" viewBox="0 0 248 580" fill="none" xmlns="http://www.w3.org/2000/svg">
<path d="M166 32.8105V0H0V167C3.32173 161.074 6.94699 155.323 10.8613 149.768C29.276 123.084 76.2703 56.6726 166 32.8105Z" fill="url(#paint0_linear_10336_198567)"/>
<path d="M248 462.86C232.181 461.119 216.627 456.849 201.991 450.091C168.526 434.641 142.38 407.351 128.887 373.79C115.393 340.228 115.569 302.922 129.379 269.483C129.523 269.17 129.663 268.852 129.804 268.531C130.099 267.857 130.402 267.168 130.773 266.479C131.642 264.285 132.657 262.149 133.811 260.084C134.209 259.193 134.671 258.302 135.145 257.387C135.264 257.157 135.384 256.925 135.504 256.692C135.927 255.869 136.026 255.701 136.153 255.484C136.206 255.395 136.263 255.297 136.35 255.142C138.791 250.297 141.33 245.452 144.816 240.607C163.34 211.166 195.036 175.61 248 150.039V41C192.997 59.2622 151.022 81.6555 119.12 104.225C90.5739 123.933 65.6556 148.192 45.4172 175.977C37.0905 187.321 30.1387 199.562 24.7005 212.459C24.7005 212.797 24.5599 213.097 24.4317 213.37C24.3582 213.526 24.2888 213.674 24.2525 213.815V214.251C24.2751 214.477 24.2751 214.704 24.2525 214.93C17.5911 228.88 12.2568 243.394 8.31671 258.291C8.18304 258.819 8.04816 259.348 7.91296 259.878C7.19202 262.705 6.46368 265.561 5.87659 268.417L5.87164 268.441C5.17609 271.824 4.48053 275.207 3.83466 278.639C3.68518 279.439 3.54816 280.251 3.41113 281.063C3.27429 281.874 3.13745 282.685 2.98816 283.484C2.49017 287.069 1.99225 290.654 1.54407 294.288C1.54407 295.57 1.37506 296.874 1.2052 298.187C1.13098 298.76 1.05658 299.334 0.996033 299.908C0.298828 307.321 0 314.83 0 322.437V334.549C0 335.857 6.10352e-05 337.649 0.348633 339.151C0.580994 340.153 0.50354 340.766 0.426086 341.38C0.38739 341.687 0.348633 341.994 0.348633 342.349C0.348633 344.217 0.568115 346.085 0.787659 347.953C0.824341 348.265 0.861023 348.577 0.896667 348.89L0.8974 348.896C1.14612 351.074 1.39484 353.252 1.6933 355.382C2.11963 359.073 2.72852 362.764 3.33234 366.425C3.43384 367.041 3.53522 367.655 3.63556 368.269C4.83075 374.616 6.22504 380.914 7.91821 387.115C8.26196 388.565 8.69373 389.986 9.12341 391.4C9.25391 391.829 9.38422 392.258 9.51184 392.687C9.48352 392.993 9.48352 393.301 9.51184 393.608C9.70874 394.267 9.896 394.927 10.0821 395.583C10.3197 396.419 10.5554 397.25 10.8066 398.065C11.0656 398.904 11.3744 399.825 11.6946 400.779C11.9287 401.477 12.1689 402.193 12.4003 402.91C13.5457 406.446 14.7904 409.983 16.1848 413.423C17.0803 415.843 18.0754 418.263 19.0705 420.683L19.0732 420.69L20.8659 424.76C22.2105 427.861 23.6549 430.913 25.1987 433.965C25.3824 434.328 25.5569 434.673 25.7239 435.004C26.9614 437.453 27.7929 439.098 28.9337 441.232C30.826 444.721 32.7679 448.209 34.8595 451.649C35.024 451.848 35.1429 452.079 35.2081 452.327C37.1503 455.573 39.1923 458.819 41.3336 462.017L41.3364 462.021C42.6302 463.957 43.9241 465.894 45.3175 467.831C46.4708 469.662 47.7347 471.425 49.1023 473.111C50.1481 474.613 51.3432 476.164 52.4886 477.617C53.1467 478.605 53.8791 479.544 54.6798 480.427C55.0235 480.853 55.3651 481.278 55.7063 481.704C56.9964 483.311 58.2813 484.912 59.6597 486.483C61.0043 488.13 62.3985 489.778 63.8925 491.328C64.7077 492.174 65.3005 492.861 65.8651 493.516C66.3351 494.061 66.7856 494.583 67.3287 495.155L70.8147 498.886C71.8271 499.969 72.8854 501.053 73.9583 502.152C74.4686 502.674 74.9822 503.2 75.4958 503.731L78.0356 506.202L79.0812 507.171C80.0274 508.091 80.9238 508.963 81.87 509.787C82.4346 510.278 82.8928 510.718 83.3293 511.137C83.6243 511.42 83.9094 511.694 84.2107 511.967H84.5095C85.2733 512.71 86.0812 513.41 86.8892 514.11C87.2929 514.46 87.6967 514.81 88.0949 515.165C89.0102 516.039 89.9745 516.864 90.9833 517.636C91.6805 518.314 92.5273 518.992 93.324 519.622C93.718 519.985 94.1338 520.324 94.569 520.639C94.8987 520.97 95.2661 521.263 95.6645 521.511C96.0951 521.901 96.5638 522.271 97.0235 522.634C97.308 522.859 97.5891 523.082 97.8557 523.304L98.5529 523.885L100.097 525.097L101.541 526.162C103.881 527.955 106.222 529.699 108.662 531.395C109.183 531.757 109.72 532.133 110.269 532.516C112.289 533.928 114.466 535.45 116.58 536.821L117.128 537.16L117.526 537.403C119.967 539.001 122.506 540.552 124.946 542.005L125.295 542.247L128.831 544.331C130.026 545.074 131.221 545.752 132.416 546.366L134.408 547.431L137.745 549.272L141.081 551.017H141.48C142.696 551.625 143.865 552.234 145.001 552.826C145.493 553.082 145.979 553.336 146.46 553.584C147.314 554.052 148.195 554.473 149.099 554.844C151.589 556.055 154.079 557.17 156.718 558.284L157.003 558.404C159.602 559.501 162.902 560.895 165.832 562.063L166.927 562.45C169.616 563.516 172.355 564.534 175.194 565.503C176.937 566.132 178.829 566.762 180.672 567.295C180.975 567.437 181.292 567.551 181.618 567.634L182.315 567.877L183.859 568.361C187.146 569.379 190.482 570.347 193.819 571.268L195.263 571.656L200.243 572.915C203.878 573.787 207.514 574.611 211.149 575.338L217.324 576.549H218.071C222.304 577.276 226.487 577.905 230.67 578.438C235.052 578.971 239.584 579.456 244.016 579.746L248 580V462.86Z" fill="url(#paint1_linear_10336_198567)"/>
<defs>
<linearGradient id="paint0_linear_10336_198567" x1="47.0855" y1="126.807" x2="-8.17877" y2="3.67068" gradientUnits="userSpaceOnUse">
<stop stop-color="#36E9FF"/>
<stop offset="1" stop-color="#01ADFF"/>
</linearGradient>
<linearGradient id="paint1_linear_10336_198567" x1="65" y1="499.71" x2="248.462" y2="40.7238" gradientUnits="userSpaceOnUse">
<stop stop-color="#36E9FF"/>
<stop offset="1" stop-color="#0084F6"/>
</linearGradient>
</defs>
</svg>
