<svg width="438" height="416" viewBox="0 0 438 416" fill="none" xmlns="http://www.w3.org/2000/svg">
<g clip-path="url(#clip0_10503_290788)">
<g filter="url(#filter0_d_10503_290788)">
<path d="M172.792 371.052C94.4544 350.145 48.0052 269.749 69.0448 191.485C90.0845 113.22 170.646 66.7229 248.983 87.6306C327.321 108.538 373.77 188.934 352.73 267.198C331.691 345.463 251.13 391.96 172.792 371.052Z" fill="url(#paint0_radial_10503_290788)"/>
</g>
<g filter="url(#filter1_d_10503_290788)">
<path d="M214.075 60.5021C155.784 63.7009 83.7189 150.946 83.7189 150.946C83.7189 150.946 139.701 199.465 194.2 180.432C248.699 161.4 235.198 119.434 236.406 107.323C238.596 84.6961 254.129 58.2989 214.075 60.5021Z" fill="url(#paint1_linear_10503_290788)"/>
</g>
<g filter="url(#filter2_d_10503_290788)">
<path d="M232.298 209.902C232.829 263.101 243.76 331.807 282.736 319.105C302.381 312.709 347.532 281.323 378.443 243.543C409.353 205.763 437.831 152.486 424.932 139.913C398.923 114.569 336.213 141.289 280.617 106.305C263.216 95.3563 231.768 156.701 232.298 209.902Z" fill="url(#paint2_linear_10503_290788)"/>
</g>
<path d="M345.734 274.727C377.04 260.893 450.403 152.185 430.863 137.307C408.168 121.778 382.34 162.151 373.216 193.842C364.093 225.533 365.607 224.012 357.763 247.134C355.047 257.888 347.725 265.019 345.734 274.727Z" fill="url(#paint3_radial_10503_290788)"/>
<path d="M427.747 135.602C423.024 131.144 400.541 132.461 383.057 169.542C365.572 206.623 365.316 224.887 358.96 243.532C355.381 254.308 350.437 264.585 344.248 274.112" stroke="#D8EDFF" stroke-width="0.800095" stroke-linecap="round"/>
<path d="M247.386 87.238C219.218 79.7176 189.438 80.7111 161.813 90.0928C134.188 99.4745 109.958 116.823 92.1867 139.945C74.4156 163.066 63.9017 190.923 61.9746 219.991C60.0474 249.059 66.7937 278.033 81.3602 303.25C95.9266 328.467 117.659 348.794 143.809 361.66C169.96 374.526 199.353 379.354 228.273 375.532C257.193 371.711 284.34 359.412 306.282 340.191C328.223 320.97 343.974 295.69 351.542 267.549C361.69 229.812 356.417 189.615 336.884 155.8C317.351 121.985 285.158 97.3225 247.386 87.238V87.238Z" fill="url(#paint4_radial_10503_290788)"/>
<path opacity="0.647" d="M318.658 334.614C285.2 354.837 280.788 357.725 259.45 363.953C238.113 370.181 228.89 363.874 236.265 357.761C239.689 354.923 243.142 350.028 242.482 347.572C241.823 345.115 238.847 343.983 235.423 345.686C200.396 361.669 171.734 359.222 141.938 348.895C66.16 322.01 63.718 246.138 62.3417 244.884" stroke="#2FB6EF" stroke-width="0.5" stroke-linecap="round"/>
<path d="M214.562 341.862C179.159 341.891 137.818 339.237 137.812 350.375C137.806 361.512 185.015 382.759 220.418 382.73C255.821 382.701 281.938 363.918 281.943 352.785C281.949 341.652 249.965 341.832 214.562 341.862Z" fill="url(#paint5_radial_10503_290788)"/>
<g opacity="0.518">
<path opacity="0.395" d="M339.886 225.019C339.886 225.019 350.593 161.849 310.266 130.929C269.939 100.01 177.688 72.2501 136.907 102.179C96.1268 132.109 54.8348 188.687 68.0915 227.263C81.3481 265.839 125.731 233.283 163.775 246.087C201.82 258.892 219.069 296.373 279.188 300.201C339.306 304.029 339.886 225.019 339.886 225.019Z" fill="url(#paint6_linear_10503_290788)"/>
<path opacity="0.518" d="M337.068 240.63C343.9 220.359 348.501 155.023 299.87 118.225C251.239 81.4264 188.736 73.0035 144.181 96.545C100.074 119.852 56.3684 172.58 67.4603 222.569C67.4217 222.47 67.5987 222.92 67.7681 223.363C85.4105 267.809 131.878 229.024 166.596 245.159C214.258 267.312 222.399 294.94 272.583 297.279C322.768 299.618 330.235 260.893 337.068 240.63Z" fill="url(#paint7_linear_10503_290788)"/>
</g>
<path d="M328.283 159.703C311.516 119.355 204.57 86.7261 153.203 95.8706C98.1707 114.093 65.474 177.299 70.5793 212.851C77.3298 242.754 92.9687 242.968 104.119 243.558C115.27 244.148 133.473 234.801 162.146 241.799C190.819 248.797 200.125 259.41 218.846 271.554C237.567 283.699 262.178 293.329 281.654 290.951C342.876 284.718 345.052 200.048 328.283 159.703Z" fill="url(#paint8_radial_10503_290788)"/>
<path d="M326.591 243.836C331.586 232.732 342.118 195.973 327.356 156.03C306.066 99.719 193.715 70.2267 144.905 99.9492C144.985 99.8917 144.559 100.178 144.141 100.471C97.5764 132.798 68.7855 179.432 83.7127 221.696C98.6399 263.959 130.57 225.477 175.097 241.47C219.624 257.463 220.296 277.723 256.042 282.148C291.787 286.573 318.924 265.824 326.591 243.836Z" fill="url(#paint9_radial_10503_290788)"/>
<path opacity="0.782" d="M279.193 158.588C255.21 152.185 241.121 127.084 247.726 102.524C254.331 77.9633 279.127 63.2441 303.111 69.6474C327.094 76.0506 341.183 101.151 334.578 125.712C327.973 150.272 303.177 164.991 279.193 158.588Z" fill="url(#paint10_radial_10503_290788)"/>
<path opacity="0.873" d="M221.118 99.9213C169.997 89.9818 133.671 113.778 124.328 133.356C115.866 150.804 155.694 172.736 214.242 178.152C264.693 182.823 309.098 178.568 308.946 156.206C308.341 135.341 270.438 109.513 221.118 99.9213Z" fill="url(#paint11_linear_10503_290788)"/>
<g filter="url(#filter3_d_10503_290788)">
<path d="M129.524 257.457C134.283 252.839 165.08 255.351 199.844 276.221C202.287 280.843 185.042 330.594 147.187 311.516C125.968 300.609 124.764 262.079 129.524 257.457Z" fill="url(#paint12_linear_10503_290788)"/>
</g>
<path opacity="0.683" d="M184.535 307.114C176.355 315.027 163.978 319.975 147.421 311.637C139.185 307.49 132.813 298.165 130.57 289.178C133.041 295.651 151.612 318.103 184.535 307.114Z" fill="#8DD6FF"/>
<g filter="url(#filter4_d_10503_290788)">
<path d="M272.706 252.051C268.705 257.602 256.535 243.255 239.741 238.134C222.947 233.013 205.059 238.877 204.55 236.761C204.041 234.646 208.324 233.022 218.942 229.971C229.56 226.92 243.977 227.931 256.628 233.235C269.279 238.538 276.701 246.491 272.706 252.051Z" fill="white"/>
</g>
<g filter="url(#filter5_d_10503_290788)">
<path d="M92.6249 200.619C91.8372 206.755 93.5555 221.489 104.378 224.377C115.2 227.264 138.568 226.005 141.599 224.341C144.631 222.677 147.236 205.335 147.405 193.949C147.574 182.563 145.114 161.504 124.245 161.771C103.376 162.037 93.4126 194.483 92.6249 200.619Z" fill="white"/>
</g>
<g filter="url(#filter6_d_10503_290788)">
<path d="M365.619 268.311C364.29 260.892 353.892 257.228 342.829 266.147C340.256 268.219 316.634 293.45 296.345 313.357C277.528 331.821 257.88 348.912 259.813 353.956C263.739 364.206 320.63 335.333 343.553 315.341C366.476 295.349 366.947 275.731 365.619 268.311Z" fill="url(#paint13_linear_10503_290788)"/>
</g>
<path d="M364.689 268.958C361.521 266.947 353.609 270.698 346.451 279.304C339.294 287.909 301.152 328.545 301.197 333.339C301.242 338.134 329.482 330.067 353.605 310.147C377.727 290.226 369.301 271.888 364.689 268.958Z" fill="url(#paint14_radial_10503_290788)"/>
<path opacity="0.35" d="M364.108 274.357C365.365 281.897 354.381 287.675 345.335 296.693C333.762 308.203 321.442 318.938 308.453 328.829C302.464 333.319 335.586 296.06 345.038 286.663C354.489 277.266 362.5 270.6 364.108 274.357Z" fill="url(#paint15_linear_10503_290788)"/>
</g>
<defs>
<filter id="filter0_d_10503_290788" x="27.829" y="49.4848" width="366.117" height="365.739" filterUnits="userSpaceOnUse" color-interpolation-filters="sRGB">
<feFlood flood-opacity="0" result="BackgroundImageFix"/>
<feColorMatrix in="SourceAlpha" type="matrix" values="0 0 0 0 0 0 0 0 0 0 0 0 0 0 0 0 0 0 127 0" result="hardAlpha"/>
<feOffset dy="3.01272"/>
<feGaussianBlur stdDeviation="18.0763"/>
<feColorMatrix type="matrix" values="0 0 0 0 0.0627451 0 0 0 0 0.596078 0 0 0 0 1 0 0 0 0.282 0"/>
<feBlend mode="normal" in2="BackgroundImageFix" result="effect1_dropShadow_10503_290788"/>
<feBlend mode="normal" in="SourceGraphic" in2="effect1_dropShadow_10503_290788" result="shape"/>
</filter>
<filter id="filter1_d_10503_290788" x="63.6342" y="43.301" width="197.64" height="164.654" filterUnits="userSpaceOnUse" color-interpolation-filters="sRGB">
<feFlood flood-opacity="0" result="BackgroundImageFix"/>
<feColorMatrix in="SourceAlpha" type="matrix" values="0 0 0 0 0 0 0 0 0 0 0 0 0 0 0 0 0 0 127 0" result="hardAlpha"/>
<feOffset dy="3.01272"/>
<feGaussianBlur stdDeviation="10.0424"/>
<feColorMatrix type="matrix" values="0 0 0 0 0.215686 0 0 0 0 0.65098 0 0 0 0 0.968627 0 0 0 0.243 0"/>
<feBlend mode="normal" in2="BackgroundImageFix" result="effect1_dropShadow_10503_290788"/>
<feBlend mode="normal" in="SourceGraphic" in2="effect1_dropShadow_10503_290788" result="shape"/>
</filter>
<filter id="filter2_d_10503_290788" x="212.22" y="87.9636" width="235.966" height="255.759" filterUnits="userSpaceOnUse" color-interpolation-filters="sRGB">
<feFlood flood-opacity="0" result="BackgroundImageFix"/>
<feColorMatrix in="SourceAlpha" type="matrix" values="0 0 0 0 0 0 0 0 0 0 0 0 0 0 0 0 0 0 127 0" result="hardAlpha"/>
<feOffset dy="3.01069"/>
<feGaussianBlur stdDeviation="10.0356"/>
<feColorMatrix type="matrix" values="0 0 0 0 0.215686 0 0 0 0 0.65098 0 0 0 0 0.968627 0 0 0 0.243 0"/>
<feBlend mode="normal" in2="BackgroundImageFix" result="effect1_dropShadow_10503_290788"/>
<feBlend mode="normal" in="SourceGraphic" in2="effect1_dropShadow_10503_290788" result="shape"/>
</filter>
<filter id="filter3_d_10503_290788" x="125.22" y="253.488" width="76.8597" height="64.3749" filterUnits="userSpaceOnUse" color-interpolation-filters="sRGB">
<feFlood flood-opacity="0" result="BackgroundImageFix"/>
<feColorMatrix in="SourceAlpha" type="matrix" values="0 0 0 0 0 0 0 0 0 0 0 0 0 0 0 0 0 0 127 0" result="hardAlpha"/>
<feOffset/>
<feGaussianBlur stdDeviation="1.00424"/>
<feColorMatrix type="matrix" values="0 0 0 0 0.00784314 0 0 0 0 0.654902 0 0 0 0 1 0 0 0 0.776 0"/>
<feBlend mode="normal" in2="BackgroundImageFix" result="effect1_dropShadow_10503_290788"/>
<feBlend mode="normal" in="SourceGraphic" in2="effect1_dropShadow_10503_290788" result="shape"/>
</filter>
<filter id="filter4_d_10503_290788" x="200.493" y="224.247" width="77.314" height="33.0762" filterUnits="userSpaceOnUse" color-interpolation-filters="sRGB">
<feFlood flood-opacity="0" result="BackgroundImageFix"/>
<feColorMatrix in="SourceAlpha" type="matrix" values="0 0 0 0 0 0 0 0 0 0 0 0 0 0 0 0 0 0 127 0" result="hardAlpha"/>
<feOffset/>
<feGaussianBlur stdDeviation="2.00848"/>
<feColorMatrix type="matrix" values="0 0 0 0 1 0 0 0 0 1 0 0 0 0 1 0 0 0 1 0"/>
<feBlend mode="normal" in2="BackgroundImageFix" result="effect1_dropShadow_10503_290788"/>
<feBlend mode="normal" in="SourceGraphic" in2="effect1_dropShadow_10503_290788" result="shape"/>
</filter>
<filter id="filter5_d_10503_290788" x="86.4338" y="155.743" width="67.004" height="76.3817" filterUnits="userSpaceOnUse" color-interpolation-filters="sRGB">
<feFlood flood-opacity="0" result="BackgroundImageFix"/>
<feColorMatrix in="SourceAlpha" type="matrix" values="0 0 0 0 0 0 0 0 0 0 0 0 0 0 0 0 0 0 127 0" result="hardAlpha"/>
<feOffset/>
<feGaussianBlur stdDeviation="3.01272"/>
<feColorMatrix type="matrix" values="0 0 0 0 1 0 0 0 0 1 0 0 0 0 1 0 0 0 1 0"/>
<feBlend mode="normal" in2="BackgroundImageFix" result="effect1_dropShadow_10503_290788"/>
<feBlend mode="normal" in="SourceGraphic" in2="effect1_dropShadow_10503_290788" result="shape"/>
</filter>
<filter id="filter6_d_10503_290788" x="255.664" y="257.9" width="114.394" height="103.215" filterUnits="userSpaceOnUse" color-interpolation-filters="sRGB">
<feFlood flood-opacity="0" result="BackgroundImageFix"/>
<feColorMatrix in="SourceAlpha" type="matrix" values="0 0 0 0 0 0 0 0 0 0 0 0 0 0 0 0 0 0 127 0" result="hardAlpha"/>
<feOffset dy="1.00424"/>
<feGaussianBlur stdDeviation="2.00848"/>
<feColorMatrix type="matrix" values="0 0 0 0 0.105882 0 0 0 0 0.666667 0 0 0 0 0.968627 0 0 0 0.627 0"/>
<feBlend mode="normal" in2="BackgroundImageFix" result="effect1_dropShadow_10503_290788"/>
<feBlend mode="normal" in="SourceGraphic" in2="effect1_dropShadow_10503_290788" result="shape"/>
</filter>
<radialGradient id="paint0_radial_10503_290788" cx="0" cy="0" r="1" gradientUnits="userSpaceOnUse" gradientTransform="translate(210.888 229.341) rotate(-165.056) scale(146.808 146.742)">
<stop stop-color="white"/>
<stop offset="0.695" stop-color="white"/>
<stop offset="1" stop-color="#F5F5F5"/>
</radialGradient>
<linearGradient id="paint1_linear_10503_290788" x1="108.172" y1="132.58" x2="295.022" y2="23.6776" gradientUnits="userSpaceOnUse">
<stop stop-color="#0B5B90"/>
<stop offset="0.277" stop-color="#65C4FF"/>
<stop offset="0.674" stop-color="white"/>
<stop offset="1"/>
</linearGradient>
<linearGradient id="paint2_linear_10503_290788" x1="287.683" y1="250.992" x2="402.848" y2="131.214" gradientUnits="userSpaceOnUse">
<stop stop-color="#0B5B90"/>
<stop offset="0.269" stop-color="#65C4FF"/>
<stop offset="0.755" stop-color="white"/>
<stop offset="1" stop-color="white"/>
</linearGradient>
<radialGradient id="paint3_radial_10503_290788" cx="0" cy="0" r="1" gradientUnits="userSpaceOnUse" gradientTransform="translate(368.97 218.489) rotate(16.1965) scale(56.1468 125.186)">
<stop stop-color="#0166BA"/>
<stop offset="0.3" stop-color="#2795F4"/>
<stop offset="1" stop-color="#93D5FF"/>
</radialGradient>
<radialGradient id="paint4_radial_10503_290788" cx="0" cy="0" r="1" gradientUnits="userSpaceOnUse" gradientTransform="translate(209.122 229.525) rotate(-165.052) scale(147.408 147.342)">
<stop stop-color="white"/>
<stop offset="0.665" stop-color="white"/>
<stop offset="1" stop-color="#BCE7FF"/>
</radialGradient>
<radialGradient id="paint5_radial_10503_290788" cx="0" cy="0" r="1" gradientUnits="userSpaceOnUse" gradientTransform="translate(209.276 358.775) rotate(175.665) scale(59.7716 17.0654)">
<stop stop-color="white"/>
<stop offset="0.685" stop-color="white" stop-opacity="0"/>
<stop offset="1" stop-color="white" stop-opacity="0"/>
</radialGradient>
<linearGradient id="paint6_linear_10503_290788" x1="235.937" y1="96.6632" x2="187.421" y2="278.418" gradientUnits="userSpaceOnUse">
<stop stop-color="#9DD2FF"/>
<stop offset="1" stop-color="#00A8FF"/>
</linearGradient>
<linearGradient id="paint7_linear_10503_290788" x1="236.503" y1="87.7851" x2="186.021" y2="276.905" gradientUnits="userSpaceOnUse">
<stop stop-color="#F2F9FF"/>
<stop offset="0.155" stop-color="#71C1FF"/>
<stop offset="0.649" stop-color="#6CC6FF"/>
<stop offset="1" stop-color="#D8F1FF"/>
</linearGradient>
<radialGradient id="paint8_radial_10503_290788" cx="0" cy="0" r="1" gradientUnits="userSpaceOnUse" gradientTransform="translate(234.017 185.904) rotate(175.927) scale(175.847 118.443)">
<stop stop-color="#21BBF4"/>
<stop offset="0.837" stop-color="#58B2FF"/>
<stop offset="1" stop-color="#0065BC"/>
</radialGradient>
<radialGradient id="paint9_radial_10503_290788" cx="0" cy="0" r="1" gradientUnits="userSpaceOnUse" gradientTransform="translate(191.257 224.13) rotate(-168.461) scale(134.233 97.568)">
<stop stop-color="#B5EBFF"/>
<stop offset="0.673" stop-color="#009DFF"/>
<stop offset="0.906" stop-color="#11649D"/>
<stop offset="1" stop-color="#034B81"/>
</radialGradient>
<radialGradient id="paint10_radial_10503_290788" cx="0" cy="0" r="1" gradientUnits="userSpaceOnUse" gradientTransform="translate(296.566 121.835) rotate(-173.667) scale(45.4982 46.5907)">
<stop stop-color="white"/>
<stop offset="0.685" stop-color="white" stop-opacity="0"/>
<stop offset="1" stop-color="white" stop-opacity="0"/>
</radialGradient>
<linearGradient id="paint11_linear_10503_290788" x1="220.311" y1="99.1215" x2="213.483" y2="178.095" gradientUnits="userSpaceOnUse">
<stop stop-color="#D5F0FF" stop-opacity="0.867"/>
<stop offset="1" stop-color="#739EFF" stop-opacity="0"/>
</linearGradient>
<linearGradient id="paint12_linear_10503_290788" x1="153.052" y1="310.942" x2="166.485" y2="260.598" gradientUnits="userSpaceOnUse">
<stop stop-color="#33C0FF"/>
<stop offset="0.695" stop-color="#0D69AF"/>
<stop offset="1" stop-color="#004C85"/>
</linearGradient>
<linearGradient id="paint13_linear_10503_290788" x1="338.892" y1="290.495" x2="267.719" y2="285.487" gradientUnits="userSpaceOnUse">
<stop stop-color="#F5FCFF"/>
<stop offset="1" stop-color="#CCEFFF"/>
</linearGradient>
<radialGradient id="paint14_radial_10503_290788" cx="0" cy="0" r="1" gradientUnits="userSpaceOnUse" gradientTransform="translate(352.095 298.153) rotate(43.5017) scale(10.4529 25.9513)">
<stop stop-color="#72D9FF"/>
<stop offset="0.587" stop-color="#009DFF"/>
<stop offset="0.852" stop-color="#0079DC"/>
<stop offset="1" stop-color="#006CC9"/>
</radialGradient>
<linearGradient id="paint15_linear_10503_290788" x1="365.878" y1="276.58" x2="352.226" y2="266.22" gradientUnits="userSpaceOnUse">
<stop stop-color="white"/>
<stop offset="0.266" stop-color="#F8FCFF"/>
<stop offset="1" stop-color="#2FA4FF"/>
</linearGradient>
<clipPath id="clip0_10503_290788">
<rect width="438" height="416" fill="white" transform="matrix(-1 0 0 1 438 0)"/>
</clipPath>
</defs>
</svg>
